%TF.GenerationSoftware,KiCad,Pcbnew,9.0.6*%
%TF.CreationDate,2025-11-17T11:06:36+01:00*%
%TF.ProjectId,Plantomatic2000,506c616e-746f-46d6-9174-696332303030,v0.2*%
%TF.SameCoordinates,PX5e82560PY8847b20*%
%TF.FileFunction,Legend,Top*%
%TF.FilePolarity,Positive*%
%FSLAX46Y46*%
G04 Gerber Fmt 4.6, Leading zero omitted, Abs format (unit mm)*
G04 Created by KiCad (PCBNEW 9.0.6) date 2025-11-17 11:06:36*
%MOMM*%
%LPD*%
G01*
G04 APERTURE LIST*
%ADD10C,0.150000*%
%ADD11C,0.120000*%
%ADD12C,0.100000*%
%ADD13C,0.000000*%
%ADD14C,0.250000*%
%ADD15C,0.152400*%
G04 APERTURE END LIST*
D10*
X63160588Y39172338D02*
X63065350Y39219957D01*
X63065350Y39219957D02*
X62922493Y39219957D01*
X62922493Y39219957D02*
X62779636Y39172338D01*
X62779636Y39172338D02*
X62684398Y39077100D01*
X62684398Y39077100D02*
X62636779Y38981862D01*
X62636779Y38981862D02*
X62589160Y38791386D01*
X62589160Y38791386D02*
X62589160Y38648529D01*
X62589160Y38648529D02*
X62636779Y38458053D01*
X62636779Y38458053D02*
X62684398Y38362815D01*
X62684398Y38362815D02*
X62779636Y38267576D01*
X62779636Y38267576D02*
X62922493Y38219957D01*
X62922493Y38219957D02*
X63017731Y38219957D01*
X63017731Y38219957D02*
X63160588Y38267576D01*
X63160588Y38267576D02*
X63208207Y38315196D01*
X63208207Y38315196D02*
X63208207Y38648529D01*
X63208207Y38648529D02*
X63017731Y38648529D01*
X63636779Y38219957D02*
X63636779Y39219957D01*
X63636779Y39219957D02*
X64208207Y38219957D01*
X64208207Y38219957D02*
X64208207Y39219957D01*
X64684398Y38219957D02*
X64684398Y39219957D01*
X64684398Y39219957D02*
X64922493Y39219957D01*
X64922493Y39219957D02*
X65065350Y39172338D01*
X65065350Y39172338D02*
X65160588Y39077100D01*
X65160588Y39077100D02*
X65208207Y38981862D01*
X65208207Y38981862D02*
X65255826Y38791386D01*
X65255826Y38791386D02*
X65255826Y38648529D01*
X65255826Y38648529D02*
X65208207Y38458053D01*
X65208207Y38458053D02*
X65160588Y38362815D01*
X65160588Y38362815D02*
X65065350Y38267576D01*
X65065350Y38267576D02*
X64922493Y38219957D01*
X64922493Y38219957D02*
X64684398Y38219957D01*
X63160588Y37562394D02*
X63065350Y37610013D01*
X63065350Y37610013D02*
X62922493Y37610013D01*
X62922493Y37610013D02*
X62779636Y37562394D01*
X62779636Y37562394D02*
X62684398Y37467156D01*
X62684398Y37467156D02*
X62636779Y37371918D01*
X62636779Y37371918D02*
X62589160Y37181442D01*
X62589160Y37181442D02*
X62589160Y37038585D01*
X62589160Y37038585D02*
X62636779Y36848109D01*
X62636779Y36848109D02*
X62684398Y36752871D01*
X62684398Y36752871D02*
X62779636Y36657632D01*
X62779636Y36657632D02*
X62922493Y36610013D01*
X62922493Y36610013D02*
X63017731Y36610013D01*
X63017731Y36610013D02*
X63160588Y36657632D01*
X63160588Y36657632D02*
X63208207Y36705252D01*
X63208207Y36705252D02*
X63208207Y37038585D01*
X63208207Y37038585D02*
X63017731Y37038585D01*
X63636779Y36610013D02*
X63636779Y37610013D01*
X63636779Y37610013D02*
X64208207Y36610013D01*
X64208207Y36610013D02*
X64208207Y37610013D01*
X64684398Y36610013D02*
X64684398Y37610013D01*
X64684398Y37610013D02*
X64922493Y37610013D01*
X64922493Y37610013D02*
X65065350Y37562394D01*
X65065350Y37562394D02*
X65160588Y37467156D01*
X65160588Y37467156D02*
X65208207Y37371918D01*
X65208207Y37371918D02*
X65255826Y37181442D01*
X65255826Y37181442D02*
X65255826Y37038585D01*
X65255826Y37038585D02*
X65208207Y36848109D01*
X65208207Y36848109D02*
X65160588Y36752871D01*
X65160588Y36752871D02*
X65065350Y36657632D01*
X65065350Y36657632D02*
X64922493Y36610013D01*
X64922493Y36610013D02*
X64684398Y36610013D01*
X63160588Y35952450D02*
X63065350Y36000069D01*
X63065350Y36000069D02*
X62922493Y36000069D01*
X62922493Y36000069D02*
X62779636Y35952450D01*
X62779636Y35952450D02*
X62684398Y35857212D01*
X62684398Y35857212D02*
X62636779Y35761974D01*
X62636779Y35761974D02*
X62589160Y35571498D01*
X62589160Y35571498D02*
X62589160Y35428641D01*
X62589160Y35428641D02*
X62636779Y35238165D01*
X62636779Y35238165D02*
X62684398Y35142927D01*
X62684398Y35142927D02*
X62779636Y35047688D01*
X62779636Y35047688D02*
X62922493Y35000069D01*
X62922493Y35000069D02*
X63017731Y35000069D01*
X63017731Y35000069D02*
X63160588Y35047688D01*
X63160588Y35047688D02*
X63208207Y35095308D01*
X63208207Y35095308D02*
X63208207Y35428641D01*
X63208207Y35428641D02*
X63017731Y35428641D01*
X63636779Y35000069D02*
X63636779Y36000069D01*
X63636779Y36000069D02*
X64208207Y35000069D01*
X64208207Y35000069D02*
X64208207Y36000069D01*
X64684398Y35000069D02*
X64684398Y36000069D01*
X64684398Y36000069D02*
X64922493Y36000069D01*
X64922493Y36000069D02*
X65065350Y35952450D01*
X65065350Y35952450D02*
X65160588Y35857212D01*
X65160588Y35857212D02*
X65208207Y35761974D01*
X65208207Y35761974D02*
X65255826Y35571498D01*
X65255826Y35571498D02*
X65255826Y35428641D01*
X65255826Y35428641D02*
X65208207Y35238165D01*
X65208207Y35238165D02*
X65160588Y35142927D01*
X65160588Y35142927D02*
X65065350Y35047688D01*
X65065350Y35047688D02*
X64922493Y35000069D01*
X64922493Y35000069D02*
X64684398Y35000069D01*
X63160588Y34342506D02*
X63065350Y34390125D01*
X63065350Y34390125D02*
X62922493Y34390125D01*
X62922493Y34390125D02*
X62779636Y34342506D01*
X62779636Y34342506D02*
X62684398Y34247268D01*
X62684398Y34247268D02*
X62636779Y34152030D01*
X62636779Y34152030D02*
X62589160Y33961554D01*
X62589160Y33961554D02*
X62589160Y33818697D01*
X62589160Y33818697D02*
X62636779Y33628221D01*
X62636779Y33628221D02*
X62684398Y33532983D01*
X62684398Y33532983D02*
X62779636Y33437744D01*
X62779636Y33437744D02*
X62922493Y33390125D01*
X62922493Y33390125D02*
X63017731Y33390125D01*
X63017731Y33390125D02*
X63160588Y33437744D01*
X63160588Y33437744D02*
X63208207Y33485364D01*
X63208207Y33485364D02*
X63208207Y33818697D01*
X63208207Y33818697D02*
X63017731Y33818697D01*
X63636779Y33390125D02*
X63636779Y34390125D01*
X63636779Y34390125D02*
X64208207Y33390125D01*
X64208207Y33390125D02*
X64208207Y34390125D01*
X64684398Y33390125D02*
X64684398Y34390125D01*
X64684398Y34390125D02*
X64922493Y34390125D01*
X64922493Y34390125D02*
X65065350Y34342506D01*
X65065350Y34342506D02*
X65160588Y34247268D01*
X65160588Y34247268D02*
X65208207Y34152030D01*
X65208207Y34152030D02*
X65255826Y33961554D01*
X65255826Y33961554D02*
X65255826Y33818697D01*
X65255826Y33818697D02*
X65208207Y33628221D01*
X65208207Y33628221D02*
X65160588Y33532983D01*
X65160588Y33532983D02*
X65065350Y33437744D01*
X65065350Y33437744D02*
X64922493Y33390125D01*
X64922493Y33390125D02*
X64684398Y33390125D01*
X62636779Y32161134D02*
X63398684Y32161134D01*
X63017731Y31780181D02*
X63017731Y32542086D01*
X63732017Y32780181D02*
X64065350Y31780181D01*
X64065350Y31780181D02*
X64398683Y32780181D01*
X65065350Y32303991D02*
X65208207Y32256372D01*
X65208207Y32256372D02*
X65255826Y32208753D01*
X65255826Y32208753D02*
X65303445Y32113515D01*
X65303445Y32113515D02*
X65303445Y31970658D01*
X65303445Y31970658D02*
X65255826Y31875420D01*
X65255826Y31875420D02*
X65208207Y31827800D01*
X65208207Y31827800D02*
X65112969Y31780181D01*
X65112969Y31780181D02*
X64732017Y31780181D01*
X64732017Y31780181D02*
X64732017Y32780181D01*
X64732017Y32780181D02*
X65065350Y32780181D01*
X65065350Y32780181D02*
X65160588Y32732562D01*
X65160588Y32732562D02*
X65208207Y32684943D01*
X65208207Y32684943D02*
X65255826Y32589705D01*
X65255826Y32589705D02*
X65255826Y32494467D01*
X65255826Y32494467D02*
X65208207Y32399229D01*
X65208207Y32399229D02*
X65160588Y32351610D01*
X65160588Y32351610D02*
X65065350Y32303991D01*
X65065350Y32303991D02*
X64732017Y32303991D01*
X65732017Y32780181D02*
X65732017Y31970658D01*
X65732017Y31970658D02*
X65779636Y31875420D01*
X65779636Y31875420D02*
X65827255Y31827800D01*
X65827255Y31827800D02*
X65922493Y31780181D01*
X65922493Y31780181D02*
X66112969Y31780181D01*
X66112969Y31780181D02*
X66208207Y31827800D01*
X66208207Y31827800D02*
X66255826Y31875420D01*
X66255826Y31875420D02*
X66303445Y31970658D01*
X66303445Y31970658D02*
X66303445Y32780181D01*
X66732017Y31827800D02*
X66874874Y31780181D01*
X66874874Y31780181D02*
X67112969Y31780181D01*
X67112969Y31780181D02*
X67208207Y31827800D01*
X67208207Y31827800D02*
X67255826Y31875420D01*
X67255826Y31875420D02*
X67303445Y31970658D01*
X67303445Y31970658D02*
X67303445Y32065896D01*
X67303445Y32065896D02*
X67255826Y32161134D01*
X67255826Y32161134D02*
X67208207Y32208753D01*
X67208207Y32208753D02*
X67112969Y32256372D01*
X67112969Y32256372D02*
X66922493Y32303991D01*
X66922493Y32303991D02*
X66827255Y32351610D01*
X66827255Y32351610D02*
X66779636Y32399229D01*
X66779636Y32399229D02*
X66732017Y32494467D01*
X66732017Y32494467D02*
X66732017Y32589705D01*
X66732017Y32589705D02*
X66779636Y32684943D01*
X66779636Y32684943D02*
X66827255Y32732562D01*
X66827255Y32732562D02*
X66922493Y32780181D01*
X66922493Y32780181D02*
X67160588Y32780181D01*
X67160588Y32780181D02*
X67303445Y32732562D01*
X36470112Y37253991D02*
X36612969Y37206372D01*
X36612969Y37206372D02*
X36660588Y37158753D01*
X36660588Y37158753D02*
X36708207Y37063515D01*
X36708207Y37063515D02*
X36708207Y36920658D01*
X36708207Y36920658D02*
X36660588Y36825420D01*
X36660588Y36825420D02*
X36612969Y36777800D01*
X36612969Y36777800D02*
X36517731Y36730181D01*
X36517731Y36730181D02*
X36136779Y36730181D01*
X36136779Y36730181D02*
X36136779Y37730181D01*
X36136779Y37730181D02*
X36470112Y37730181D01*
X36470112Y37730181D02*
X36565350Y37682562D01*
X36565350Y37682562D02*
X36612969Y37634943D01*
X36612969Y37634943D02*
X36660588Y37539705D01*
X36660588Y37539705D02*
X36660588Y37444467D01*
X36660588Y37444467D02*
X36612969Y37349229D01*
X36612969Y37349229D02*
X36565350Y37301610D01*
X36565350Y37301610D02*
X36470112Y37253991D01*
X36470112Y37253991D02*
X36136779Y37253991D01*
X37327255Y37730181D02*
X37517731Y37730181D01*
X37517731Y37730181D02*
X37612969Y37682562D01*
X37612969Y37682562D02*
X37708207Y37587324D01*
X37708207Y37587324D02*
X37755826Y37396848D01*
X37755826Y37396848D02*
X37755826Y37063515D01*
X37755826Y37063515D02*
X37708207Y36873039D01*
X37708207Y36873039D02*
X37612969Y36777800D01*
X37612969Y36777800D02*
X37517731Y36730181D01*
X37517731Y36730181D02*
X37327255Y36730181D01*
X37327255Y36730181D02*
X37232017Y36777800D01*
X37232017Y36777800D02*
X37136779Y36873039D01*
X37136779Y36873039D02*
X37089160Y37063515D01*
X37089160Y37063515D02*
X37089160Y37396848D01*
X37089160Y37396848D02*
X37136779Y37587324D01*
X37136779Y37587324D02*
X37232017Y37682562D01*
X37232017Y37682562D02*
X37327255Y37730181D01*
X38374874Y37730181D02*
X38565350Y37730181D01*
X38565350Y37730181D02*
X38660588Y37682562D01*
X38660588Y37682562D02*
X38755826Y37587324D01*
X38755826Y37587324D02*
X38803445Y37396848D01*
X38803445Y37396848D02*
X38803445Y37063515D01*
X38803445Y37063515D02*
X38755826Y36873039D01*
X38755826Y36873039D02*
X38660588Y36777800D01*
X38660588Y36777800D02*
X38565350Y36730181D01*
X38565350Y36730181D02*
X38374874Y36730181D01*
X38374874Y36730181D02*
X38279636Y36777800D01*
X38279636Y36777800D02*
X38184398Y36873039D01*
X38184398Y36873039D02*
X38136779Y37063515D01*
X38136779Y37063515D02*
X38136779Y37396848D01*
X38136779Y37396848D02*
X38184398Y37587324D01*
X38184398Y37587324D02*
X38279636Y37682562D01*
X38279636Y37682562D02*
X38374874Y37730181D01*
X39089160Y37730181D02*
X39660588Y37730181D01*
X39374874Y36730181D02*
X39374874Y37730181D01*
X25008207Y36730181D02*
X24674874Y37206372D01*
X24436779Y36730181D02*
X24436779Y37730181D01*
X24436779Y37730181D02*
X24817731Y37730181D01*
X24817731Y37730181D02*
X24912969Y37682562D01*
X24912969Y37682562D02*
X24960588Y37634943D01*
X24960588Y37634943D02*
X25008207Y37539705D01*
X25008207Y37539705D02*
X25008207Y37396848D01*
X25008207Y37396848D02*
X24960588Y37301610D01*
X24960588Y37301610D02*
X24912969Y37253991D01*
X24912969Y37253991D02*
X24817731Y37206372D01*
X24817731Y37206372D02*
X24436779Y37206372D01*
X25436779Y37253991D02*
X25770112Y37253991D01*
X25912969Y36730181D02*
X25436779Y36730181D01*
X25436779Y36730181D02*
X25436779Y37730181D01*
X25436779Y37730181D02*
X25912969Y37730181D01*
X26293922Y36777800D02*
X26436779Y36730181D01*
X26436779Y36730181D02*
X26674874Y36730181D01*
X26674874Y36730181D02*
X26770112Y36777800D01*
X26770112Y36777800D02*
X26817731Y36825420D01*
X26817731Y36825420D02*
X26865350Y36920658D01*
X26865350Y36920658D02*
X26865350Y37015896D01*
X26865350Y37015896D02*
X26817731Y37111134D01*
X26817731Y37111134D02*
X26770112Y37158753D01*
X26770112Y37158753D02*
X26674874Y37206372D01*
X26674874Y37206372D02*
X26484398Y37253991D01*
X26484398Y37253991D02*
X26389160Y37301610D01*
X26389160Y37301610D02*
X26341541Y37349229D01*
X26341541Y37349229D02*
X26293922Y37444467D01*
X26293922Y37444467D02*
X26293922Y37539705D01*
X26293922Y37539705D02*
X26341541Y37634943D01*
X26341541Y37634943D02*
X26389160Y37682562D01*
X26389160Y37682562D02*
X26484398Y37730181D01*
X26484398Y37730181D02*
X26722493Y37730181D01*
X26722493Y37730181D02*
X26865350Y37682562D01*
X27293922Y37253991D02*
X27627255Y37253991D01*
X27770112Y36730181D02*
X27293922Y36730181D01*
X27293922Y36730181D02*
X27293922Y37730181D01*
X27293922Y37730181D02*
X27770112Y37730181D01*
X28055827Y37730181D02*
X28627255Y37730181D01*
X28341541Y36730181D02*
X28341541Y37730181D01*
X52136779Y38269957D02*
X52136779Y39269957D01*
X52136779Y39269957D02*
X52708207Y38269957D01*
X52708207Y38269957D02*
X52708207Y39269957D01*
X53898683Y39317576D02*
X53041541Y38031862D01*
X54803445Y38365196D02*
X54755826Y38317576D01*
X54755826Y38317576D02*
X54612969Y38269957D01*
X54612969Y38269957D02*
X54517731Y38269957D01*
X54517731Y38269957D02*
X54374874Y38317576D01*
X54374874Y38317576D02*
X54279636Y38412815D01*
X54279636Y38412815D02*
X54232017Y38508053D01*
X54232017Y38508053D02*
X54184398Y38698529D01*
X54184398Y38698529D02*
X54184398Y38841386D01*
X54184398Y38841386D02*
X54232017Y39031862D01*
X54232017Y39031862D02*
X54279636Y39127100D01*
X54279636Y39127100D02*
X54374874Y39222338D01*
X54374874Y39222338D02*
X54517731Y39269957D01*
X54517731Y39269957D02*
X54612969Y39269957D01*
X54612969Y39269957D02*
X54755826Y39222338D01*
X54755826Y39222338D02*
X54803445Y39174719D01*
X51993922Y37660013D02*
X52565350Y37660013D01*
X52279636Y36660013D02*
X52279636Y37660013D01*
X52898684Y36660013D02*
X52898684Y37660013D01*
X52898684Y37660013D02*
X53136779Y37660013D01*
X53136779Y37660013D02*
X53279636Y37612394D01*
X53279636Y37612394D02*
X53374874Y37517156D01*
X53374874Y37517156D02*
X53422493Y37421918D01*
X53422493Y37421918D02*
X53470112Y37231442D01*
X53470112Y37231442D02*
X53470112Y37088585D01*
X53470112Y37088585D02*
X53422493Y36898109D01*
X53422493Y36898109D02*
X53374874Y36802871D01*
X53374874Y36802871D02*
X53279636Y36707632D01*
X53279636Y36707632D02*
X53136779Y36660013D01*
X53136779Y36660013D02*
X52898684Y36660013D01*
X53898684Y36660013D02*
X53898684Y37660013D01*
X51993922Y36050069D02*
X52565350Y36050069D01*
X52279636Y35050069D02*
X52279636Y36050069D01*
X52898684Y35050069D02*
X52898684Y36050069D01*
X52898684Y36050069D02*
X53136779Y36050069D01*
X53136779Y36050069D02*
X53279636Y36002450D01*
X53279636Y36002450D02*
X53374874Y35907212D01*
X53374874Y35907212D02*
X53422493Y35811974D01*
X53422493Y35811974D02*
X53470112Y35621498D01*
X53470112Y35621498D02*
X53470112Y35478641D01*
X53470112Y35478641D02*
X53422493Y35288165D01*
X53422493Y35288165D02*
X53374874Y35192927D01*
X53374874Y35192927D02*
X53279636Y35097688D01*
X53279636Y35097688D02*
X53136779Y35050069D01*
X53136779Y35050069D02*
X52898684Y35050069D01*
X54089160Y36050069D02*
X54279636Y36050069D01*
X54279636Y36050069D02*
X54374874Y36002450D01*
X54374874Y36002450D02*
X54470112Y35907212D01*
X54470112Y35907212D02*
X54517731Y35716736D01*
X54517731Y35716736D02*
X54517731Y35383403D01*
X54517731Y35383403D02*
X54470112Y35192927D01*
X54470112Y35192927D02*
X54374874Y35097688D01*
X54374874Y35097688D02*
X54279636Y35050069D01*
X54279636Y35050069D02*
X54089160Y35050069D01*
X54089160Y35050069D02*
X53993922Y35097688D01*
X53993922Y35097688D02*
X53898684Y35192927D01*
X53898684Y35192927D02*
X53851065Y35383403D01*
X53851065Y35383403D02*
X53851065Y35716736D01*
X53851065Y35716736D02*
X53898684Y35907212D01*
X53898684Y35907212D02*
X53993922Y36002450D01*
X53993922Y36002450D02*
X54089160Y36050069D01*
X51993922Y34440125D02*
X52565350Y34440125D01*
X52279636Y33440125D02*
X52279636Y34440125D01*
X53470112Y33535364D02*
X53422493Y33487744D01*
X53422493Y33487744D02*
X53279636Y33440125D01*
X53279636Y33440125D02*
X53184398Y33440125D01*
X53184398Y33440125D02*
X53041541Y33487744D01*
X53041541Y33487744D02*
X52946303Y33582983D01*
X52946303Y33582983D02*
X52898684Y33678221D01*
X52898684Y33678221D02*
X52851065Y33868697D01*
X52851065Y33868697D02*
X52851065Y34011554D01*
X52851065Y34011554D02*
X52898684Y34202030D01*
X52898684Y34202030D02*
X52946303Y34297268D01*
X52946303Y34297268D02*
X53041541Y34392506D01*
X53041541Y34392506D02*
X53184398Y34440125D01*
X53184398Y34440125D02*
X53279636Y34440125D01*
X53279636Y34440125D02*
X53422493Y34392506D01*
X53422493Y34392506D02*
X53470112Y34344887D01*
X53898684Y33440125D02*
X53898684Y34440125D01*
X54470112Y33440125D02*
X54041541Y34011554D01*
X54470112Y34440125D02*
X53898684Y33868697D01*
X51993922Y32830181D02*
X52565350Y32830181D01*
X52279636Y31830181D02*
X52279636Y32830181D01*
X52898684Y31830181D02*
X52898684Y32830181D01*
X52898684Y32830181D02*
X53232017Y32115896D01*
X53232017Y32115896D02*
X53565350Y32830181D01*
X53565350Y32830181D02*
X53565350Y31830181D01*
X53993922Y31877800D02*
X54136779Y31830181D01*
X54136779Y31830181D02*
X54374874Y31830181D01*
X54374874Y31830181D02*
X54470112Y31877800D01*
X54470112Y31877800D02*
X54517731Y31925420D01*
X54517731Y31925420D02*
X54565350Y32020658D01*
X54565350Y32020658D02*
X54565350Y32115896D01*
X54565350Y32115896D02*
X54517731Y32211134D01*
X54517731Y32211134D02*
X54470112Y32258753D01*
X54470112Y32258753D02*
X54374874Y32306372D01*
X54374874Y32306372D02*
X54184398Y32353991D01*
X54184398Y32353991D02*
X54089160Y32401610D01*
X54089160Y32401610D02*
X54041541Y32449229D01*
X54041541Y32449229D02*
X53993922Y32544467D01*
X53993922Y32544467D02*
X53993922Y32639705D01*
X53993922Y32639705D02*
X54041541Y32734943D01*
X54041541Y32734943D02*
X54089160Y32782562D01*
X54089160Y32782562D02*
X54184398Y32830181D01*
X54184398Y32830181D02*
X54422493Y32830181D01*
X54422493Y32830181D02*
X54565350Y32782562D01*
X103492969Y56244658D02*
X103721541Y56244658D01*
X103721541Y56244658D02*
X103835826Y56187515D01*
X103835826Y56187515D02*
X103950112Y56073229D01*
X103950112Y56073229D02*
X104007255Y55844658D01*
X104007255Y55844658D02*
X104007255Y55444658D01*
X104007255Y55444658D02*
X103950112Y55216086D01*
X103950112Y55216086D02*
X103835826Y55101800D01*
X103835826Y55101800D02*
X103721541Y55044658D01*
X103721541Y55044658D02*
X103492969Y55044658D01*
X103492969Y55044658D02*
X103378684Y55101800D01*
X103378684Y55101800D02*
X103264398Y55216086D01*
X103264398Y55216086D02*
X103207255Y55444658D01*
X103207255Y55444658D02*
X103207255Y55844658D01*
X103207255Y55844658D02*
X103264398Y56073229D01*
X103264398Y56073229D02*
X103378684Y56187515D01*
X103378684Y56187515D02*
X103492969Y56244658D01*
X104521541Y55044658D02*
X104521541Y56244658D01*
X104521541Y56244658D02*
X105207255Y55044658D01*
X105207255Y55044658D02*
X105207255Y56244658D01*
X107264398Y55044658D02*
X106692970Y55044658D01*
X106692970Y55044658D02*
X106692970Y56244658D01*
X107664399Y55673229D02*
X108064399Y55673229D01*
X108235827Y55044658D02*
X107664399Y55044658D01*
X107664399Y55044658D02*
X107664399Y56244658D01*
X107664399Y56244658D02*
X108235827Y56244658D01*
X108750113Y55044658D02*
X108750113Y56244658D01*
X108750113Y56244658D02*
X109035827Y56244658D01*
X109035827Y56244658D02*
X109207256Y56187515D01*
X109207256Y56187515D02*
X109321541Y56073229D01*
X109321541Y56073229D02*
X109378684Y55958943D01*
X109378684Y55958943D02*
X109435827Y55730372D01*
X109435827Y55730372D02*
X109435827Y55558943D01*
X109435827Y55558943D02*
X109378684Y55330372D01*
X109378684Y55330372D02*
X109321541Y55216086D01*
X109321541Y55216086D02*
X109207256Y55101800D01*
X109207256Y55101800D02*
X109035827Y55044658D01*
X109035827Y55044658D02*
X108750113Y55044658D01*
X46767857Y61226134D02*
X47529762Y61226134D01*
X47148809Y60845181D02*
X47148809Y61607086D01*
X47910714Y61845181D02*
X48529761Y61845181D01*
X48529761Y61845181D02*
X48196428Y61464229D01*
X48196428Y61464229D02*
X48339285Y61464229D01*
X48339285Y61464229D02*
X48434523Y61416610D01*
X48434523Y61416610D02*
X48482142Y61368991D01*
X48482142Y61368991D02*
X48529761Y61273753D01*
X48529761Y61273753D02*
X48529761Y61035658D01*
X48529761Y61035658D02*
X48482142Y60940420D01*
X48482142Y60940420D02*
X48434523Y60892800D01*
X48434523Y60892800D02*
X48339285Y60845181D01*
X48339285Y60845181D02*
X48053571Y60845181D01*
X48053571Y60845181D02*
X47958333Y60892800D01*
X47958333Y60892800D02*
X47910714Y60940420D01*
X48815476Y61845181D02*
X49148809Y60845181D01*
X49148809Y60845181D02*
X49482142Y61845181D01*
X49720238Y61845181D02*
X50339285Y61845181D01*
X50339285Y61845181D02*
X50005952Y61464229D01*
X50005952Y61464229D02*
X50148809Y61464229D01*
X50148809Y61464229D02*
X50244047Y61416610D01*
X50244047Y61416610D02*
X50291666Y61368991D01*
X50291666Y61368991D02*
X50339285Y61273753D01*
X50339285Y61273753D02*
X50339285Y61035658D01*
X50339285Y61035658D02*
X50291666Y60940420D01*
X50291666Y60940420D02*
X50244047Y60892800D01*
X50244047Y60892800D02*
X50148809Y60845181D01*
X50148809Y60845181D02*
X49863095Y60845181D01*
X49863095Y60845181D02*
X49767857Y60892800D01*
X49767857Y60892800D02*
X49720238Y60940420D01*
X50529762Y60749943D02*
X51291666Y60749943D01*
X51529762Y60845181D02*
X51529762Y61845181D01*
X51529762Y61845181D02*
X51767857Y61845181D01*
X51767857Y61845181D02*
X51910714Y61797562D01*
X51910714Y61797562D02*
X52005952Y61702324D01*
X52005952Y61702324D02*
X52053571Y61607086D01*
X52053571Y61607086D02*
X52101190Y61416610D01*
X52101190Y61416610D02*
X52101190Y61273753D01*
X52101190Y61273753D02*
X52053571Y61083277D01*
X52053571Y61083277D02*
X52005952Y60988039D01*
X52005952Y60988039D02*
X51910714Y60892800D01*
X51910714Y60892800D02*
X51767857Y60845181D01*
X51767857Y60845181D02*
X51529762Y60845181D01*
X52529762Y60845181D02*
X52529762Y61845181D01*
X52958333Y60892800D02*
X53101190Y60845181D01*
X53101190Y60845181D02*
X53339285Y60845181D01*
X53339285Y60845181D02*
X53434523Y60892800D01*
X53434523Y60892800D02*
X53482142Y60940420D01*
X53482142Y60940420D02*
X53529761Y61035658D01*
X53529761Y61035658D02*
X53529761Y61130896D01*
X53529761Y61130896D02*
X53482142Y61226134D01*
X53482142Y61226134D02*
X53434523Y61273753D01*
X53434523Y61273753D02*
X53339285Y61321372D01*
X53339285Y61321372D02*
X53148809Y61368991D01*
X53148809Y61368991D02*
X53053571Y61416610D01*
X53053571Y61416610D02*
X53005952Y61464229D01*
X53005952Y61464229D02*
X52958333Y61559467D01*
X52958333Y61559467D02*
X52958333Y61654705D01*
X52958333Y61654705D02*
X53005952Y61749943D01*
X53005952Y61749943D02*
X53053571Y61797562D01*
X53053571Y61797562D02*
X53148809Y61845181D01*
X53148809Y61845181D02*
X53386904Y61845181D01*
X53386904Y61845181D02*
X53529761Y61797562D01*
X53958333Y60845181D02*
X53958333Y61845181D01*
X53958333Y61845181D02*
X54339285Y61845181D01*
X54339285Y61845181D02*
X54434523Y61797562D01*
X54434523Y61797562D02*
X54482142Y61749943D01*
X54482142Y61749943D02*
X54529761Y61654705D01*
X54529761Y61654705D02*
X54529761Y61511848D01*
X54529761Y61511848D02*
X54482142Y61416610D01*
X54482142Y61416610D02*
X54434523Y61368991D01*
X54434523Y61368991D02*
X54339285Y61321372D01*
X54339285Y61321372D02*
X53958333Y61321372D01*
X94160714Y39451134D02*
X94922619Y39451134D01*
X94541666Y39070181D02*
X94541666Y39832086D01*
X95922618Y39070181D02*
X95351190Y39070181D01*
X95636904Y39070181D02*
X95636904Y40070181D01*
X95636904Y40070181D02*
X95541666Y39927324D01*
X95541666Y39927324D02*
X95446428Y39832086D01*
X95446428Y39832086D02*
X95351190Y39784467D01*
X96303571Y39974943D02*
X96351190Y40022562D01*
X96351190Y40022562D02*
X96446428Y40070181D01*
X96446428Y40070181D02*
X96684523Y40070181D01*
X96684523Y40070181D02*
X96779761Y40022562D01*
X96779761Y40022562D02*
X96827380Y39974943D01*
X96827380Y39974943D02*
X96874999Y39879705D01*
X96874999Y39879705D02*
X96874999Y39784467D01*
X96874999Y39784467D02*
X96827380Y39641610D01*
X96827380Y39641610D02*
X96255952Y39070181D01*
X96255952Y39070181D02*
X96874999Y39070181D01*
X97160714Y40070181D02*
X97494047Y39070181D01*
X97494047Y39070181D02*
X97827380Y40070181D01*
X97922619Y38974943D02*
X98684523Y38974943D01*
X98827381Y40070181D02*
X99065476Y39070181D01*
X99065476Y39070181D02*
X99255952Y39784467D01*
X99255952Y39784467D02*
X99446428Y39070181D01*
X99446428Y39070181D02*
X99684524Y40070181D01*
X97113095Y37320562D02*
X97017857Y37368181D01*
X97017857Y37368181D02*
X96875000Y37368181D01*
X96875000Y37368181D02*
X96732143Y37320562D01*
X96732143Y37320562D02*
X96636905Y37225324D01*
X96636905Y37225324D02*
X96589286Y37130086D01*
X96589286Y37130086D02*
X96541667Y36939610D01*
X96541667Y36939610D02*
X96541667Y36796753D01*
X96541667Y36796753D02*
X96589286Y36606277D01*
X96589286Y36606277D02*
X96636905Y36511039D01*
X96636905Y36511039D02*
X96732143Y36415800D01*
X96732143Y36415800D02*
X96875000Y36368181D01*
X96875000Y36368181D02*
X96970238Y36368181D01*
X96970238Y36368181D02*
X97113095Y36415800D01*
X97113095Y36415800D02*
X97160714Y36463420D01*
X97160714Y36463420D02*
X97160714Y36796753D01*
X97160714Y36796753D02*
X96970238Y36796753D01*
X97589286Y36368181D02*
X97589286Y37368181D01*
X97589286Y37368181D02*
X98160714Y36368181D01*
X98160714Y36368181D02*
X98160714Y37368181D01*
X98636905Y36368181D02*
X98636905Y37368181D01*
X98636905Y37368181D02*
X98875000Y37368181D01*
X98875000Y37368181D02*
X99017857Y37320562D01*
X99017857Y37320562D02*
X99113095Y37225324D01*
X99113095Y37225324D02*
X99160714Y37130086D01*
X99160714Y37130086D02*
X99208333Y36939610D01*
X99208333Y36939610D02*
X99208333Y36796753D01*
X99208333Y36796753D02*
X99160714Y36606277D01*
X99160714Y36606277D02*
X99113095Y36511039D01*
X99113095Y36511039D02*
X99017857Y36415800D01*
X99017857Y36415800D02*
X98875000Y36368181D01*
X98875000Y36368181D02*
X98636905Y36368181D01*
X6307143Y28045181D02*
X6307143Y29045181D01*
X6307143Y29045181D02*
X6545238Y29045181D01*
X6545238Y29045181D02*
X6688095Y28997562D01*
X6688095Y28997562D02*
X6783333Y28902324D01*
X6783333Y28902324D02*
X6830952Y28807086D01*
X6830952Y28807086D02*
X6878571Y28616610D01*
X6878571Y28616610D02*
X6878571Y28473753D01*
X6878571Y28473753D02*
X6830952Y28283277D01*
X6830952Y28283277D02*
X6783333Y28188039D01*
X6783333Y28188039D02*
X6688095Y28092800D01*
X6688095Y28092800D02*
X6545238Y28045181D01*
X6545238Y28045181D02*
X6307143Y28045181D01*
X7164286Y29045181D02*
X7735714Y29045181D01*
X7450000Y28045181D02*
X7450000Y29045181D01*
X8640476Y28045181D02*
X8307143Y28521372D01*
X8069048Y28045181D02*
X8069048Y29045181D01*
X8069048Y29045181D02*
X8450000Y29045181D01*
X8450000Y29045181D02*
X8545238Y28997562D01*
X8545238Y28997562D02*
X8592857Y28949943D01*
X8592857Y28949943D02*
X8640476Y28854705D01*
X8640476Y28854705D02*
X8640476Y28711848D01*
X8640476Y28711848D02*
X8592857Y28616610D01*
X8592857Y28616610D02*
X8545238Y28568991D01*
X8545238Y28568991D02*
X8450000Y28521372D01*
X8450000Y28521372D02*
X8069048Y28521372D01*
X23859580Y27107143D02*
X23907200Y27059524D01*
X23907200Y27059524D02*
X23954819Y26916667D01*
X23954819Y26916667D02*
X23954819Y26821429D01*
X23954819Y26821429D02*
X23907200Y26678572D01*
X23907200Y26678572D02*
X23811961Y26583334D01*
X23811961Y26583334D02*
X23716723Y26535715D01*
X23716723Y26535715D02*
X23526247Y26488096D01*
X23526247Y26488096D02*
X23383390Y26488096D01*
X23383390Y26488096D02*
X23192914Y26535715D01*
X23192914Y26535715D02*
X23097676Y26583334D01*
X23097676Y26583334D02*
X23002438Y26678572D01*
X23002438Y26678572D02*
X22954819Y26821429D01*
X22954819Y26821429D02*
X22954819Y26916667D01*
X22954819Y26916667D02*
X23002438Y27059524D01*
X23002438Y27059524D02*
X23050057Y27107143D01*
X23431009Y27535715D02*
X23431009Y27869048D01*
X23954819Y28011905D02*
X23954819Y27535715D01*
X23954819Y27535715D02*
X22954819Y27535715D01*
X22954819Y27535715D02*
X22954819Y28011905D01*
X64679762Y51142800D02*
X64822619Y51095181D01*
X64822619Y51095181D02*
X65060714Y51095181D01*
X65060714Y51095181D02*
X65155952Y51142800D01*
X65155952Y51142800D02*
X65203571Y51190420D01*
X65203571Y51190420D02*
X65251190Y51285658D01*
X65251190Y51285658D02*
X65251190Y51380896D01*
X65251190Y51380896D02*
X65203571Y51476134D01*
X65203571Y51476134D02*
X65155952Y51523753D01*
X65155952Y51523753D02*
X65060714Y51571372D01*
X65060714Y51571372D02*
X64870238Y51618991D01*
X64870238Y51618991D02*
X64775000Y51666610D01*
X64775000Y51666610D02*
X64727381Y51714229D01*
X64727381Y51714229D02*
X64679762Y51809467D01*
X64679762Y51809467D02*
X64679762Y51904705D01*
X64679762Y51904705D02*
X64727381Y51999943D01*
X64727381Y51999943D02*
X64775000Y52047562D01*
X64775000Y52047562D02*
X64870238Y52095181D01*
X64870238Y52095181D02*
X65108333Y52095181D01*
X65108333Y52095181D02*
X65251190Y52047562D01*
X66155952Y51095181D02*
X65679762Y51095181D01*
X65679762Y51095181D02*
X65679762Y52095181D01*
X66489286Y51618991D02*
X66822619Y51618991D01*
X66965476Y51095181D02*
X66489286Y51095181D01*
X66489286Y51095181D02*
X66489286Y52095181D01*
X66489286Y52095181D02*
X66965476Y52095181D01*
X67394048Y51618991D02*
X67727381Y51618991D01*
X67870238Y51095181D02*
X67394048Y51095181D01*
X67394048Y51095181D02*
X67394048Y52095181D01*
X67394048Y52095181D02*
X67870238Y52095181D01*
X68298810Y51095181D02*
X68298810Y52095181D01*
X68298810Y52095181D02*
X68679762Y52095181D01*
X68679762Y52095181D02*
X68775000Y52047562D01*
X68775000Y52047562D02*
X68822619Y51999943D01*
X68822619Y51999943D02*
X68870238Y51904705D01*
X68870238Y51904705D02*
X68870238Y51761848D01*
X68870238Y51761848D02*
X68822619Y51666610D01*
X68822619Y51666610D02*
X68775000Y51618991D01*
X68775000Y51618991D02*
X68679762Y51571372D01*
X68679762Y51571372D02*
X68298810Y51571372D01*
X21723866Y22940477D02*
X21723866Y23702381D01*
X22104819Y23321429D02*
X21342914Y23321429D01*
X21104819Y24035715D02*
X22104819Y24369048D01*
X22104819Y24369048D02*
X21104819Y24702381D01*
X22104819Y25035715D02*
X21104819Y25035715D01*
X21104819Y25035715D02*
X21104819Y25273810D01*
X21104819Y25273810D02*
X21152438Y25416667D01*
X21152438Y25416667D02*
X21247676Y25511905D01*
X21247676Y25511905D02*
X21342914Y25559524D01*
X21342914Y25559524D02*
X21533390Y25607143D01*
X21533390Y25607143D02*
X21676247Y25607143D01*
X21676247Y25607143D02*
X21866723Y25559524D01*
X21866723Y25559524D02*
X21961961Y25511905D01*
X21961961Y25511905D02*
X22057200Y25416667D01*
X22057200Y25416667D02*
X22104819Y25273810D01*
X22104819Y25273810D02*
X22104819Y25035715D01*
X22104819Y26035715D02*
X21104819Y26035715D01*
X21104819Y26035715D02*
X21104819Y26273810D01*
X21104819Y26273810D02*
X21152438Y26416667D01*
X21152438Y26416667D02*
X21247676Y26511905D01*
X21247676Y26511905D02*
X21342914Y26559524D01*
X21342914Y26559524D02*
X21533390Y26607143D01*
X21533390Y26607143D02*
X21676247Y26607143D01*
X21676247Y26607143D02*
X21866723Y26559524D01*
X21866723Y26559524D02*
X21961961Y26511905D01*
X21961961Y26511905D02*
X22057200Y26416667D01*
X22057200Y26416667D02*
X22104819Y26273810D01*
X22104819Y26273810D02*
X22104819Y26035715D01*
X22104819Y27035715D02*
X21104819Y27035715D01*
X21104819Y27035715D02*
X21104819Y27273810D01*
X21104819Y27273810D02*
X21152438Y27416667D01*
X21152438Y27416667D02*
X21247676Y27511905D01*
X21247676Y27511905D02*
X21342914Y27559524D01*
X21342914Y27559524D02*
X21533390Y27607143D01*
X21533390Y27607143D02*
X21676247Y27607143D01*
X21676247Y27607143D02*
X21866723Y27559524D01*
X21866723Y27559524D02*
X21961961Y27511905D01*
X21961961Y27511905D02*
X22057200Y27416667D01*
X22057200Y27416667D02*
X22104819Y27273810D01*
X22104819Y27273810D02*
X22104819Y27035715D01*
X110429819Y3260715D02*
X109429819Y3260715D01*
X109429819Y3260715D02*
X109429819Y3641667D01*
X109429819Y3641667D02*
X109477438Y3736905D01*
X109477438Y3736905D02*
X109525057Y3784524D01*
X109525057Y3784524D02*
X109620295Y3832143D01*
X109620295Y3832143D02*
X109763152Y3832143D01*
X109763152Y3832143D02*
X109858390Y3784524D01*
X109858390Y3784524D02*
X109906009Y3736905D01*
X109906009Y3736905D02*
X109953628Y3641667D01*
X109953628Y3641667D02*
X109953628Y3260715D01*
X110429819Y4784524D02*
X110429819Y4213096D01*
X110429819Y4498810D02*
X109429819Y4498810D01*
X109429819Y4498810D02*
X109572676Y4403572D01*
X109572676Y4403572D02*
X109667914Y4308334D01*
X109667914Y4308334D02*
X109715533Y4213096D01*
X109906009Y5213096D02*
X109906009Y5546429D01*
X110429819Y5689286D02*
X110429819Y5213096D01*
X110429819Y5213096D02*
X109429819Y5213096D01*
X109429819Y5213096D02*
X109429819Y5689286D01*
X110429819Y6117858D02*
X109429819Y6117858D01*
X109429819Y6117858D02*
X110429819Y6689286D01*
X110429819Y6689286D02*
X109429819Y6689286D01*
X94079762Y54795181D02*
X94079762Y55795181D01*
X94079762Y55795181D02*
X94413095Y55080896D01*
X94413095Y55080896D02*
X94746428Y55795181D01*
X94746428Y55795181D02*
X94746428Y54795181D01*
X95222619Y54795181D02*
X95222619Y55795181D01*
X95698809Y54795181D02*
X95698809Y55795181D01*
X95698809Y55795181D02*
X96270237Y54795181D01*
X96270237Y54795181D02*
X96270237Y55795181D01*
X83179819Y56070239D02*
X84179819Y56308334D01*
X84179819Y56308334D02*
X83465533Y56498810D01*
X83465533Y56498810D02*
X84179819Y56689286D01*
X84179819Y56689286D02*
X83179819Y56927381D01*
X83656009Y57308334D02*
X83656009Y57641667D01*
X84179819Y57784524D02*
X84179819Y57308334D01*
X84179819Y57308334D02*
X83179819Y57308334D01*
X83179819Y57308334D02*
X83179819Y57784524D01*
X84179819Y58213096D02*
X83179819Y58213096D01*
X83179819Y58213096D02*
X84179819Y58784524D01*
X84179819Y58784524D02*
X83179819Y58784524D01*
X23948809Y23320181D02*
X24139285Y23320181D01*
X24139285Y23320181D02*
X24234523Y23272562D01*
X24234523Y23272562D02*
X24329761Y23177324D01*
X24329761Y23177324D02*
X24377380Y22986848D01*
X24377380Y22986848D02*
X24377380Y22653515D01*
X24377380Y22653515D02*
X24329761Y22463039D01*
X24329761Y22463039D02*
X24234523Y22367800D01*
X24234523Y22367800D02*
X24139285Y22320181D01*
X24139285Y22320181D02*
X23948809Y22320181D01*
X23948809Y22320181D02*
X23853571Y22367800D01*
X23853571Y22367800D02*
X23758333Y22463039D01*
X23758333Y22463039D02*
X23710714Y22653515D01*
X23710714Y22653515D02*
X23710714Y22986848D01*
X23710714Y22986848D02*
X23758333Y23177324D01*
X23758333Y23177324D02*
X23853571Y23272562D01*
X23853571Y23272562D02*
X23948809Y23320181D01*
X24663095Y23320181D02*
X25234523Y23320181D01*
X24948809Y22320181D02*
X24948809Y23320181D01*
X26091666Y23272562D02*
X25996428Y23320181D01*
X25996428Y23320181D02*
X25853571Y23320181D01*
X25853571Y23320181D02*
X25710714Y23272562D01*
X25710714Y23272562D02*
X25615476Y23177324D01*
X25615476Y23177324D02*
X25567857Y23082086D01*
X25567857Y23082086D02*
X25520238Y22891610D01*
X25520238Y22891610D02*
X25520238Y22748753D01*
X25520238Y22748753D02*
X25567857Y22558277D01*
X25567857Y22558277D02*
X25615476Y22463039D01*
X25615476Y22463039D02*
X25710714Y22367800D01*
X25710714Y22367800D02*
X25853571Y22320181D01*
X25853571Y22320181D02*
X25948809Y22320181D01*
X25948809Y22320181D02*
X26091666Y22367800D01*
X26091666Y22367800D02*
X26139285Y22415420D01*
X26139285Y22415420D02*
X26139285Y22748753D01*
X26139285Y22748753D02*
X25948809Y22748753D01*
X24482200Y10504763D02*
X24529819Y10647620D01*
X24529819Y10647620D02*
X24529819Y10885715D01*
X24529819Y10885715D02*
X24482200Y10980953D01*
X24482200Y10980953D02*
X24434580Y11028572D01*
X24434580Y11028572D02*
X24339342Y11076191D01*
X24339342Y11076191D02*
X24244104Y11076191D01*
X24244104Y11076191D02*
X24148866Y11028572D01*
X24148866Y11028572D02*
X24101247Y10980953D01*
X24101247Y10980953D02*
X24053628Y10885715D01*
X24053628Y10885715D02*
X24006009Y10695239D01*
X24006009Y10695239D02*
X23958390Y10600001D01*
X23958390Y10600001D02*
X23910771Y10552382D01*
X23910771Y10552382D02*
X23815533Y10504763D01*
X23815533Y10504763D02*
X23720295Y10504763D01*
X23720295Y10504763D02*
X23625057Y10552382D01*
X23625057Y10552382D02*
X23577438Y10600001D01*
X23577438Y10600001D02*
X23529819Y10695239D01*
X23529819Y10695239D02*
X23529819Y10933334D01*
X23529819Y10933334D02*
X23577438Y11076191D01*
X24529819Y11980953D02*
X24529819Y11504763D01*
X24529819Y11504763D02*
X23529819Y11504763D01*
X24006009Y12314287D02*
X24006009Y12647620D01*
X24529819Y12790477D02*
X24529819Y12314287D01*
X24529819Y12314287D02*
X23529819Y12314287D01*
X23529819Y12314287D02*
X23529819Y12790477D01*
X24006009Y13219049D02*
X24006009Y13552382D01*
X24529819Y13695239D02*
X24529819Y13219049D01*
X24529819Y13219049D02*
X23529819Y13219049D01*
X23529819Y13219049D02*
X23529819Y13695239D01*
X24529819Y14123811D02*
X23529819Y14123811D01*
X23529819Y14123811D02*
X23529819Y14504763D01*
X23529819Y14504763D02*
X23577438Y14600001D01*
X23577438Y14600001D02*
X23625057Y14647620D01*
X23625057Y14647620D02*
X23720295Y14695239D01*
X23720295Y14695239D02*
X23863152Y14695239D01*
X23863152Y14695239D02*
X23958390Y14647620D01*
X23958390Y14647620D02*
X24006009Y14600001D01*
X24006009Y14600001D02*
X24053628Y14504763D01*
X24053628Y14504763D02*
X24053628Y14123811D01*
X58263095Y23276134D02*
X59025000Y23276134D01*
X58644047Y22895181D02*
X58644047Y23657086D01*
X59405952Y23895181D02*
X60024999Y23895181D01*
X60024999Y23895181D02*
X59691666Y23514229D01*
X59691666Y23514229D02*
X59834523Y23514229D01*
X59834523Y23514229D02*
X59929761Y23466610D01*
X59929761Y23466610D02*
X59977380Y23418991D01*
X59977380Y23418991D02*
X60024999Y23323753D01*
X60024999Y23323753D02*
X60024999Y23085658D01*
X60024999Y23085658D02*
X59977380Y22990420D01*
X59977380Y22990420D02*
X59929761Y22942800D01*
X59929761Y22942800D02*
X59834523Y22895181D01*
X59834523Y22895181D02*
X59548809Y22895181D01*
X59548809Y22895181D02*
X59453571Y22942800D01*
X59453571Y22942800D02*
X59405952Y22990420D01*
X60310714Y23895181D02*
X60644047Y22895181D01*
X60644047Y22895181D02*
X60977380Y23895181D01*
X61215476Y23895181D02*
X61834523Y23895181D01*
X61834523Y23895181D02*
X61501190Y23514229D01*
X61501190Y23514229D02*
X61644047Y23514229D01*
X61644047Y23514229D02*
X61739285Y23466610D01*
X61739285Y23466610D02*
X61786904Y23418991D01*
X61786904Y23418991D02*
X61834523Y23323753D01*
X61834523Y23323753D02*
X61834523Y23085658D01*
X61834523Y23085658D02*
X61786904Y22990420D01*
X61786904Y22990420D02*
X61739285Y22942800D01*
X61739285Y22942800D02*
X61644047Y22895181D01*
X61644047Y22895181D02*
X61358333Y22895181D01*
X61358333Y22895181D02*
X61263095Y22942800D01*
X61263095Y22942800D02*
X61215476Y22990420D01*
X11829819Y42005953D02*
X11829819Y41529763D01*
X11829819Y41529763D02*
X10829819Y41529763D01*
X11829819Y42339287D02*
X10829819Y42339287D01*
X11829819Y42815477D02*
X10829819Y42815477D01*
X10829819Y42815477D02*
X11829819Y43386905D01*
X11829819Y43386905D02*
X10829819Y43386905D01*
X11306009Y43863096D02*
X11306009Y44196429D01*
X11829819Y44339286D02*
X11829819Y43863096D01*
X11829819Y43863096D02*
X10829819Y43863096D01*
X10829819Y43863096D02*
X10829819Y44339286D01*
X11925057Y44529762D02*
X11925057Y45291667D01*
X11782200Y45482144D02*
X11829819Y45625001D01*
X11829819Y45625001D02*
X11829819Y45863096D01*
X11829819Y45863096D02*
X11782200Y45958334D01*
X11782200Y45958334D02*
X11734580Y46005953D01*
X11734580Y46005953D02*
X11639342Y46053572D01*
X11639342Y46053572D02*
X11544104Y46053572D01*
X11544104Y46053572D02*
X11448866Y46005953D01*
X11448866Y46005953D02*
X11401247Y45958334D01*
X11401247Y45958334D02*
X11353628Y45863096D01*
X11353628Y45863096D02*
X11306009Y45672620D01*
X11306009Y45672620D02*
X11258390Y45577382D01*
X11258390Y45577382D02*
X11210771Y45529763D01*
X11210771Y45529763D02*
X11115533Y45482144D01*
X11115533Y45482144D02*
X11020295Y45482144D01*
X11020295Y45482144D02*
X10925057Y45529763D01*
X10925057Y45529763D02*
X10877438Y45577382D01*
X10877438Y45577382D02*
X10829819Y45672620D01*
X10829819Y45672620D02*
X10829819Y45910715D01*
X10829819Y45910715D02*
X10877438Y46053572D01*
X11306009Y46482144D02*
X11306009Y46815477D01*
X11829819Y46958334D02*
X11829819Y46482144D01*
X11829819Y46482144D02*
X10829819Y46482144D01*
X10829819Y46482144D02*
X10829819Y46958334D01*
X11829819Y47863096D02*
X11829819Y47386906D01*
X11829819Y47386906D02*
X10829819Y47386906D01*
X54823809Y39965181D02*
X54490476Y40441372D01*
X54252381Y39965181D02*
X54252381Y40965181D01*
X54252381Y40965181D02*
X54633333Y40965181D01*
X54633333Y40965181D02*
X54728571Y40917562D01*
X54728571Y40917562D02*
X54776190Y40869943D01*
X54776190Y40869943D02*
X54823809Y40774705D01*
X54823809Y40774705D02*
X54823809Y40631848D01*
X54823809Y40631848D02*
X54776190Y40536610D01*
X54776190Y40536610D02*
X54728571Y40488991D01*
X54728571Y40488991D02*
X54633333Y40441372D01*
X54633333Y40441372D02*
X54252381Y40441372D01*
X55204762Y40012800D02*
X55347619Y39965181D01*
X55347619Y39965181D02*
X55585714Y39965181D01*
X55585714Y39965181D02*
X55680952Y40012800D01*
X55680952Y40012800D02*
X55728571Y40060420D01*
X55728571Y40060420D02*
X55776190Y40155658D01*
X55776190Y40155658D02*
X55776190Y40250896D01*
X55776190Y40250896D02*
X55728571Y40346134D01*
X55728571Y40346134D02*
X55680952Y40393753D01*
X55680952Y40393753D02*
X55585714Y40441372D01*
X55585714Y40441372D02*
X55395238Y40488991D01*
X55395238Y40488991D02*
X55300000Y40536610D01*
X55300000Y40536610D02*
X55252381Y40584229D01*
X55252381Y40584229D02*
X55204762Y40679467D01*
X55204762Y40679467D02*
X55204762Y40774705D01*
X55204762Y40774705D02*
X55252381Y40869943D01*
X55252381Y40869943D02*
X55300000Y40917562D01*
X55300000Y40917562D02*
X55395238Y40965181D01*
X55395238Y40965181D02*
X55633333Y40965181D01*
X55633333Y40965181D02*
X55776190Y40917562D01*
X56680952Y39965181D02*
X56204762Y39965181D01*
X56204762Y39965181D02*
X56204762Y40965181D01*
X57014286Y40488991D02*
X57347619Y40488991D01*
X57490476Y39965181D02*
X57014286Y39965181D01*
X57014286Y39965181D02*
X57014286Y40965181D01*
X57014286Y40965181D02*
X57490476Y40965181D01*
X57919048Y40488991D02*
X58252381Y40488991D01*
X58395238Y39965181D02*
X57919048Y39965181D01*
X57919048Y39965181D02*
X57919048Y40965181D01*
X57919048Y40965181D02*
X58395238Y40965181D01*
X58823810Y39965181D02*
X58823810Y40965181D01*
X58823810Y40965181D02*
X59204762Y40965181D01*
X59204762Y40965181D02*
X59300000Y40917562D01*
X59300000Y40917562D02*
X59347619Y40869943D01*
X59347619Y40869943D02*
X59395238Y40774705D01*
X59395238Y40774705D02*
X59395238Y40631848D01*
X59395238Y40631848D02*
X59347619Y40536610D01*
X59347619Y40536610D02*
X59300000Y40488991D01*
X59300000Y40488991D02*
X59204762Y40441372D01*
X59204762Y40441372D02*
X58823810Y40441372D01*
X112954819Y33236906D02*
X111954819Y33236906D01*
X111954819Y33236906D02*
X111954819Y33617858D01*
X111954819Y33617858D02*
X112002438Y33713096D01*
X112002438Y33713096D02*
X112050057Y33760715D01*
X112050057Y33760715D02*
X112145295Y33808334D01*
X112145295Y33808334D02*
X112288152Y33808334D01*
X112288152Y33808334D02*
X112383390Y33760715D01*
X112383390Y33760715D02*
X112431009Y33713096D01*
X112431009Y33713096D02*
X112478628Y33617858D01*
X112478628Y33617858D02*
X112478628Y33236906D01*
X112050057Y34189287D02*
X112002438Y34236906D01*
X112002438Y34236906D02*
X111954819Y34332144D01*
X111954819Y34332144D02*
X111954819Y34570239D01*
X111954819Y34570239D02*
X112002438Y34665477D01*
X112002438Y34665477D02*
X112050057Y34713096D01*
X112050057Y34713096D02*
X112145295Y34760715D01*
X112145295Y34760715D02*
X112240533Y34760715D01*
X112240533Y34760715D02*
X112383390Y34713096D01*
X112383390Y34713096D02*
X112954819Y34141668D01*
X112954819Y34141668D02*
X112954819Y34760715D01*
X112954819Y35189287D02*
X111954819Y35189287D01*
X111954819Y35189287D02*
X111954819Y35427382D01*
X111954819Y35427382D02*
X112002438Y35570239D01*
X112002438Y35570239D02*
X112097676Y35665477D01*
X112097676Y35665477D02*
X112192914Y35713096D01*
X112192914Y35713096D02*
X112383390Y35760715D01*
X112383390Y35760715D02*
X112526247Y35760715D01*
X112526247Y35760715D02*
X112716723Y35713096D01*
X112716723Y35713096D02*
X112811961Y35665477D01*
X112811961Y35665477D02*
X112907200Y35570239D01*
X112907200Y35570239D02*
X112954819Y35427382D01*
X112954819Y35427382D02*
X112954819Y35189287D01*
X66538095Y41597562D02*
X66442857Y41645181D01*
X66442857Y41645181D02*
X66300000Y41645181D01*
X66300000Y41645181D02*
X66157143Y41597562D01*
X66157143Y41597562D02*
X66061905Y41502324D01*
X66061905Y41502324D02*
X66014286Y41407086D01*
X66014286Y41407086D02*
X65966667Y41216610D01*
X65966667Y41216610D02*
X65966667Y41073753D01*
X65966667Y41073753D02*
X66014286Y40883277D01*
X66014286Y40883277D02*
X66061905Y40788039D01*
X66061905Y40788039D02*
X66157143Y40692800D01*
X66157143Y40692800D02*
X66300000Y40645181D01*
X66300000Y40645181D02*
X66395238Y40645181D01*
X66395238Y40645181D02*
X66538095Y40692800D01*
X66538095Y40692800D02*
X66585714Y40740420D01*
X66585714Y40740420D02*
X66585714Y41073753D01*
X66585714Y41073753D02*
X66395238Y41073753D01*
X67014286Y40645181D02*
X67014286Y41645181D01*
X67014286Y41645181D02*
X67585714Y40645181D01*
X67585714Y40645181D02*
X67585714Y41645181D01*
X68061905Y40645181D02*
X68061905Y41645181D01*
X68061905Y41645181D02*
X68300000Y41645181D01*
X68300000Y41645181D02*
X68442857Y41597562D01*
X68442857Y41597562D02*
X68538095Y41502324D01*
X68538095Y41502324D02*
X68585714Y41407086D01*
X68585714Y41407086D02*
X68633333Y41216610D01*
X68633333Y41216610D02*
X68633333Y41073753D01*
X68633333Y41073753D02*
X68585714Y40883277D01*
X68585714Y40883277D02*
X68538095Y40788039D01*
X68538095Y40788039D02*
X68442857Y40692800D01*
X68442857Y40692800D02*
X68300000Y40645181D01*
X68300000Y40645181D02*
X68061905Y40645181D01*
X64438095Y28797562D02*
X64342857Y28845181D01*
X64342857Y28845181D02*
X64200000Y28845181D01*
X64200000Y28845181D02*
X64057143Y28797562D01*
X64057143Y28797562D02*
X63961905Y28702324D01*
X63961905Y28702324D02*
X63914286Y28607086D01*
X63914286Y28607086D02*
X63866667Y28416610D01*
X63866667Y28416610D02*
X63866667Y28273753D01*
X63866667Y28273753D02*
X63914286Y28083277D01*
X63914286Y28083277D02*
X63961905Y27988039D01*
X63961905Y27988039D02*
X64057143Y27892800D01*
X64057143Y27892800D02*
X64200000Y27845181D01*
X64200000Y27845181D02*
X64295238Y27845181D01*
X64295238Y27845181D02*
X64438095Y27892800D01*
X64438095Y27892800D02*
X64485714Y27940420D01*
X64485714Y27940420D02*
X64485714Y28273753D01*
X64485714Y28273753D02*
X64295238Y28273753D01*
X64914286Y27845181D02*
X64914286Y28845181D01*
X64914286Y28845181D02*
X65485714Y27845181D01*
X65485714Y27845181D02*
X65485714Y28845181D01*
X65961905Y27845181D02*
X65961905Y28845181D01*
X65961905Y28845181D02*
X66200000Y28845181D01*
X66200000Y28845181D02*
X66342857Y28797562D01*
X66342857Y28797562D02*
X66438095Y28702324D01*
X66438095Y28702324D02*
X66485714Y28607086D01*
X66485714Y28607086D02*
X66533333Y28416610D01*
X66533333Y28416610D02*
X66533333Y28273753D01*
X66533333Y28273753D02*
X66485714Y28083277D01*
X66485714Y28083277D02*
X66438095Y27988039D01*
X66438095Y27988039D02*
X66342857Y27892800D01*
X66342857Y27892800D02*
X66200000Y27845181D01*
X66200000Y27845181D02*
X65961905Y27845181D01*
X14623866Y53536906D02*
X14623866Y54298810D01*
X15004819Y53917858D02*
X14242914Y53917858D01*
X14004819Y54679763D02*
X14004819Y55298810D01*
X14004819Y55298810D02*
X14385771Y54965477D01*
X14385771Y54965477D02*
X14385771Y55108334D01*
X14385771Y55108334D02*
X14433390Y55203572D01*
X14433390Y55203572D02*
X14481009Y55251191D01*
X14481009Y55251191D02*
X14576247Y55298810D01*
X14576247Y55298810D02*
X14814342Y55298810D01*
X14814342Y55298810D02*
X14909580Y55251191D01*
X14909580Y55251191D02*
X14957200Y55203572D01*
X14957200Y55203572D02*
X15004819Y55108334D01*
X15004819Y55108334D02*
X15004819Y54822620D01*
X15004819Y54822620D02*
X14957200Y54727382D01*
X14957200Y54727382D02*
X14909580Y54679763D01*
X14004819Y55584525D02*
X15004819Y55917858D01*
X15004819Y55917858D02*
X14004819Y56251191D01*
X14004819Y56489287D02*
X14004819Y57108334D01*
X14004819Y57108334D02*
X14385771Y56775001D01*
X14385771Y56775001D02*
X14385771Y56917858D01*
X14385771Y56917858D02*
X14433390Y57013096D01*
X14433390Y57013096D02*
X14481009Y57060715D01*
X14481009Y57060715D02*
X14576247Y57108334D01*
X14576247Y57108334D02*
X14814342Y57108334D01*
X14814342Y57108334D02*
X14909580Y57060715D01*
X14909580Y57060715D02*
X14957200Y57013096D01*
X14957200Y57013096D02*
X15004819Y56917858D01*
X15004819Y56917858D02*
X15004819Y56632144D01*
X15004819Y56632144D02*
X14957200Y56536906D01*
X14957200Y56536906D02*
X14909580Y56489287D01*
X15100057Y57298810D02*
X15100057Y58060715D01*
X15004819Y58298811D02*
X14004819Y58298811D01*
X14004819Y58298811D02*
X14719104Y58632144D01*
X14719104Y58632144D02*
X14004819Y58965477D01*
X14004819Y58965477D02*
X15004819Y58965477D01*
X14909580Y60013096D02*
X14957200Y59965477D01*
X14957200Y59965477D02*
X15004819Y59822620D01*
X15004819Y59822620D02*
X15004819Y59727382D01*
X15004819Y59727382D02*
X14957200Y59584525D01*
X14957200Y59584525D02*
X14861961Y59489287D01*
X14861961Y59489287D02*
X14766723Y59441668D01*
X14766723Y59441668D02*
X14576247Y59394049D01*
X14576247Y59394049D02*
X14433390Y59394049D01*
X14433390Y59394049D02*
X14242914Y59441668D01*
X14242914Y59441668D02*
X14147676Y59489287D01*
X14147676Y59489287D02*
X14052438Y59584525D01*
X14052438Y59584525D02*
X14004819Y59727382D01*
X14004819Y59727382D02*
X14004819Y59822620D01*
X14004819Y59822620D02*
X14052438Y59965477D01*
X14052438Y59965477D02*
X14100057Y60013096D01*
X14004819Y60441668D02*
X14814342Y60441668D01*
X14814342Y60441668D02*
X14909580Y60489287D01*
X14909580Y60489287D02*
X14957200Y60536906D01*
X14957200Y60536906D02*
X15004819Y60632144D01*
X15004819Y60632144D02*
X15004819Y60822620D01*
X15004819Y60822620D02*
X14957200Y60917858D01*
X14957200Y60917858D02*
X14909580Y60965477D01*
X14909580Y60965477D02*
X14814342Y61013096D01*
X14814342Y61013096D02*
X14004819Y61013096D01*
X84954819Y58070239D02*
X85954819Y58308334D01*
X85954819Y58308334D02*
X85240533Y58498810D01*
X85240533Y58498810D02*
X85954819Y58689286D01*
X85954819Y58689286D02*
X84954819Y58927381D01*
X85431009Y59308334D02*
X85431009Y59641667D01*
X85954819Y59784524D02*
X85954819Y59308334D01*
X85954819Y59308334D02*
X84954819Y59308334D01*
X84954819Y59308334D02*
X84954819Y59784524D01*
X85954819Y60213096D02*
X84954819Y60213096D01*
X84954819Y60213096D02*
X85954819Y60784524D01*
X85954819Y60784524D02*
X84954819Y60784524D01*
X85954819Y61260715D02*
X84954819Y61260715D01*
X84954819Y61260715D02*
X84954819Y61641667D01*
X84954819Y61641667D02*
X85002438Y61736905D01*
X85002438Y61736905D02*
X85050057Y61784524D01*
X85050057Y61784524D02*
X85145295Y61832143D01*
X85145295Y61832143D02*
X85288152Y61832143D01*
X85288152Y61832143D02*
X85383390Y61784524D01*
X85383390Y61784524D02*
X85431009Y61736905D01*
X85431009Y61736905D02*
X85478628Y61641667D01*
X85478628Y61641667D02*
X85478628Y61260715D01*
X94672618Y61745181D02*
X94339285Y62221372D01*
X94101190Y61745181D02*
X94101190Y62745181D01*
X94101190Y62745181D02*
X94482142Y62745181D01*
X94482142Y62745181D02*
X94577380Y62697562D01*
X94577380Y62697562D02*
X94624999Y62649943D01*
X94624999Y62649943D02*
X94672618Y62554705D01*
X94672618Y62554705D02*
X94672618Y62411848D01*
X94672618Y62411848D02*
X94624999Y62316610D01*
X94624999Y62316610D02*
X94577380Y62268991D01*
X94577380Y62268991D02*
X94482142Y62221372D01*
X94482142Y62221372D02*
X94101190Y62221372D01*
X95101190Y62268991D02*
X95434523Y62268991D01*
X95577380Y61745181D02*
X95101190Y61745181D01*
X95101190Y61745181D02*
X95101190Y62745181D01*
X95101190Y62745181D02*
X95577380Y62745181D01*
X95958333Y61792800D02*
X96101190Y61745181D01*
X96101190Y61745181D02*
X96339285Y61745181D01*
X96339285Y61745181D02*
X96434523Y61792800D01*
X96434523Y61792800D02*
X96482142Y61840420D01*
X96482142Y61840420D02*
X96529761Y61935658D01*
X96529761Y61935658D02*
X96529761Y62030896D01*
X96529761Y62030896D02*
X96482142Y62126134D01*
X96482142Y62126134D02*
X96434523Y62173753D01*
X96434523Y62173753D02*
X96339285Y62221372D01*
X96339285Y62221372D02*
X96148809Y62268991D01*
X96148809Y62268991D02*
X96053571Y62316610D01*
X96053571Y62316610D02*
X96005952Y62364229D01*
X96005952Y62364229D02*
X95958333Y62459467D01*
X95958333Y62459467D02*
X95958333Y62554705D01*
X95958333Y62554705D02*
X96005952Y62649943D01*
X96005952Y62649943D02*
X96053571Y62697562D01*
X96053571Y62697562D02*
X96148809Y62745181D01*
X96148809Y62745181D02*
X96386904Y62745181D01*
X96386904Y62745181D02*
X96529761Y62697562D01*
X96958333Y62268991D02*
X97291666Y62268991D01*
X97434523Y61745181D02*
X96958333Y61745181D01*
X96958333Y61745181D02*
X96958333Y62745181D01*
X96958333Y62745181D02*
X97434523Y62745181D01*
X97720238Y62745181D02*
X98291666Y62745181D01*
X98005952Y61745181D02*
X98005952Y62745181D01*
X93632143Y31901134D02*
X94394048Y31901134D01*
X94013095Y31520181D02*
X94013095Y32282086D01*
X95394047Y31520181D02*
X94822619Y31520181D01*
X95108333Y31520181D02*
X95108333Y32520181D01*
X95108333Y32520181D02*
X95013095Y32377324D01*
X95013095Y32377324D02*
X94917857Y32282086D01*
X94917857Y32282086D02*
X94822619Y32234467D01*
X95775000Y32424943D02*
X95822619Y32472562D01*
X95822619Y32472562D02*
X95917857Y32520181D01*
X95917857Y32520181D02*
X96155952Y32520181D01*
X96155952Y32520181D02*
X96251190Y32472562D01*
X96251190Y32472562D02*
X96298809Y32424943D01*
X96298809Y32424943D02*
X96346428Y32329705D01*
X96346428Y32329705D02*
X96346428Y32234467D01*
X96346428Y32234467D02*
X96298809Y32091610D01*
X96298809Y32091610D02*
X95727381Y31520181D01*
X95727381Y31520181D02*
X96346428Y31520181D01*
X96632143Y32520181D02*
X96965476Y31520181D01*
X96965476Y31520181D02*
X97298809Y32520181D01*
X97394048Y31424943D02*
X98155952Y31424943D01*
X98394048Y31520181D02*
X98394048Y32520181D01*
X98394048Y32520181D02*
X98775000Y32520181D01*
X98775000Y32520181D02*
X98870238Y32472562D01*
X98870238Y32472562D02*
X98917857Y32424943D01*
X98917857Y32424943D02*
X98965476Y32329705D01*
X98965476Y32329705D02*
X98965476Y32186848D01*
X98965476Y32186848D02*
X98917857Y32091610D01*
X98917857Y32091610D02*
X98870238Y32043991D01*
X98870238Y32043991D02*
X98775000Y31996372D01*
X98775000Y31996372D02*
X98394048Y31996372D01*
X15815476Y36051134D02*
X16577381Y36051134D01*
X16196428Y35670181D02*
X16196428Y36432086D01*
X16910714Y36670181D02*
X17244047Y35670181D01*
X17244047Y35670181D02*
X17577380Y36670181D01*
X18244047Y36193991D02*
X18386904Y36146372D01*
X18386904Y36146372D02*
X18434523Y36098753D01*
X18434523Y36098753D02*
X18482142Y36003515D01*
X18482142Y36003515D02*
X18482142Y35860658D01*
X18482142Y35860658D02*
X18434523Y35765420D01*
X18434523Y35765420D02*
X18386904Y35717800D01*
X18386904Y35717800D02*
X18291666Y35670181D01*
X18291666Y35670181D02*
X17910714Y35670181D01*
X17910714Y35670181D02*
X17910714Y36670181D01*
X17910714Y36670181D02*
X18244047Y36670181D01*
X18244047Y36670181D02*
X18339285Y36622562D01*
X18339285Y36622562D02*
X18386904Y36574943D01*
X18386904Y36574943D02*
X18434523Y36479705D01*
X18434523Y36479705D02*
X18434523Y36384467D01*
X18434523Y36384467D02*
X18386904Y36289229D01*
X18386904Y36289229D02*
X18339285Y36241610D01*
X18339285Y36241610D02*
X18244047Y36193991D01*
X18244047Y36193991D02*
X17910714Y36193991D01*
X18910714Y36670181D02*
X18910714Y35860658D01*
X18910714Y35860658D02*
X18958333Y35765420D01*
X18958333Y35765420D02*
X19005952Y35717800D01*
X19005952Y35717800D02*
X19101190Y35670181D01*
X19101190Y35670181D02*
X19291666Y35670181D01*
X19291666Y35670181D02*
X19386904Y35717800D01*
X19386904Y35717800D02*
X19434523Y35765420D01*
X19434523Y35765420D02*
X19482142Y35860658D01*
X19482142Y35860658D02*
X19482142Y36670181D01*
X19910714Y35717800D02*
X20053571Y35670181D01*
X20053571Y35670181D02*
X20291666Y35670181D01*
X20291666Y35670181D02*
X20386904Y35717800D01*
X20386904Y35717800D02*
X20434523Y35765420D01*
X20434523Y35765420D02*
X20482142Y35860658D01*
X20482142Y35860658D02*
X20482142Y35955896D01*
X20482142Y35955896D02*
X20434523Y36051134D01*
X20434523Y36051134D02*
X20386904Y36098753D01*
X20386904Y36098753D02*
X20291666Y36146372D01*
X20291666Y36146372D02*
X20101190Y36193991D01*
X20101190Y36193991D02*
X20005952Y36241610D01*
X20005952Y36241610D02*
X19958333Y36289229D01*
X19958333Y36289229D02*
X19910714Y36384467D01*
X19910714Y36384467D02*
X19910714Y36479705D01*
X19910714Y36479705D02*
X19958333Y36574943D01*
X19958333Y36574943D02*
X20005952Y36622562D01*
X20005952Y36622562D02*
X20101190Y36670181D01*
X20101190Y36670181D02*
X20339285Y36670181D01*
X20339285Y36670181D02*
X20482142Y36622562D01*
X56535714Y51142800D02*
X56678571Y51095181D01*
X56678571Y51095181D02*
X56916666Y51095181D01*
X56916666Y51095181D02*
X57011904Y51142800D01*
X57011904Y51142800D02*
X57059523Y51190420D01*
X57059523Y51190420D02*
X57107142Y51285658D01*
X57107142Y51285658D02*
X57107142Y51380896D01*
X57107142Y51380896D02*
X57059523Y51476134D01*
X57059523Y51476134D02*
X57011904Y51523753D01*
X57011904Y51523753D02*
X56916666Y51571372D01*
X56916666Y51571372D02*
X56726190Y51618991D01*
X56726190Y51618991D02*
X56630952Y51666610D01*
X56630952Y51666610D02*
X56583333Y51714229D01*
X56583333Y51714229D02*
X56535714Y51809467D01*
X56535714Y51809467D02*
X56535714Y51904705D01*
X56535714Y51904705D02*
X56583333Y51999943D01*
X56583333Y51999943D02*
X56630952Y52047562D01*
X56630952Y52047562D02*
X56726190Y52095181D01*
X56726190Y52095181D02*
X56964285Y52095181D01*
X56964285Y52095181D02*
X57107142Y52047562D01*
X57535714Y51095181D02*
X57535714Y52095181D01*
X57535714Y52095181D02*
X57773809Y52095181D01*
X57773809Y52095181D02*
X57916666Y52047562D01*
X57916666Y52047562D02*
X58011904Y51952324D01*
X58011904Y51952324D02*
X58059523Y51857086D01*
X58059523Y51857086D02*
X58107142Y51666610D01*
X58107142Y51666610D02*
X58107142Y51523753D01*
X58107142Y51523753D02*
X58059523Y51333277D01*
X58059523Y51333277D02*
X58011904Y51238039D01*
X58011904Y51238039D02*
X57916666Y51142800D01*
X57916666Y51142800D02*
X57773809Y51095181D01*
X57773809Y51095181D02*
X57535714Y51095181D01*
X58488095Y51380896D02*
X58964285Y51380896D01*
X58392857Y51095181D02*
X58726190Y52095181D01*
X58726190Y52095181D02*
X59059523Y51095181D01*
X81788095Y7445562D02*
X81692857Y7493181D01*
X81692857Y7493181D02*
X81550000Y7493181D01*
X81550000Y7493181D02*
X81407143Y7445562D01*
X81407143Y7445562D02*
X81311905Y7350324D01*
X81311905Y7350324D02*
X81264286Y7255086D01*
X81264286Y7255086D02*
X81216667Y7064610D01*
X81216667Y7064610D02*
X81216667Y6921753D01*
X81216667Y6921753D02*
X81264286Y6731277D01*
X81264286Y6731277D02*
X81311905Y6636039D01*
X81311905Y6636039D02*
X81407143Y6540800D01*
X81407143Y6540800D02*
X81550000Y6493181D01*
X81550000Y6493181D02*
X81645238Y6493181D01*
X81645238Y6493181D02*
X81788095Y6540800D01*
X81788095Y6540800D02*
X81835714Y6588420D01*
X81835714Y6588420D02*
X81835714Y6921753D01*
X81835714Y6921753D02*
X81645238Y6921753D01*
X82264286Y6493181D02*
X82264286Y7493181D01*
X82264286Y7493181D02*
X82835714Y6493181D01*
X82835714Y6493181D02*
X82835714Y7493181D01*
X83311905Y6493181D02*
X83311905Y7493181D01*
X83311905Y7493181D02*
X83550000Y7493181D01*
X83550000Y7493181D02*
X83692857Y7445562D01*
X83692857Y7445562D02*
X83788095Y7350324D01*
X83788095Y7350324D02*
X83835714Y7255086D01*
X83835714Y7255086D02*
X83883333Y7064610D01*
X83883333Y7064610D02*
X83883333Y6921753D01*
X83883333Y6921753D02*
X83835714Y6731277D01*
X83835714Y6731277D02*
X83788095Y6636039D01*
X83788095Y6636039D02*
X83692857Y6540800D01*
X83692857Y6540800D02*
X83550000Y6493181D01*
X83550000Y6493181D02*
X83311905Y6493181D01*
X3673809Y54167800D02*
X3816666Y54120181D01*
X3816666Y54120181D02*
X4054761Y54120181D01*
X4054761Y54120181D02*
X4149999Y54167800D01*
X4149999Y54167800D02*
X4197618Y54215420D01*
X4197618Y54215420D02*
X4245237Y54310658D01*
X4245237Y54310658D02*
X4245237Y54405896D01*
X4245237Y54405896D02*
X4197618Y54501134D01*
X4197618Y54501134D02*
X4149999Y54548753D01*
X4149999Y54548753D02*
X4054761Y54596372D01*
X4054761Y54596372D02*
X3864285Y54643991D01*
X3864285Y54643991D02*
X3769047Y54691610D01*
X3769047Y54691610D02*
X3721428Y54739229D01*
X3721428Y54739229D02*
X3673809Y54834467D01*
X3673809Y54834467D02*
X3673809Y54929705D01*
X3673809Y54929705D02*
X3721428Y55024943D01*
X3721428Y55024943D02*
X3769047Y55072562D01*
X3769047Y55072562D02*
X3864285Y55120181D01*
X3864285Y55120181D02*
X4102380Y55120181D01*
X4102380Y55120181D02*
X4245237Y55072562D01*
X4530952Y55120181D02*
X5102380Y55120181D01*
X4816666Y54120181D02*
X4816666Y55120181D01*
X5388095Y54405896D02*
X5864285Y54405896D01*
X5292857Y54120181D02*
X5626190Y55120181D01*
X5626190Y55120181D02*
X5959523Y54120181D01*
X6864285Y54120181D02*
X6530952Y54596372D01*
X6292857Y54120181D02*
X6292857Y55120181D01*
X6292857Y55120181D02*
X6673809Y55120181D01*
X6673809Y55120181D02*
X6769047Y55072562D01*
X6769047Y55072562D02*
X6816666Y55024943D01*
X6816666Y55024943D02*
X6864285Y54929705D01*
X6864285Y54929705D02*
X6864285Y54786848D01*
X6864285Y54786848D02*
X6816666Y54691610D01*
X6816666Y54691610D02*
X6769047Y54643991D01*
X6769047Y54643991D02*
X6673809Y54596372D01*
X6673809Y54596372D02*
X6292857Y54596372D01*
X7150000Y55120181D02*
X7721428Y55120181D01*
X7435714Y54120181D02*
X7435714Y55120181D01*
X105916667Y61795181D02*
X105916667Y62795181D01*
X105916667Y62318991D02*
X106488095Y62318991D01*
X106488095Y61795181D02*
X106488095Y62795181D01*
X107154762Y62795181D02*
X107345238Y62795181D01*
X107345238Y62795181D02*
X107440476Y62747562D01*
X107440476Y62747562D02*
X107535714Y62652324D01*
X107535714Y62652324D02*
X107583333Y62461848D01*
X107583333Y62461848D02*
X107583333Y62128515D01*
X107583333Y62128515D02*
X107535714Y61938039D01*
X107535714Y61938039D02*
X107440476Y61842800D01*
X107440476Y61842800D02*
X107345238Y61795181D01*
X107345238Y61795181D02*
X107154762Y61795181D01*
X107154762Y61795181D02*
X107059524Y61842800D01*
X107059524Y61842800D02*
X106964286Y61938039D01*
X106964286Y61938039D02*
X106916667Y62128515D01*
X106916667Y62128515D02*
X106916667Y62461848D01*
X106916667Y62461848D02*
X106964286Y62652324D01*
X106964286Y62652324D02*
X107059524Y62747562D01*
X107059524Y62747562D02*
X107154762Y62795181D01*
X108011905Y62795181D02*
X108011905Y61985658D01*
X108011905Y61985658D02*
X108059524Y61890420D01*
X108059524Y61890420D02*
X108107143Y61842800D01*
X108107143Y61842800D02*
X108202381Y61795181D01*
X108202381Y61795181D02*
X108392857Y61795181D01*
X108392857Y61795181D02*
X108488095Y61842800D01*
X108488095Y61842800D02*
X108535714Y61890420D01*
X108535714Y61890420D02*
X108583333Y61985658D01*
X108583333Y61985658D02*
X108583333Y62795181D01*
X109630952Y61795181D02*
X109297619Y62271372D01*
X109059524Y61795181D02*
X109059524Y62795181D01*
X109059524Y62795181D02*
X109440476Y62795181D01*
X109440476Y62795181D02*
X109535714Y62747562D01*
X109535714Y62747562D02*
X109583333Y62699943D01*
X109583333Y62699943D02*
X109630952Y62604705D01*
X109630952Y62604705D02*
X109630952Y62461848D01*
X109630952Y62461848D02*
X109583333Y62366610D01*
X109583333Y62366610D02*
X109535714Y62318991D01*
X109535714Y62318991D02*
X109440476Y62271372D01*
X109440476Y62271372D02*
X109059524Y62271372D01*
X9561905Y17868991D02*
X9895238Y17868991D01*
X10038095Y17345181D02*
X9561905Y17345181D01*
X9561905Y17345181D02*
X9561905Y18345181D01*
X9561905Y18345181D02*
X10038095Y18345181D01*
X10466667Y17345181D02*
X10466667Y18345181D01*
X10466667Y18345181D02*
X11038095Y17345181D01*
X11038095Y17345181D02*
X11038095Y18345181D01*
X69873866Y56160715D02*
X69873866Y56922619D01*
X70254819Y56541667D02*
X69492914Y56541667D01*
X69254819Y57303572D02*
X69254819Y57922619D01*
X69254819Y57922619D02*
X69635771Y57589286D01*
X69635771Y57589286D02*
X69635771Y57732143D01*
X69635771Y57732143D02*
X69683390Y57827381D01*
X69683390Y57827381D02*
X69731009Y57875000D01*
X69731009Y57875000D02*
X69826247Y57922619D01*
X69826247Y57922619D02*
X70064342Y57922619D01*
X70064342Y57922619D02*
X70159580Y57875000D01*
X70159580Y57875000D02*
X70207200Y57827381D01*
X70207200Y57827381D02*
X70254819Y57732143D01*
X70254819Y57732143D02*
X70254819Y57446429D01*
X70254819Y57446429D02*
X70207200Y57351191D01*
X70207200Y57351191D02*
X70159580Y57303572D01*
X69254819Y58208334D02*
X70254819Y58541667D01*
X70254819Y58541667D02*
X69254819Y58875000D01*
X69254819Y59113096D02*
X69254819Y59732143D01*
X69254819Y59732143D02*
X69635771Y59398810D01*
X69635771Y59398810D02*
X69635771Y59541667D01*
X69635771Y59541667D02*
X69683390Y59636905D01*
X69683390Y59636905D02*
X69731009Y59684524D01*
X69731009Y59684524D02*
X69826247Y59732143D01*
X69826247Y59732143D02*
X70064342Y59732143D01*
X70064342Y59732143D02*
X70159580Y59684524D01*
X70159580Y59684524D02*
X70207200Y59636905D01*
X70207200Y59636905D02*
X70254819Y59541667D01*
X70254819Y59541667D02*
X70254819Y59255953D01*
X70254819Y59255953D02*
X70207200Y59160715D01*
X70207200Y59160715D02*
X70159580Y59113096D01*
X70350057Y59922619D02*
X70350057Y60684524D01*
X69254819Y60827382D02*
X70254819Y61065477D01*
X70254819Y61065477D02*
X69540533Y61255953D01*
X69540533Y61255953D02*
X70254819Y61446429D01*
X70254819Y61446429D02*
X69254819Y61684524D01*
X70254819Y62065477D02*
X69254819Y62065477D01*
X69254819Y62065477D02*
X69254819Y62446429D01*
X69254819Y62446429D02*
X69302438Y62541667D01*
X69302438Y62541667D02*
X69350057Y62589286D01*
X69350057Y62589286D02*
X69445295Y62636905D01*
X69445295Y62636905D02*
X69588152Y62636905D01*
X69588152Y62636905D02*
X69683390Y62589286D01*
X69683390Y62589286D02*
X69731009Y62541667D01*
X69731009Y62541667D02*
X69778628Y62446429D01*
X69778628Y62446429D02*
X69778628Y62065477D01*
X112979819Y7911906D02*
X111979819Y7911906D01*
X111979819Y7911906D02*
X111979819Y8292858D01*
X111979819Y8292858D02*
X112027438Y8388096D01*
X112027438Y8388096D02*
X112075057Y8435715D01*
X112075057Y8435715D02*
X112170295Y8483334D01*
X112170295Y8483334D02*
X112313152Y8483334D01*
X112313152Y8483334D02*
X112408390Y8435715D01*
X112408390Y8435715D02*
X112456009Y8388096D01*
X112456009Y8388096D02*
X112503628Y8292858D01*
X112503628Y8292858D02*
X112503628Y7911906D01*
X112979819Y9435715D02*
X112979819Y8864287D01*
X112979819Y9150001D02*
X111979819Y9150001D01*
X111979819Y9150001D02*
X112122676Y9054763D01*
X112122676Y9054763D02*
X112217914Y8959525D01*
X112217914Y8959525D02*
X112265533Y8864287D01*
X112979819Y9864287D02*
X111979819Y9864287D01*
X111979819Y9864287D02*
X111979819Y10102382D01*
X111979819Y10102382D02*
X112027438Y10245239D01*
X112027438Y10245239D02*
X112122676Y10340477D01*
X112122676Y10340477D02*
X112217914Y10388096D01*
X112217914Y10388096D02*
X112408390Y10435715D01*
X112408390Y10435715D02*
X112551247Y10435715D01*
X112551247Y10435715D02*
X112741723Y10388096D01*
X112741723Y10388096D02*
X112836961Y10340477D01*
X112836961Y10340477D02*
X112932200Y10245239D01*
X112932200Y10245239D02*
X112979819Y10102382D01*
X112979819Y10102382D02*
X112979819Y9864287D01*
X20731009Y53761906D02*
X20731009Y54095239D01*
X21254819Y54238096D02*
X21254819Y53761906D01*
X21254819Y53761906D02*
X20254819Y53761906D01*
X20254819Y53761906D02*
X20254819Y54238096D01*
X21254819Y54666668D02*
X20254819Y54666668D01*
X20254819Y54666668D02*
X21254819Y55238096D01*
X21254819Y55238096D02*
X20254819Y55238096D01*
X110454819Y28635715D02*
X109454819Y28635715D01*
X109454819Y28635715D02*
X109454819Y29016667D01*
X109454819Y29016667D02*
X109502438Y29111905D01*
X109502438Y29111905D02*
X109550057Y29159524D01*
X109550057Y29159524D02*
X109645295Y29207143D01*
X109645295Y29207143D02*
X109788152Y29207143D01*
X109788152Y29207143D02*
X109883390Y29159524D01*
X109883390Y29159524D02*
X109931009Y29111905D01*
X109931009Y29111905D02*
X109978628Y29016667D01*
X109978628Y29016667D02*
X109978628Y28635715D01*
X109550057Y29588096D02*
X109502438Y29635715D01*
X109502438Y29635715D02*
X109454819Y29730953D01*
X109454819Y29730953D02*
X109454819Y29969048D01*
X109454819Y29969048D02*
X109502438Y30064286D01*
X109502438Y30064286D02*
X109550057Y30111905D01*
X109550057Y30111905D02*
X109645295Y30159524D01*
X109645295Y30159524D02*
X109740533Y30159524D01*
X109740533Y30159524D02*
X109883390Y30111905D01*
X109883390Y30111905D02*
X110454819Y29540477D01*
X110454819Y29540477D02*
X110454819Y30159524D01*
X109931009Y30588096D02*
X109931009Y30921429D01*
X110454819Y31064286D02*
X110454819Y30588096D01*
X110454819Y30588096D02*
X109454819Y30588096D01*
X109454819Y30588096D02*
X109454819Y31064286D01*
X110454819Y31492858D02*
X109454819Y31492858D01*
X109454819Y31492858D02*
X110454819Y32064286D01*
X110454819Y32064286D02*
X109454819Y32064286D01*
X25680952Y2726134D02*
X26442857Y2726134D01*
X26061904Y2345181D02*
X26061904Y3107086D01*
X26776190Y3345181D02*
X27109523Y2345181D01*
X27109523Y2345181D02*
X27442856Y3345181D01*
X28109523Y2868991D02*
X28252380Y2821372D01*
X28252380Y2821372D02*
X28299999Y2773753D01*
X28299999Y2773753D02*
X28347618Y2678515D01*
X28347618Y2678515D02*
X28347618Y2535658D01*
X28347618Y2535658D02*
X28299999Y2440420D01*
X28299999Y2440420D02*
X28252380Y2392800D01*
X28252380Y2392800D02*
X28157142Y2345181D01*
X28157142Y2345181D02*
X27776190Y2345181D01*
X27776190Y2345181D02*
X27776190Y3345181D01*
X27776190Y3345181D02*
X28109523Y3345181D01*
X28109523Y3345181D02*
X28204761Y3297562D01*
X28204761Y3297562D02*
X28252380Y3249943D01*
X28252380Y3249943D02*
X28299999Y3154705D01*
X28299999Y3154705D02*
X28299999Y3059467D01*
X28299999Y3059467D02*
X28252380Y2964229D01*
X28252380Y2964229D02*
X28204761Y2916610D01*
X28204761Y2916610D02*
X28109523Y2868991D01*
X28109523Y2868991D02*
X27776190Y2868991D01*
X28728571Y2630896D02*
X29204761Y2630896D01*
X28633333Y2345181D02*
X28966666Y3345181D01*
X28966666Y3345181D02*
X29299999Y2345181D01*
X29490476Y3345181D02*
X30061904Y3345181D01*
X29776190Y2345181D02*
X29776190Y3345181D01*
X37104819Y15864801D02*
X37342914Y15864801D01*
X37247676Y15626706D02*
X37342914Y15864801D01*
X37342914Y15864801D02*
X37247676Y16102896D01*
X37533390Y15721944D02*
X37342914Y15864801D01*
X37342914Y15864801D02*
X37533390Y16007658D01*
X38195180Y15864800D02*
X37957085Y15864800D01*
X38052323Y16102895D02*
X37957085Y15864800D01*
X37957085Y15864800D02*
X38052323Y15626705D01*
X37766609Y16007657D02*
X37957085Y15864800D01*
X37957085Y15864800D02*
X37766609Y15721943D01*
X24874999Y30040420D02*
X24827380Y29992800D01*
X24827380Y29992800D02*
X24684523Y29945181D01*
X24684523Y29945181D02*
X24589285Y29945181D01*
X24589285Y29945181D02*
X24446428Y29992800D01*
X24446428Y29992800D02*
X24351190Y30088039D01*
X24351190Y30088039D02*
X24303571Y30183277D01*
X24303571Y30183277D02*
X24255952Y30373753D01*
X24255952Y30373753D02*
X24255952Y30516610D01*
X24255952Y30516610D02*
X24303571Y30707086D01*
X24303571Y30707086D02*
X24351190Y30802324D01*
X24351190Y30802324D02*
X24446428Y30897562D01*
X24446428Y30897562D02*
X24589285Y30945181D01*
X24589285Y30945181D02*
X24684523Y30945181D01*
X24684523Y30945181D02*
X24827380Y30897562D01*
X24827380Y30897562D02*
X24874999Y30849943D01*
X25303571Y30468991D02*
X25636904Y30468991D01*
X25779761Y29945181D02*
X25303571Y29945181D01*
X25303571Y29945181D02*
X25303571Y30945181D01*
X25303571Y30945181D02*
X25779761Y30945181D01*
X25970238Y29849943D02*
X26732142Y29849943D01*
X26970238Y30468991D02*
X27303571Y30468991D01*
X27446428Y29945181D02*
X26970238Y29945181D01*
X26970238Y29945181D02*
X26970238Y30945181D01*
X26970238Y30945181D02*
X27446428Y30945181D01*
X27875000Y29945181D02*
X27875000Y30945181D01*
X27875000Y30945181D02*
X28446428Y29945181D01*
X28446428Y29945181D02*
X28446428Y30945181D01*
X13702380Y39295181D02*
X13369047Y39771372D01*
X13130952Y39295181D02*
X13130952Y40295181D01*
X13130952Y40295181D02*
X13511904Y40295181D01*
X13511904Y40295181D02*
X13607142Y40247562D01*
X13607142Y40247562D02*
X13654761Y40199943D01*
X13654761Y40199943D02*
X13702380Y40104705D01*
X13702380Y40104705D02*
X13702380Y39961848D01*
X13702380Y39961848D02*
X13654761Y39866610D01*
X13654761Y39866610D02*
X13607142Y39818991D01*
X13607142Y39818991D02*
X13511904Y39771372D01*
X13511904Y39771372D02*
X13130952Y39771372D01*
X13988095Y40295181D02*
X14559523Y40295181D01*
X14273809Y39295181D02*
X14273809Y40295181D01*
X14845238Y39342800D02*
X14988095Y39295181D01*
X14988095Y39295181D02*
X15226190Y39295181D01*
X15226190Y39295181D02*
X15321428Y39342800D01*
X15321428Y39342800D02*
X15369047Y39390420D01*
X15369047Y39390420D02*
X15416666Y39485658D01*
X15416666Y39485658D02*
X15416666Y39580896D01*
X15416666Y39580896D02*
X15369047Y39676134D01*
X15369047Y39676134D02*
X15321428Y39723753D01*
X15321428Y39723753D02*
X15226190Y39771372D01*
X15226190Y39771372D02*
X15035714Y39818991D01*
X15035714Y39818991D02*
X14940476Y39866610D01*
X14940476Y39866610D02*
X14892857Y39914229D01*
X14892857Y39914229D02*
X14845238Y40009467D01*
X14845238Y40009467D02*
X14845238Y40104705D01*
X14845238Y40104705D02*
X14892857Y40199943D01*
X14892857Y40199943D02*
X14940476Y40247562D01*
X14940476Y40247562D02*
X15035714Y40295181D01*
X15035714Y40295181D02*
X15273809Y40295181D01*
X15273809Y40295181D02*
X15416666Y40247562D01*
X63538095Y24126134D02*
X64300000Y24126134D01*
X63919047Y23745181D02*
X63919047Y24507086D01*
X65299999Y23745181D02*
X64728571Y23745181D01*
X65014285Y23745181D02*
X65014285Y24745181D01*
X65014285Y24745181D02*
X64919047Y24602324D01*
X64919047Y24602324D02*
X64823809Y24507086D01*
X64823809Y24507086D02*
X64728571Y24459467D01*
X65680952Y24649943D02*
X65728571Y24697562D01*
X65728571Y24697562D02*
X65823809Y24745181D01*
X65823809Y24745181D02*
X66061904Y24745181D01*
X66061904Y24745181D02*
X66157142Y24697562D01*
X66157142Y24697562D02*
X66204761Y24649943D01*
X66204761Y24649943D02*
X66252380Y24554705D01*
X66252380Y24554705D02*
X66252380Y24459467D01*
X66252380Y24459467D02*
X66204761Y24316610D01*
X66204761Y24316610D02*
X65633333Y23745181D01*
X65633333Y23745181D02*
X66252380Y23745181D01*
X66538095Y24745181D02*
X66871428Y23745181D01*
X66871428Y23745181D02*
X67204761Y24745181D01*
X41434524Y9076134D02*
X42196429Y9076134D01*
X41815476Y8695181D02*
X41815476Y9457086D01*
X42529762Y9695181D02*
X42863095Y8695181D01*
X42863095Y8695181D02*
X43196428Y9695181D01*
X43482143Y8742800D02*
X43625000Y8695181D01*
X43625000Y8695181D02*
X43863095Y8695181D01*
X43863095Y8695181D02*
X43958333Y8742800D01*
X43958333Y8742800D02*
X44005952Y8790420D01*
X44005952Y8790420D02*
X44053571Y8885658D01*
X44053571Y8885658D02*
X44053571Y8980896D01*
X44053571Y8980896D02*
X44005952Y9076134D01*
X44005952Y9076134D02*
X43958333Y9123753D01*
X43958333Y9123753D02*
X43863095Y9171372D01*
X43863095Y9171372D02*
X43672619Y9218991D01*
X43672619Y9218991D02*
X43577381Y9266610D01*
X43577381Y9266610D02*
X43529762Y9314229D01*
X43529762Y9314229D02*
X43482143Y9409467D01*
X43482143Y9409467D02*
X43482143Y9504705D01*
X43482143Y9504705D02*
X43529762Y9599943D01*
X43529762Y9599943D02*
X43577381Y9647562D01*
X43577381Y9647562D02*
X43672619Y9695181D01*
X43672619Y9695181D02*
X43910714Y9695181D01*
X43910714Y9695181D02*
X44053571Y9647562D01*
X44672619Y9171372D02*
X44672619Y8695181D01*
X44339286Y9695181D02*
X44672619Y9171372D01*
X44672619Y9171372D02*
X45005952Y9695181D01*
X45291667Y8742800D02*
X45434524Y8695181D01*
X45434524Y8695181D02*
X45672619Y8695181D01*
X45672619Y8695181D02*
X45767857Y8742800D01*
X45767857Y8742800D02*
X45815476Y8790420D01*
X45815476Y8790420D02*
X45863095Y8885658D01*
X45863095Y8885658D02*
X45863095Y8980896D01*
X45863095Y8980896D02*
X45815476Y9076134D01*
X45815476Y9076134D02*
X45767857Y9123753D01*
X45767857Y9123753D02*
X45672619Y9171372D01*
X45672619Y9171372D02*
X45482143Y9218991D01*
X45482143Y9218991D02*
X45386905Y9266610D01*
X45386905Y9266610D02*
X45339286Y9314229D01*
X45339286Y9314229D02*
X45291667Y9409467D01*
X45291667Y9409467D02*
X45291667Y9504705D01*
X45291667Y9504705D02*
X45339286Y9599943D01*
X45339286Y9599943D02*
X45386905Y9647562D01*
X45386905Y9647562D02*
X45482143Y9695181D01*
X45482143Y9695181D02*
X45720238Y9695181D01*
X45720238Y9695181D02*
X45863095Y9647562D01*
X65961905Y58070181D02*
X65961905Y59070181D01*
X65961905Y59070181D02*
X66200000Y59070181D01*
X66200000Y59070181D02*
X66342857Y59022562D01*
X66342857Y59022562D02*
X66438095Y58927324D01*
X66438095Y58927324D02*
X66485714Y58832086D01*
X66485714Y58832086D02*
X66533333Y58641610D01*
X66533333Y58641610D02*
X66533333Y58498753D01*
X66533333Y58498753D02*
X66485714Y58308277D01*
X66485714Y58308277D02*
X66438095Y58213039D01*
X66438095Y58213039D02*
X66342857Y58117800D01*
X66342857Y58117800D02*
X66200000Y58070181D01*
X66200000Y58070181D02*
X65961905Y58070181D01*
X66961905Y58593991D02*
X67295238Y58593991D01*
X67438095Y58070181D02*
X66961905Y58070181D01*
X66961905Y58070181D02*
X66961905Y59070181D01*
X66961905Y59070181D02*
X67438095Y59070181D01*
X67866667Y58070181D02*
X67866667Y59070181D01*
X67866667Y59070181D02*
X68438095Y58070181D01*
X68438095Y58070181D02*
X68438095Y59070181D01*
X17915476Y30126134D02*
X18677381Y30126134D01*
X18296428Y29745181D02*
X18296428Y30507086D01*
X19010714Y30745181D02*
X19344047Y29745181D01*
X19344047Y29745181D02*
X19677380Y30745181D01*
X20010714Y29745181D02*
X20010714Y30745181D01*
X20010714Y30745181D02*
X20248809Y30745181D01*
X20248809Y30745181D02*
X20391666Y30697562D01*
X20391666Y30697562D02*
X20486904Y30602324D01*
X20486904Y30602324D02*
X20534523Y30507086D01*
X20534523Y30507086D02*
X20582142Y30316610D01*
X20582142Y30316610D02*
X20582142Y30173753D01*
X20582142Y30173753D02*
X20534523Y29983277D01*
X20534523Y29983277D02*
X20486904Y29888039D01*
X20486904Y29888039D02*
X20391666Y29792800D01*
X20391666Y29792800D02*
X20248809Y29745181D01*
X20248809Y29745181D02*
X20010714Y29745181D01*
X21010714Y29745181D02*
X21010714Y30745181D01*
X21010714Y30745181D02*
X21248809Y30745181D01*
X21248809Y30745181D02*
X21391666Y30697562D01*
X21391666Y30697562D02*
X21486904Y30602324D01*
X21486904Y30602324D02*
X21534523Y30507086D01*
X21534523Y30507086D02*
X21582142Y30316610D01*
X21582142Y30316610D02*
X21582142Y30173753D01*
X21582142Y30173753D02*
X21534523Y29983277D01*
X21534523Y29983277D02*
X21486904Y29888039D01*
X21486904Y29888039D02*
X21391666Y29792800D01*
X21391666Y29792800D02*
X21248809Y29745181D01*
X21248809Y29745181D02*
X21010714Y29745181D01*
X59759524Y51267800D02*
X59902381Y51220181D01*
X59902381Y51220181D02*
X60140476Y51220181D01*
X60140476Y51220181D02*
X60235714Y51267800D01*
X60235714Y51267800D02*
X60283333Y51315420D01*
X60283333Y51315420D02*
X60330952Y51410658D01*
X60330952Y51410658D02*
X60330952Y51505896D01*
X60330952Y51505896D02*
X60283333Y51601134D01*
X60283333Y51601134D02*
X60235714Y51648753D01*
X60235714Y51648753D02*
X60140476Y51696372D01*
X60140476Y51696372D02*
X59950000Y51743991D01*
X59950000Y51743991D02*
X59854762Y51791610D01*
X59854762Y51791610D02*
X59807143Y51839229D01*
X59807143Y51839229D02*
X59759524Y51934467D01*
X59759524Y51934467D02*
X59759524Y52029705D01*
X59759524Y52029705D02*
X59807143Y52124943D01*
X59807143Y52124943D02*
X59854762Y52172562D01*
X59854762Y52172562D02*
X59950000Y52220181D01*
X59950000Y52220181D02*
X60188095Y52220181D01*
X60188095Y52220181D02*
X60330952Y52172562D01*
X61330952Y51315420D02*
X61283333Y51267800D01*
X61283333Y51267800D02*
X61140476Y51220181D01*
X61140476Y51220181D02*
X61045238Y51220181D01*
X61045238Y51220181D02*
X60902381Y51267800D01*
X60902381Y51267800D02*
X60807143Y51363039D01*
X60807143Y51363039D02*
X60759524Y51458277D01*
X60759524Y51458277D02*
X60711905Y51648753D01*
X60711905Y51648753D02*
X60711905Y51791610D01*
X60711905Y51791610D02*
X60759524Y51982086D01*
X60759524Y51982086D02*
X60807143Y52077324D01*
X60807143Y52077324D02*
X60902381Y52172562D01*
X60902381Y52172562D02*
X61045238Y52220181D01*
X61045238Y52220181D02*
X61140476Y52220181D01*
X61140476Y52220181D02*
X61283333Y52172562D01*
X61283333Y52172562D02*
X61330952Y52124943D01*
X62235714Y51220181D02*
X61759524Y51220181D01*
X61759524Y51220181D02*
X61759524Y52220181D01*
X22738095Y35845562D02*
X22642857Y35893181D01*
X22642857Y35893181D02*
X22500000Y35893181D01*
X22500000Y35893181D02*
X22357143Y35845562D01*
X22357143Y35845562D02*
X22261905Y35750324D01*
X22261905Y35750324D02*
X22214286Y35655086D01*
X22214286Y35655086D02*
X22166667Y35464610D01*
X22166667Y35464610D02*
X22166667Y35321753D01*
X22166667Y35321753D02*
X22214286Y35131277D01*
X22214286Y35131277D02*
X22261905Y35036039D01*
X22261905Y35036039D02*
X22357143Y34940800D01*
X22357143Y34940800D02*
X22500000Y34893181D01*
X22500000Y34893181D02*
X22595238Y34893181D01*
X22595238Y34893181D02*
X22738095Y34940800D01*
X22738095Y34940800D02*
X22785714Y34988420D01*
X22785714Y34988420D02*
X22785714Y35321753D01*
X22785714Y35321753D02*
X22595238Y35321753D01*
X23214286Y34893181D02*
X23214286Y35893181D01*
X23214286Y35893181D02*
X23785714Y34893181D01*
X23785714Y34893181D02*
X23785714Y35893181D01*
X24261905Y34893181D02*
X24261905Y35893181D01*
X24261905Y35893181D02*
X24500000Y35893181D01*
X24500000Y35893181D02*
X24642857Y35845562D01*
X24642857Y35845562D02*
X24738095Y35750324D01*
X24738095Y35750324D02*
X24785714Y35655086D01*
X24785714Y35655086D02*
X24833333Y35464610D01*
X24833333Y35464610D02*
X24833333Y35321753D01*
X24833333Y35321753D02*
X24785714Y35131277D01*
X24785714Y35131277D02*
X24738095Y35036039D01*
X24738095Y35036039D02*
X24642857Y34940800D01*
X24642857Y34940800D02*
X24500000Y34893181D01*
X24500000Y34893181D02*
X24261905Y34893181D01*
X2538095Y18942800D02*
X2680952Y18895181D01*
X2680952Y18895181D02*
X2919047Y18895181D01*
X2919047Y18895181D02*
X3014285Y18942800D01*
X3014285Y18942800D02*
X3061904Y18990420D01*
X3061904Y18990420D02*
X3109523Y19085658D01*
X3109523Y19085658D02*
X3109523Y19180896D01*
X3109523Y19180896D02*
X3061904Y19276134D01*
X3061904Y19276134D02*
X3014285Y19323753D01*
X3014285Y19323753D02*
X2919047Y19371372D01*
X2919047Y19371372D02*
X2728571Y19418991D01*
X2728571Y19418991D02*
X2633333Y19466610D01*
X2633333Y19466610D02*
X2585714Y19514229D01*
X2585714Y19514229D02*
X2538095Y19609467D01*
X2538095Y19609467D02*
X2538095Y19704705D01*
X2538095Y19704705D02*
X2585714Y19799943D01*
X2585714Y19799943D02*
X2633333Y19847562D01*
X2633333Y19847562D02*
X2728571Y19895181D01*
X2728571Y19895181D02*
X2966666Y19895181D01*
X2966666Y19895181D02*
X3109523Y19847562D01*
X3538095Y19418991D02*
X3871428Y19418991D01*
X4014285Y18895181D02*
X3538095Y18895181D01*
X3538095Y18895181D02*
X3538095Y19895181D01*
X3538095Y19895181D02*
X4014285Y19895181D01*
X4442857Y18895181D02*
X4442857Y19895181D01*
X4442857Y19895181D02*
X5014285Y18895181D01*
X5014285Y18895181D02*
X5014285Y19895181D01*
X36379762Y29320181D02*
X36379762Y30320181D01*
X36379762Y30320181D02*
X36760714Y30320181D01*
X36760714Y30320181D02*
X36855952Y30272562D01*
X36855952Y30272562D02*
X36903571Y30224943D01*
X36903571Y30224943D02*
X36951190Y30129705D01*
X36951190Y30129705D02*
X36951190Y29986848D01*
X36951190Y29986848D02*
X36903571Y29891610D01*
X36903571Y29891610D02*
X36855952Y29843991D01*
X36855952Y29843991D02*
X36760714Y29796372D01*
X36760714Y29796372D02*
X36379762Y29796372D01*
X37332143Y29367800D02*
X37475000Y29320181D01*
X37475000Y29320181D02*
X37713095Y29320181D01*
X37713095Y29320181D02*
X37808333Y29367800D01*
X37808333Y29367800D02*
X37855952Y29415420D01*
X37855952Y29415420D02*
X37903571Y29510658D01*
X37903571Y29510658D02*
X37903571Y29605896D01*
X37903571Y29605896D02*
X37855952Y29701134D01*
X37855952Y29701134D02*
X37808333Y29748753D01*
X37808333Y29748753D02*
X37713095Y29796372D01*
X37713095Y29796372D02*
X37522619Y29843991D01*
X37522619Y29843991D02*
X37427381Y29891610D01*
X37427381Y29891610D02*
X37379762Y29939229D01*
X37379762Y29939229D02*
X37332143Y30034467D01*
X37332143Y30034467D02*
X37332143Y30129705D01*
X37332143Y30129705D02*
X37379762Y30224943D01*
X37379762Y30224943D02*
X37427381Y30272562D01*
X37427381Y30272562D02*
X37522619Y30320181D01*
X37522619Y30320181D02*
X37760714Y30320181D01*
X37760714Y30320181D02*
X37903571Y30272562D01*
X38332143Y29843991D02*
X38665476Y29843991D01*
X38808333Y29320181D02*
X38332143Y29320181D01*
X38332143Y29320181D02*
X38332143Y30320181D01*
X38332143Y30320181D02*
X38808333Y30320181D01*
X39713095Y29320181D02*
X39236905Y29320181D01*
X39236905Y29320181D02*
X39236905Y30320181D01*
D11*
%TO.C,C130*%
X91165000Y28738748D02*
X91165000Y30161252D01*
X92985000Y28738748D02*
X92985000Y30161252D01*
%TO.C,+12V_W*%
X95650000Y38000000D02*
G75*
G02*
X94250000Y38000000I-700000J0D01*
G01*
X94250000Y38000000D02*
G75*
G02*
X95650000Y38000000I700000J0D01*
G01*
%TO.C,C601*%
X97840000Y28260000D02*
X97840000Y24510000D01*
X97840000Y17740000D02*
X97840000Y21490000D01*
X107295563Y28260000D02*
X97840000Y28260000D01*
X107295563Y17740000D02*
X97840000Y17740000D01*
X108360000Y27195563D02*
X107295563Y28260000D01*
X108360000Y27195563D02*
X108360000Y24510000D01*
X108360000Y18804437D02*
X107295563Y17740000D01*
X108360000Y18804437D02*
X108360000Y21490000D01*
X109225000Y19615000D02*
X109225000Y20865000D01*
X109850000Y20240000D02*
X108600000Y20240000D01*
%TO.C,GND*%
X96925000Y36125000D02*
X98825000Y36125000D01*
X96925000Y34225000D02*
X96925000Y36125000D01*
X98825000Y36125000D02*
X98825000Y34225000D01*
X98825000Y34225000D02*
X96925000Y34225000D01*
%TO.C,DTR*%
X8150000Y30250000D02*
G75*
G02*
X6750000Y30250000I-700000J0D01*
G01*
X6750000Y30250000D02*
G75*
G02*
X8150000Y30250000I700000J0D01*
G01*
%TO.C,C132*%
X58461252Y61260000D02*
X57038748Y61260000D01*
X58461252Y59440000D02*
X57038748Y59440000D01*
%TO.C,+VDDD*%
X23375000Y22025000D02*
G75*
G02*
X21975000Y22025000I-700000J0D01*
G01*
X21975000Y22025000D02*
G75*
G02*
X23375000Y22025000I700000J0D01*
G01*
%TO.C,U405*%
X76075000Y34475000D02*
X76075000Y32665000D01*
X76075000Y24075000D02*
X76075000Y25885000D01*
X77440000Y34475000D02*
X76075000Y34475000D01*
X77440000Y24075000D02*
X76075000Y24075000D01*
X73250000Y32625000D02*
X72910000Y33095000D01*
X73590000Y33095000D01*
X73250000Y32625000D01*
G36*
X73250000Y32625000D02*
G01*
X72910000Y33095000D01*
X73590000Y33095000D01*
X73250000Y32625000D01*
G37*
%TO.C,U501*%
X22725000Y44423437D02*
X22725000Y45373437D01*
X24125000Y44423437D02*
X22725000Y44423437D01*
X39725000Y44423437D02*
X41125000Y44423437D01*
X41125000Y44423437D02*
X41125000Y45373437D01*
X21725000Y62373437D02*
X21225000Y62373437D01*
X21725000Y62873437D01*
X21725000Y62373437D01*
G36*
X21725000Y62373437D02*
G01*
X21225000Y62373437D01*
X21725000Y62873437D01*
X21725000Y62373437D01*
G37*
%TO.C,C406*%
X90840000Y18325000D02*
X90840000Y10265000D01*
X90840000Y10265000D02*
X97060000Y10265000D01*
X97060000Y10265000D02*
X97060000Y18325000D01*
D12*
%TO.C,D101*%
X13130000Y36490000D02*
G75*
G02*
X13030000Y36490000I-50000J0D01*
G01*
X13030000Y36490000D02*
G75*
G02*
X13130000Y36490000I50000J0D01*
G01*
D11*
%TO.C,Q600*%
X101865000Y10075000D02*
X101865000Y6315000D01*
X101865000Y6315000D02*
X103125000Y6315000D01*
X108685000Y10075000D02*
X108685000Y6315000D01*
X108685000Y6315000D02*
X107425000Y6315000D01*
X108915000Y11115000D02*
X108585000Y11355000D01*
X108915000Y11595000D01*
X108915000Y11115000D01*
G36*
X108915000Y11115000D02*
G01*
X108585000Y11355000D01*
X108915000Y11595000D01*
X108915000Y11115000D01*
G37*
%TO.C,J807*%
X90640000Y67535000D02*
X90640000Y63515000D01*
X90640000Y66035000D02*
X91640000Y66035000D01*
X90640000Y63515000D02*
X98360000Y63515000D01*
X91140000Y65225000D02*
X90640000Y65225000D01*
X91140000Y64015000D02*
X91140000Y65225000D01*
X91640000Y66035000D02*
X91640000Y67535000D01*
X97360000Y66035000D02*
X97360000Y67535000D01*
X97860000Y65225000D02*
X97860000Y64015000D01*
X97860000Y64015000D02*
X91140000Y64015000D01*
X98360000Y67535000D02*
X90640000Y67535000D01*
X98360000Y66035000D02*
X97360000Y66035000D01*
X98360000Y65225000D02*
X97860000Y65225000D01*
X98360000Y63515000D02*
X98360000Y67535000D01*
X98660000Y67835000D02*
X96160000Y67835000D01*
X98660000Y65335000D02*
X98660000Y67835000D01*
%TO.C,Q204*%
X50217500Y14172500D02*
X50217500Y14542500D01*
X50217500Y14172500D02*
X53757500Y14172500D01*
X53757500Y17712500D02*
X50547500Y17712500D01*
X53757500Y17712500D02*
X53757500Y17342500D01*
X53757500Y14172500D02*
X53757500Y14542500D01*
X50227500Y17392500D02*
X49747500Y17392500D01*
X50227500Y17872500D01*
X50227500Y17392500D01*
G36*
X50227500Y17392500D02*
G01*
X49747500Y17392500D01*
X50227500Y17872500D01*
X50227500Y17392500D01*
G37*
%TO.C,U101*%
X9490000Y35210000D02*
X9965000Y35210000D01*
X9490000Y34735000D02*
X9490000Y35210000D01*
X9490000Y31465000D02*
X9490000Y31290000D01*
X9965000Y30990000D02*
X9730000Y30990000D01*
X13710000Y35210000D02*
X13235000Y35210000D01*
X13710000Y34735000D02*
X13710000Y35210000D01*
X13710000Y31465000D02*
X13710000Y30990000D01*
X13710000Y30990000D02*
X13235000Y30990000D01*
X9490000Y30990000D02*
X9160000Y30750000D01*
X9160000Y31230000D01*
X9490000Y30990000D01*
G36*
X9490000Y30990000D02*
G01*
X9160000Y30750000D01*
X9160000Y31230000D01*
X9490000Y30990000D01*
G37*
D12*
%TO.C,D100*%
X12155000Y36490000D02*
G75*
G02*
X12055000Y36490000I-50000J0D01*
G01*
X12055000Y36490000D02*
G75*
G02*
X12155000Y36490000I50000J0D01*
G01*
D11*
%TO.C,C405*%
X85595000Y18325000D02*
X85595000Y10265000D01*
X85595000Y10265000D02*
X90115000Y10265000D01*
X90115000Y10265000D02*
X90115000Y18325000D01*
%TO.C,SLEEP*%
X25275000Y15475000D02*
G75*
G02*
X23875000Y15475000I-700000J0D01*
G01*
X23875000Y15475000D02*
G75*
G02*
X25275000Y15475000I700000J0D01*
G01*
%TO.C,C510*%
X76390000Y15113748D02*
X76390000Y15636252D01*
X77860000Y15113748D02*
X77860000Y15636252D01*
%TO.C,+3V3*%
X57825000Y23350000D02*
G75*
G02*
X56425000Y23350000I-700000J0D01*
G01*
X56425000Y23350000D02*
G75*
G02*
X57825000Y23350000I700000J0D01*
G01*
%TO.C,Q702*%
X64077500Y62725000D02*
X64077500Y63375000D01*
X64077500Y62725000D02*
X64077500Y62075000D01*
X67197500Y62725000D02*
X67197500Y63375000D01*
X67197500Y62725000D02*
X67197500Y62075000D01*
X64167500Y61165000D02*
X63837500Y60925000D01*
X63837500Y61405000D01*
X64167500Y61165000D01*
G36*
X64167500Y61165000D02*
G01*
X63837500Y60925000D01*
X63837500Y61405000D01*
X64167500Y61165000D01*
G37*
%TO.C,J701*%
X54215000Y69210000D02*
X54215000Y65190000D01*
X54215000Y67710000D02*
X55215000Y67710000D01*
X54215000Y65190000D02*
X66935000Y65190000D01*
X54715000Y66900000D02*
X54215000Y66900000D01*
X54715000Y65690000D02*
X54715000Y66900000D01*
X55215000Y67710000D02*
X55215000Y69210000D01*
X65935000Y67710000D02*
X65935000Y69210000D01*
X66435000Y66900000D02*
X66435000Y65690000D01*
X66435000Y65690000D02*
X54715000Y65690000D01*
X66935000Y69210000D02*
X54215000Y69210000D01*
X66935000Y67710000D02*
X65935000Y67710000D01*
X66935000Y66900000D02*
X66435000Y66900000D01*
X66935000Y65190000D02*
X66935000Y69210000D01*
X67235000Y69510000D02*
X64735000Y69510000D01*
X67235000Y67010000D02*
X67235000Y69510000D01*
%TO.C,C511*%
X80440000Y15113748D02*
X80440000Y15636252D01*
X81910000Y15113748D02*
X81910000Y15636252D01*
D12*
%TO.C,D300*%
X28870000Y25140000D02*
G75*
G02*
X28770000Y25140000I-50000J0D01*
G01*
X28770000Y25140000D02*
G75*
G02*
X28870000Y25140000I50000J0D01*
G01*
D11*
%TO.C,Q703*%
X80152500Y62525000D02*
X80152500Y63175000D01*
X80152500Y62525000D02*
X80152500Y61875000D01*
X83272500Y62525000D02*
X83272500Y63175000D01*
X83272500Y62525000D02*
X83272500Y61875000D01*
X80202500Y61362500D02*
X79872500Y61122500D01*
X79872500Y61602500D01*
X80202500Y61362500D01*
G36*
X80202500Y61362500D02*
G01*
X79872500Y61122500D01*
X79872500Y61602500D01*
X80202500Y61362500D01*
G37*
%TO.C,U403*%
X49950000Y28635000D02*
X49150000Y28635000D01*
X49950000Y28635000D02*
X50750000Y28635000D01*
X49950000Y25515000D02*
X49150000Y25515000D01*
X49950000Y25515000D02*
X50750000Y25515000D01*
X48650000Y28585000D02*
X48410000Y28915000D01*
X48890000Y28915000D01*
X48650000Y28585000D01*
G36*
X48650000Y28585000D02*
G01*
X48410000Y28915000D01*
X48890000Y28915000D01*
X48650000Y28585000D01*
G37*
%TO.C,GND*%
X63650000Y42450000D02*
X65550000Y42450000D01*
X63650000Y40550000D02*
X63650000Y42450000D01*
X65550000Y42450000D02*
X65550000Y40550000D01*
X65550000Y40550000D02*
X63650000Y40550000D01*
%TO.C,C133*%
X74536252Y61060000D02*
X73113748Y61060000D01*
X74536252Y59240000D02*
X73113748Y59240000D01*
%TO.C,J803*%
X5740000Y59910000D02*
X5740000Y55890000D01*
X5740000Y58410000D02*
X6740000Y58410000D01*
X5740000Y55890000D02*
X13460000Y55890000D01*
X6240000Y57600000D02*
X5740000Y57600000D01*
X6240000Y56390000D02*
X6240000Y57600000D01*
X6740000Y58410000D02*
X6740000Y59910000D01*
X12460000Y58410000D02*
X12460000Y59910000D01*
X12960000Y57600000D02*
X12960000Y56390000D01*
X12960000Y56390000D02*
X6240000Y56390000D01*
X13460000Y59910000D02*
X5740000Y59910000D01*
X13460000Y58410000D02*
X12460000Y58410000D01*
X13460000Y57600000D02*
X12960000Y57600000D01*
X13460000Y55890000D02*
X13460000Y59910000D01*
X13760000Y60210000D02*
X11260000Y60210000D01*
X13760000Y57710000D02*
X13760000Y60210000D01*
%TO.C,C404*%
X51590000Y13510000D02*
X51590000Y5450000D01*
X56110000Y13510000D02*
X51590000Y13510000D01*
X56110000Y5450000D02*
X56110000Y13510000D01*
%TO.C,Q300*%
D10*
X33225000Y27675000D02*
G75*
G02*
X33075000Y27675000I-75000J0D01*
G01*
X33075000Y27675000D02*
G75*
G02*
X33225000Y27675000I75000J0D01*
G01*
D11*
%TO.C,GND*%
X64250000Y31225000D02*
X66150000Y31225000D01*
X64250000Y29325000D02*
X64250000Y31225000D01*
X66150000Y31225000D02*
X66150000Y29325000D01*
X66150000Y29325000D02*
X64250000Y29325000D01*
D13*
%TO.C,G\u002A\u002A\u002A*%
G36*
X32184921Y38647145D02*
G01*
X32215411Y38633430D01*
X32253379Y38601387D01*
X32274173Y38560920D01*
X32279414Y38521663D01*
X32271721Y38473497D01*
X32249265Y38434829D01*
X32215353Y38407721D01*
X32173294Y38394234D01*
X32126393Y38396434D01*
X32095528Y38406950D01*
X32058177Y38433656D01*
X32034582Y38470032D01*
X32024809Y38511806D01*
X32028925Y38554704D01*
X32046996Y38594456D01*
X32079088Y38626789D01*
X32091987Y38634688D01*
X32139201Y38650642D01*
X32184921Y38647145D01*
G37*
G36*
X29405481Y36738622D02*
G01*
X29446406Y36725202D01*
X29464260Y36712624D01*
X29488062Y36679382D01*
X29498814Y36638533D01*
X29496915Y36595690D01*
X29482765Y36556469D01*
X29456764Y36526484D01*
X29450718Y36522416D01*
X29407141Y36506417D01*
X29359056Y36505679D01*
X29314110Y36520165D01*
X29309008Y36523097D01*
X29276242Y36553336D01*
X29257474Y36592464D01*
X29253459Y36635373D01*
X29264949Y36676954D01*
X29282559Y36702469D01*
X29317157Y36726898D01*
X29360265Y36739069D01*
X29405481Y36738622D01*
G37*
G36*
X34986038Y36728263D02*
G01*
X34998573Y36721665D01*
X35029996Y36690232D01*
X35047463Y36649217D01*
X35049722Y36603882D01*
X35036642Y36561604D01*
X35010442Y36530536D01*
X34973063Y36510546D01*
X34930046Y36502608D01*
X34886935Y36507694D01*
X34849272Y36526778D01*
X34847343Y36528359D01*
X34817503Y36563607D01*
X34805048Y36605266D01*
X34809775Y36654651D01*
X34822051Y36691727D01*
X34840228Y36712957D01*
X34871504Y36728207D01*
X34910091Y36736496D01*
X34950198Y36736842D01*
X34986038Y36728263D01*
G37*
G36*
X32189778Y38179932D02*
G01*
X32216531Y38170399D01*
X32247897Y38143240D01*
X32267880Y38106051D01*
X32276390Y38063624D01*
X32273340Y38020747D01*
X32258640Y37982211D01*
X32232204Y37952805D01*
X32220661Y37945806D01*
X32169779Y37927703D01*
X32125433Y37927963D01*
X32120121Y37929351D01*
X32080450Y37945037D01*
X32054302Y37966702D01*
X32038927Y37991812D01*
X32024498Y38042473D01*
X32028623Y38091441D01*
X32050590Y38135569D01*
X32077853Y38163215D01*
X32108980Y38177659D01*
X32149168Y38183380D01*
X32189778Y38179932D01*
G37*
G36*
X34908124Y37625051D02*
G01*
X34914887Y37621784D01*
X34943437Y37600567D01*
X34959665Y37570708D01*
X34965644Y37527976D01*
X34965793Y37517850D01*
X34958923Y37468351D01*
X34937869Y37431832D01*
X34901958Y37407159D01*
X34899592Y37406146D01*
X34856516Y37394022D01*
X34816427Y37397409D01*
X34790766Y37406607D01*
X34758915Y37430287D01*
X34738118Y37465814D01*
X34729556Y37508173D01*
X34734409Y37552352D01*
X34748656Y37585494D01*
X34777890Y37615979D01*
X34817578Y37633468D01*
X34862671Y37636859D01*
X34908124Y37625051D01*
G37*
G36*
X30125056Y38319530D02*
G01*
X30164873Y38296185D01*
X30181824Y38279141D01*
X30197374Y38257799D01*
X30204231Y38237156D01*
X30204622Y38208706D01*
X30203669Y38195644D01*
X30197358Y38156823D01*
X30184435Y38129878D01*
X30174855Y38118800D01*
X30137608Y38094455D01*
X30091517Y38083835D01*
X30051419Y38086632D01*
X30010056Y38104421D01*
X29978038Y38135622D01*
X29958575Y38175532D01*
X29954880Y38219449D01*
X29955946Y38226423D01*
X29972684Y38269968D01*
X30001890Y38301967D01*
X30039638Y38321504D01*
X30082002Y38327664D01*
X30125056Y38319530D01*
G37*
G36*
X32171972Y37712859D02*
G01*
X32216292Y37699863D01*
X32251919Y37675479D01*
X32261753Y37663729D01*
X32271830Y37637335D01*
X32276187Y37600509D01*
X32274705Y37561537D01*
X32267266Y37528705D01*
X32263783Y37521162D01*
X32235451Y37488866D01*
X32195856Y37468479D01*
X32150150Y37461313D01*
X32103485Y37468682D01*
X32085998Y37475849D01*
X32053055Y37501839D01*
X32032049Y37538250D01*
X32023079Y37580305D01*
X32026246Y37623228D01*
X32041650Y37662242D01*
X32069391Y37692572D01*
X32081295Y37699873D01*
X32124970Y37713264D01*
X32171972Y37712859D01*
G37*
G36*
X29490113Y37635060D02*
G01*
X29514255Y37629017D01*
X29534689Y37616004D01*
X29542064Y37609673D01*
X29568039Y37574431D01*
X29579223Y37532050D01*
X29575841Y37487892D01*
X29558122Y37447317D01*
X29534091Y37421285D01*
X29502317Y37406646D01*
X29461638Y37401383D01*
X29420278Y37405468D01*
X29386460Y37418877D01*
X29382447Y37421768D01*
X29354580Y37455202D01*
X29340976Y37497194D01*
X29341925Y37542650D01*
X29357719Y37586473D01*
X29371911Y37606944D01*
X29388162Y37623853D01*
X29404975Y37632732D01*
X29429387Y37636104D01*
X29454406Y37636539D01*
X29490113Y37635060D01*
G37*
G36*
X32277000Y34516735D02*
G01*
X32277000Y34278855D01*
X32246039Y34235870D01*
X32229475Y34213824D01*
X32204071Y34181124D01*
X32172844Y34141541D01*
X32138815Y34098848D01*
X32105003Y34056818D01*
X32074427Y34019222D01*
X32050107Y33989834D01*
X32035978Y33973426D01*
X32032706Y33972510D01*
X32030013Y33978681D01*
X32027847Y33993484D01*
X32026157Y34018464D01*
X32024889Y34055164D01*
X32023992Y34105128D01*
X32023412Y34169901D01*
X32023099Y34251027D01*
X32023000Y34350050D01*
X32023000Y34356868D01*
X32023000Y34754616D01*
X32150000Y34754616D01*
X32277000Y34754616D01*
X32277000Y34516735D01*
G37*
G36*
X34061684Y37648190D02*
G01*
X34095689Y37626823D01*
X34116752Y37595037D01*
X34122560Y37556065D01*
X34114027Y37520304D01*
X34096776Y37495303D01*
X34066899Y37476093D01*
X34022110Y37461624D01*
X33964235Y37451388D01*
X33915994Y37445231D01*
X33882732Y37442506D01*
X33860106Y37443763D01*
X33843771Y37449553D01*
X33829381Y37460428D01*
X33819787Y37469710D01*
X33797749Y37503066D01*
X33789653Y37541239D01*
X33795757Y37578160D01*
X33814020Y37605697D01*
X33838177Y37620140D01*
X33876286Y37633762D01*
X33922771Y37645184D01*
X33972054Y37653026D01*
X34017048Y37655908D01*
X34061684Y37648190D01*
G37*
G36*
X30633727Y37024661D02*
G01*
X30698290Y37007684D01*
X30701795Y37006584D01*
X30755575Y36986847D01*
X30791813Y36966334D01*
X30812475Y36943193D01*
X30819528Y36915569D01*
X30818180Y36896905D01*
X30806259Y36864282D01*
X30784236Y36834967D01*
X30757201Y36814192D01*
X30730865Y36807156D01*
X30710766Y36810285D01*
X30678788Y36817548D01*
X30641747Y36827392D01*
X30640654Y36827704D01*
X30602176Y36839037D01*
X30567412Y36849851D01*
X30544202Y36857693D01*
X30516528Y36877345D01*
X30500087Y36908148D01*
X30495686Y36944727D01*
X30504133Y36981709D01*
X30521487Y37008866D01*
X30546765Y37025233D01*
X30583699Y37030504D01*
X30633727Y37024661D01*
G37*
G36*
X33118930Y37810859D02*
G01*
X33140708Y37792097D01*
X33162157Y37753628D01*
X33166000Y37726708D01*
X33163752Y37705447D01*
X33154915Y37686111D01*
X33136345Y37663496D01*
X33114711Y37641806D01*
X33064427Y37595296D01*
X33023588Y37562913D01*
X32989605Y37543391D01*
X32959893Y37535464D01*
X32931862Y37537866D01*
X32914526Y37543844D01*
X32885853Y37564640D01*
X32864827Y37595657D01*
X32855344Y37629816D01*
X32856782Y37648747D01*
X32867411Y37668278D01*
X32889772Y37696061D01*
X32920218Y37728295D01*
X32955103Y37761180D01*
X32990781Y37790915D01*
X32999378Y37797398D01*
X33040787Y37818601D01*
X33081912Y37823040D01*
X33118930Y37810859D01*
G37*
G36*
X33314342Y36853703D02*
G01*
X33341090Y36829374D01*
X33356565Y36790616D01*
X33358034Y36781716D01*
X33358812Y36755411D01*
X33351974Y36732132D01*
X33335275Y36709004D01*
X33306471Y36683153D01*
X33263317Y36651705D01*
X33248743Y36641767D01*
X33208893Y36615781D01*
X33180201Y36600243D01*
X33158295Y36593751D01*
X33138799Y36594902D01*
X33120945Y36600806D01*
X33092529Y36620907D01*
X33069969Y36651927D01*
X33058884Y36685662D01*
X33058538Y36691916D01*
X33067349Y36720192D01*
X33092706Y36753943D01*
X33132994Y36791432D01*
X33186601Y36830924D01*
X33189751Y36833020D01*
X33236342Y36856236D01*
X33278649Y36862894D01*
X33314342Y36853703D01*
G37*
G36*
X33601516Y37510536D02*
G01*
X33628258Y37487860D01*
X33646603Y37456739D01*
X33650696Y37441154D01*
X33653014Y37410591D01*
X33647606Y37385764D01*
X33632079Y37363670D01*
X33604035Y37341305D01*
X33561080Y37315667D01*
X33542593Y37305640D01*
X33487661Y37278016D01*
X33445555Y37261550D01*
X33413291Y37255916D01*
X33387886Y37260793D01*
X33366354Y37275859D01*
X33357368Y37285596D01*
X33335782Y37321264D01*
X33333218Y37355461D01*
X33349817Y37389685D01*
X33369097Y37410917D01*
X33397054Y37433341D01*
X33434134Y37457615D01*
X33475293Y37481043D01*
X33515488Y37500929D01*
X33549673Y37514576D01*
X33571881Y37519308D01*
X33601516Y37510536D01*
G37*
G36*
X34074850Y37046893D02*
G01*
X34090567Y37045639D01*
X34157908Y37038504D01*
X34207963Y37029064D01*
X34242949Y37016163D01*
X34265086Y36998647D01*
X34276590Y36975360D01*
X34279692Y36947185D01*
X34272316Y36901071D01*
X34251263Y36865821D01*
X34229429Y36849383D01*
X34209525Y36841508D01*
X34185480Y36837722D01*
X34153069Y36837931D01*
X34108062Y36842042D01*
X34076007Y36845984D01*
X34026084Y36855471D01*
X33991967Y36870147D01*
X33970141Y36892297D01*
X33957413Y36922993D01*
X33951579Y36969237D01*
X33962168Y37006037D01*
X33985271Y37031927D01*
X34000186Y37041980D01*
X34016493Y37047357D01*
X34039584Y37048761D01*
X34074850Y37046893D01*
G37*
G36*
X29814735Y36944596D02*
G01*
X29819493Y36943103D01*
X29858370Y36923142D01*
X29880845Y36893306D01*
X29888409Y36851568D01*
X29888423Y36849361D01*
X29885543Y36819979D01*
X29875042Y36796279D01*
X29854124Y36775475D01*
X29819997Y36754776D01*
X29770531Y36731683D01*
X29712929Y36709795D01*
X29668015Y36700174D01*
X29633542Y36702490D01*
X29617326Y36709245D01*
X29596644Y36729876D01*
X29579829Y36761302D01*
X29571265Y36794783D01*
X29570923Y36801761D01*
X29580337Y36831603D01*
X29607457Y36862398D01*
X29650597Y36892698D01*
X29708075Y36921052D01*
X29710771Y36922175D01*
X29749994Y36937716D01*
X29776855Y36945951D01*
X29796664Y36947903D01*
X29814735Y36944596D01*
G37*
G36*
X30324041Y37652674D02*
G01*
X30373941Y37644994D01*
X30420934Y37634073D01*
X30458634Y37621290D01*
X30474226Y37613244D01*
X30496915Y37587775D01*
X30507233Y37553240D01*
X30505233Y37515652D01*
X30490968Y37481025D01*
X30472896Y37461116D01*
X30449623Y37448482D01*
X30418742Y37442838D01*
X30377033Y37444098D01*
X30321276Y37452174D01*
X30298730Y37456422D01*
X30257606Y37466175D01*
X30229720Y37477756D01*
X30208797Y37494009D01*
X30203480Y37499620D01*
X30180947Y37536832D01*
X30177563Y37575903D01*
X30193353Y37614680D01*
X30201907Y37626020D01*
X30219773Y37644259D01*
X30238371Y37653097D01*
X30265768Y37655700D01*
X30277618Y37655734D01*
X30324041Y37652674D01*
G37*
G36*
X30405143Y38244772D02*
G01*
X30440524Y38237139D01*
X30482706Y38224632D01*
X30526311Y38209098D01*
X30565958Y38192384D01*
X30596268Y38176337D01*
X30607113Y38168372D01*
X30627803Y38137788D01*
X30633425Y38101202D01*
X30624780Y38064010D01*
X30602668Y38031608D01*
X30584724Y38017580D01*
X30566410Y38007076D01*
X30550446Y38001288D01*
X30532501Y38000516D01*
X30508244Y38005058D01*
X30473343Y38015212D01*
X30433526Y38028006D01*
X30379065Y38047953D01*
X30341428Y38067908D01*
X30318039Y38090194D01*
X30306322Y38117135D01*
X30303615Y38145107D01*
X30312065Y38184411D01*
X30334475Y38218204D01*
X30366433Y38240821D01*
X30381942Y38245685D01*
X30405143Y38244772D01*
G37*
G36*
X31066076Y36867470D02*
G01*
X31102827Y36847661D01*
X31145800Y36817205D01*
X31191751Y36778197D01*
X31199942Y36770566D01*
X31227907Y36742527D01*
X31243628Y36721406D01*
X31250275Y36702111D01*
X31251230Y36688157D01*
X31242482Y36645813D01*
X31216911Y36612911D01*
X31186767Y36595084D01*
X31160636Y36585063D01*
X31142572Y36583223D01*
X31124236Y36590597D01*
X31100942Y36605746D01*
X31059310Y36634749D01*
X31019741Y36663644D01*
X30985998Y36689559D01*
X30961846Y36709623D01*
X30952226Y36719186D01*
X30936816Y36752602D01*
X30937270Y36788690D01*
X30951194Y36823157D01*
X30976198Y36851710D01*
X31009890Y36870057D01*
X31038794Y36874539D01*
X31066076Y36867470D01*
G37*
G36*
X31198125Y37246982D02*
G01*
X31226747Y37226386D01*
X31259899Y37197786D01*
X31293834Y37165035D01*
X31324805Y37131981D01*
X31349064Y37102475D01*
X31362866Y37080368D01*
X31364300Y37076219D01*
X31364283Y37042850D01*
X31351772Y37008902D01*
X31330414Y36981952D01*
X31314147Y36972009D01*
X31287032Y36963929D01*
X31263278Y36963655D01*
X31238944Y36972795D01*
X31210087Y36992957D01*
X31172766Y37025748D01*
X31165240Y37032747D01*
X31116401Y37080502D01*
X31082728Y37119318D01*
X31063398Y37151489D01*
X31057590Y37179309D01*
X31064480Y37205070D01*
X31083247Y37231066D01*
X31091172Y37239355D01*
X31123480Y37260708D01*
X31159170Y37263046D01*
X31198125Y37246982D01*
G37*
G36*
X30858259Y38080951D02*
G01*
X30889807Y38067815D01*
X30927561Y38049192D01*
X30966495Y38027756D01*
X31001582Y38006182D01*
X31027797Y37987144D01*
X31033865Y37981656D01*
X31053156Y37950814D01*
X31053788Y37916452D01*
X31035910Y37880340D01*
X31024096Y37866315D01*
X30999999Y37843447D01*
X30977589Y37830677D01*
X30952776Y37827989D01*
X30921468Y37835367D01*
X30879576Y37852794D01*
X30852679Y37865613D01*
X30810237Y37886988D01*
X30781944Y37903543D01*
X30763994Y37918166D01*
X30752582Y37933745D01*
X30746768Y37945986D01*
X30736967Y37983409D01*
X30740212Y38011855D01*
X30756546Y38040036D01*
X30784700Y38065347D01*
X30817277Y38082180D01*
X30837943Y38085923D01*
X30858259Y38080951D01*
G37*
G36*
X31271486Y37823804D02*
G01*
X31295409Y37810374D01*
X31326733Y37787072D01*
X31361226Y37757776D01*
X31394654Y37726364D01*
X31422784Y37696716D01*
X31441381Y37672711D01*
X31445740Y37664156D01*
X31449866Y37625846D01*
X31437688Y37590155D01*
X31412386Y37561170D01*
X31377140Y37542975D01*
X31348194Y37538846D01*
X31329485Y37540809D01*
X31310363Y37548233D01*
X31286959Y37563425D01*
X31255402Y37588692D01*
X31234407Y37606645D01*
X31195737Y37640841D01*
X31169843Y37666264D01*
X31154231Y37686326D01*
X31146405Y37704441D01*
X31143871Y37724022D01*
X31143769Y37730631D01*
X31152181Y37769594D01*
X31174493Y37801161D01*
X31206319Y37822134D01*
X31243272Y37829311D01*
X31271486Y37823804D01*
G37*
G36*
X32866905Y36876227D02*
G01*
X32894280Y36854691D01*
X32909779Y36820526D01*
X32912000Y36798537D01*
X32909030Y36773224D01*
X32898318Y36747674D01*
X32877159Y36716069D01*
X32868207Y36704327D01*
X32840608Y36666731D01*
X32813138Y36626021D01*
X32795043Y36596596D01*
X32760460Y36543855D01*
X32727498Y36510058D01*
X32695309Y36494763D01*
X32663044Y36497533D01*
X32634894Y36513786D01*
X32614752Y36541401D01*
X32609022Y36579179D01*
X32617815Y36623971D01*
X32629994Y36652678D01*
X32651120Y36690624D01*
X32677583Y36732705D01*
X32706649Y36775165D01*
X32735582Y36814244D01*
X32761649Y36846186D01*
X32782113Y36867233D01*
X32790335Y36872966D01*
X32831106Y36883022D01*
X32866905Y36876227D01*
G37*
G36*
X33756048Y37026782D02*
G01*
X33771368Y37016911D01*
X33779820Y37008407D01*
X33796477Y36981943D01*
X33807111Y36949578D01*
X33807735Y36945649D01*
X33808095Y36914233D01*
X33798262Y36889262D01*
X33776048Y36868917D01*
X33739266Y36851380D01*
X33685727Y36834831D01*
X33669339Y36830602D01*
X33627157Y36820335D01*
X33591327Y36812191D01*
X33566550Y36807208D01*
X33558458Y36806154D01*
X33544055Y36812627D01*
X33522831Y36829037D01*
X33511830Y36839370D01*
X33486225Y36874419D01*
X33479060Y36908461D01*
X33489239Y36940416D01*
X33515664Y36969201D01*
X33557236Y36993735D01*
X33612859Y37012937D01*
X33681435Y37025725D01*
X33703307Y37028054D01*
X33735746Y37029884D01*
X33756048Y37026782D01*
G37*
G36*
X34543740Y36943080D02*
G01*
X34572019Y36931589D01*
X34613124Y36912474D01*
X34661822Y36888010D01*
X34694946Y36867267D01*
X34715312Y36847357D01*
X34725733Y36825392D01*
X34729024Y36798484D01*
X34729077Y36793460D01*
X34724114Y36760701D01*
X34706281Y36733261D01*
X34700520Y36727249D01*
X34674604Y36707946D01*
X34644659Y36699987D01*
X34607636Y36703548D01*
X34560488Y36718799D01*
X34517394Y36737664D01*
X34472195Y36760545D01*
X34442545Y36780682D01*
X34425415Y36801388D01*
X34417780Y36825978D01*
X34416461Y36848156D01*
X34425589Y36888122D01*
X34450901Y36920993D01*
X34489293Y36942774D01*
X34490291Y36943109D01*
X34507459Y36947697D01*
X34523747Y36948068D01*
X34543740Y36943080D01*
G37*
G36*
X32548148Y37033222D02*
G01*
X32579033Y37014123D01*
X32601193Y36987937D01*
X32609154Y36960754D01*
X32605718Y36939988D01*
X32596469Y36906782D01*
X32582990Y36865385D01*
X32566865Y36820048D01*
X32549679Y36775021D01*
X32533016Y36734552D01*
X32518460Y36702893D01*
X32507596Y36684293D01*
X32505165Y36681799D01*
X32475326Y36670321D01*
X32438180Y36669502D01*
X32402259Y36678559D01*
X32379133Y36693364D01*
X32364220Y36713107D01*
X32356982Y36737034D01*
X32357595Y36768256D01*
X32366239Y36809887D01*
X32383091Y36865041D01*
X32390160Y36885805D01*
X32412919Y36946168D01*
X32434188Y36989543D01*
X32455783Y37018199D01*
X32479519Y37034406D01*
X32507212Y37040431D01*
X32514040Y37040616D01*
X32548148Y37033222D01*
G37*
G36*
X33504658Y38078088D02*
G01*
X33538020Y38057649D01*
X33563484Y38029211D01*
X33575858Y37997376D01*
X33576307Y37990457D01*
X33571885Y37959262D01*
X33557011Y37932222D01*
X33529272Y37906812D01*
X33486255Y37880512D01*
X33456784Y37865518D01*
X33411665Y37844045D01*
X33379688Y37830769D01*
X33356653Y37824883D01*
X33338359Y37825585D01*
X33320606Y37832070D01*
X33310219Y37837447D01*
X33281534Y37862456D01*
X33261028Y37897905D01*
X33253923Y37932187D01*
X33260835Y37954021D01*
X33277778Y37977275D01*
X33280788Y37980215D01*
X33305528Y37999839D01*
X33339267Y38022308D01*
X33377136Y38044881D01*
X33414266Y38064819D01*
X33445790Y38079380D01*
X33466839Y38085825D01*
X33468593Y38085923D01*
X33504658Y38078088D01*
G37*
G36*
X29964234Y37672476D02*
G01*
X29994489Y37667947D01*
X30000287Y37666046D01*
X30028275Y37644877D01*
X30045062Y37612641D01*
X30049714Y37574893D01*
X30041300Y37537191D01*
X30026060Y37512526D01*
X30015315Y37500877D01*
X30004202Y37493026D01*
X29988753Y37488126D01*
X29965001Y37485334D01*
X29928977Y37483804D01*
X29886849Y37482887D01*
X29839356Y37482733D01*
X29797470Y37483991D01*
X29765962Y37486431D01*
X29750256Y37489513D01*
X29720786Y37511563D01*
X29703071Y37544426D01*
X29698145Y37582582D01*
X29707039Y37620512D01*
X29721479Y37643321D01*
X29732372Y37655058D01*
X29743765Y37662983D01*
X29759671Y37667991D01*
X29784102Y37670980D01*
X29821073Y37672845D01*
X29859033Y37674033D01*
X29918169Y37674556D01*
X29964234Y37672476D01*
G37*
G36*
X30767020Y37511679D02*
G01*
X30797786Y37499296D01*
X30828759Y37484172D01*
X30868794Y37462831D01*
X30907229Y37440626D01*
X30936630Y37421880D01*
X30939891Y37419568D01*
X30963658Y37400003D01*
X30974745Y37381898D01*
X30977674Y37357437D01*
X30977692Y37354203D01*
X30972396Y37320225D01*
X30953729Y37290722D01*
X30949349Y37285880D01*
X30926308Y37266448D01*
X30900937Y37257490D01*
X30869975Y37259259D01*
X30830157Y37272008D01*
X30778221Y37295990D01*
X30770837Y37299728D01*
X30732340Y37320776D01*
X30699393Y37341389D01*
X30676798Y37358440D01*
X30670702Y37364907D01*
X30657263Y37398957D01*
X30658158Y37436611D01*
X30671382Y37472255D01*
X30694927Y37500272D01*
X30724195Y37514534D01*
X30744152Y37516276D01*
X30767020Y37511679D01*
G37*
G36*
X32767373Y37465273D02*
G01*
X32803585Y37443496D01*
X32806513Y37440683D01*
X32825736Y37418247D01*
X32832599Y37397855D01*
X32831284Y37374740D01*
X32823428Y37348623D01*
X32807202Y37313318D01*
X32785268Y37273116D01*
X32760289Y37232307D01*
X32734929Y37195182D01*
X32711850Y37166033D01*
X32693717Y37149149D01*
X32690106Y37147284D01*
X32670455Y37140592D01*
X32655634Y37140039D01*
X32636654Y37146329D01*
X32621997Y37152607D01*
X32589940Y37176215D01*
X32569169Y37210899D01*
X32563205Y37250109D01*
X32564415Y37259719D01*
X32572595Y37283339D01*
X32588739Y37316471D01*
X32609995Y37354445D01*
X32633513Y37392593D01*
X32656440Y37426246D01*
X32675925Y37450735D01*
X32687098Y37460581D01*
X32726430Y37471321D01*
X32767373Y37465273D01*
G37*
G36*
X33931073Y38245908D02*
G01*
X33944084Y38240807D01*
X33972640Y38218545D01*
X33992081Y38186425D01*
X34001505Y38149730D01*
X34000007Y38113742D01*
X33986685Y38083745D01*
X33973094Y38071113D01*
X33955282Y38062259D01*
X33924977Y38049818D01*
X33887344Y38035626D01*
X33847550Y38021518D01*
X33810761Y38009331D01*
X33782144Y38000899D01*
X33767417Y37998037D01*
X33752885Y38002798D01*
X33730206Y38014511D01*
X33725045Y38017580D01*
X33694774Y38045788D01*
X33678812Y38081616D01*
X33677800Y38119930D01*
X33692377Y38155597D01*
X33705899Y38171004D01*
X33724394Y38182562D01*
X33756328Y38197480D01*
X33796446Y38213431D01*
X33821969Y38222431D01*
X33865693Y38236685D01*
X33895497Y38244905D01*
X33915813Y38247757D01*
X33931073Y38245908D01*
G37*
G36*
X34285495Y38314942D02*
G01*
X34320239Y38291110D01*
X34336755Y38271738D01*
X34345115Y38251350D01*
X34347923Y38222154D01*
X34348077Y38207813D01*
X34346798Y38174127D01*
X34340897Y38151655D01*
X34327279Y38132131D01*
X34314861Y38119139D01*
X34293376Y38099769D01*
X34273666Y38089841D01*
X34247505Y38086281D01*
X34225961Y38085923D01*
X34192227Y38087185D01*
X34169748Y38093020D01*
X34150299Y38106501D01*
X34137061Y38119139D01*
X34116736Y38142083D01*
X34106910Y38163479D01*
X34103943Y38192533D01*
X34103846Y38203154D01*
X34105573Y38236013D01*
X34113141Y38258613D01*
X34130128Y38280103D01*
X34136485Y38286594D01*
X34162014Y38307995D01*
X34187375Y38322991D01*
X34195165Y38325769D01*
X34240303Y38327979D01*
X34285495Y38314942D01*
G37*
G36*
X31500575Y36880239D02*
G01*
X31519848Y36868114D01*
X31545179Y36841895D01*
X31574288Y36805155D01*
X31604892Y36761468D01*
X31634708Y36714408D01*
X31661457Y36667550D01*
X31682854Y36624467D01*
X31696620Y36588734D01*
X31700615Y36566917D01*
X31692481Y36544337D01*
X31672305Y36520831D01*
X31646428Y36502098D01*
X31621188Y36493836D01*
X31619269Y36493799D01*
X31595248Y36499210D01*
X31573615Y36509616D01*
X31559674Y36523132D01*
X31537860Y36549776D01*
X31510748Y36586168D01*
X31480916Y36628927D01*
X31468596Y36647365D01*
X31434350Y36700533D01*
X31410560Y36740711D01*
X31395882Y36770484D01*
X31388975Y36792436D01*
X31388000Y36802509D01*
X31396649Y36838113D01*
X31419783Y36865157D01*
X31453181Y36880728D01*
X31492625Y36881911D01*
X31500575Y36880239D01*
G37*
G36*
X31816068Y37040383D02*
G01*
X31847907Y37023841D01*
X31852358Y37019612D01*
X31867748Y36997152D01*
X31885817Y36960894D01*
X31904640Y36916026D01*
X31922292Y36867738D01*
X31936847Y36821219D01*
X31946380Y36781659D01*
X31949091Y36758904D01*
X31946819Y36728045D01*
X31936286Y36706814D01*
X31922320Y36692962D01*
X31886049Y36673852D01*
X31844245Y36671114D01*
X31811032Y36681079D01*
X31799733Y36688215D01*
X31789175Y36699737D01*
X31777913Y36718431D01*
X31764504Y36747079D01*
X31747502Y36788467D01*
X31725464Y36845380D01*
X31724520Y36847856D01*
X31707648Y36893946D01*
X31697814Y36926504D01*
X31694073Y36949832D01*
X31695484Y36968231D01*
X31696892Y36973862D01*
X31715120Y37007353D01*
X31744505Y37030617D01*
X31779877Y37042135D01*
X31816068Y37040383D01*
G37*
G36*
X30281807Y37048619D02*
G01*
X30304282Y37042553D01*
X30321297Y37031593D01*
X30328505Y37024535D01*
X30348062Y36989967D01*
X30351521Y36948997D01*
X30338684Y36906579D01*
X30333560Y36897392D01*
X30322629Y36881043D01*
X30310728Y36869672D01*
X30293753Y36861656D01*
X30267596Y36855373D01*
X30228152Y36849202D01*
X30202774Y36845734D01*
X30159735Y36840120D01*
X30131234Y36837207D01*
X30112465Y36836953D01*
X30098622Y36839315D01*
X30084897Y36844253D01*
X30083807Y36844697D01*
X30050815Y36868265D01*
X30029313Y36905421D01*
X30023264Y36931010D01*
X30022150Y36959218D01*
X30030433Y36980856D01*
X30046072Y37000315D01*
X30063344Y37016927D01*
X30082237Y37027599D01*
X30108782Y37034723D01*
X30147307Y37040476D01*
X30206752Y37047278D01*
X30250442Y37050094D01*
X30281807Y37048619D01*
G37*
G36*
X31597792Y37468192D02*
G01*
X31617587Y37458685D01*
X31638952Y37437892D01*
X31645027Y37430907D01*
X31666468Y37402078D01*
X31690968Y37363513D01*
X31713449Y37323239D01*
X31714745Y37320701D01*
X31732573Y37284195D01*
X31742079Y37259584D01*
X31744541Y37241746D01*
X31741237Y37225558D01*
X31739613Y37221045D01*
X31716324Y37179163D01*
X31685021Y37154782D01*
X31651933Y37148077D01*
X31623500Y37151343D01*
X31601668Y37159305D01*
X31600249Y37160289D01*
X31588444Y37173442D01*
X31569527Y37199162D01*
X31546464Y37233279D01*
X31529997Y37259035D01*
X31499587Y37311087D01*
X31481635Y37351597D01*
X31475703Y37383704D01*
X31481354Y37410543D01*
X31498151Y37435253D01*
X31504479Y37441906D01*
X31531506Y37462728D01*
X31561730Y37470158D01*
X31572102Y37470462D01*
X31597792Y37468192D01*
G37*
G36*
X33192222Y37255035D02*
G01*
X33216912Y37237000D01*
X33238326Y37213899D01*
X33247263Y37190014D01*
X33248594Y37167982D01*
X33247704Y37149816D01*
X33243459Y37134088D01*
X33233496Y37117331D01*
X33215453Y37096077D01*
X33186967Y37066861D01*
X33164694Y37044866D01*
X33128325Y37009663D01*
X33102111Y36986175D01*
X33082612Y36972087D01*
X33066390Y36965081D01*
X33050003Y36962841D01*
X33042801Y36962759D01*
X33013389Y36965457D01*
X32990277Y36971707D01*
X32987711Y36973014D01*
X32965361Y36995327D01*
X32949724Y37027695D01*
X32944859Y37060815D01*
X32945942Y37068784D01*
X32957248Y37093518D01*
X32980268Y37126211D01*
X33011412Y37162673D01*
X33047088Y37198718D01*
X33083707Y37230157D01*
X33085469Y37231510D01*
X33125564Y37256496D01*
X33160022Y37264291D01*
X33192222Y37255035D01*
G37*
G36*
X34485680Y37674339D02*
G01*
X34533010Y37669621D01*
X34565834Y37660132D01*
X34586614Y37644543D01*
X34597808Y37621524D01*
X34601877Y37589744D01*
X34602077Y37577923D01*
X34599602Y37540573D01*
X34590298Y37516432D01*
X34571346Y37499588D01*
X34562301Y37494524D01*
X34539642Y37488159D01*
X34503339Y37483625D01*
X34458785Y37480986D01*
X34411373Y37480304D01*
X34366496Y37481643D01*
X34329547Y37485064D01*
X34305919Y37490632D01*
X34304115Y37491512D01*
X34278022Y37511539D01*
X34264258Y37538948D01*
X34260155Y37579119D01*
X34260154Y37580235D01*
X34262821Y37614526D01*
X34272707Y37638185D01*
X34284133Y37651637D01*
X34295600Y37661955D01*
X34308128Y37668795D01*
X34325787Y37672869D01*
X34352646Y37674887D01*
X34392775Y37675561D01*
X34421387Y37675616D01*
X34485680Y37674339D01*
G37*
G36*
X32188466Y37249395D02*
G01*
X32209788Y37243950D01*
X32226058Y37231820D01*
X32233884Y37223244D01*
X32244369Y37209580D01*
X32251190Y37194890D01*
X32255125Y37174768D01*
X32256953Y37144803D01*
X32257452Y37100589D01*
X32257461Y37089716D01*
X32256923Y37044757D01*
X32255468Y37006072D01*
X32253335Y36978457D01*
X32251393Y36967784D01*
X32233424Y36946057D01*
X32202186Y36931511D01*
X32163076Y36925559D01*
X32121493Y36929616D01*
X32113583Y36931686D01*
X32088855Y36943226D01*
X32072063Y36955039D01*
X32063442Y36964336D01*
X32057747Y36977102D01*
X32054389Y36997197D01*
X32052775Y37028484D01*
X32052314Y37074822D01*
X32052307Y37083937D01*
X32052594Y37132863D01*
X32053932Y37166488D01*
X32057039Y37189046D01*
X32062630Y37204773D01*
X32071422Y37217901D01*
X32075885Y37223244D01*
X32092256Y37239317D01*
X32110343Y37247546D01*
X32137353Y37250432D01*
X32154884Y37250654D01*
X32188466Y37249395D01*
G37*
G36*
X32808438Y35690885D02*
G01*
X32851739Y35690196D01*
X32879625Y35689059D01*
X32887629Y35688212D01*
X32921769Y35681807D01*
X32921769Y35589442D01*
X32920333Y35537956D01*
X32914830Y35501940D01*
X32903466Y35477459D01*
X32884449Y35460580D01*
X32857243Y35447841D01*
X32842751Y35446052D01*
X32809772Y35444418D01*
X32759356Y35442953D01*
X32692554Y35441671D01*
X32610415Y35440584D01*
X32513991Y35439706D01*
X32404331Y35439051D01*
X32282487Y35438633D01*
X32149509Y35438465D01*
X32129074Y35438462D01*
X31425574Y35438462D01*
X31397017Y35467018D01*
X31383763Y35481249D01*
X31375409Y35494998D01*
X31370827Y35513094D01*
X31368889Y35540364D01*
X31368464Y35581637D01*
X31368461Y35589133D01*
X31368461Y35682693D01*
X31790980Y35683091D01*
X31896541Y35683331D01*
X32010065Y35683839D01*
X32126945Y35684577D01*
X32242573Y35685509D01*
X32352340Y35686597D01*
X32451641Y35687805D01*
X32533494Y35689053D01*
X32612249Y35690212D01*
X32686072Y35690900D01*
X32752342Y35691122D01*
X32808438Y35690885D01*
G37*
G36*
X32151524Y35318881D02*
G01*
X32633577Y35316346D01*
X32636424Y35240934D01*
X32634884Y35181323D01*
X32624728Y35137957D01*
X32605388Y35109276D01*
X32583627Y35096119D01*
X32562499Y35091747D01*
X32528318Y35088468D01*
X32487560Y35086849D01*
X32476633Y35086770D01*
X32394230Y35086770D01*
X32394230Y35003731D01*
X32394168Y34966332D01*
X32392489Y34937464D01*
X32386957Y34916025D01*
X32375334Y34900912D01*
X32355385Y34891021D01*
X32324872Y34885249D01*
X32281559Y34882493D01*
X32223208Y34881649D01*
X32147583Y34881616D01*
X32146629Y34881616D01*
X32076823Y34881759D01*
X32023960Y34882321D01*
X31985445Y34883499D01*
X31958684Y34885492D01*
X31941083Y34888498D01*
X31930047Y34892714D01*
X31922982Y34898339D01*
X31922640Y34898712D01*
X31912470Y34920671D01*
X31904504Y34961176D01*
X31900244Y35001289D01*
X31893313Y35086770D01*
X31807815Y35086770D01*
X31756051Y35087874D01*
X31719985Y35093193D01*
X31696635Y35105730D01*
X31683016Y35128491D01*
X31676147Y35164482D01*
X31673043Y35216707D01*
X31672831Y35222754D01*
X31669471Y35321416D01*
X32151524Y35318881D01*
G37*
G36*
X32185654Y36689766D02*
G01*
X32203632Y36684376D01*
X32217709Y36677788D01*
X32228363Y36667738D01*
X32236077Y36651962D01*
X32241332Y36628197D01*
X32244608Y36594176D01*
X32246385Y36547636D01*
X32247146Y36486313D01*
X32247370Y36407942D01*
X32247381Y36399088D01*
X32247695Y36331048D01*
X32248413Y36268997D01*
X32249468Y36215764D01*
X32250793Y36174178D01*
X32252320Y36147070D01*
X32253622Y36137761D01*
X32262211Y36128716D01*
X32281848Y36123874D01*
X32316523Y36122318D01*
X32320727Y36122308D01*
X32381903Y36122308D01*
X32427977Y36253433D01*
X32445817Y36301964D01*
X32462974Y36344649D01*
X32477800Y36377655D01*
X32488646Y36397145D01*
X32490955Y36399855D01*
X32524414Y36417985D01*
X32563917Y36421338D01*
X32597742Y36411350D01*
X32624781Y36393253D01*
X32641169Y36370659D01*
X32647212Y36340752D01*
X32643212Y36300711D01*
X32629474Y36247720D01*
X32618923Y36215116D01*
X32606213Y36177254D01*
X32596284Y36147174D01*
X32590514Y36129084D01*
X32589615Y36125777D01*
X32598982Y36125018D01*
X32625478Y36124151D01*
X32666693Y36123221D01*
X32720218Y36122275D01*
X32783643Y36121359D01*
X32854560Y36120518D01*
X32877473Y36120283D01*
X32965200Y36119504D01*
X33035380Y36118608D01*
X33089995Y36116863D01*
X33131027Y36113536D01*
X33160458Y36107894D01*
X33180270Y36099203D01*
X33192444Y36086731D01*
X33198962Y36069745D01*
X33201807Y36047512D01*
X33202960Y36019298D01*
X33203645Y35999654D01*
X33204554Y35958270D01*
X33203906Y35921853D01*
X33201855Y35896788D01*
X33201061Y35892715D01*
X33199073Y35884182D01*
X33196904Y35876603D01*
X33193450Y35869922D01*
X33187605Y35864083D01*
X33178264Y35859030D01*
X33164322Y35854708D01*
X33144675Y35851061D01*
X33118217Y35848034D01*
X33083843Y35845570D01*
X33040448Y35843614D01*
X32986928Y35842110D01*
X32922177Y35841002D01*
X32845090Y35840235D01*
X32754563Y35839753D01*
X32649489Y35839501D01*
X32528765Y35839421D01*
X32391285Y35839460D01*
X32235945Y35839561D01*
X32148042Y35839620D01*
X32000309Y35839799D01*
X31860333Y35840139D01*
X31729258Y35840631D01*
X31608227Y35841263D01*
X31498382Y35842025D01*
X31400868Y35842905D01*
X31316826Y35843894D01*
X31247400Y35844979D01*
X31193733Y35846152D01*
X31156969Y35847400D01*
X31138249Y35848713D01*
X31136300Y35849127D01*
X31116938Y35863006D01*
X31104142Y35888002D01*
X31097081Y35926784D01*
X31094923Y35981775D01*
X31098692Y36041042D01*
X31110188Y36082986D01*
X31129691Y36108351D01*
X31145820Y36116048D01*
X31161216Y36117625D01*
X31193386Y36119057D01*
X31239568Y36120285D01*
X31296999Y36121251D01*
X31362914Y36121900D01*
X31434550Y36122171D01*
X31439288Y36122175D01*
X31524132Y36122434D01*
X31590982Y36123163D01*
X31641375Y36124429D01*
X31676851Y36126299D01*
X31698951Y36128842D01*
X31709212Y36132123D01*
X31710384Y36134018D01*
X31707485Y36147808D01*
X31699674Y36175550D01*
X31688281Y36212682D01*
X31679576Y36239720D01*
X31663342Y36293921D01*
X31655775Y36333900D01*
X31657162Y36363083D01*
X31667790Y36384898D01*
X31687946Y36402774D01*
X31693550Y36406432D01*
X31729863Y36420061D01*
X31769495Y36420940D01*
X31804902Y36409530D01*
X31819272Y36398762D01*
X31828986Y36383030D01*
X31842831Y36352710D01*
X31859111Y36311863D01*
X31876131Y36264551D01*
X31879722Y36253929D01*
X31922076Y36127193D01*
X31987191Y36124304D01*
X32024979Y36123818D01*
X32046262Y36126800D01*
X32053833Y36133658D01*
X32053898Y36134073D01*
X32054373Y36147024D01*
X32054861Y36176680D01*
X32055336Y36220212D01*
X32055770Y36274786D01*
X32056135Y36337571D01*
X32056340Y36386077D01*
X32056918Y36467499D01*
X32058072Y36531305D01*
X32059904Y36579413D01*
X32062516Y36613741D01*
X32066007Y36636205D01*
X32070190Y36648231D01*
X32095257Y36674215D01*
X32131234Y36689829D01*
X32171144Y36692562D01*
X32185654Y36689766D01*
G37*
G36*
X30167087Y36389489D02*
G01*
X30198260Y36373681D01*
X30221394Y36353317D01*
X30225172Y36347541D01*
X30235723Y36320198D01*
X30235649Y36293699D01*
X30223673Y36264806D01*
X30198517Y36230279D01*
X30163842Y36192013D01*
X30006479Y36014623D01*
X29867353Y35830282D01*
X29746364Y35638792D01*
X29643416Y35439958D01*
X29558411Y35233582D01*
X29491251Y35019468D01*
X29441838Y34797419D01*
X29427655Y34710654D01*
X29421233Y34653834D01*
X29416172Y34582175D01*
X29412500Y34499838D01*
X29410245Y34410981D01*
X29409436Y34319763D01*
X29410101Y34230342D01*
X29412270Y34146877D01*
X29415970Y34073527D01*
X29421229Y34014450D01*
X29422793Y34002385D01*
X29464827Y33767526D01*
X29523473Y33542857D01*
X29598931Y33327970D01*
X29691400Y33122454D01*
X29801079Y32925901D01*
X29928169Y32737902D01*
X30072868Y32558046D01*
X30185765Y32435722D01*
X30356400Y32273490D01*
X30535247Y32128503D01*
X30721858Y32001077D01*
X30915782Y31891529D01*
X31044380Y31830572D01*
X31172300Y31776864D01*
X31290521Y31733069D01*
X31405005Y31697416D01*
X31521713Y31668136D01*
X31646609Y31643458D01*
X31710384Y31632859D01*
X31776731Y31622465D01*
X31826140Y31615160D01*
X31860976Y31610978D01*
X31883599Y31609958D01*
X31896373Y31612134D01*
X31898009Y31613808D01*
X31915538Y31613808D01*
X31920423Y31608923D01*
X31925307Y31613808D01*
X32384461Y31613808D01*
X32389346Y31608923D01*
X32394230Y31613808D01*
X32389346Y31618693D01*
X32384461Y31613808D01*
X31925307Y31613808D01*
X31920423Y31618693D01*
X31915538Y31613808D01*
X31898009Y31613808D01*
X31901660Y31617545D01*
X31901821Y31626226D01*
X31899790Y31635789D01*
X31882028Y31686937D01*
X31852501Y31745841D01*
X31814455Y31807744D01*
X31771131Y31867890D01*
X31725773Y31921521D01*
X31681625Y31963882D01*
X31669685Y31973251D01*
X31650450Y31983058D01*
X31616815Y31995874D01*
X31573365Y32010102D01*
X31524687Y32024142D01*
X31520165Y32025353D01*
X31465104Y32040905D01*
X31408887Y32058324D01*
X31358447Y32075378D01*
X31323566Y32088633D01*
X31220607Y32140485D01*
X31122144Y32207298D01*
X31032536Y32285538D01*
X30956147Y32371669D01*
X30930393Y32407355D01*
X30901139Y32454212D01*
X30887796Y32478385D01*
X31274930Y32478385D01*
X31279110Y32471796D01*
X31294989Y32453497D01*
X31320549Y32425687D01*
X31353771Y32390568D01*
X31389237Y32353827D01*
X31431011Y32310448D01*
X31470094Y32268983D01*
X31503539Y32232625D01*
X31528398Y32204568D01*
X31539629Y32190899D01*
X31568110Y32160054D01*
X31602935Y32131882D01*
X31638581Y32110095D01*
X31669524Y32098407D01*
X31678730Y32097385D01*
X31701865Y32097385D01*
X31679259Y32137782D01*
X31659999Y32165364D01*
X31631823Y32197851D01*
X31602923Y32226255D01*
X31578253Y32247385D01*
X31544370Y32275107D01*
X31504046Y32307287D01*
X31460059Y32341792D01*
X31415184Y32376489D01*
X31372195Y32409243D01*
X31333868Y32437922D01*
X31302979Y32460393D01*
X31282302Y32474521D01*
X31274930Y32478385D01*
X30887796Y32478385D01*
X30871587Y32507751D01*
X30843104Y32564754D01*
X30817059Y32622004D01*
X30794820Y32676283D01*
X30777755Y32724372D01*
X30767233Y32763054D01*
X30764622Y32789111D01*
X30765777Y32794517D01*
X30778182Y32802281D01*
X30806485Y32808461D01*
X30847096Y32812872D01*
X30896425Y32815328D01*
X30950880Y32815645D01*
X31006873Y32813637D01*
X31056954Y32809545D01*
X31189319Y32787664D01*
X31308403Y32751912D01*
X31415020Y32701945D01*
X31509984Y32637423D01*
X31550386Y32602381D01*
X31635912Y32510226D01*
X31704017Y32409516D01*
X31755110Y32299479D01*
X31789599Y32179341D01*
X31797661Y32135783D01*
X31804556Y32104593D01*
X31816153Y32073728D01*
X31834756Y32038294D01*
X31862665Y31993397D01*
X31869715Y31982624D01*
X31898220Y31938403D01*
X31925811Y31893986D01*
X31948817Y31855369D01*
X31960628Y31834241D01*
X31970861Y31815384D01*
X31978947Y31802628D01*
X31985033Y31797498D01*
X31989266Y31801516D01*
X31991792Y31816206D01*
X31992759Y31843089D01*
X31992314Y31883690D01*
X31990604Y31939530D01*
X31987776Y32012134D01*
X31984766Y32084284D01*
X31977853Y32216344D01*
X31968639Y32331696D01*
X31956561Y32433097D01*
X31941054Y32523300D01*
X31921553Y32605059D01*
X31897493Y32681130D01*
X31868311Y32754267D01*
X31839538Y32814464D01*
X32169885Y32814464D01*
X32170133Y32748959D01*
X32171604Y32694826D01*
X32174108Y32658688D01*
X32181226Y32592222D01*
X32217256Y32679564D01*
X32238236Y32727523D01*
X32264578Y32783601D01*
X32292043Y32838904D01*
X32305377Y32864434D01*
X32392168Y33010654D01*
X32493138Y33152221D01*
X32535383Y33204688D01*
X32567244Y33244640D01*
X32586511Y33273386D01*
X32594627Y33293307D01*
X32594671Y33302381D01*
X32591360Y33323423D01*
X32734796Y33323423D01*
X32809710Y33396693D01*
X32834128Y33421617D01*
X32869276Y33458952D01*
X32913040Y33506382D01*
X32963311Y33561592D01*
X33017975Y33622266D01*
X33074922Y33686088D01*
X33117069Y33733731D01*
X33182016Y33807008D01*
X33242566Y33874296D01*
X33300660Y33937563D01*
X33358244Y33998780D01*
X33417258Y34059915D01*
X33479646Y34122938D01*
X33547351Y34189819D01*
X33622316Y34262528D01*
X33706483Y34343034D01*
X33801795Y34433306D01*
X33877229Y34504342D01*
X33933634Y34557586D01*
X33985018Y34606513D01*
X34029759Y34649546D01*
X34066234Y34685107D01*
X34092820Y34711617D01*
X34107896Y34727499D01*
X34110721Y34731458D01*
X34101276Y34728116D01*
X34078011Y34715843D01*
X34043569Y34696233D01*
X34000590Y34670882D01*
X33951715Y34641385D01*
X33899586Y34609337D01*
X33846844Y34576333D01*
X33796131Y34543968D01*
X33750087Y34513838D01*
X33747304Y34511985D01*
X33620656Y34421031D01*
X33489929Y34314927D01*
X33358245Y34196686D01*
X33228722Y34069321D01*
X33104481Y33935846D01*
X32988642Y33799276D01*
X32924589Y33717260D01*
X32863912Y33633076D01*
X32816770Y33558610D01*
X32781713Y33491047D01*
X32757286Y33427573D01*
X32742038Y33365372D01*
X32741534Y33362500D01*
X32734796Y33323423D01*
X32591360Y33323423D01*
X32577211Y33413327D01*
X32570199Y33535656D01*
X32573545Y33664297D01*
X32587161Y33794176D01*
X32605050Y33894000D01*
X32612203Y33927268D01*
X32566911Y33896106D01*
X32469709Y33817968D01*
X32386181Y33726583D01*
X32316127Y33621618D01*
X32259350Y33502742D01*
X32215653Y33369620D01*
X32192576Y33266899D01*
X32187539Y33229965D01*
X32182904Y33177359D01*
X32178791Y33112943D01*
X32175315Y33040583D01*
X32172593Y32964140D01*
X32170744Y32887479D01*
X32169885Y32814464D01*
X31839538Y32814464D01*
X31833440Y32827223D01*
X31831843Y32830325D01*
X31791135Y32897433D01*
X31738844Y32966197D01*
X31680005Y33030834D01*
X31619655Y33085564D01*
X31590489Y33107406D01*
X31564784Y33124202D01*
X31542280Y33135515D01*
X31517348Y33143022D01*
X31484359Y33148402D01*
X31437682Y33153335D01*
X31435905Y33153503D01*
X31289387Y33169836D01*
X31158412Y33189901D01*
X31039200Y33214522D01*
X30927974Y33244518D01*
X30820955Y33280711D01*
X30782307Y33295584D01*
X30660235Y33349065D01*
X30552513Y33407727D01*
X30454054Y33474809D01*
X30359768Y33553545D01*
X30324492Y33586693D01*
X30237978Y33676838D01*
X30164073Y33768987D01*
X30098406Y33869124D01*
X30040853Y33974746D01*
X29986560Y34091377D01*
X29941243Y34208954D01*
X29904151Y34330616D01*
X29874533Y34459506D01*
X29851639Y34598765D01*
X29835662Y34742997D01*
X30171509Y34742997D01*
X30176556Y34735550D01*
X30193532Y34719787D01*
X30218519Y34699316D01*
X30261599Y34664429D01*
X30315942Y34618506D01*
X30378728Y34564056D01*
X30447134Y34503586D01*
X30518341Y34439602D01*
X30589527Y34374613D01*
X30657870Y34311124D01*
X30698119Y34273100D01*
X30810338Y34163870D01*
X30911442Y34059915D01*
X31006552Y33955636D01*
X31100786Y33845436D01*
X31191329Y33733731D01*
X31232140Y33683613D01*
X31277448Y33630204D01*
X31325343Y33575537D01*
X31373915Y33521644D01*
X31421256Y33470556D01*
X31465454Y33424306D01*
X31504600Y33384925D01*
X31536785Y33354446D01*
X31560099Y33334900D01*
X31572370Y33328308D01*
X31580142Y33336782D01*
X31583384Y33357162D01*
X31583384Y33357216D01*
X31577159Y33388385D01*
X31559385Y33432056D01*
X31531415Y33486056D01*
X31494602Y33548214D01*
X31450300Y33616360D01*
X31399861Y33688320D01*
X31344638Y33761924D01*
X31285985Y33835000D01*
X31284866Y33836344D01*
X31140633Y33998139D01*
X30980585Y34156703D01*
X30808445Y34308718D01*
X30627938Y34450862D01*
X30474577Y34558869D01*
X30413224Y34599296D01*
X30354255Y34637268D01*
X30299883Y34671440D01*
X30252321Y34700466D01*
X30213782Y34723002D01*
X30186480Y34737704D01*
X30172629Y34743226D01*
X30171509Y34742997D01*
X29835662Y34742997D01*
X29834716Y34751535D01*
X29825609Y34874906D01*
X29822723Y34928626D01*
X29820874Y34976020D01*
X29820152Y35013413D01*
X29820646Y35037125D01*
X29821525Y35043160D01*
X29831082Y35053574D01*
X29851865Y35061309D01*
X29885660Y35066577D01*
X29934248Y35069592D01*
X29999412Y35070564D01*
X30048872Y35070236D01*
X30243655Y35058366D01*
X30434607Y35027886D01*
X30620326Y34979140D01*
X30799406Y34912475D01*
X30919077Y34855841D01*
X31062189Y34771441D01*
X31194612Y34672425D01*
X31314980Y34560361D01*
X31421930Y34436816D01*
X31514097Y34303360D01*
X31590116Y34161559D01*
X31646196Y34020363D01*
X31666811Y33956735D01*
X31682880Y33902131D01*
X31694970Y33852536D01*
X31703647Y33803936D01*
X31709476Y33752318D01*
X31713025Y33693667D01*
X31714858Y33623969D01*
X31715543Y33539210D01*
X31715574Y33528437D01*
X31716153Y33293836D01*
X31777674Y33220706D01*
X31810679Y33179937D01*
X31844409Y33135755D01*
X31872948Y33095975D01*
X31879809Y33085770D01*
X31920423Y33023962D01*
X31923210Y33061346D01*
X31927811Y33101916D01*
X31936148Y33155964D01*
X31947182Y33218023D01*
X31959873Y33282625D01*
X31973182Y33344303D01*
X31986070Y33397590D01*
X31989711Y33411165D01*
X32010365Y33473736D01*
X32039362Y33545086D01*
X32073921Y33619513D01*
X32111264Y33691313D01*
X32148610Y33754784D01*
X32178132Y33797730D01*
X32219693Y33847727D01*
X32270408Y33901621D01*
X32325322Y33954661D01*
X32379480Y34002095D01*
X32427928Y34039171D01*
X32434595Y34043678D01*
X32475781Y34068950D01*
X32525637Y34096638D01*
X32578285Y34123747D01*
X32627843Y34147279D01*
X32668431Y34164239D01*
X32677538Y34167453D01*
X32695712Y34175667D01*
X32711646Y34189344D01*
X32728571Y34212272D01*
X32749720Y34248240D01*
X32755692Y34259066D01*
X32811763Y34350755D01*
X32879677Y34444583D01*
X32954005Y34533556D01*
X33026696Y34608229D01*
X33145930Y34707766D01*
X33280232Y34797761D01*
X33427053Y34877117D01*
X33583843Y34944738D01*
X33748050Y34999527D01*
X33917126Y35040387D01*
X34088519Y35066221D01*
X34092669Y35066650D01*
X34148416Y35071233D01*
X34210305Y35074480D01*
X34273787Y35076340D01*
X34334313Y35076762D01*
X34387335Y35075695D01*
X34428303Y35073086D01*
X34445892Y35070626D01*
X34477765Y35064251D01*
X34472133Y34887453D01*
X34460075Y34706335D01*
X34435953Y34528512D01*
X34400472Y34357051D01*
X34354335Y34195021D01*
X34298249Y34045492D01*
X34259531Y33961885D01*
X34183059Y33829173D01*
X34091998Y33705462D01*
X33988512Y33593021D01*
X33874770Y33494121D01*
X33752936Y33411031D01*
X33711145Y33387371D01*
X33573493Y33321538D01*
X33420890Y33263552D01*
X33256690Y33214419D01*
X33084245Y33175147D01*
X32912959Y33147517D01*
X32863956Y33140411D01*
X32819952Y33132595D01*
X32785744Y33125015D01*
X32766130Y33118615D01*
X32766066Y33118583D01*
X32741983Y33101451D01*
X32709543Y33071828D01*
X32671806Y33033078D01*
X32631834Y32988565D01*
X32592689Y32941652D01*
X32557430Y32895704D01*
X32538199Y32868179D01*
X32455880Y32727009D01*
X32388926Y32574449D01*
X32337670Y32411595D01*
X32302450Y32239540D01*
X32283598Y32059382D01*
X32282191Y32031443D01*
X32279440Y31968900D01*
X32276270Y31898135D01*
X32273160Y31829824D01*
X32271527Y31794539D01*
X32269834Y31737895D01*
X32270883Y31699978D01*
X32274631Y31680932D01*
X32281033Y31680898D01*
X32290042Y31700021D01*
X32295742Y31717580D01*
X32309198Y31753191D01*
X32330831Y31800016D01*
X32357993Y31853003D01*
X32388037Y31907100D01*
X32418314Y31957255D01*
X32433542Y31980500D01*
X32457962Y32021153D01*
X32476749Y32064832D01*
X32486192Y32096393D01*
X32595775Y32096393D01*
X32599435Y32088820D01*
X32616050Y32092245D01*
X32647305Y32106424D01*
X32651062Y32108304D01*
X32668512Y32120428D01*
X32696925Y32143968D01*
X32733672Y32176412D01*
X32776128Y32215249D01*
X32821666Y32257968D01*
X32867657Y32302058D01*
X32911476Y32345009D01*
X32950496Y32384308D01*
X32982088Y32417446D01*
X33003627Y32441911D01*
X33011460Y32452791D01*
X33015388Y32459892D01*
X33017163Y32464310D01*
X33014947Y32464788D01*
X33006900Y32460070D01*
X32991180Y32448899D01*
X32965950Y32430020D01*
X32929368Y32402174D01*
X32879595Y32364107D01*
X32862965Y32351385D01*
X32787928Y32292523D01*
X32723576Y32239031D01*
X32671237Y32192115D01*
X32632235Y32152983D01*
X32607899Y32122841D01*
X32603382Y32115208D01*
X32595775Y32096393D01*
X32486192Y32096393D01*
X32492919Y32118874D01*
X32496841Y32134600D01*
X32537471Y32267987D01*
X32591190Y32386908D01*
X32657961Y32491324D01*
X32737748Y32581195D01*
X32830513Y32656484D01*
X32936222Y32717152D01*
X33054837Y32763160D01*
X33104110Y32777000D01*
X33164083Y32789687D01*
X33229989Y32799377D01*
X33298105Y32805949D01*
X33364708Y32809282D01*
X33426072Y32809257D01*
X33478475Y32805752D01*
X33518193Y32798648D01*
X33537221Y32791006D01*
X33543169Y32776431D01*
X33540415Y32747763D01*
X33530147Y32707760D01*
X33513554Y32659180D01*
X33491823Y32604780D01*
X33466144Y32547319D01*
X33437703Y32489555D01*
X33407691Y32434244D01*
X33377294Y32384144D01*
X33347701Y32342014D01*
X33339157Y32331341D01*
X33267336Y32253831D01*
X33189032Y32187528D01*
X33101673Y32130965D01*
X33002686Y32082677D01*
X32889499Y32041199D01*
X32771484Y32008011D01*
X32721608Y31995296D01*
X32686160Y31984944D01*
X32660556Y31974804D01*
X32640211Y31962727D01*
X32620543Y31946565D01*
X32600966Y31928040D01*
X32567133Y31892534D01*
X32531166Y31850528D01*
X32504638Y31816210D01*
X32483583Y31784050D01*
X32461919Y31746144D01*
X32441539Y31706503D01*
X32424332Y31669138D01*
X32412189Y31638060D01*
X32407000Y31617282D01*
X32408085Y31611351D01*
X32419559Y31610097D01*
X32445933Y31611232D01*
X32482748Y31614486D01*
X32508964Y31617462D01*
X32714661Y31651936D01*
X32921007Y31704467D01*
X33125109Y31773896D01*
X33324075Y31859066D01*
X33515012Y31958818D01*
X33695030Y32071994D01*
X33760503Y32118672D01*
X33945115Y32266712D01*
X34114793Y32426918D01*
X34269119Y32598603D01*
X34407672Y32781076D01*
X34530033Y32973651D01*
X34635783Y33175637D01*
X34724502Y33386346D01*
X34795770Y33605090D01*
X34849168Y33831179D01*
X34867298Y33935411D01*
X34874802Y33987446D01*
X34880455Y34036532D01*
X34884506Y34086914D01*
X34887207Y34142840D01*
X34888807Y34208558D01*
X34889556Y34288313D01*
X34889651Y34315000D01*
X34889227Y34402142D01*
X34887588Y34484212D01*
X34884868Y34557454D01*
X34881200Y34618113D01*
X34877445Y34656923D01*
X34841167Y34876567D01*
X34788018Y35088119D01*
X34717455Y35292992D01*
X34628933Y35492600D01*
X34521909Y35688355D01*
X34418740Y35848770D01*
X34389106Y35891405D01*
X34361966Y35929061D01*
X34334706Y35965012D01*
X34304709Y36002534D01*
X34269360Y36044901D01*
X34226046Y36095388D01*
X34174929Y36154091D01*
X34132362Y36203871D01*
X34102236Y36242472D01*
X34083285Y36272634D01*
X34074240Y36297101D01*
X34073836Y36318613D01*
X34080804Y36339914D01*
X34085094Y36348470D01*
X34106935Y36371264D01*
X34139268Y36386128D01*
X34173691Y36390107D01*
X34191928Y36386011D01*
X34209299Y36373873D01*
X34236787Y36348548D01*
X34272410Y36312195D01*
X34314189Y36266971D01*
X34360142Y36215033D01*
X34408289Y36158538D01*
X34456648Y36099643D01*
X34468868Y36084385D01*
X34605823Y35897014D01*
X34725831Y35700540D01*
X34828660Y35495986D01*
X34914075Y35284372D01*
X34981841Y35066719D01*
X35031724Y34844050D01*
X35063489Y34617384D01*
X35076903Y34387744D01*
X35071730Y34156151D01*
X35047737Y33923626D01*
X35011253Y33720819D01*
X34952522Y33494845D01*
X34875768Y33275150D01*
X34781785Y33062742D01*
X34671365Y32858634D01*
X34545302Y32663835D01*
X34404388Y32479355D01*
X34249417Y32306206D01*
X34081180Y32145398D01*
X33900472Y31997942D01*
X33708085Y31864848D01*
X33504812Y31747127D01*
X33434654Y31711419D01*
X33274808Y31637443D01*
X33120227Y31576013D01*
X32965418Y31525412D01*
X32804892Y31483921D01*
X32633157Y31449824D01*
X32560307Y31437903D01*
X32523883Y31433693D01*
X32472252Y31429690D01*
X32409018Y31425998D01*
X32337784Y31422724D01*
X32262153Y31419973D01*
X32185729Y31417851D01*
X32112116Y31416463D01*
X32044917Y31415916D01*
X31987735Y31416316D01*
X31944173Y31417767D01*
X31925307Y31419273D01*
X31900299Y31422129D01*
X31862413Y31426422D01*
X31818188Y31431411D01*
X31798307Y31433647D01*
X31576069Y31468348D01*
X31356887Y31521756D01*
X31141955Y31593133D01*
X31139267Y31594270D01*
X32101154Y31594270D01*
X32106038Y31589385D01*
X32110923Y31594270D01*
X32106038Y31599154D01*
X32101154Y31594270D01*
X31139267Y31594270D01*
X31119066Y31602814D01*
X31982567Y31602814D01*
X31995543Y31601123D01*
X31998577Y31601059D01*
X32015261Y31602115D01*
X32016185Y31604039D01*
X32267230Y31604039D01*
X32272115Y31599154D01*
X32276018Y31603057D01*
X32295940Y31603057D01*
X32309448Y31601515D01*
X32316077Y31601421D01*
X32333850Y31602439D01*
X32335945Y31604975D01*
X32333173Y31605888D01*
X32308396Y31607408D01*
X32298980Y31605888D01*
X32295940Y31603057D01*
X32276018Y31603057D01*
X32277000Y31604039D01*
X32272115Y31608923D01*
X32267230Y31604039D01*
X32016185Y31604039D01*
X32016730Y31605173D01*
X32015859Y31605562D01*
X31996465Y31607495D01*
X31986551Y31605924D01*
X31982567Y31602814D01*
X31119066Y31602814D01*
X30932471Y31681735D01*
X30729629Y31786822D01*
X30534626Y31907653D01*
X30348658Y32043486D01*
X30172920Y32193581D01*
X30008608Y32357196D01*
X29856919Y32533589D01*
X29719048Y32722020D01*
X29718614Y32722665D01*
X29594849Y32923682D01*
X29488121Y33132478D01*
X29398766Y33347803D01*
X29327115Y33568404D01*
X29273505Y33793031D01*
X29238267Y34020432D01*
X29221736Y34249356D01*
X29224245Y34478552D01*
X29229491Y34556257D01*
X29255760Y34781258D01*
X29297223Y34996360D01*
X29354616Y35203618D01*
X29428671Y35405090D01*
X29520125Y35602832D01*
X29629711Y35798901D01*
X29727807Y35951346D01*
X29769731Y36010375D01*
X29816370Y36071497D01*
X29865883Y36132712D01*
X29916430Y36192019D01*
X29966169Y36247417D01*
X30013259Y36296905D01*
X30055859Y36338483D01*
X30092128Y36370149D01*
X30120225Y36389904D01*
X30136830Y36395846D01*
X30167087Y36389489D01*
G37*
D11*
%TO.C,+3V3_MCU*%
X13875000Y52900000D02*
G75*
G02*
X12475000Y52900000I-700000J0D01*
G01*
X12475000Y52900000D02*
G75*
G02*
X13875000Y52900000I700000J0D01*
G01*
D12*
%TO.C,D200*%
X22080000Y13765000D02*
G75*
G02*
X21980000Y13765000I-50000J0D01*
G01*
X21980000Y13765000D02*
G75*
G02*
X22080000Y13765000I50000J0D01*
G01*
D11*
%TO.C,+12V_P*%
X96700000Y30150000D02*
G75*
G02*
X95300000Y30150000I-700000J0D01*
G01*
X95300000Y30150000D02*
G75*
G02*
X96700000Y30150000I700000J0D01*
G01*
%TO.C,Q701*%
X76025000Y61470000D02*
X76025000Y62630000D01*
X76025000Y61470000D02*
X76335000Y61470000D01*
X78825000Y61470000D02*
X78515000Y61470000D01*
X78825000Y61470000D02*
X78825000Y62630000D01*
D10*
X77900000Y63450000D02*
G75*
G02*
X77750000Y63450000I-75000J0D01*
G01*
X77750000Y63450000D02*
G75*
G02*
X77900000Y63450000I75000J0D01*
G01*
D11*
%TO.C,U500*%
X45640000Y53360000D02*
X45895000Y53360000D01*
X45640000Y49500000D02*
X45640000Y53360000D01*
X45640000Y49500000D02*
X45640000Y45640000D01*
X45640000Y45640000D02*
X45895000Y45640000D01*
X56160000Y53360000D02*
X55905000Y53360000D01*
X56160000Y49500000D02*
X56160000Y53360000D01*
X56160000Y49500000D02*
X56160000Y45640000D01*
X56160000Y45640000D02*
X55905000Y45640000D01*
X45895000Y44787500D02*
X45425000Y44447500D01*
X45425000Y45127500D01*
X45895000Y44787500D01*
G36*
X45895000Y44787500D02*
G01*
X45425000Y44447500D01*
X45425000Y45127500D01*
X45895000Y44787500D01*
G37*
%TO.C,Q113*%
X72540000Y16160000D02*
X72720000Y16160000D01*
X72540000Y14260000D02*
X72540000Y16160000D01*
X74580000Y16160000D02*
X74760000Y16160000D01*
X74580000Y13940000D02*
X74760000Y13940000D01*
X74760000Y13940000D02*
X74760000Y16160000D01*
X72590000Y13660000D02*
X72310000Y13940000D01*
X72590000Y13940000D01*
X72590000Y13660000D01*
G36*
X72590000Y13660000D02*
G01*
X72310000Y13940000D01*
X72590000Y13940000D01*
X72590000Y13660000D01*
G37*
%TO.C,+VBUS*%
X19975000Y34550000D02*
G75*
G02*
X18575000Y34550000I-700000J0D01*
G01*
X18575000Y34550000D02*
G75*
G02*
X19975000Y34550000I700000J0D01*
G01*
D10*
%TO.C,U104*%
X72537501Y12724999D02*
X72537501Y12465000D01*
X72537501Y9815000D02*
X72537501Y9325001D01*
X72587501Y9325001D02*
X72537501Y9325001D01*
X73237500Y12724999D02*
X72537501Y12724999D01*
X75437501Y12724999D02*
X74737502Y12724999D01*
X75437501Y12724999D02*
X75437501Y12465000D01*
X75437501Y9815000D02*
X75437501Y9325001D01*
X75437501Y9325001D02*
X75387501Y9325001D01*
D14*
X76112503Y10314999D02*
G75*
G02*
X75862501Y10314999I-125001J0D01*
G01*
X75862501Y10314999D02*
G75*
G02*
X76112503Y10314999I125001J0D01*
G01*
D11*
%TO.C,U404*%
X49912500Y23160000D02*
X49112500Y23160000D01*
X49912500Y23160000D02*
X50712500Y23160000D01*
X49912500Y20040000D02*
X49112500Y20040000D01*
X49912500Y20040000D02*
X50712500Y20040000D01*
X48612500Y23110000D02*
X48372500Y23440000D01*
X48852500Y23440000D01*
X48612500Y23110000D01*
G36*
X48612500Y23110000D02*
G01*
X48372500Y23440000D01*
X48852500Y23440000D01*
X48612500Y23110000D01*
G37*
%TO.C,J805*%
X90665000Y60710000D02*
X90665000Y56690000D01*
X90665000Y59210000D02*
X91665000Y59210000D01*
X90665000Y56690000D02*
X98385000Y56690000D01*
X91165000Y58400000D02*
X90665000Y58400000D01*
X91165000Y57190000D02*
X91165000Y58400000D01*
X91665000Y59210000D02*
X91665000Y60710000D01*
X97385000Y59210000D02*
X97385000Y60710000D01*
X97885000Y58400000D02*
X97885000Y57190000D01*
X97885000Y57190000D02*
X91165000Y57190000D01*
X98385000Y60710000D02*
X90665000Y60710000D01*
X98385000Y59210000D02*
X97385000Y59210000D01*
X98385000Y58400000D02*
X97885000Y58400000D01*
X98385000Y56690000D02*
X98385000Y60710000D01*
X98685000Y61010000D02*
X96185000Y61010000D01*
X98685000Y58510000D02*
X98685000Y61010000D01*
D12*
%TO.C,D301*%
X30850000Y25140000D02*
G75*
G02*
X30750000Y25140000I-50000J0D01*
G01*
X30750000Y25140000D02*
G75*
G02*
X30850000Y25140000I50000J0D01*
G01*
D11*
%TO.C,Q301*%
X25227500Y25800000D02*
X25227500Y26450000D01*
X25227500Y25800000D02*
X25227500Y25150000D01*
X28347500Y25800000D02*
X28347500Y26450000D01*
X28347500Y25800000D02*
X28347500Y25150000D01*
X28627500Y26722500D02*
X28297500Y26962500D01*
X28627500Y27202500D01*
X28627500Y26722500D01*
G36*
X28627500Y26722500D02*
G01*
X28297500Y26962500D01*
X28627500Y27202500D01*
X28627500Y26722500D01*
G37*
%TO.C,TH300*%
X38345000Y19607500D02*
X38345000Y22207500D01*
X41005000Y22207500D02*
X38345000Y22207500D01*
X41005000Y19607500D02*
X38345000Y19607500D01*
X41005000Y19607500D02*
X41005000Y22207500D01*
X41005000Y18337500D02*
X41005000Y17007500D01*
X41005000Y17007500D02*
X39675000Y17007500D01*
%TO.C,U200*%
X16180000Y20325000D02*
X16180000Y20560000D01*
X16180000Y16580000D02*
X16180000Y17055000D01*
X16655000Y20800000D02*
X16480000Y20800000D01*
X16655000Y16580000D02*
X16180000Y16580000D01*
X19925000Y20800000D02*
X20400000Y20800000D01*
X19925000Y16580000D02*
X20400000Y16580000D01*
X20400000Y20800000D02*
X20400000Y20325000D01*
X20400000Y16580000D02*
X20400000Y17055000D01*
X16180000Y20800000D02*
X15940000Y21130000D01*
X16420000Y21130000D01*
X16180000Y20800000D01*
G36*
X16180000Y20800000D02*
G01*
X15940000Y21130000D01*
X16420000Y21130000D01*
X16180000Y20800000D01*
G37*
D12*
%TO.C,D701*%
X56615000Y61775000D02*
G75*
G02*
X56515000Y61775000I-50000J0D01*
G01*
X56515000Y61775000D02*
G75*
G02*
X56615000Y61775000I50000J0D01*
G01*
D11*
%TO.C,C503*%
X17375000Y56963437D02*
X21285000Y56963437D01*
X21285000Y58833437D02*
X17375000Y58833437D01*
X21285000Y56963437D02*
X21285000Y58833437D01*
%TO.C,J300*%
X20890000Y9760000D02*
X20890000Y5740000D01*
X20890000Y8260000D02*
X21890000Y8260000D01*
X20890000Y5740000D02*
X28610000Y5740000D01*
X21390000Y7450000D02*
X20890000Y7450000D01*
X21390000Y6240000D02*
X21390000Y7450000D01*
X21890000Y8260000D02*
X21890000Y9760000D01*
X27610000Y8260000D02*
X27610000Y9760000D01*
X28110000Y7450000D02*
X28110000Y6240000D01*
X28110000Y6240000D02*
X21390000Y6240000D01*
X28610000Y9760000D02*
X20890000Y9760000D01*
X28610000Y8260000D02*
X27610000Y8260000D01*
X28610000Y7450000D02*
X28110000Y7450000D01*
X28610000Y5740000D02*
X28610000Y9760000D01*
X28910000Y10060000D02*
X26410000Y10060000D01*
X28910000Y7560000D02*
X28910000Y10060000D01*
%TO.C,GND*%
X81600000Y6250000D02*
X83500000Y6250000D01*
X81600000Y4350000D02*
X81600000Y6250000D01*
X83500000Y6250000D02*
X83500000Y4350000D01*
X83500000Y4350000D02*
X81600000Y4350000D01*
D12*
%TO.C,D700*%
X73180000Y62175000D02*
G75*
G02*
X73080000Y62175000I-50000J0D01*
G01*
X73080000Y62175000D02*
G75*
G02*
X73180000Y62175000I50000J0D01*
G01*
D11*
%TO.C,EN*%
X11000000Y16325000D02*
G75*
G02*
X9600000Y16325000I-700000J0D01*
G01*
X9600000Y16325000D02*
G75*
G02*
X11000000Y16325000I700000J0D01*
G01*
D15*
%TO.C,SW800*%
X34650800Y42080400D02*
X34650800Y40812940D01*
X34650800Y39487060D02*
X34650800Y38219600D01*
X34650800Y38219600D02*
X40899200Y38219600D01*
X40899200Y42080400D02*
X34650800Y42080400D01*
X40899200Y40812940D02*
X40899200Y42080400D01*
X40899200Y38219600D02*
X40899200Y39487060D01*
D11*
%TO.C,J600*%
X109465000Y18760000D02*
X109465000Y11040000D01*
X109465000Y11040000D02*
X113485000Y11040000D01*
X109965000Y18260000D02*
X111175000Y18260000D01*
X109965000Y11540000D02*
X109965000Y18260000D01*
X111175000Y18260000D02*
X111175000Y18760000D01*
X111175000Y11540000D02*
X109965000Y11540000D01*
X111175000Y11040000D02*
X111175000Y11540000D01*
X111285000Y10740000D02*
X113785000Y10740000D01*
X111985000Y18760000D02*
X111985000Y17760000D01*
X111985000Y17760000D02*
X113485000Y17760000D01*
X111985000Y12040000D02*
X113485000Y12040000D01*
X111985000Y11040000D02*
X111985000Y12040000D01*
X113485000Y18760000D02*
X109465000Y18760000D01*
X113485000Y11040000D02*
X113485000Y18760000D01*
X113785000Y10740000D02*
X113785000Y13240000D01*
%TO.C,Q601*%
X101852500Y35400000D02*
X101852500Y31640000D01*
X101852500Y31640000D02*
X103112500Y31640000D01*
X108672500Y35400000D02*
X108672500Y31640000D01*
X108672500Y31640000D02*
X107412500Y31640000D01*
X108902500Y36440000D02*
X108572500Y36680000D01*
X108902500Y36920000D01*
X108902500Y36440000D01*
G36*
X108902500Y36440000D02*
G01*
X108572500Y36680000D01*
X108902500Y36920000D01*
X108902500Y36440000D01*
G37*
%TO.C,D500*%
X48165000Y57975000D02*
X48165000Y55575000D01*
X48165000Y57975000D02*
X51825000Y57975000D01*
X48165000Y55575000D02*
X51825000Y55575000D01*
D12*
%TO.C,D403*%
X93925000Y40085000D02*
G75*
G02*
X93825000Y40085000I-50000J0D01*
G01*
X93825000Y40085000D02*
G75*
G02*
X93925000Y40085000I50000J0D01*
G01*
%TO.C,D201*%
X49075000Y13902500D02*
G75*
G02*
X48975000Y13902500I-50000J0D01*
G01*
X48975000Y13902500D02*
G75*
G02*
X49075000Y13902500I50000J0D01*
G01*
D11*
%TO.C,J801*%
X59690000Y56755000D02*
X59690000Y52735000D01*
X59690000Y55255000D02*
X60690000Y55255000D01*
X59690000Y52735000D02*
X67410000Y52735000D01*
X60190000Y54445000D02*
X59690000Y54445000D01*
X60190000Y53235000D02*
X60190000Y54445000D01*
X60690000Y55255000D02*
X60690000Y56755000D01*
X66410000Y55255000D02*
X66410000Y56755000D01*
X66910000Y54445000D02*
X66910000Y53235000D01*
X66910000Y53235000D02*
X60190000Y53235000D01*
X67410000Y56755000D02*
X59690000Y56755000D01*
X67410000Y55255000D02*
X66410000Y55255000D01*
X67410000Y54445000D02*
X66910000Y54445000D01*
X67410000Y52735000D02*
X67410000Y56755000D01*
X67710000Y57055000D02*
X65210000Y57055000D01*
X67710000Y54555000D02*
X67710000Y57055000D01*
D12*
%TO.C,D404*%
X56100000Y25410000D02*
G75*
G02*
X56000000Y25410000I-50000J0D01*
G01*
X56000000Y25410000D02*
G75*
G02*
X56100000Y25410000I50000J0D01*
G01*
%TO.C,D405*%
X56075000Y19960000D02*
G75*
G02*
X55975000Y19960000I-50000J0D01*
G01*
X55975000Y19960000D02*
G75*
G02*
X56075000Y19960000I50000J0D01*
G01*
D11*
%TO.C,J808*%
X102465000Y60735000D02*
X102465000Y56715000D01*
X102465000Y59235000D02*
X103465000Y59235000D01*
X102465000Y56715000D02*
X110185000Y56715000D01*
X102965000Y58425000D02*
X102465000Y58425000D01*
X102965000Y57215000D02*
X102965000Y58425000D01*
X103465000Y59235000D02*
X103465000Y60735000D01*
X109185000Y59235000D02*
X109185000Y60735000D01*
X109685000Y58425000D02*
X109685000Y57215000D01*
X109685000Y57215000D02*
X102965000Y57215000D01*
X110185000Y60735000D02*
X102465000Y60735000D01*
X110185000Y59235000D02*
X109185000Y59235000D01*
X110185000Y58425000D02*
X109685000Y58425000D01*
X110185000Y56715000D02*
X110185000Y60735000D01*
X110485000Y61035000D02*
X107985000Y61035000D01*
X110485000Y58535000D02*
X110485000Y61035000D01*
%TO.C,Q203*%
X18730000Y13560000D02*
X18080000Y13560000D01*
X18730000Y13560000D02*
X19380000Y13560000D01*
X18730000Y10440000D02*
X18080000Y10440000D01*
X18730000Y10440000D02*
X19380000Y10440000D01*
X17090000Y13500000D02*
X16850000Y13830000D01*
X17330000Y13830000D01*
X17090000Y13500000D01*
G36*
X17090000Y13500000D02*
G01*
X16850000Y13830000D01*
X17330000Y13830000D01*
X17090000Y13500000D01*
G37*
%TO.C,J802*%
X5905000Y51115000D02*
X5905000Y43395000D01*
X5905000Y43395000D02*
X9925000Y43395000D01*
X6405000Y50615000D02*
X7615000Y50615000D01*
X6405000Y43895000D02*
X6405000Y50615000D01*
X7615000Y50615000D02*
X7615000Y51115000D01*
X7615000Y43895000D02*
X6405000Y43895000D01*
X7615000Y43395000D02*
X7615000Y43895000D01*
X7725000Y43095000D02*
X10225000Y43095000D01*
X8425000Y51115000D02*
X8425000Y50115000D01*
X8425000Y50115000D02*
X9925000Y50115000D01*
X8425000Y44395000D02*
X9925000Y44395000D01*
X8425000Y43395000D02*
X8425000Y44395000D01*
X9925000Y51115000D02*
X5905000Y51115000D01*
X9925000Y43395000D02*
X9925000Y51115000D01*
X10225000Y43095000D02*
X10225000Y45595000D01*
%TO.C,Q201*%
X15290000Y5537500D02*
X15290000Y5907500D01*
X15290000Y5537500D02*
X18830000Y5537500D01*
X18830000Y9077500D02*
X15620000Y9077500D01*
X18830000Y9077500D02*
X18830000Y8707500D01*
X18830000Y5537500D02*
X18830000Y5907500D01*
X15300000Y8757500D02*
X14820000Y8757500D01*
X15300000Y9237500D01*
X15300000Y8757500D01*
G36*
X15300000Y8757500D02*
G01*
X14820000Y8757500D01*
X15300000Y9237500D01*
X15300000Y8757500D01*
G37*
%TO.C,C128*%
X30863748Y11910000D02*
X32286252Y11910000D01*
X30863748Y10090000D02*
X32286252Y10090000D01*
%TO.C,C129*%
X30863748Y9560000D02*
X32286252Y9560000D01*
X30863748Y7740000D02*
X32286252Y7740000D01*
D12*
%TO.C,D302*%
X37112291Y24050000D02*
G75*
G02*
X37012291Y24050000I-50000J0D01*
G01*
X37012291Y24050000D02*
G75*
G02*
X37112291Y24050000I50000J0D01*
G01*
D11*
%TO.C,Q500*%
X52575000Y43272500D02*
X51925000Y43272500D01*
X52575000Y43272500D02*
X53225000Y43272500D01*
X52575000Y40152500D02*
X51925000Y40152500D01*
X52575000Y40152500D02*
X53225000Y40152500D01*
X51412500Y43222500D02*
X51172500Y43552500D01*
X51652500Y43552500D01*
X51412500Y43222500D01*
G36*
X51412500Y43222500D02*
G01*
X51172500Y43552500D01*
X51652500Y43552500D01*
X51412500Y43222500D01*
G37*
%TO.C,U406*%
X75950000Y50100000D02*
X75950000Y48290000D01*
X75950000Y39700000D02*
X75950000Y41510000D01*
X77315000Y50100000D02*
X75950000Y50100000D01*
X77315000Y39700000D02*
X75950000Y39700000D01*
X73125000Y48250000D02*
X72785000Y48720000D01*
X73465000Y48720000D01*
X73125000Y48250000D01*
G36*
X73125000Y48250000D02*
G01*
X72785000Y48720000D01*
X73465000Y48720000D01*
X73125000Y48250000D01*
G37*
%TO.C,Q100*%
X9005000Y41250000D02*
X7605000Y41250000D01*
X9015000Y38930000D02*
X7605000Y38930000D01*
X9625000Y38650000D02*
X9145000Y38650000D01*
X9385000Y38980000D01*
X9625000Y38650000D01*
G36*
X9625000Y38650000D02*
G01*
X9145000Y38650000D01*
X9385000Y38980000D01*
X9625000Y38650000D01*
G37*
%TO.C,J806*%
X102540000Y67635000D02*
X102540000Y63615000D01*
X102540000Y66135000D02*
X103540000Y66135000D01*
X102540000Y63615000D02*
X110260000Y63615000D01*
X103040000Y65325000D02*
X102540000Y65325000D01*
X103040000Y64115000D02*
X103040000Y65325000D01*
X103540000Y66135000D02*
X103540000Y67635000D01*
X109260000Y66135000D02*
X109260000Y67635000D01*
X109760000Y65325000D02*
X109760000Y64115000D01*
X109760000Y64115000D02*
X103040000Y64115000D01*
X110260000Y67635000D02*
X102540000Y67635000D01*
X110260000Y66135000D02*
X109260000Y66135000D01*
X110260000Y65325000D02*
X109760000Y65325000D01*
X110260000Y63615000D02*
X110260000Y67635000D01*
X110560000Y67935000D02*
X108060000Y67935000D01*
X110560000Y65435000D02*
X110560000Y67935000D01*
%TO.C,+VBAT*%
X28500000Y4300000D02*
G75*
G02*
X27100000Y4300000I-700000J0D01*
G01*
X27100000Y4300000D02*
G75*
G02*
X28500000Y4300000I700000J0D01*
G01*
D15*
%TO.C,L300*%
X34424200Y12413330D02*
X34424200Y11086670D01*
X40875800Y11086670D02*
X40875800Y12413330D01*
D11*
%TO.C,C504*%
X17375000Y59153437D02*
X21285000Y59153437D01*
X21285000Y61023437D02*
X17375000Y61023437D01*
X21285000Y59153437D02*
X21285000Y61023437D01*
%TO.C,RTS*%
X12675000Y39750000D02*
G75*
G02*
X11275000Y39750000I-700000J0D01*
G01*
X11275000Y39750000D02*
G75*
G02*
X12675000Y39750000I700000J0D01*
G01*
%TO.C,Q200*%
X10862500Y9727500D02*
X10862500Y9357500D01*
X10862500Y6187500D02*
X10862500Y6557500D01*
X10862500Y6187500D02*
X14072500Y6187500D01*
X14402500Y9727500D02*
X10862500Y9727500D01*
X14402500Y9727500D02*
X14402500Y9357500D01*
X14392500Y6027500D02*
X14392500Y6507500D01*
X14872500Y6507500D01*
X14392500Y6027500D01*
G36*
X14392500Y6027500D02*
G01*
X14392500Y6507500D01*
X14872500Y6507500D01*
X14392500Y6027500D01*
G37*
D15*
%TO.C,SW801*%
X23350800Y42055400D02*
X23350800Y40787940D01*
X23350800Y39462060D02*
X23350800Y38194600D01*
X23350800Y38194600D02*
X29599200Y38194600D01*
X29599200Y42055400D02*
X23350800Y42055400D01*
X29599200Y40787940D02*
X29599200Y42055400D01*
X29599200Y38194600D02*
X29599200Y39462060D01*
D11*
%TO.C,U502*%
X61200000Y49160000D02*
X59250000Y49160000D01*
X61200000Y49160000D02*
X63150000Y49160000D01*
X61200000Y44040000D02*
X59250000Y44040000D01*
X61200000Y44040000D02*
X63150000Y44040000D01*
X64140000Y43805000D02*
X63660000Y43805000D01*
X63900000Y44135000D01*
X64140000Y43805000D01*
G36*
X64140000Y43805000D02*
G01*
X63660000Y43805000D01*
X63900000Y44135000D01*
X64140000Y43805000D01*
G37*
%TO.C,+12V*%
X66025000Y25800000D02*
G75*
G02*
X64625000Y25800000I-700000J0D01*
G01*
X64625000Y25800000D02*
G75*
G02*
X66025000Y25800000I700000J0D01*
G01*
%TO.C,+VSYS*%
X43800000Y7475000D02*
G75*
G02*
X42400000Y7475000I-700000J0D01*
G01*
X42400000Y7475000D02*
G75*
G02*
X43800000Y7475000I700000J0D01*
G01*
%TO.C,Q205*%
X44852500Y13275000D02*
X44852500Y13925000D01*
X44852500Y13275000D02*
X44852500Y12625000D01*
X47972500Y13275000D02*
X47972500Y13925000D01*
X47972500Y13275000D02*
X47972500Y12625000D01*
X45812500Y10950000D02*
X45332500Y10950000D01*
X45572500Y11280000D01*
X45812500Y10950000D01*
G36*
X45812500Y10950000D02*
G01*
X45332500Y10950000D01*
X45572500Y11280000D01*
X45812500Y10950000D01*
G37*
%TO.C,+VDD*%
X19200000Y28625000D02*
G75*
G02*
X17800000Y28625000I-700000J0D01*
G01*
X17800000Y28625000D02*
G75*
G02*
X19200000Y28625000I700000J0D01*
G01*
%TO.C,Q700*%
X59950000Y61670000D02*
X59950000Y62830000D01*
X59950000Y61670000D02*
X60260000Y61670000D01*
X62750000Y61670000D02*
X62440000Y61670000D01*
X62750000Y61670000D02*
X62750000Y62830000D01*
D10*
X62425000Y64450000D02*
G75*
G02*
X62275000Y64450000I-75000J0D01*
G01*
X62275000Y64450000D02*
G75*
G02*
X62425000Y64450000I75000J0D01*
G01*
D11*
%TO.C,C131*%
X91040000Y44363748D02*
X91040000Y45786252D01*
X92860000Y44363748D02*
X92860000Y45786252D01*
%TO.C,GND*%
X22550000Y34650000D02*
X24450000Y34650000D01*
X22550000Y32750000D02*
X22550000Y34650000D01*
X24450000Y34650000D02*
X24450000Y32750000D01*
X24450000Y32750000D02*
X22550000Y32750000D01*
%TO.C,U100*%
X11400000Y13395000D02*
X10350000Y13395000D01*
X11400000Y11415000D02*
X10100000Y11415000D01*
X9980000Y13395000D02*
X9700000Y13395000D01*
X9980000Y13675000D01*
X9980000Y13395000D01*
G36*
X9980000Y13395000D02*
G01*
X9700000Y13395000D01*
X9980000Y13675000D01*
X9980000Y13395000D01*
G37*
%TO.C,C512*%
X82465000Y15113748D02*
X82465000Y15636252D01*
X83935000Y15113748D02*
X83935000Y15636252D01*
%TO.C,J804*%
X56535000Y38670000D02*
X56535000Y38735000D01*
X56535000Y32265000D02*
X56535000Y32330000D01*
X60065000Y38735000D02*
X56535000Y38735000D01*
X60065000Y38670000D02*
X60065000Y38735000D01*
X60065000Y32265000D02*
X56535000Y32265000D01*
X60065000Y32265000D02*
X60065000Y32330000D01*
X61390000Y32330000D02*
X60065000Y32330000D01*
%TO.C,C603*%
X97435000Y53585000D02*
X97435000Y49835000D01*
X97435000Y43065000D02*
X97435000Y46815000D01*
X106890563Y53585000D02*
X97435000Y53585000D01*
X106890563Y43065000D02*
X97435000Y43065000D01*
X107955000Y52520563D02*
X106890563Y53585000D01*
X107955000Y52520563D02*
X107955000Y49835000D01*
X107955000Y44129437D02*
X106890563Y43065000D01*
X107955000Y44129437D02*
X107955000Y46815000D01*
X108820000Y44940000D02*
X108820000Y46190000D01*
X109445000Y45565000D02*
X108195000Y45565000D01*
%TO.C,C513*%
X78415000Y15113748D02*
X78415000Y15636252D01*
X79885000Y15113748D02*
X79885000Y15636252D01*
%TO.C,D601*%
X105487500Y42577500D02*
X105487500Y38917500D01*
X107887500Y42577500D02*
X105487500Y42577500D01*
X107887500Y42577500D02*
X107887500Y38917500D01*
%TO.C,Q202*%
X6600000Y26360000D02*
X4650000Y26360000D01*
X6600000Y26360000D02*
X8550000Y26360000D01*
X6600000Y21240000D02*
X4650000Y21240000D01*
X6600000Y21240000D02*
X8550000Y21240000D01*
X3900000Y26265000D02*
X3660000Y26595000D01*
X4140000Y26595000D01*
X3900000Y26265000D01*
G36*
X3900000Y26265000D02*
G01*
X3660000Y26595000D01*
X4140000Y26595000D01*
X3900000Y26265000D01*
G37*
%TO.C,J601*%
X109452500Y44085000D02*
X109452500Y36365000D01*
X109452500Y36365000D02*
X113472500Y36365000D01*
X109952500Y43585000D02*
X111162500Y43585000D01*
X109952500Y36865000D02*
X109952500Y43585000D01*
X111162500Y43585000D02*
X111162500Y44085000D01*
X111162500Y36865000D02*
X109952500Y36865000D01*
X111162500Y36365000D02*
X111162500Y36865000D01*
X111272500Y36065000D02*
X113772500Y36065000D01*
X111972500Y44085000D02*
X111972500Y43085000D01*
X111972500Y43085000D02*
X113472500Y43085000D01*
X111972500Y37365000D02*
X113472500Y37365000D01*
X111972500Y36365000D02*
X111972500Y37365000D01*
X113472500Y44085000D02*
X109452500Y44085000D01*
X113472500Y36365000D02*
X113472500Y44085000D01*
X113772500Y36065000D02*
X113772500Y38565000D01*
%TO.C,SEN*%
X6975000Y19400000D02*
G75*
G02*
X5575000Y19400000I-700000J0D01*
G01*
X5575000Y19400000D02*
G75*
G02*
X6975000Y19400000I700000J0D01*
G01*
%TO.C,U300*%
X28780000Y20842500D02*
X29255000Y20842500D01*
X28780000Y20367500D02*
X28780000Y20842500D01*
X28780000Y17097500D02*
X28780000Y16622500D01*
X28780000Y16622500D02*
X29255000Y16622500D01*
X32525000Y20842500D02*
X32760000Y20842500D01*
X33000000Y20367500D02*
X33000000Y20542500D01*
X33000000Y17097500D02*
X33000000Y16622500D01*
X33000000Y16622500D02*
X32525000Y16622500D01*
X33330000Y20602500D02*
X33000000Y20842500D01*
X33330000Y21082500D01*
X33330000Y20602500D01*
G36*
X33330000Y20602500D02*
G01*
X33000000Y20842500D01*
X33330000Y21082500D01*
X33330000Y20602500D01*
G37*
%TO.C,J100*%
X3060000Y17075000D02*
X4760000Y17075000D01*
X3060000Y7735000D02*
X4760000Y7735000D01*
%TO.C,J700*%
X70290000Y69010000D02*
X70290000Y64990000D01*
X70290000Y67510000D02*
X71290000Y67510000D01*
X70290000Y64990000D02*
X83010000Y64990000D01*
X70790000Y66700000D02*
X70290000Y66700000D01*
X70790000Y65490000D02*
X70790000Y66700000D01*
X71290000Y67510000D02*
X71290000Y69010000D01*
X82010000Y67510000D02*
X82010000Y69010000D01*
X82510000Y66700000D02*
X82510000Y65490000D01*
X82510000Y65490000D02*
X70790000Y65490000D01*
X83010000Y69010000D02*
X70290000Y69010000D01*
X83010000Y67510000D02*
X82010000Y67510000D01*
X83010000Y66700000D02*
X82510000Y66700000D01*
X83010000Y64990000D02*
X83010000Y69010000D01*
X83310000Y69310000D02*
X80810000Y69310000D01*
X83310000Y66810000D02*
X83310000Y69310000D01*
D12*
%TO.C,D400*%
X94050000Y24460000D02*
G75*
G02*
X93950000Y24460000I-50000J0D01*
G01*
X93950000Y24460000D02*
G75*
G02*
X94050000Y24460000I50000J0D01*
G01*
D11*
%TO.C,D600*%
X105500000Y17252500D02*
X105500000Y13592500D01*
X107900000Y17252500D02*
X105500000Y17252500D01*
X107900000Y17252500D02*
X107900000Y13592500D01*
%TO.C,J800*%
X15835000Y51200000D02*
X15835000Y51265000D01*
X15835000Y47335000D02*
X15835000Y47400000D01*
X19365000Y51265000D02*
X15835000Y51265000D01*
X19365000Y51200000D02*
X19365000Y51265000D01*
X19365000Y47335000D02*
X15835000Y47335000D01*
X19365000Y47335000D02*
X19365000Y47400000D01*
X20690000Y47400000D02*
X19365000Y47400000D01*
%TD*%
M02*
