%TF.GenerationSoftware,KiCad,Pcbnew,9.0.6*%
%TF.CreationDate,2025-11-17T11:06:36+01:00*%
%TF.ProjectId,Plantomatic2000,506c616e-746f-46d6-9174-696332303030,v0.2*%
%TF.SameCoordinates,PX5e82560PY8847b20*%
%TF.FileFunction,Soldermask,Top*%
%TF.FilePolarity,Negative*%
%FSLAX46Y46*%
G04 Gerber Fmt 4.6, Leading zero omitted, Abs format (unit mm)*
G04 Created by KiCad (PCBNEW 9.0.6) date 2025-11-17 11:06:36*
%MOMM*%
%LPD*%
G01*
G04 APERTURE LIST*
G04 Aperture macros list*
%AMRoundRect*
0 Rectangle with rounded corners*
0 $1 Rounding radius*
0 $2 $3 $4 $5 $6 $7 $8 $9 X,Y pos of 4 corners*
0 Add a 4 corners polygon primitive as box body*
4,1,4,$2,$3,$4,$5,$6,$7,$8,$9,$2,$3,0*
0 Add four circle primitives for the rounded corners*
1,1,$1+$1,$2,$3*
1,1,$1+$1,$4,$5*
1,1,$1+$1,$6,$7*
1,1,$1+$1,$8,$9*
0 Add four rect primitives between the rounded corners*
20,1,$1+$1,$2,$3,$4,$5,0*
20,1,$1+$1,$4,$5,$6,$7,0*
20,1,$1+$1,$6,$7,$8,$9,0*
20,1,$1+$1,$8,$9,$2,$3,0*%
%AMFreePoly0*
4,1,17,1.395000,0.765000,0.855000,0.765000,0.855000,0.535000,1.395000,0.535000,1.395000,0.115000,0.855000,0.115000,0.855000,-0.115000,1.395000,-0.115000,1.395000,-0.535000,0.855000,-0.535000,0.855000,-0.765000,1.395000,-0.765000,1.395000,-1.185000,-0.855000,-1.185000,-0.855000,1.185000,1.395000,1.185000,1.395000,0.765000,1.395000,0.765000,$1*%
G04 Aperture macros list end*
%ADD10C,0.000000*%
%ADD11RoundRect,0.250000X0.650000X-0.325000X0.650000X0.325000X-0.650000X0.325000X-0.650000X-0.325000X0*%
%ADD12C,1.000000*%
%ADD13RoundRect,0.250000X1.750000X1.000000X-1.750000X1.000000X-1.750000X-1.000000X1.750000X-1.000000X0*%
%ADD14RoundRect,0.135000X0.185000X-0.135000X0.185000X0.135000X-0.185000X0.135000X-0.185000X-0.135000X0*%
%ADD15R,1.500000X1.500000*%
%ADD16RoundRect,0.135000X0.135000X0.185000X-0.135000X0.185000X-0.135000X-0.185000X0.135000X-0.185000X0*%
%ADD17RoundRect,0.135000X-0.135000X-0.185000X0.135000X-0.185000X0.135000X0.185000X-0.135000X0.185000X0*%
%ADD18RoundRect,0.135000X-0.185000X0.135000X-0.185000X-0.135000X0.185000X-0.135000X0.185000X0.135000X0*%
%ADD19C,2.600000*%
%ADD20C,4.400000*%
%ADD21RoundRect,0.140000X-0.140000X-0.170000X0.140000X-0.170000X0.140000X0.170000X-0.140000X0.170000X0*%
%ADD22RoundRect,0.140000X-0.170000X0.140000X-0.170000X-0.140000X0.170000X-0.140000X0.170000X0.140000X0*%
%ADD23RoundRect,0.250000X0.325000X0.650000X-0.325000X0.650000X-0.325000X-0.650000X0.325000X-0.650000X0*%
%ADD24RoundRect,0.225000X-0.250000X0.225000X-0.250000X-0.225000X0.250000X-0.225000X0.250000X0.225000X0*%
%ADD25RoundRect,0.250000X-2.050000X-0.300000X2.050000X-0.300000X2.050000X0.300000X-2.050000X0.300000X0*%
%ADD26RoundRect,0.250002X-4.449998X-5.149998X4.449998X-5.149998X4.449998X5.149998X-4.449998X5.149998X0*%
%ADD27RoundRect,0.225000X-0.225000X-0.250000X0.225000X-0.250000X0.225000X0.250000X-0.225000X0.250000X0*%
%ADD28RoundRect,0.225000X0.250000X-0.225000X0.250000X0.225000X-0.250000X0.225000X-0.250000X-0.225000X0*%
%ADD29R,1.500000X0.900000*%
%ADD30R,0.900000X1.500000*%
%ADD31R,0.900000X0.900000*%
%ADD32C,0.600000*%
%ADD33RoundRect,0.250000X1.875000X-0.787500X1.875000X0.787500X-1.875000X0.787500X-1.875000X-0.787500X0*%
%ADD34RoundRect,0.225000X0.225000X0.250000X-0.225000X0.250000X-0.225000X-0.250000X0.225000X-0.250000X0*%
%ADD35RoundRect,0.147500X0.172500X-0.147500X0.172500X0.147500X-0.172500X0.147500X-0.172500X-0.147500X0*%
%ADD36RoundRect,0.140000X0.140000X0.170000X-0.140000X0.170000X-0.140000X-0.170000X0.140000X-0.170000X0*%
%ADD37RoundRect,0.140000X0.170000X-0.140000X0.170000X0.140000X-0.170000X0.140000X-0.170000X-0.140000X0*%
%ADD38RoundRect,0.375000X-0.375000X0.625000X-0.375000X-0.625000X0.375000X-0.625000X0.375000X0.625000X0*%
%ADD39RoundRect,0.500000X-1.400000X0.500000X-1.400000X-0.500000X1.400000X-0.500000X1.400000X0.500000X0*%
%ADD40RoundRect,0.250000X0.600000X0.750000X-0.600000X0.750000X-0.600000X-0.750000X0.600000X-0.750000X0*%
%ADD41O,1.700000X2.000000*%
%ADD42RoundRect,0.105000X-0.245000X-0.105000X0.245000X-0.105000X0.245000X0.105000X-0.245000X0.105000X0*%
%ADD43FreePoly0,0.000000*%
%ADD44RoundRect,0.075000X0.075000X-0.350000X0.075000X0.350000X-0.075000X0.350000X-0.075000X-0.350000X0*%
%ADD45RoundRect,0.075000X0.350000X-0.075000X0.350000X0.075000X-0.350000X0.075000X-0.350000X-0.075000X0*%
%ADD46R,2.550000X2.550000*%
%ADD47C,2.000000*%
%ADD48RoundRect,0.250000X1.025000X-0.787500X1.025000X0.787500X-1.025000X0.787500X-1.025000X-0.787500X0*%
%ADD49RoundRect,0.250000X0.475000X-0.250000X0.475000X0.250000X-0.475000X0.250000X-0.475000X-0.250000X0*%
%ADD50RoundRect,0.150000X0.150000X-0.587500X0.150000X0.587500X-0.150000X0.587500X-0.150000X-0.587500X0*%
%ADD51RoundRect,0.250000X0.600000X0.725000X-0.600000X0.725000X-0.600000X-0.725000X0.600000X-0.725000X0*%
%ADD52O,1.700000X1.950000*%
%ADD53RoundRect,0.250000X-0.375000X-1.075000X0.375000X-1.075000X0.375000X1.075000X-0.375000X1.075000X0*%
%ADD54RoundRect,0.150000X-0.512500X-0.150000X0.512500X-0.150000X0.512500X0.150000X-0.512500X0.150000X0*%
%ADD55RoundRect,0.250000X-1.025000X0.787500X-1.025000X-0.787500X1.025000X-0.787500X1.025000X0.787500X0*%
%ADD56RoundRect,0.080000X0.320000X0.370000X-0.320000X0.370000X-0.320000X-0.370000X0.320000X-0.370000X0*%
%ADD57R,3.250000X5.000000*%
%ADD58RoundRect,0.250000X0.250000X0.475000X-0.250000X0.475000X-0.250000X-0.475000X0.250000X-0.475000X0*%
%ADD59RoundRect,0.150000X0.150000X-0.875000X0.150000X0.875000X-0.150000X0.875000X-0.150000X-0.875000X0*%
%ADD60RoundRect,0.050100X0.099900X-0.174900X0.099900X0.174900X-0.099900X0.174900X-0.099900X-0.174900X0*%
%ADD61RoundRect,0.050100X0.099900X-0.324900X0.099900X0.324900X-0.099900X0.324900X-0.099900X-0.324900X0*%
%ADD62RoundRect,0.050350X0.424650X-0.449650X0.424650X0.449650X-0.424650X0.449650X-0.424650X-0.449650X0*%
%ADD63R,0.599999X0.249999*%
%ADD64R,0.599999X0.399999*%
%ADD65R,0.249999X1.899999*%
%ADD66R,0.399999X0.599999*%
%ADD67R,0.249999X0.599999*%
%ADD68RoundRect,0.150000X-0.150000X0.587500X-0.150000X-0.587500X0.150000X-0.587500X0.150000X0.587500X0*%
%ADD69R,1.700000X1.700000*%
%ADD70O,1.700000X1.700000*%
%ADD71RoundRect,0.062500X-0.337500X-0.062500X0.337500X-0.062500X0.337500X0.062500X-0.337500X0.062500X0*%
%ADD72RoundRect,0.062500X-0.062500X-0.337500X0.062500X-0.337500X0.062500X0.337500X-0.062500X0.337500X0*%
%ADD73R,2.750000X2.750000*%
%ADD74RoundRect,0.147500X0.147500X0.172500X-0.147500X0.172500X-0.147500X-0.172500X0.147500X-0.172500X0*%
%ADD75RoundRect,0.250000X0.450000X0.425000X-0.450000X0.425000X-0.450000X-0.425000X0.450000X-0.425000X0*%
%ADD76R,1.422400X0.660400*%
%ADD77RoundRect,0.250000X0.750000X-0.600000X0.750000X0.600000X-0.750000X0.600000X-0.750000X-0.600000X0*%
%ADD78O,2.000000X1.700000*%
%ADD79R,1.340000X1.800000*%
%ADD80RoundRect,0.147500X-0.172500X0.147500X-0.172500X-0.147500X0.172500X-0.147500X0.172500X0.147500X0*%
%ADD81RoundRect,0.150000X-0.587500X-0.150000X0.587500X-0.150000X0.587500X0.150000X-0.587500X0.150000X0*%
%ADD82RoundRect,0.250000X-0.325000X-0.650000X0.325000X-0.650000X0.325000X0.650000X-0.325000X0.650000X0*%
%ADD83RoundRect,0.100000X0.225000X0.100000X-0.225000X0.100000X-0.225000X-0.100000X0.225000X-0.100000X0*%
%ADD84R,6.400800X2.209800*%
%ADD85RoundRect,0.105000X0.245000X0.105000X-0.245000X0.105000X-0.245000X-0.105000X0.245000X-0.105000X0*%
%ADD86FreePoly0,180.000000*%
%ADD87RoundRect,0.150000X0.825000X0.150000X-0.825000X0.150000X-0.825000X-0.150000X0.825000X-0.150000X0*%
%ADD88RoundRect,0.093750X-0.156250X-0.093750X0.156250X-0.093750X0.156250X0.093750X-0.156250X0.093750X0*%
%ADD89RoundRect,0.075000X-0.250000X-0.075000X0.250000X-0.075000X0.250000X0.075000X-0.250000X0.075000X0*%
%ADD90R,2.400000X0.740000*%
%ADD91R,1.800000X1.340000*%
%ADD92RoundRect,0.150000X-0.625000X-0.150000X0.625000X-0.150000X0.625000X0.150000X-0.625000X0.150000X0*%
%ADD93RoundRect,0.062500X-0.062500X0.350000X-0.062500X-0.350000X0.062500X-0.350000X0.062500X0.350000X0*%
%ADD94RoundRect,0.062500X-0.350000X0.062500X-0.350000X-0.062500X0.350000X-0.062500X0.350000X0.062500X0*%
%ADD95R,2.700000X2.700000*%
%ADD96C,0.650000*%
%ADD97RoundRect,0.150000X-0.425000X0.150000X-0.425000X-0.150000X0.425000X-0.150000X0.425000X0.150000X0*%
%ADD98RoundRect,0.075000X-0.500000X0.075000X-0.500000X-0.075000X0.500000X-0.075000X0.500000X0.075000X0*%
%ADD99O,2.100000X1.000000*%
%ADD100O,1.800000X1.000000*%
%ADD101R,2.000000X2.000000*%
G04 APERTURE END LIST*
D10*
G36*
X116000000Y68000000D02*
G01*
X116000000Y4000000D01*
X112000000Y0D01*
X4000000Y0D01*
X0Y4000000D01*
X0Y59933437D01*
X4066563Y64000000D01*
X15000000Y64000000D01*
X15000000Y62000000D01*
X5000000Y62000000D01*
X2000000Y59000000D01*
X2000000Y5000000D01*
X5000000Y2000000D01*
X111000000Y2000000D01*
X114000000Y5000000D01*
X114000000Y67000000D01*
X111000000Y70000000D01*
X53000000Y70000000D01*
X52000000Y69000000D01*
X52000000Y65000000D01*
X49000000Y62000000D01*
X42000000Y62000000D01*
X42000000Y64000000D01*
X48000000Y64000000D01*
X50000000Y66000000D01*
X50000000Y70000000D01*
X52000000Y72000000D01*
X112000000Y72000000D01*
X116000000Y68000000D01*
G37*
D11*
%TO.C,C130*%
X92075000Y27975000D03*
X92075000Y30925000D03*
%TD*%
D12*
%TO.C,+3V3_DISP*%
X52300000Y62650000D03*
%TD*%
%TO.C,+12V_W*%
X94950000Y38000000D03*
%TD*%
D13*
%TO.C,C601*%
X107100000Y23000000D03*
X99100000Y23000000D03*
%TD*%
D14*
%TO.C,R804*%
X4775000Y56590000D03*
X4775000Y57610000D03*
%TD*%
D15*
%TO.C,GND*%
X97875000Y35175000D03*
%TD*%
D16*
%TO.C,R304*%
X27080000Y17975000D03*
X26060000Y17975000D03*
%TD*%
%TO.C,R703*%
X72560000Y63325000D03*
X71540000Y63325000D03*
%TD*%
D17*
%TO.C,R603*%
X102080000Y39525000D03*
X103100000Y39525000D03*
%TD*%
D18*
%TO.C,R400*%
X94000000Y27990000D03*
X94000000Y26970000D03*
%TD*%
D17*
%TO.C,R209*%
X13080000Y22640000D03*
X14100000Y22640000D03*
%TD*%
D19*
%TO.C,H800*%
X86900000Y66400000D03*
D20*
X86900000Y66400000D03*
%TD*%
D12*
%TO.C,DTR*%
X7450000Y30250000D03*
%TD*%
%TO.C,CE*%
X23050000Y25725000D03*
%TD*%
D21*
%TO.C,C125*%
X77220000Y11100000D03*
X78180000Y11100000D03*
%TD*%
D16*
%TO.C,R408*%
X4110000Y27600000D03*
X3090000Y27600000D03*
%TD*%
D22*
%TO.C,C602*%
X104912500Y41747500D03*
X104912500Y40787500D03*
%TD*%
D18*
%TO.C,R504*%
X49000000Y42990000D03*
X49000000Y41970000D03*
%TD*%
D23*
%TO.C,C132*%
X59225000Y60350000D03*
X56275000Y60350000D03*
%TD*%
D24*
%TO.C,C207*%
X43900000Y15850000D03*
X43900000Y14300000D03*
%TD*%
D12*
%TO.C,DENP*%
X68650000Y63650000D03*
%TD*%
D17*
%TO.C,R306*%
X26060000Y17000000D03*
X27080000Y17000000D03*
%TD*%
D12*
%TO.C,SLEEP*%
X63850000Y51100000D03*
%TD*%
%TO.C,+VDDD*%
X22675000Y22025000D03*
%TD*%
D17*
%TO.C,R110*%
X77210000Y12075000D03*
X78230000Y12075000D03*
%TD*%
D18*
%TO.C,R101*%
X15060000Y37045000D03*
X15060000Y36025000D03*
%TD*%
D22*
%TO.C,C419*%
X52525000Y28005000D03*
X52525000Y27045000D03*
%TD*%
D25*
%TO.C,U405*%
X73250000Y31815000D03*
X73250000Y29275000D03*
D26*
X82400000Y29275000D03*
D25*
X73250000Y26735000D03*
%TD*%
D12*
%TO.C,P1EN*%
X109950000Y7500000D03*
%TD*%
D17*
%TO.C,R600*%
X102090000Y13200000D03*
X103110000Y13200000D03*
%TD*%
%TO.C,R709*%
X64360000Y60250000D03*
X65380000Y60250000D03*
%TD*%
D12*
%TO.C,MIN*%
X93275000Y55250000D03*
%TD*%
D27*
%TO.C,C508*%
X58735000Y41900000D03*
X60285000Y41900000D03*
%TD*%
D28*
%TO.C,C412*%
X68325000Y42675000D03*
X68325000Y44225000D03*
%TD*%
D17*
%TO.C,R204*%
X13080000Y17690000D03*
X14100000Y17690000D03*
%TD*%
D27*
%TO.C,C303*%
X30525000Y12925000D03*
X32075000Y12925000D03*
%TD*%
D29*
%TO.C,U501*%
X23175000Y62633437D03*
X23175000Y61363437D03*
X23175000Y60093437D03*
X23175000Y58823437D03*
X23175000Y57553437D03*
X23175000Y56283437D03*
X23175000Y55013437D03*
X23175000Y53743437D03*
X23175000Y52473437D03*
X23175000Y51203437D03*
X23175000Y49933437D03*
X23175000Y48663437D03*
X23175000Y47393437D03*
X23175000Y46123437D03*
D30*
X26210000Y44873437D03*
X27480000Y44873437D03*
X28750000Y44873437D03*
X30020000Y44873437D03*
X31290000Y44873437D03*
X32560000Y44873437D03*
X33830000Y44873437D03*
X35100000Y44873437D03*
X36370000Y44873437D03*
X37640000Y44873437D03*
D29*
X40675000Y46123437D03*
X40675000Y47393437D03*
X40675000Y48663437D03*
X40675000Y49933437D03*
X40675000Y51203437D03*
X40675000Y52473437D03*
X40675000Y53743437D03*
X40675000Y55013437D03*
X40675000Y56283437D03*
X40675000Y57553437D03*
X40675000Y58823437D03*
X40675000Y60093437D03*
X40675000Y61363437D03*
X40675000Y62633437D03*
D31*
X29025000Y56313437D03*
D32*
X29025000Y55613437D03*
D31*
X29025000Y54913437D03*
D32*
X29025000Y54213437D03*
D31*
X29025000Y53513437D03*
D32*
X29725000Y56313437D03*
X29725000Y54913437D03*
X29725000Y53513437D03*
D31*
X30425000Y56313437D03*
D32*
X30425000Y55613437D03*
D31*
X30425000Y54913437D03*
D32*
X30425000Y54213437D03*
D31*
X30425000Y53513437D03*
D32*
X31125000Y56313437D03*
X31125000Y54913437D03*
X31125000Y53513437D03*
D31*
X31825000Y56313437D03*
D32*
X31825000Y55613437D03*
D31*
X31825000Y54913437D03*
D32*
X31825000Y54213437D03*
D31*
X31825000Y53513437D03*
%TD*%
D33*
%TO.C,C406*%
X93950000Y11562500D03*
X93950000Y17787500D03*
%TD*%
D22*
%TO.C,C808*%
X100500000Y65380000D03*
X100500000Y64420000D03*
%TD*%
D34*
%TO.C,C202*%
X17132500Y4607500D03*
X15582500Y4607500D03*
%TD*%
D28*
%TO.C,C403*%
X90100000Y28675000D03*
X90100000Y30225000D03*
%TD*%
D19*
%TO.C,H801*%
X4900000Y33900000D03*
D20*
X4900000Y33900000D03*
%TD*%
D18*
%TO.C,R217*%
X42600000Y15680000D03*
X42600000Y14660000D03*
%TD*%
D21*
%TO.C,C306*%
X34645000Y17475000D03*
X35605000Y17475000D03*
%TD*%
D28*
%TO.C,C400*%
X68450000Y27050000D03*
X68450000Y28600000D03*
%TD*%
D24*
%TO.C,C103*%
X14425000Y29400000D03*
X14425000Y27850000D03*
%TD*%
D34*
%TO.C,C704*%
X75425000Y62150000D03*
X73875000Y62150000D03*
%TD*%
D35*
%TO.C,D101*%
X13080000Y37095000D03*
X13080000Y38065000D03*
%TD*%
D36*
%TO.C,C104*%
X10480000Y14500000D03*
X9520000Y14500000D03*
%TD*%
D37*
%TO.C,C422*%
X47312500Y20645000D03*
X47312500Y21605000D03*
%TD*%
D18*
%TO.C,R207*%
X18795000Y15190000D03*
X18795000Y14170000D03*
%TD*%
D38*
%TO.C,Q600*%
X107575000Y11375000D03*
X105275000Y11375000D03*
X102975000Y11375000D03*
D39*
X105275000Y5075000D03*
%TD*%
D12*
%TO.C,WEN*%
X83700000Y59600000D03*
%TD*%
D40*
%TO.C,J807*%
X95750000Y65225000D03*
D41*
X93250000Y65225000D03*
%TD*%
D42*
%TO.C,Q204*%
X50487500Y16917500D03*
X50487500Y16267500D03*
X50487500Y15617500D03*
X50487500Y14967500D03*
D43*
X52442500Y15942500D03*
%TD*%
D36*
%TO.C,C408*%
X62780000Y3900000D03*
X61820000Y3900000D03*
%TD*%
D44*
%TO.C,U101*%
X10350000Y31150000D03*
X10850000Y31150000D03*
X11350000Y31150000D03*
X11850000Y31150000D03*
X12350000Y31150000D03*
X12850000Y31150000D03*
D45*
X13550000Y31850000D03*
X13550000Y32350000D03*
X13550000Y32850000D03*
X13550000Y33350000D03*
X13550000Y33850000D03*
X13550000Y34350000D03*
D44*
X12850000Y35050000D03*
X12350000Y35050000D03*
X11850000Y35050000D03*
X11350000Y35050000D03*
X10850000Y35050000D03*
X10350000Y35050000D03*
D45*
X9650000Y34350000D03*
X9650000Y33850000D03*
X9650000Y33350000D03*
X9650000Y32850000D03*
X9650000Y32350000D03*
X9650000Y31850000D03*
D46*
X11600000Y33100000D03*
%TD*%
D14*
%TO.C,R706*%
X63325000Y60690000D03*
X63325000Y61710000D03*
%TD*%
D47*
%TO.C,FID401*%
X111900000Y61900000D03*
%TD*%
D22*
%TO.C,C124*%
X70975000Y8355000D03*
X70975000Y7395000D03*
%TD*%
%TO.C,C423*%
X52575000Y22530000D03*
X52575000Y21570000D03*
%TD*%
D18*
%TO.C,R507*%
X44300000Y61098437D03*
X44300000Y60078437D03*
%TD*%
D14*
%TO.C,R203*%
X21035000Y14320000D03*
X21035000Y15340000D03*
%TD*%
D21*
%TO.C,C509*%
X58720000Y43200000D03*
X59680000Y43200000D03*
%TD*%
D22*
%TO.C,C410*%
X3200000Y46780000D03*
X3200000Y45820000D03*
%TD*%
D28*
%TO.C,C208*%
X50475000Y11750000D03*
X50475000Y13300000D03*
%TD*%
D22*
%TO.C,C102*%
X13200000Y29680000D03*
X13200000Y28720000D03*
%TD*%
D28*
%TO.C,C204*%
X20135000Y22745000D03*
X20135000Y24295000D03*
%TD*%
D35*
%TO.C,D100*%
X12105000Y37095000D03*
X12105000Y38065000D03*
%TD*%
D19*
%TO.C,H804*%
X98900000Y5900000D03*
D20*
X98900000Y5900000D03*
%TD*%
D16*
%TO.C,R214*%
X14100000Y15720000D03*
X13080000Y15720000D03*
%TD*%
D37*
%TO.C,C401*%
X69850000Y27345000D03*
X69850000Y28305000D03*
%TD*%
%TO.C,C206*%
X17925000Y22480000D03*
X17925000Y23440000D03*
%TD*%
D17*
%TO.C,R708*%
X80440000Y60050000D03*
X81460000Y60050000D03*
%TD*%
%TO.C,R602*%
X102090000Y14200000D03*
X103110000Y14200000D03*
%TD*%
D48*
%TO.C,C405*%
X87855000Y11562500D03*
X87855000Y17787500D03*
%TD*%
D18*
%TO.C,R205*%
X17805000Y15190000D03*
X17805000Y14170000D03*
%TD*%
D12*
%TO.C,OTG*%
X25125000Y21425000D03*
%TD*%
%TO.C,SLEEP*%
X24575000Y15475000D03*
%TD*%
D17*
%TO.C,R403*%
X69000000Y3200000D03*
X70020000Y3200000D03*
%TD*%
D14*
%TO.C,R303*%
X26735000Y21410000D03*
X26735000Y22430000D03*
%TD*%
D18*
%TO.C,R100*%
X16050000Y34535000D03*
X16050000Y33515000D03*
%TD*%
D49*
%TO.C,C510*%
X77125000Y14425000D03*
X77125000Y16325000D03*
%TD*%
D24*
%TO.C,C201*%
X12182500Y5287500D03*
X12182500Y3737500D03*
%TD*%
%TO.C,C123*%
X57725000Y8725000D03*
X57725000Y7175000D03*
%TD*%
D18*
%TO.C,R503*%
X50050000Y42990000D03*
X50050000Y41970000D03*
%TD*%
D12*
%TO.C,+3V3*%
X57125000Y23350000D03*
%TD*%
D14*
%TO.C,R300*%
X29320000Y23610000D03*
X29320000Y24630000D03*
%TD*%
D17*
%TO.C,R405*%
X43160000Y12350000D03*
X44180000Y12350000D03*
%TD*%
D50*
%TO.C,Q702*%
X64687500Y61787500D03*
X66587500Y61787500D03*
X65637500Y63662500D03*
%TD*%
D37*
%TO.C,C205*%
X18895000Y22480000D03*
X18895000Y23440000D03*
%TD*%
D51*
%TO.C,J701*%
X64325000Y66900000D03*
D52*
X61825000Y66900000D03*
X59325000Y66900000D03*
X56825000Y66900000D03*
%TD*%
D27*
%TO.C,C127*%
X72575000Y7400000D03*
X74125000Y7400000D03*
%TD*%
D49*
%TO.C,C511*%
X81175000Y14425000D03*
X81175000Y16325000D03*
%TD*%
D12*
%TO.C,LINE_SEL*%
X11350000Y48500000D03*
%TD*%
D34*
%TO.C,C307*%
X28925000Y14400000D03*
X27375000Y14400000D03*
%TD*%
D18*
%TO.C,R705*%
X79400000Y63460000D03*
X79400000Y62440000D03*
%TD*%
D37*
%TO.C,C413*%
X69725000Y42970000D03*
X69725000Y43930000D03*
%TD*%
D36*
%TO.C,C804*%
X7580000Y53100000D03*
X6620000Y53100000D03*
%TD*%
D14*
%TO.C,R309*%
X35000000Y25680000D03*
X35000000Y26700000D03*
%TD*%
D35*
%TO.C,D300*%
X29320000Y25555000D03*
X29320000Y26525000D03*
%TD*%
D50*
%TO.C,Q703*%
X80762500Y61587500D03*
X82662500Y61587500D03*
X81712500Y63462500D03*
%TD*%
D18*
%TO.C,R215*%
X16315000Y15460000D03*
X16315000Y14440000D03*
%TD*%
D53*
%TO.C,F401*%
X11200000Y25100000D03*
X14000000Y25100000D03*
%TD*%
D12*
%TO.C,RSLEEP*%
X55950000Y42375000D03*
%TD*%
D36*
%TO.C,C501*%
X17290000Y54740000D03*
X16330000Y54740000D03*
%TD*%
D54*
%TO.C,U403*%
X48812500Y28025000D03*
X48812500Y27075000D03*
X48812500Y26125000D03*
X51087500Y26125000D03*
X51087500Y28025000D03*
%TD*%
D12*
%TO.C,P2D*%
X111150000Y34800000D03*
%TD*%
D36*
%TO.C,C806*%
X60280000Y31200000D03*
X59320000Y31200000D03*
%TD*%
D14*
%TO.C,R805*%
X89705000Y57380000D03*
X89705000Y58400000D03*
%TD*%
D15*
%TO.C,GND*%
X64600000Y41500000D03*
%TD*%
D16*
%TO.C,R312*%
X26850000Y28275000D03*
X25830000Y28275000D03*
%TD*%
D23*
%TO.C,C133*%
X75300000Y60150000D03*
X72350000Y60150000D03*
%TD*%
D40*
%TO.C,J803*%
X10850000Y57600000D03*
D41*
X8350000Y57600000D03*
%TD*%
D55*
%TO.C,C404*%
X53850000Y12212500D03*
X53850000Y5987500D03*
%TD*%
D56*
%TO.C,Q300*%
X33750000Y27675000D03*
X31750000Y27675000D03*
X32750000Y25675000D03*
%TD*%
D22*
%TO.C,C604*%
X108475000Y15455000D03*
X108475000Y14495000D03*
%TD*%
D15*
%TO.C,GND*%
X65200000Y30275000D03*
%TD*%
D57*
%TO.C,L103*%
X69250000Y16125000D03*
X57800000Y16125000D03*
%TD*%
D19*
%TO.C,H802*%
X110900000Y53400000D03*
D20*
X110900000Y53400000D03*
%TD*%
D16*
%TO.C,R803*%
X8610000Y52075000D03*
X7590000Y52075000D03*
%TD*%
D18*
%TO.C,R800*%
X44000000Y41160000D03*
X44000000Y40140000D03*
%TD*%
D12*
%TO.C,+3V3_MCU*%
X13175000Y52900000D03*
%TD*%
D47*
%TO.C,FID400*%
X10900000Y54000000D03*
%TD*%
D12*
%TO.C,WENP*%
X85000000Y62650000D03*
%TD*%
D17*
%TO.C,R305*%
X26060000Y18950000D03*
X27080000Y18950000D03*
%TD*%
D35*
%TO.C,D200*%
X22030000Y14370000D03*
X22030000Y15340000D03*
%TD*%
D37*
%TO.C,C802*%
X43000000Y40140000D03*
X43000000Y41100000D03*
%TD*%
D12*
%TO.C,RESET*%
X93250000Y62225000D03*
%TD*%
D58*
%TO.C,C500*%
X17975000Y53163437D03*
X16075000Y53163437D03*
%TD*%
D12*
%TO.C,+12V_P*%
X96000000Y30150000D03*
%TD*%
D22*
%TO.C,C807*%
X88700000Y58400000D03*
X88700000Y57440000D03*
%TD*%
D37*
%TO.C,C402*%
X88825000Y28970000D03*
X88825000Y29930000D03*
%TD*%
D56*
%TO.C,Q701*%
X78425000Y63450000D03*
X76425000Y63450000D03*
X77425000Y61450000D03*
%TD*%
D59*
%TO.C,U500*%
X46455000Y44850000D03*
X47725000Y44850000D03*
X48995000Y44850000D03*
X50265000Y44850000D03*
X51535000Y44850000D03*
X52805000Y44850000D03*
X54075000Y44850000D03*
X55345000Y44850000D03*
X55345000Y54150000D03*
X54075000Y54150000D03*
X52805000Y54150000D03*
X51535000Y54150000D03*
X50265000Y54150000D03*
X48995000Y54150000D03*
X47725000Y54150000D03*
X46455000Y54150000D03*
%TD*%
D60*
%TO.C,Q113*%
X73000000Y14075000D03*
X73650000Y14075000D03*
X74300000Y14075000D03*
X74300000Y16025000D03*
X73650000Y16025000D03*
X73000000Y16025000D03*
D61*
X74300000Y15145000D03*
D62*
X73325000Y15050000D03*
%TD*%
D12*
%TO.C,+VBUS*%
X19275000Y34550000D03*
%TD*%
D24*
%TO.C,C200*%
X10672500Y5287500D03*
X10672500Y3737500D03*
%TD*%
D14*
%TO.C,R108*%
X77165000Y8165000D03*
X77165000Y9185000D03*
%TD*%
D16*
%TO.C,R505*%
X43310000Y48663437D03*
X42290000Y48663437D03*
%TD*%
D63*
%TO.C,U104*%
X75137501Y10314999D03*
X75137501Y10815000D03*
X75137501Y11314999D03*
D64*
X75137501Y11890000D03*
D65*
X74237501Y11775001D03*
X73737501Y11775001D03*
D64*
X72837501Y11890000D03*
D63*
X72837501Y11314999D03*
X72837501Y10815000D03*
X72837501Y10314999D03*
D66*
X73162501Y9625000D03*
D67*
X73737501Y9625000D03*
X74237501Y9625000D03*
D66*
X74812501Y9625000D03*
%TD*%
D34*
%TO.C,C701*%
X59350000Y62350000D03*
X57800000Y62350000D03*
%TD*%
D22*
%TO.C,C135*%
X71100000Y21280000D03*
X71100000Y20320000D03*
%TD*%
D16*
%TO.C,R212*%
X14100000Y19670000D03*
X13080000Y19670000D03*
%TD*%
%TO.C,R511*%
X66460000Y45982500D03*
X65440000Y45982500D03*
%TD*%
D14*
%TO.C,R413*%
X68700000Y68090000D03*
X68700000Y69110000D03*
%TD*%
D37*
%TO.C,C801*%
X21200000Y40120000D03*
X21200000Y41080000D03*
%TD*%
D28*
%TO.C,C421*%
X46012500Y20650000D03*
X46012500Y22200000D03*
%TD*%
D54*
%TO.C,U404*%
X48775000Y22550000D03*
X48775000Y21600000D03*
X48775000Y20650000D03*
X51050000Y20650000D03*
X51050000Y22550000D03*
%TD*%
D36*
%TO.C,C502*%
X19900000Y61700000D03*
X18940000Y61700000D03*
%TD*%
D27*
%TO.C,C100*%
X15500000Y30875000D03*
X17050000Y30875000D03*
%TD*%
D18*
%TO.C,R308*%
X36077291Y25660000D03*
X36077291Y24640000D03*
%TD*%
D40*
%TO.C,J805*%
X95775000Y58400000D03*
D41*
X93275000Y58400000D03*
%TD*%
D22*
%TO.C,C122*%
X71650000Y13830000D03*
X71650000Y12870000D03*
%TD*%
D21*
%TO.C,C101*%
X15245000Y32100000D03*
X16205000Y32100000D03*
%TD*%
D22*
%TO.C,C605*%
X108462500Y40780000D03*
X108462500Y39820000D03*
%TD*%
D12*
%TO.C,SDA*%
X58750000Y50375000D03*
%TD*%
D18*
%TO.C,R704*%
X63325000Y63660000D03*
X63325000Y62640000D03*
%TD*%
D16*
%TO.C,R701*%
X56490000Y63525000D03*
X55470000Y63525000D03*
%TD*%
D18*
%TO.C,R700*%
X61350000Y60680000D03*
X61350000Y59660000D03*
%TD*%
%TO.C,R302*%
X27725000Y22430000D03*
X27725000Y21410000D03*
%TD*%
D35*
%TO.C,D301*%
X30300000Y25555000D03*
X30300000Y26525000D03*
%TD*%
D18*
%TO.C,R102*%
X7870000Y37915000D03*
X7870000Y36895000D03*
%TD*%
D68*
%TO.C,Q301*%
X27737500Y26737500D03*
X25837500Y26737500D03*
X26787500Y24862500D03*
%TD*%
D37*
%TO.C,C414*%
X88700000Y44600000D03*
X88700000Y45560000D03*
%TD*%
D69*
%TO.C,TH300*%
X39675000Y18337500D03*
D70*
X39675000Y20877500D03*
%TD*%
D71*
%TO.C,U200*%
X16315000Y19940000D03*
X16315000Y19440000D03*
X16315000Y18940000D03*
X16315000Y18440000D03*
X16315000Y17940000D03*
X16315000Y17440000D03*
D72*
X17040000Y16715000D03*
X17540000Y16715000D03*
X18040000Y16715000D03*
X18540000Y16715000D03*
X19040000Y16715000D03*
X19540000Y16715000D03*
D71*
X20265000Y17440000D03*
X20265000Y17940000D03*
X20265000Y18440000D03*
X20265000Y18940000D03*
X20265000Y19440000D03*
X20265000Y19940000D03*
D72*
X19540000Y20665000D03*
X19040000Y20665000D03*
X18540000Y20665000D03*
X18040000Y20665000D03*
X17540000Y20665000D03*
X17040000Y20665000D03*
D73*
X18290000Y18690000D03*
%TD*%
D17*
%TO.C,R311*%
X27730000Y28275000D03*
X28750000Y28275000D03*
%TD*%
D74*
%TO.C,D701*%
X56450000Y62375000D03*
X55480000Y62375000D03*
%TD*%
D75*
%TO.C,C503*%
X20325000Y57898437D03*
X17625000Y57898437D03*
%TD*%
D40*
%TO.C,J300*%
X26000000Y7450000D03*
D41*
X23500000Y7450000D03*
%TD*%
D15*
%TO.C,GND*%
X82550000Y5300000D03*
%TD*%
D28*
%TO.C,C417*%
X46050000Y26125000D03*
X46050000Y27675000D03*
%TD*%
D12*
%TO.C,START*%
X8350000Y54575000D03*
%TD*%
D17*
%TO.C,R601*%
X102080000Y38525000D03*
X103100000Y38525000D03*
%TD*%
D12*
%TO.C,HOUR*%
X105150000Y62250000D03*
%TD*%
D19*
%TO.C,H803*%
X46900000Y5900000D03*
D20*
X46900000Y5900000D03*
%TD*%
D74*
%TO.C,D700*%
X72525000Y62175000D03*
X71555000Y62175000D03*
%TD*%
D12*
%TO.C,EN*%
X10300000Y16325000D03*
%TD*%
D76*
%TO.C,SW800*%
X34130100Y40150000D03*
X41419900Y40150000D03*
%TD*%
D22*
%TO.C,C809*%
X89325000Y63830000D03*
X89325000Y62870000D03*
%TD*%
D12*
%TO.C,+3V3_WP*%
X70000000Y63350000D03*
%TD*%
D22*
%TO.C,C803*%
X57725000Y54450000D03*
X57725000Y53490000D03*
%TD*%
%TO.C,C126*%
X79165000Y12080000D03*
X79165000Y11120000D03*
%TD*%
D77*
%TO.C,J600*%
X111175000Y13650000D03*
D78*
X111175000Y16150000D03*
%TD*%
D38*
%TO.C,Q601*%
X107562500Y36700000D03*
X105262500Y36700000D03*
X102962500Y36700000D03*
D39*
X105262500Y30400000D03*
%TD*%
D14*
%TO.C,R206*%
X19785000Y14160000D03*
X19785000Y15180000D03*
%TD*%
D16*
%TO.C,R213*%
X14100000Y21650000D03*
X13080000Y21650000D03*
%TD*%
D12*
%TO.C,P1D*%
X111175000Y9600000D03*
%TD*%
D16*
%TO.C,R201*%
X9300000Y20585000D03*
X8280000Y20585000D03*
%TD*%
D18*
%TO.C,R410*%
X93875000Y43610000D03*
X93875000Y42590000D03*
%TD*%
%TO.C,R702*%
X77425000Y60490000D03*
X77425000Y59470000D03*
%TD*%
D79*
%TO.C,D500*%
X48995000Y56775000D03*
X51855000Y56775000D03*
%TD*%
D14*
%TO.C,R806*%
X101575000Y64290000D03*
X101575000Y65310000D03*
%TD*%
D35*
%TO.C,D403*%
X93875000Y40690000D03*
X93875000Y41660000D03*
%TD*%
D80*
%TO.C,D201*%
X49025000Y13297500D03*
X49025000Y12327500D03*
%TD*%
D18*
%TO.C,R506*%
X44300000Y57310000D03*
X44300000Y56290000D03*
%TD*%
D21*
%TO.C,C105*%
X6020000Y6470000D03*
X6980000Y6470000D03*
%TD*%
D40*
%TO.C,J801*%
X64800000Y54445000D03*
D41*
X62300000Y54445000D03*
%TD*%
D35*
%TO.C,D404*%
X56050000Y26015000D03*
X56050000Y26985000D03*
%TD*%
D16*
%TO.C,R202*%
X14100000Y18680000D03*
X13080000Y18680000D03*
%TD*%
D28*
%TO.C,C203*%
X15930000Y22095000D03*
X15930000Y23645000D03*
%TD*%
D35*
%TO.C,D405*%
X56025000Y20565000D03*
X56025000Y21535000D03*
%TD*%
D36*
%TO.C,C702*%
X59380000Y63650000D03*
X58420000Y63650000D03*
%TD*%
D28*
%TO.C,C415*%
X89975000Y44300000D03*
X89975000Y45850000D03*
%TD*%
D40*
%TO.C,J808*%
X107575000Y58425000D03*
D41*
X105075000Y58425000D03*
%TD*%
D17*
%TO.C,R112*%
X43160000Y11350000D03*
X44180000Y11350000D03*
%TD*%
D16*
%TO.C,R512*%
X66450000Y44710000D03*
X65430000Y44710000D03*
%TD*%
D22*
%TO.C,C506*%
X47725000Y42930000D03*
X47725000Y41970000D03*
%TD*%
D16*
%TO.C,R404*%
X3800000Y39000000D03*
X2780000Y39000000D03*
%TD*%
D37*
%TO.C,C418*%
X47350000Y26120000D03*
X47350000Y27080000D03*
%TD*%
D81*
%TO.C,Q203*%
X17792500Y12950000D03*
X17792500Y11050000D03*
X19667500Y12000000D03*
%TD*%
D77*
%TO.C,J802*%
X7615000Y46005000D03*
D78*
X7615000Y48505000D03*
%TD*%
D24*
%TO.C,C424*%
X53775000Y22700000D03*
X53775000Y21150000D03*
%TD*%
D16*
%TO.C,R509*%
X43320000Y60088437D03*
X42300000Y60088437D03*
%TD*%
D27*
%TO.C,C302*%
X30525000Y14425000D03*
X32075000Y14425000D03*
%TD*%
D42*
%TO.C,Q201*%
X15560000Y8282500D03*
X15560000Y7632500D03*
X15560000Y6982500D03*
X15560000Y6332500D03*
D43*
X17515000Y7307500D03*
%TD*%
D18*
%TO.C,R407*%
X64000000Y3910000D03*
X64000000Y2890000D03*
%TD*%
D14*
%TO.C,R707*%
X79400000Y60490000D03*
X79400000Y61510000D03*
%TD*%
D18*
%TO.C,R808*%
X101500000Y59430000D03*
X101500000Y58410000D03*
%TD*%
D14*
%TO.C,R211*%
X15325000Y14440000D03*
X15325000Y15460000D03*
%TD*%
D36*
%TO.C,C705*%
X75460000Y63450000D03*
X74500000Y63450000D03*
%TD*%
D82*
%TO.C,C128*%
X30100000Y11000000D03*
X33050000Y11000000D03*
%TD*%
D14*
%TO.C,R409*%
X3200000Y48000000D03*
X3200000Y49020000D03*
%TD*%
D12*
%TO.C,EN*%
X20675000Y52900000D03*
%TD*%
D82*
%TO.C,C129*%
X30100000Y8650000D03*
X33050000Y8650000D03*
%TD*%
D12*
%TO.C,P2EN*%
X109962500Y32875000D03*
%TD*%
D35*
%TO.C,D302*%
X37062291Y24655000D03*
X37062291Y25625000D03*
%TD*%
D53*
%TO.C,F400*%
X18750000Y3650000D03*
X21550000Y3650000D03*
%TD*%
D14*
%TO.C,R111*%
X75775000Y7390000D03*
X75775000Y8410000D03*
%TD*%
D81*
%TO.C,Q500*%
X51637500Y42662500D03*
X51637500Y40762500D03*
X53512500Y41712500D03*
%TD*%
D18*
%TO.C,R411*%
X55050000Y28010000D03*
X55050000Y26990000D03*
%TD*%
D25*
%TO.C,U406*%
X73125000Y47440000D03*
X73125000Y44900000D03*
D26*
X82275000Y44900000D03*
D25*
X73125000Y42360000D03*
%TD*%
D83*
%TO.C,Q100*%
X9255000Y39440000D03*
X9255000Y40090000D03*
X9255000Y40740000D03*
X7355000Y40740000D03*
X7355000Y40090000D03*
X7355000Y39440000D03*
%TD*%
D37*
%TO.C,C409*%
X4100000Y28720000D03*
X4100000Y29680000D03*
%TD*%
D40*
%TO.C,J806*%
X107650000Y65325000D03*
D41*
X105150000Y65325000D03*
%TD*%
D12*
%TO.C,+VBAT*%
X27800000Y4300000D03*
%TD*%
D17*
%TO.C,R210*%
X13080000Y16700000D03*
X14100000Y16700000D03*
%TD*%
D16*
%TO.C,R310*%
X33010000Y29172500D03*
X31990000Y29172500D03*
%TD*%
D27*
%TO.C,C301*%
X34275000Y20925000D03*
X35825000Y20925000D03*
%TD*%
D84*
%TO.C,L300*%
X37650000Y13850000D03*
X37650000Y9650000D03*
%TD*%
D14*
%TO.C,R218*%
X49025000Y10390000D03*
X49025000Y11410000D03*
%TD*%
D75*
%TO.C,C504*%
X20325000Y60088437D03*
X17625000Y60088437D03*
%TD*%
D12*
%TO.C,CE_EN*%
X29275000Y30375000D03*
%TD*%
%TO.C,RTS*%
X11975000Y39750000D03*
%TD*%
D18*
%TO.C,R104*%
X8850000Y37915000D03*
X8850000Y36895000D03*
%TD*%
D85*
%TO.C,Q200*%
X14132500Y6982500D03*
X14132500Y7632500D03*
X14132500Y8282500D03*
X14132500Y8932500D03*
D86*
X12177500Y7957500D03*
%TD*%
D27*
%TO.C,C300*%
X32575000Y22425000D03*
X34125000Y22425000D03*
%TD*%
D14*
%TO.C,R105*%
X11125000Y37045000D03*
X11125000Y38065000D03*
%TD*%
D24*
%TO.C,C420*%
X53800000Y28175000D03*
X53800000Y26625000D03*
%TD*%
D18*
%TO.C,R412*%
X55012500Y22540000D03*
X55012500Y21520000D03*
%TD*%
D47*
%TO.C,FID402*%
X91900000Y5900000D03*
%TD*%
D76*
%TO.C,SW801*%
X30119900Y40125000D03*
X22830100Y40125000D03*
%TD*%
D14*
%TO.C,R121*%
X72100000Y20270000D03*
X72100000Y21290000D03*
%TD*%
D24*
%TO.C,C505*%
X46450000Y42650000D03*
X46450000Y41100000D03*
%TD*%
D19*
%TO.C,H805*%
X59900000Y27900000D03*
D20*
X59900000Y27900000D03*
%TD*%
D87*
%TO.C,U502*%
X63675000Y44695000D03*
X63675000Y45965000D03*
X63675000Y47235000D03*
X63675000Y48505000D03*
X58725000Y48505000D03*
X58725000Y47235000D03*
X58725000Y45965000D03*
X58725000Y44695000D03*
%TD*%
D12*
%TO.C,+12V*%
X65325000Y25800000D03*
%TD*%
%TO.C,+VSYS*%
X43100000Y7475000D03*
%TD*%
D50*
%TO.C,Q205*%
X45462500Y12337500D03*
X47362500Y12337500D03*
X46412500Y14212500D03*
%TD*%
D17*
%TO.C,R402*%
X112190000Y59000000D03*
X113210000Y59000000D03*
%TD*%
D12*
%TO.C,DEN*%
X68200000Y59925000D03*
%TD*%
D17*
%TO.C,R107*%
X6020000Y4520000D03*
X7040000Y4520000D03*
%TD*%
D12*
%TO.C,+VDD*%
X18500000Y28625000D03*
%TD*%
D56*
%TO.C,Q700*%
X62350000Y63650000D03*
X60350000Y63650000D03*
X61350000Y61650000D03*
%TD*%
D11*
%TO.C,C131*%
X91950000Y43600000D03*
X91950000Y46550000D03*
%TD*%
D16*
%TO.C,R508*%
X43320000Y56288437D03*
X42300000Y56288437D03*
%TD*%
D27*
%TO.C,C308*%
X34850000Y19450000D03*
X36400000Y19450000D03*
%TD*%
D17*
%TO.C,R208*%
X13080000Y20660000D03*
X14100000Y20660000D03*
%TD*%
D12*
%TO.C,SCL*%
X61025000Y50425000D03*
%TD*%
D15*
%TO.C,GND*%
X23500000Y33700000D03*
%TD*%
D88*
%TO.C,U100*%
X9900000Y12942500D03*
D89*
X9825000Y12405000D03*
D88*
X9900000Y11867500D03*
X11600000Y11867500D03*
D89*
X11675000Y12405000D03*
D88*
X11600000Y12942500D03*
%TD*%
D49*
%TO.C,C512*%
X83200000Y14425000D03*
X83200000Y16325000D03*
%TD*%
D34*
%TO.C,C507*%
X19425000Y56038437D03*
X17875000Y56038437D03*
%TD*%
D14*
%TO.C,R301*%
X30300000Y23610000D03*
X30300000Y24630000D03*
%TD*%
D90*
%TO.C,J804*%
X60250000Y32960000D03*
X56350000Y32960000D03*
X60250000Y34230000D03*
X56350000Y34230000D03*
X60250000Y35500000D03*
X56350000Y35500000D03*
X60250000Y36770000D03*
X56350000Y36770000D03*
X60250000Y38040000D03*
X56350000Y38040000D03*
%TD*%
D13*
%TO.C,C603*%
X106695000Y48325000D03*
X98695000Y48325000D03*
%TD*%
D14*
%TO.C,R103*%
X15075000Y33515000D03*
X15075000Y34535000D03*
%TD*%
D22*
%TO.C,C600*%
X104925000Y16422500D03*
X104925000Y15462500D03*
%TD*%
%TO.C,C411*%
X68700000Y67080000D03*
X68700000Y66120000D03*
%TD*%
D21*
%TO.C,C106*%
X6020000Y5500000D03*
X6980000Y5500000D03*
%TD*%
D49*
%TO.C,C513*%
X79150000Y14425000D03*
X79150000Y16325000D03*
%TD*%
D91*
%TO.C,D601*%
X106687500Y41747500D03*
X106687500Y38887500D03*
%TD*%
D18*
%TO.C,R801*%
X20200000Y41140000D03*
X20200000Y40120000D03*
%TD*%
D92*
%TO.C,Q202*%
X3900000Y25705000D03*
X3900000Y24435000D03*
X3900000Y23165000D03*
X3900000Y21895000D03*
X9300000Y21895000D03*
X9300000Y23165000D03*
X9300000Y24435000D03*
X9300000Y25705000D03*
%TD*%
D17*
%TO.C,R807*%
X90510000Y62475000D03*
X91530000Y62475000D03*
%TD*%
D37*
%TO.C,C800*%
X12745000Y48035000D03*
X12745000Y48995000D03*
%TD*%
D77*
%TO.C,J601*%
X111162500Y38975000D03*
D78*
X111162500Y41475000D03*
%TD*%
D12*
%TO.C,SEN*%
X6275000Y19400000D03*
%TD*%
D18*
%TO.C,R307*%
X24575000Y25890000D03*
X24575000Y24870000D03*
%TD*%
D93*
%TO.C,U300*%
X32140000Y20695000D03*
X31640000Y20695000D03*
X31140000Y20695000D03*
X30640000Y20695000D03*
X30140000Y20695000D03*
X29640000Y20695000D03*
D94*
X28927500Y19982500D03*
X28927500Y19482500D03*
X28927500Y18982500D03*
X28927500Y18482500D03*
X28927500Y17982500D03*
X28927500Y17482500D03*
D93*
X29640000Y16770000D03*
X30140000Y16770000D03*
X30640000Y16770000D03*
X31140000Y16770000D03*
X31640000Y16770000D03*
X32140000Y16770000D03*
D94*
X32852500Y17482500D03*
X32852500Y17982500D03*
X32852500Y18482500D03*
X32852500Y18982500D03*
X32852500Y19482500D03*
X32852500Y19982500D03*
D95*
X30890000Y18732500D03*
%TD*%
D17*
%TO.C,R401*%
X112090000Y29000000D03*
X113110000Y29000000D03*
%TD*%
D22*
%TO.C,C805*%
X3775000Y57600000D03*
X3775000Y56640000D03*
%TD*%
D16*
%TO.C,R502*%
X43340000Y58813437D03*
X42320000Y58813437D03*
%TD*%
%TO.C,R510*%
X66430000Y47257500D03*
X65410000Y47257500D03*
%TD*%
D96*
%TO.C,J100*%
X5565000Y15295000D03*
X5565000Y9515000D03*
D97*
X6640000Y15605000D03*
X6640000Y14805000D03*
D98*
X6640000Y13655000D03*
X6640000Y12655000D03*
X6640000Y12155000D03*
X6640000Y11155000D03*
D97*
X6640000Y10005000D03*
X6640000Y9205000D03*
X6640000Y9205000D03*
X6640000Y10005000D03*
D98*
X6640000Y10655000D03*
X6640000Y11655000D03*
X6640000Y13155000D03*
X6640000Y14155000D03*
D97*
X6640000Y14805000D03*
X6640000Y15605000D03*
D99*
X6065000Y16725000D03*
D100*
X1885000Y16725000D03*
D99*
X6065000Y8085000D03*
D100*
X1885000Y8085000D03*
%TD*%
D51*
%TO.C,J700*%
X80400000Y66700000D03*
D52*
X77900000Y66700000D03*
X75400000Y66700000D03*
X72900000Y66700000D03*
%TD*%
D17*
%TO.C,R216*%
X13390000Y5380000D03*
X14410000Y5380000D03*
%TD*%
D14*
%TO.C,R802*%
X58750000Y53435000D03*
X58750000Y54455000D03*
%TD*%
D35*
%TO.C,D400*%
X94000000Y25065000D03*
X94000000Y26035000D03*
%TD*%
D12*
%TO.C,PSEL*%
X37975000Y28400000D03*
%TD*%
D91*
%TO.C,D600*%
X106700000Y16422500D03*
X106700000Y13562500D03*
%TD*%
D16*
%TO.C,R500*%
X54210000Y56775000D03*
X53190000Y56775000D03*
%TD*%
D22*
%TO.C,C407*%
X112100000Y27780000D03*
X112100000Y26820000D03*
%TD*%
D90*
%TO.C,J800*%
X19550000Y48030000D03*
X15650000Y48030000D03*
X19550000Y49300000D03*
X15650000Y49300000D03*
X19550000Y50570000D03*
X15650000Y50570000D03*
%TD*%
D17*
%TO.C,R501*%
X18220000Y54738437D03*
X19240000Y54738437D03*
%TD*%
D14*
%TO.C,R106*%
X14050000Y37045000D03*
X14050000Y38065000D03*
%TD*%
D17*
%TO.C,R109*%
X77150000Y10125000D03*
X78170000Y10125000D03*
%TD*%
D101*
%TO.C,BT500*%
X43325000Y52600000D03*
D47*
X43325000Y31800000D03*
%TD*%
G36*
X76158326Y8118326D02*
G01*
X76180000Y8066000D01*
X76180000Y7734000D01*
X76158326Y7681674D01*
X76106000Y7660000D01*
X75474000Y7660000D01*
X75421674Y7681674D01*
X75400000Y7734000D01*
X75400000Y8066000D01*
X75421674Y8118326D01*
X75474000Y8140000D01*
X76106000Y8140000D01*
X76158326Y8118326D01*
G37*
G36*
X105348326Y16118326D02*
G01*
X105370000Y16066000D01*
X105370000Y15814000D01*
X105348326Y15761674D01*
X105296000Y15740000D01*
X104534000Y15740000D01*
X104481674Y15761674D01*
X104460000Y15814000D01*
X104460000Y16066000D01*
X104481674Y16118326D01*
X104534000Y16140000D01*
X105296000Y16140000D01*
X105348326Y16118326D01*
G37*
G36*
X26788326Y19318326D02*
G01*
X26810000Y19266000D01*
X26810000Y18634000D01*
X26788326Y18581674D01*
X26736000Y18560000D01*
X26404000Y18560000D01*
X26351674Y18581674D01*
X26330000Y18634000D01*
X26330000Y19266000D01*
X26351674Y19318326D01*
X26404000Y19340000D01*
X26736000Y19340000D01*
X26788326Y19318326D01*
G37*
G36*
X89138326Y45258326D02*
G01*
X89160000Y45206000D01*
X89160000Y44954000D01*
X89138326Y44901674D01*
X89086000Y44880000D01*
X88324000Y44880000D01*
X88271674Y44901674D01*
X88250000Y44954000D01*
X88250000Y45206000D01*
X88271674Y45258326D01*
X88324000Y45280000D01*
X89086000Y45280000D01*
X89138326Y45258326D01*
G37*
G36*
X13808326Y19018326D02*
G01*
X13830000Y18966000D01*
X13830000Y18374000D01*
X13808326Y18321674D01*
X13756000Y18300000D01*
X13424000Y18300000D01*
X13371674Y18321674D01*
X13350000Y18374000D01*
X13350000Y18966000D01*
X13371674Y19018326D01*
X13424000Y19040000D01*
X13756000Y19040000D01*
X13808326Y19018326D01*
G37*
G36*
X102818326Y14568326D02*
G01*
X102840000Y14516000D01*
X102840000Y13884000D01*
X102818326Y13831674D01*
X102766000Y13810000D01*
X102434000Y13810000D01*
X102381674Y13831674D01*
X102360000Y13884000D01*
X102360000Y14516000D01*
X102381674Y14568326D01*
X102434000Y14590000D01*
X102766000Y14590000D01*
X102818326Y14568326D01*
G37*
G36*
X26788326Y18338326D02*
G01*
X26810000Y18286000D01*
X26810000Y17654000D01*
X26788326Y17601674D01*
X26736000Y17580000D01*
X26404000Y17580000D01*
X26351674Y17601674D01*
X26330000Y17654000D01*
X26330000Y18286000D01*
X26351674Y18338326D01*
X26404000Y18360000D01*
X26736000Y18360000D01*
X26788326Y18338326D01*
G37*
G36*
X71458326Y20968326D02*
G01*
X71480000Y20916000D01*
X71480000Y20674000D01*
X71458326Y20621674D01*
X71406000Y20600000D01*
X70794000Y20600000D01*
X70741674Y20621674D01*
X70720000Y20674000D01*
X70720000Y20916000D01*
X70741674Y20968326D01*
X70794000Y20990000D01*
X71406000Y20990000D01*
X71458326Y20968326D01*
G37*
G36*
X81168326Y60418326D02*
G01*
X81190000Y60366000D01*
X81190000Y59734000D01*
X81168326Y59681674D01*
X81116000Y59660000D01*
X80784000Y59660000D01*
X80731674Y59681674D01*
X80710000Y59734000D01*
X80710000Y60366000D01*
X80731674Y60418326D01*
X80784000Y60440000D01*
X81116000Y60440000D01*
X81168326Y60418326D01*
G37*
G36*
X59078326Y64078326D02*
G01*
X59100000Y64026000D01*
X59100000Y63264000D01*
X59078326Y63211674D01*
X59026000Y63190000D01*
X58774000Y63190000D01*
X58721674Y63211674D01*
X58700000Y63264000D01*
X58700000Y64026000D01*
X58721674Y64078326D01*
X58774000Y64100000D01*
X59026000Y64100000D01*
X59078326Y64078326D01*
G37*
G36*
X63688326Y61418326D02*
G01*
X63710000Y61366000D01*
X63710000Y61034000D01*
X63688326Y60981674D01*
X63636000Y60960000D01*
X63004000Y60960000D01*
X62951674Y60981674D01*
X62930000Y61034000D01*
X62930000Y61366000D01*
X62951674Y61418326D01*
X63004000Y61440000D01*
X63636000Y61440000D01*
X63688326Y61418326D01*
G37*
G36*
X3508326Y39448326D02*
G01*
X3530000Y39396000D01*
X3530000Y38604000D01*
X3508326Y38551674D01*
X3456000Y38530000D01*
X3124000Y38530000D01*
X3071674Y38551674D01*
X3050000Y38604000D01*
X3050000Y39396000D01*
X3071674Y39448326D01*
X3124000Y39470000D01*
X3456000Y39470000D01*
X3508326Y39448326D01*
G37*
G36*
X75158326Y63798326D02*
G01*
X75180000Y63746000D01*
X75180000Y63154000D01*
X75158326Y63101674D01*
X75106000Y63080000D01*
X74854000Y63080000D01*
X74801674Y63101674D01*
X74780000Y63154000D01*
X74780000Y63746000D01*
X74801674Y63798326D01*
X74854000Y63820000D01*
X75106000Y63820000D01*
X75158326Y63798326D01*
G37*
G36*
X8168326Y37623326D02*
G01*
X8190000Y37571000D01*
X8190000Y37239000D01*
X8168326Y37186674D01*
X8116000Y37165000D01*
X7624000Y37165000D01*
X7571674Y37186674D01*
X7550000Y37239000D01*
X7550000Y37571000D01*
X7571674Y37623326D01*
X7624000Y37645000D01*
X8116000Y37645000D01*
X8168326Y37623326D01*
G37*
G36*
X50408326Y42698326D02*
G01*
X50430000Y42646000D01*
X50430000Y42314000D01*
X50408326Y42261674D01*
X50356000Y42240000D01*
X49754000Y42240000D01*
X49701674Y42261674D01*
X49680000Y42314000D01*
X49680000Y42646000D01*
X49701674Y42698326D01*
X49754000Y42720000D01*
X50356000Y42720000D01*
X50408326Y42698326D01*
G37*
G36*
X7188326Y13983326D02*
G01*
X7210000Y13931000D01*
X7210000Y13879000D01*
X7188326Y13826674D01*
X7136000Y13805000D01*
X6144000Y13805000D01*
X6091674Y13826674D01*
X6070000Y13879000D01*
X6070000Y13931000D01*
X6091674Y13983326D01*
X6144000Y14005000D01*
X7136000Y14005000D01*
X7188326Y13983326D01*
G37*
G36*
X3648326Y48728326D02*
G01*
X3670000Y48676000D01*
X3670000Y48344000D01*
X3648326Y48291674D01*
X3596000Y48270000D01*
X2804000Y48270000D01*
X2751674Y48291674D01*
X2730000Y48344000D01*
X2730000Y48676000D01*
X2751674Y48728326D01*
X2804000Y48750000D01*
X3596000Y48750000D01*
X3648326Y48728326D01*
G37*
G36*
X71318326Y8048326D02*
G01*
X71340000Y7996000D01*
X71340000Y7744000D01*
X71318326Y7691674D01*
X71266000Y7670000D01*
X70684000Y7670000D01*
X70631674Y7691674D01*
X70610000Y7744000D01*
X70610000Y7996000D01*
X70631674Y8048326D01*
X70684000Y8070000D01*
X71266000Y8070000D01*
X71318326Y8048326D01*
G37*
G36*
X43018326Y49108326D02*
G01*
X43040000Y49056000D01*
X43040000Y48264000D01*
X43018326Y48211674D01*
X42966000Y48190000D01*
X42634000Y48190000D01*
X42581674Y48211674D01*
X42560000Y48264000D01*
X42560000Y49056000D01*
X42581674Y49108326D01*
X42634000Y49130000D01*
X42966000Y49130000D01*
X43018326Y49108326D01*
G37*
G36*
X36458326Y25368326D02*
G01*
X36480000Y25316000D01*
X36480000Y24994000D01*
X36458326Y24941674D01*
X36406000Y24920000D01*
X35774000Y24920000D01*
X35721674Y24941674D01*
X35700000Y24994000D01*
X35700000Y25316000D01*
X35721674Y25368326D01*
X35774000Y25390000D01*
X36406000Y25390000D01*
X36458326Y25368326D01*
G37*
G36*
X54368326Y22228326D02*
G01*
X54390000Y22176000D01*
X54390000Y21674000D01*
X54368326Y21621674D01*
X54316000Y21600000D01*
X53244000Y21600000D01*
X53191674Y21621674D01*
X53170000Y21674000D01*
X53170000Y22176000D01*
X53191674Y22228326D01*
X53244000Y22250000D01*
X54316000Y22250000D01*
X54368326Y22228326D01*
G37*
G36*
X28098326Y22138326D02*
G01*
X28120000Y22086000D01*
X28120000Y21754000D01*
X28098326Y21701674D01*
X28046000Y21680000D01*
X27414000Y21680000D01*
X27361674Y21701674D01*
X27340000Y21754000D01*
X27340000Y22086000D01*
X27361674Y22138326D01*
X27414000Y22160000D01*
X28046000Y22160000D01*
X28098326Y22138326D01*
G37*
G36*
X35298326Y17788326D02*
G01*
X35320000Y17736000D01*
X35320000Y17224000D01*
X35298326Y17171674D01*
X35246000Y17150000D01*
X35004000Y17150000D01*
X34951674Y17171674D01*
X34930000Y17224000D01*
X34930000Y17736000D01*
X34951674Y17788326D01*
X35004000Y17810000D01*
X35246000Y17810000D01*
X35298326Y17788326D01*
G37*
G36*
X7168326Y9683326D02*
G01*
X7190000Y9631000D01*
X7190000Y9579000D01*
X7168326Y9526674D01*
X7116000Y9505000D01*
X6124000Y9505000D01*
X6071674Y9526674D01*
X6050000Y9579000D01*
X6050000Y9631000D01*
X6071674Y9683326D01*
X6124000Y9705000D01*
X7116000Y9705000D01*
X7168326Y9683326D01*
G37*
G36*
X66168326Y46428326D02*
G01*
X66190000Y46376000D01*
X66190000Y45584000D01*
X66168326Y45531674D01*
X66116000Y45510000D01*
X65784000Y45510000D01*
X65731674Y45531674D01*
X65710000Y45584000D01*
X65710000Y46376000D01*
X65731674Y46428326D01*
X65784000Y46450000D01*
X66116000Y46450000D01*
X66168326Y46428326D01*
G37*
G36*
X29548326Y45616262D02*
G01*
X29570000Y45563936D01*
X29570000Y44191936D01*
X29548326Y44139610D01*
X29496000Y44117936D01*
X29284000Y44117936D01*
X29231674Y44139610D01*
X29210000Y44191936D01*
X29210000Y45563936D01*
X29231674Y45616262D01*
X29284000Y45637936D01*
X29496000Y45637936D01*
X29548326Y45616262D01*
G37*
G36*
X94378326Y25718326D02*
G01*
X94400000Y25666000D01*
X94400000Y25434000D01*
X94378326Y25381674D01*
X94326000Y25360000D01*
X93674000Y25360000D01*
X93621674Y25381674D01*
X93600000Y25434000D01*
X93600000Y25666000D01*
X93621674Y25718326D01*
X93674000Y25740000D01*
X94326000Y25740000D01*
X94378326Y25718326D01*
G37*
G36*
X50998326Y12828326D02*
G01*
X51020000Y12776000D01*
X51020000Y12274000D01*
X50998326Y12221674D01*
X50946000Y12200000D01*
X49974000Y12200000D01*
X49921674Y12221674D01*
X49900000Y12274000D01*
X49900000Y12776000D01*
X49921674Y12828326D01*
X49974000Y12850000D01*
X50946000Y12850000D01*
X50998326Y12828326D01*
G37*
G36*
X43888326Y11698326D02*
G01*
X43910000Y11646000D01*
X43910000Y11014000D01*
X43888326Y10961674D01*
X43836000Y10940000D01*
X43504000Y10940000D01*
X43451674Y10961674D01*
X43430000Y11014000D01*
X43430000Y11646000D01*
X43451674Y11698326D01*
X43504000Y11720000D01*
X43836000Y11720000D01*
X43888326Y11698326D01*
G37*
G36*
X32238326Y21078326D02*
G01*
X32260000Y21026000D01*
X32260000Y20110000D01*
X33196000Y20110000D01*
X33248326Y20088326D01*
X33270000Y20036000D01*
X33270000Y17934000D01*
X33248326Y17881674D01*
X33196000Y17860000D01*
X32350000Y17860000D01*
X32350000Y17600000D01*
X33196000Y17600000D01*
X33248326Y17578326D01*
X33270000Y17526000D01*
X33270000Y17434000D01*
X33248326Y17381674D01*
X33196000Y17360000D01*
X32260000Y17360000D01*
X32260000Y16434000D01*
X32238326Y16381674D01*
X32186000Y16360000D01*
X32094000Y16360000D01*
X32041674Y16381674D01*
X32020000Y16434000D01*
X32020000Y17250000D01*
X31760000Y17250000D01*
X31760000Y16434000D01*
X31738326Y16381674D01*
X31686000Y16360000D01*
X31094000Y16360000D01*
X31041674Y16381674D01*
X31020000Y16434000D01*
X31020000Y17250000D01*
X30760000Y17250000D01*
X30760000Y16434000D01*
X30738326Y16381674D01*
X30686000Y16360000D01*
X30094000Y16360000D01*
X30041674Y16381674D01*
X30020000Y16434000D01*
X30020000Y17250000D01*
X29760000Y17250000D01*
X29760000Y16434000D01*
X29738326Y16381674D01*
X29686000Y16360000D01*
X29594000Y16360000D01*
X29541674Y16381674D01*
X29520000Y16434000D01*
X29520000Y17360000D01*
X28594000Y17360000D01*
X28541674Y17381674D01*
X28520000Y17434000D01*
X28520000Y20026000D01*
X28541674Y20078326D01*
X28594000Y20100000D01*
X29520000Y20100000D01*
X29520000Y21026000D01*
X29541674Y21078326D01*
X29594000Y21100000D01*
X32186000Y21100000D01*
X32238326Y21078326D01*
G37*
G36*
X53918326Y57148326D02*
G01*
X53940000Y57096000D01*
X53940000Y56464000D01*
X53918326Y56411674D01*
X53866000Y56390000D01*
X53534000Y56390000D01*
X53481674Y56411674D01*
X53460000Y56464000D01*
X53460000Y57096000D01*
X53481674Y57148326D01*
X53534000Y57170000D01*
X53866000Y57170000D01*
X53918326Y57148326D01*
G37*
G36*
X26558326Y28638326D02*
G01*
X26580000Y28586000D01*
X26580000Y27954000D01*
X26558326Y27901674D01*
X26506000Y27880000D01*
X26174000Y27880000D01*
X26121674Y27901674D01*
X26100000Y27954000D01*
X26100000Y28586000D01*
X26121674Y28638326D01*
X26174000Y28660000D01*
X26506000Y28660000D01*
X26558326Y28638326D01*
G37*
G36*
X55428326Y27698326D02*
G01*
X55450000Y27646000D01*
X55450000Y27334000D01*
X55428326Y27281674D01*
X55376000Y27260000D01*
X54744000Y27260000D01*
X54691674Y27281674D01*
X54670000Y27334000D01*
X54670000Y27646000D01*
X54691674Y27698326D01*
X54744000Y27720000D01*
X55376000Y27720000D01*
X55428326Y27698326D01*
G37*
G36*
X68878326Y43748326D02*
G01*
X68900000Y43696000D01*
X68900000Y43204000D01*
X68878326Y43151674D01*
X68826000Y43130000D01*
X67874000Y43130000D01*
X67821674Y43151674D01*
X67800000Y43204000D01*
X67800000Y43696000D01*
X67821674Y43748326D01*
X67874000Y43770000D01*
X68826000Y43770000D01*
X68878326Y43748326D01*
G37*
G36*
X70218326Y27998326D02*
G01*
X70240000Y27946000D01*
X70240000Y27704000D01*
X70218326Y27651674D01*
X70166000Y27630000D01*
X69534000Y27630000D01*
X69481674Y27651674D01*
X69460000Y27704000D01*
X69460000Y27946000D01*
X69481674Y27998326D01*
X69534000Y28020000D01*
X70166000Y28020000D01*
X70218326Y27998326D01*
G37*
G36*
X59808326Y42438326D02*
G01*
X59830000Y42386000D01*
X59830000Y41374000D01*
X59808326Y41321674D01*
X59756000Y41300000D01*
X59264000Y41300000D01*
X59211674Y41321674D01*
X59190000Y41374000D01*
X59190000Y42386000D01*
X59211674Y42438326D01*
X59264000Y42460000D01*
X59756000Y42460000D01*
X59808326Y42438326D01*
G37*
G36*
X42978326Y15388326D02*
G01*
X43000000Y15336000D01*
X43000000Y15004000D01*
X42978326Y14951674D01*
X42926000Y14930000D01*
X42294000Y14930000D01*
X42241674Y14951674D01*
X42220000Y15004000D01*
X42220000Y15336000D01*
X42241674Y15388326D01*
X42294000Y15410000D01*
X42926000Y15410000D01*
X42978326Y15388326D01*
G37*
G36*
X12988326Y35453326D02*
G01*
X13010000Y35401000D01*
X13010000Y34505000D01*
X13896000Y34505000D01*
X13948326Y34483326D01*
X13970000Y34431000D01*
X13970000Y31769000D01*
X13948326Y31716674D01*
X13896000Y31695000D01*
X13000000Y31695000D01*
X13000000Y30799000D01*
X12978326Y30746674D01*
X12926000Y30725000D01*
X10274000Y30725000D01*
X10221674Y30746674D01*
X10200000Y30799000D01*
X10200000Y31695000D01*
X9294000Y31695000D01*
X9241674Y31716674D01*
X9220000Y31769000D01*
X9220000Y34431000D01*
X9241674Y34483326D01*
X9294000Y34505000D01*
X10200000Y34505000D01*
X10200000Y35401000D01*
X10221674Y35453326D01*
X10274000Y35475000D01*
X12936000Y35475000D01*
X12988326Y35453326D01*
G37*
G36*
X74053039Y12820315D02*
G01*
X74098794Y12767511D01*
X74110000Y12716000D01*
X74110000Y10820000D01*
X74550000Y10820000D01*
X74550000Y12166000D01*
X74569685Y12233039D01*
X74622489Y12278794D01*
X74674000Y12290000D01*
X74716000Y12290000D01*
X74783039Y12270315D01*
X74828794Y12217511D01*
X74840000Y12166000D01*
X74840000Y11690000D01*
X75416000Y11690000D01*
X75483039Y11670315D01*
X75528794Y11617511D01*
X75540000Y11566000D01*
X75540000Y11564000D01*
X75520315Y11496961D01*
X75467511Y11451206D01*
X75416000Y11440000D01*
X74830000Y11440000D01*
X74830000Y11190000D01*
X75426000Y11190000D01*
X75493039Y11170315D01*
X75538794Y11117511D01*
X75550000Y11066000D01*
X75550000Y11064000D01*
X75530315Y10996961D01*
X75477511Y10951206D01*
X75426000Y10940000D01*
X74830000Y10940000D01*
X74830000Y10690000D01*
X75426000Y10690000D01*
X75493039Y10670315D01*
X75538794Y10617511D01*
X75550000Y10566000D01*
X75550000Y10564000D01*
X75530315Y10496961D01*
X75477511Y10451206D01*
X75426000Y10440000D01*
X74830000Y10440000D01*
X74830000Y10190000D01*
X75406000Y10190000D01*
X75473039Y10170315D01*
X75518794Y10117511D01*
X75530000Y10066000D01*
X75530000Y10054000D01*
X75510315Y9986961D01*
X75457511Y9941206D01*
X75406000Y9930000D01*
X74610000Y9930000D01*
X74610000Y9334000D01*
X74590315Y9266961D01*
X74537511Y9221206D01*
X74486000Y9210000D01*
X74484000Y9210000D01*
X74416961Y9229685D01*
X74371206Y9282489D01*
X74360000Y9334000D01*
X74360000Y9930000D01*
X74110000Y9930000D01*
X74110000Y9334000D01*
X74090315Y9266961D01*
X74037511Y9221206D01*
X73986000Y9210000D01*
X73984000Y9210000D01*
X73916961Y9229685D01*
X73871206Y9282489D01*
X73860000Y9334000D01*
X73860000Y9930000D01*
X73610000Y9930000D01*
X73610000Y9334000D01*
X73590315Y9266961D01*
X73537511Y9221206D01*
X73486000Y9210000D01*
X73484000Y9210000D01*
X73416961Y9229685D01*
X73371206Y9282489D01*
X73360000Y9334000D01*
X73360000Y9930000D01*
X72554000Y9930000D01*
X72486961Y9949685D01*
X72441206Y10002489D01*
X72430000Y10054000D01*
X72430000Y10066000D01*
X72449685Y10133039D01*
X72502489Y10178794D01*
X72554000Y10190000D01*
X73140000Y10190000D01*
X73140000Y10440000D01*
X72554000Y10440000D01*
X72486961Y10459685D01*
X72441206Y10512489D01*
X72430000Y10564000D01*
X72430000Y10566000D01*
X72449685Y10633039D01*
X72502489Y10678794D01*
X72554000Y10690000D01*
X73140000Y10690000D01*
X73140000Y10940000D01*
X72554000Y10940000D01*
X72486961Y10959685D01*
X72441206Y11012489D01*
X72430000Y11064000D01*
X72430000Y11066000D01*
X72449685Y11133039D01*
X72502489Y11178794D01*
X72554000Y11190000D01*
X73140000Y11190000D01*
X73140000Y11440000D01*
X72564000Y11440000D01*
X72496961Y11459685D01*
X72451206Y11512489D01*
X72440000Y11564000D01*
X72440000Y11566000D01*
X72459685Y11633039D01*
X72512489Y11678794D01*
X72564000Y11690000D01*
X73140000Y11690000D01*
X73140000Y12176000D01*
X73159685Y12243039D01*
X73212489Y12288794D01*
X73264000Y12300000D01*
X73276000Y12300000D01*
X73343039Y12280315D01*
X73388794Y12227511D01*
X73400000Y12176000D01*
X73400000Y10820000D01*
X73860000Y10820000D01*
X73860000Y12716000D01*
X73879685Y12783039D01*
X73932489Y12828794D01*
X73984000Y12840000D01*
X73986000Y12840000D01*
X74053039Y12820315D01*
G37*
G36*
X89178326Y29628326D02*
G01*
X89200000Y29576000D01*
X89200000Y29324000D01*
X89178326Y29271674D01*
X89126000Y29250000D01*
X88524000Y29250000D01*
X88471674Y29271674D01*
X88450000Y29324000D01*
X88450000Y29576000D01*
X88471674Y29628326D01*
X88524000Y29650000D01*
X89126000Y29650000D01*
X89178326Y29628326D01*
G37*
G36*
X28458326Y28628326D02*
G01*
X28480000Y28576000D01*
X28480000Y27944000D01*
X28458326Y27891674D01*
X28406000Y27870000D01*
X28074000Y27870000D01*
X28021674Y27891674D01*
X28000000Y27944000D01*
X28000000Y28576000D01*
X28021674Y28628326D01*
X28074000Y28650000D01*
X28406000Y28650000D01*
X28458326Y28628326D01*
G37*
G36*
X7278326Y53539714D02*
G01*
X7300000Y53487388D01*
X7300000Y52725388D01*
X7278326Y52673062D01*
X7226000Y52651388D01*
X6974000Y52651388D01*
X6921674Y52673062D01*
X6900000Y52725388D01*
X6900000Y53487388D01*
X6921674Y53539714D01*
X6974000Y53561388D01*
X7226000Y53561388D01*
X7278326Y53539714D01*
G37*
G36*
X13808326Y17058326D02*
G01*
X13830000Y17006000D01*
X13830000Y16394000D01*
X13808326Y16341674D01*
X13756000Y16320000D01*
X13424000Y16320000D01*
X13371674Y16341674D01*
X13350000Y16394000D01*
X13350000Y17006000D01*
X13371674Y17058326D01*
X13424000Y17080000D01*
X13756000Y17080000D01*
X13808326Y17058326D01*
G37*
G36*
X44428326Y15378326D02*
G01*
X44450000Y15326000D01*
X44450000Y14824000D01*
X44428326Y14771674D01*
X44376000Y14750000D01*
X43424000Y14750000D01*
X43371674Y14771674D01*
X43350000Y14824000D01*
X43350000Y15326000D01*
X43371674Y15378326D01*
X43424000Y15400000D01*
X44376000Y15400000D01*
X44428326Y15378326D01*
G37*
G36*
X13098326Y48688326D02*
G01*
X13120000Y48636000D01*
X13120000Y48384000D01*
X13098326Y48331674D01*
X13046000Y48310000D01*
X12444000Y48310000D01*
X12391674Y48331674D01*
X12370000Y48384000D01*
X12370000Y48636000D01*
X12391674Y48688326D01*
X12444000Y48710000D01*
X13046000Y48710000D01*
X13098326Y48688326D01*
G37*
G36*
X12408326Y37753326D02*
G01*
X12430000Y37701000D01*
X12430000Y37459000D01*
X12408326Y37406674D01*
X12356000Y37385000D01*
X11864000Y37385000D01*
X11811674Y37406674D01*
X11790000Y37459000D01*
X11790000Y37701000D01*
X11811674Y37753326D01*
X11864000Y37775000D01*
X12356000Y37775000D01*
X12408326Y37753326D01*
G37*
G36*
X19598326Y62140390D02*
G01*
X19620000Y62088064D01*
X19620000Y61326064D01*
X19598326Y61273738D01*
X19546000Y61252064D01*
X19294000Y61252064D01*
X19241674Y61273738D01*
X19220000Y61326064D01*
X19220000Y62088064D01*
X19241674Y62140390D01*
X19294000Y62162064D01*
X19546000Y62162064D01*
X19598326Y62140390D01*
G37*
G36*
X15358326Y36753326D02*
G01*
X15380000Y36701000D01*
X15380000Y36369000D01*
X15358326Y36316674D01*
X15306000Y36295000D01*
X14814000Y36295000D01*
X14761674Y36316674D01*
X14740000Y36369000D01*
X14740000Y36701000D01*
X14761674Y36753326D01*
X14814000Y36775000D01*
X15306000Y36775000D01*
X15358326Y36753326D01*
G37*
G36*
X9008326Y21038326D02*
G01*
X9030000Y20986000D01*
X9030000Y20194000D01*
X9008326Y20141674D01*
X8956000Y20120000D01*
X8624000Y20120000D01*
X8571674Y20141674D01*
X8550000Y20194000D01*
X8550000Y20986000D01*
X8571674Y21038326D01*
X8624000Y21060000D01*
X8956000Y21060000D01*
X9008326Y21038326D01*
G37*
G36*
X34628326Y45616262D02*
G01*
X34650000Y45563936D01*
X34650000Y44191936D01*
X34628326Y44139610D01*
X34576000Y44117936D01*
X34364000Y44117936D01*
X34311674Y44139610D01*
X34290000Y44191936D01*
X34290000Y45563936D01*
X34311674Y45616262D01*
X34364000Y45637936D01*
X34576000Y45637936D01*
X34628326Y45616262D01*
G37*
G36*
X14888326Y28933326D02*
G01*
X14910000Y28881000D01*
X14910000Y28369000D01*
X14888326Y28316674D01*
X14836000Y28295000D01*
X14024000Y28295000D01*
X13971674Y28316674D01*
X13950000Y28369000D01*
X13950000Y28881000D01*
X13971674Y28933326D01*
X14024000Y28955000D01*
X14836000Y28955000D01*
X14888326Y28933326D01*
G37*
G36*
X19328326Y23138326D02*
G01*
X19350000Y23086000D01*
X19350000Y22834000D01*
X19328326Y22781674D01*
X19276000Y22760000D01*
X18604000Y22760000D01*
X18551674Y22781674D01*
X18530000Y22834000D01*
X18530000Y23086000D01*
X18551674Y23138326D01*
X18604000Y23160000D01*
X19276000Y23160000D01*
X19328326Y23138326D01*
G37*
G36*
X7658326Y39873326D02*
G01*
X7680000Y39821000D01*
X7680000Y39709000D01*
X7658326Y39656674D01*
X7606000Y39635000D01*
X7104000Y39635000D01*
X7051674Y39656674D01*
X7030000Y39709000D01*
X7030000Y39821000D01*
X7051674Y39873326D01*
X7104000Y39895000D01*
X7606000Y39895000D01*
X7658326Y39873326D01*
G37*
G36*
X18258326Y23138326D02*
G01*
X18280000Y23086000D01*
X18280000Y22834000D01*
X18258326Y22781674D01*
X18206000Y22760000D01*
X17544000Y22760000D01*
X17491674Y22781674D01*
X17470000Y22834000D01*
X17470000Y23086000D01*
X17491674Y23138326D01*
X17544000Y23160000D01*
X18206000Y23160000D01*
X18258326Y23138326D01*
G37*
G36*
X3818326Y28038326D02*
G01*
X3840000Y27986000D01*
X3840000Y27194000D01*
X3818326Y27141674D01*
X3766000Y27120000D01*
X3434000Y27120000D01*
X3381674Y27141674D01*
X3360000Y27194000D01*
X3360000Y27986000D01*
X3381674Y28038326D01*
X3434000Y28060000D01*
X3766000Y28060000D01*
X3818326Y28038326D01*
G37*
G36*
X3628326Y46478326D02*
G01*
X3650000Y46426000D01*
X3650000Y46174000D01*
X3628326Y46121674D01*
X3576000Y46100000D01*
X2814000Y46100000D01*
X2761674Y46121674D01*
X2740000Y46174000D01*
X2740000Y46426000D01*
X2761674Y46478326D01*
X2814000Y46500000D01*
X3576000Y46500000D01*
X3628326Y46478326D01*
G37*
G36*
X7658326Y40523326D02*
G01*
X7680000Y40471000D01*
X7680000Y40359000D01*
X7658326Y40306674D01*
X7606000Y40285000D01*
X7104000Y40285000D01*
X7051674Y40306674D01*
X7030000Y40359000D01*
X7030000Y40471000D01*
X7051674Y40523326D01*
X7104000Y40545000D01*
X7606000Y40545000D01*
X7658326Y40523326D01*
G37*
G36*
X7188326Y12983326D02*
G01*
X7210000Y12931000D01*
X7210000Y12879000D01*
X7188326Y12826674D01*
X7136000Y12805000D01*
X6144000Y12805000D01*
X6091674Y12826674D01*
X6070000Y12879000D01*
X6070000Y12931000D01*
X6091674Y12983326D01*
X6144000Y13005000D01*
X7136000Y13005000D01*
X7188326Y12983326D01*
G37*
G36*
X7188326Y11983326D02*
G01*
X7210000Y11931000D01*
X7210000Y11879000D01*
X7188326Y11826674D01*
X7136000Y11805000D01*
X6144000Y11805000D01*
X6091674Y11826674D01*
X6070000Y11879000D01*
X6070000Y11931000D01*
X6091674Y11983326D01*
X6144000Y12005000D01*
X7136000Y12005000D01*
X7188326Y11983326D01*
G37*
G36*
X56398326Y21218326D02*
G01*
X56420000Y21166000D01*
X56420000Y20924000D01*
X56398326Y20871674D01*
X56346000Y20850000D01*
X55704000Y20850000D01*
X55651674Y20871674D01*
X55630000Y20924000D01*
X55630000Y21166000D01*
X55651674Y21218326D01*
X55704000Y21240000D01*
X56346000Y21240000D01*
X56398326Y21218326D01*
G37*
G36*
X21578326Y40778326D02*
G01*
X21600000Y40726000D01*
X21600000Y40474000D01*
X21578326Y40421674D01*
X21526000Y40400000D01*
X20894000Y40400000D01*
X20841674Y40421674D01*
X20820000Y40474000D01*
X20820000Y40726000D01*
X20841674Y40778326D01*
X20894000Y40800000D01*
X21526000Y40800000D01*
X21578326Y40778326D01*
G37*
G36*
X23916262Y46918326D02*
G01*
X23937936Y46866000D01*
X23937936Y46654000D01*
X23916262Y46601674D01*
X23863936Y46580000D01*
X22491936Y46580000D01*
X22439610Y46601674D01*
X22417936Y46654000D01*
X22417936Y46866000D01*
X22439610Y46918326D01*
X22491936Y46940000D01*
X23863936Y46940000D01*
X23916262Y46918326D01*
G37*
G36*
X13378326Y37753326D02*
G01*
X13400000Y37701000D01*
X13400000Y37459000D01*
X13378326Y37406674D01*
X13326000Y37385000D01*
X12834000Y37385000D01*
X12781674Y37406674D01*
X12760000Y37459000D01*
X12760000Y37701000D01*
X12781674Y37753326D01*
X12834000Y37775000D01*
X13326000Y37775000D01*
X13378326Y37753326D01*
G37*
G36*
X30668326Y24338326D02*
G01*
X30690000Y24286000D01*
X30690000Y23954000D01*
X30668326Y23901674D01*
X30616000Y23880000D01*
X29984000Y23880000D01*
X29931674Y23901674D01*
X29910000Y23954000D01*
X29910000Y24286000D01*
X29931674Y24338326D01*
X29984000Y24360000D01*
X30616000Y24360000D01*
X30668326Y24338326D01*
G37*
G36*
X5228326Y57318326D02*
G01*
X5250000Y57266000D01*
X5250000Y56934000D01*
X5228326Y56881674D01*
X5176000Y56860000D01*
X4474000Y56860000D01*
X4421674Y56881674D01*
X4400000Y56934000D01*
X4400000Y57266000D01*
X4421674Y57318326D01*
X4474000Y57340000D01*
X5176000Y57340000D01*
X5228326Y57318326D01*
G37*
G36*
X29698326Y24338326D02*
G01*
X29720000Y24286000D01*
X29720000Y23954000D01*
X29698326Y23901674D01*
X29646000Y23880000D01*
X29014000Y23880000D01*
X28961674Y23901674D01*
X28940000Y23954000D01*
X28940000Y24286000D01*
X28961674Y24338326D01*
X29014000Y24360000D01*
X29646000Y24360000D01*
X29698326Y24338326D01*
G37*
G36*
X28278326Y45616262D02*
G01*
X28300000Y45563936D01*
X28300000Y44191936D01*
X28278326Y44139610D01*
X28226000Y44117936D01*
X28014000Y44117936D01*
X27961674Y44139610D01*
X27940000Y44191936D01*
X27940000Y45563936D01*
X27961674Y45616262D01*
X28014000Y45637936D01*
X28226000Y45637936D01*
X28278326Y45616262D01*
G37*
G36*
X14548326Y8698326D02*
G01*
X14570000Y8646000D01*
X14570000Y8584000D01*
X14548326Y8531674D01*
X14496000Y8510000D01*
X13774000Y8510000D01*
X13721674Y8531674D01*
X13700000Y8584000D01*
X13700000Y8646000D01*
X13721674Y8698326D01*
X13774000Y8720000D01*
X14496000Y8720000D01*
X14548326Y8698326D01*
G37*
G36*
X13498326Y29383326D02*
G01*
X13520000Y29331000D01*
X13520000Y29069000D01*
X13498326Y29016674D01*
X13446000Y28995000D01*
X12964000Y28995000D01*
X12911674Y29016674D01*
X12890000Y29069000D01*
X12890000Y29331000D01*
X12911674Y29383326D01*
X12964000Y29405000D01*
X13446000Y29405000D01*
X13498326Y29383326D01*
G37*
G36*
X10128326Y12233326D02*
G01*
X10150000Y12181000D01*
X10150000Y12129000D01*
X10128326Y12076674D01*
X10076000Y12055000D01*
X9574000Y12055000D01*
X9521674Y12076674D01*
X9500000Y12129000D01*
X9500000Y12181000D01*
X9521674Y12233326D01*
X9574000Y12255000D01*
X10076000Y12255000D01*
X10128326Y12233326D01*
G37*
G36*
X58088326Y54148326D02*
G01*
X58110000Y54096000D01*
X58110000Y53844000D01*
X58088326Y53791674D01*
X58036000Y53770000D01*
X57404000Y53770000D01*
X57351674Y53791674D01*
X57330000Y53844000D01*
X57330000Y54096000D01*
X57351674Y54148326D01*
X57404000Y54170000D01*
X58036000Y54170000D01*
X58088326Y54148326D01*
G37*
G36*
X101968326Y65018326D02*
G01*
X101990000Y64966000D01*
X101990000Y64634000D01*
X101968326Y64581674D01*
X101916000Y64560000D01*
X101244000Y64560000D01*
X101191674Y64581674D01*
X101170000Y64634000D01*
X101170000Y64966000D01*
X101191674Y65018326D01*
X101244000Y65040000D01*
X101916000Y65040000D01*
X101968326Y65018326D01*
G37*
G36*
X43048326Y59248326D02*
G01*
X43070000Y59196000D01*
X43070000Y58404000D01*
X43048326Y58351674D01*
X42996000Y58330000D01*
X42664000Y58330000D01*
X42611674Y58351674D01*
X42590000Y58404000D01*
X42590000Y59196000D01*
X42611674Y59248326D01*
X42664000Y59270000D01*
X42996000Y59270000D01*
X43048326Y59248326D01*
G37*
G36*
X16988326Y55178878D02*
G01*
X17010000Y55126552D01*
X17010000Y54364552D01*
X16988326Y54312226D01*
X16936000Y54290552D01*
X16684000Y54290552D01*
X16631674Y54312226D01*
X16610000Y54364552D01*
X16610000Y55126552D01*
X16631674Y55178878D01*
X16684000Y55200552D01*
X16936000Y55200552D01*
X16988326Y55178878D01*
G37*
G36*
X13808326Y23088326D02*
G01*
X13830000Y23036000D01*
X13830000Y22324000D01*
X13808326Y22271674D01*
X13756000Y22250000D01*
X13424000Y22250000D01*
X13371674Y22271674D01*
X13350000Y22324000D01*
X13350000Y23036000D01*
X13371674Y23088326D01*
X13424000Y23110000D01*
X13756000Y23110000D01*
X13808326Y23088326D01*
G37*
G36*
X79768326Y61218326D02*
G01*
X79790000Y61166000D01*
X79790000Y60834000D01*
X79768326Y60781674D01*
X79716000Y60760000D01*
X79084000Y60760000D01*
X79031674Y60781674D01*
X79010000Y60834000D01*
X79010000Y61166000D01*
X79031674Y61218326D01*
X79084000Y61240000D01*
X79716000Y61240000D01*
X79768326Y61218326D01*
G37*
G36*
X23916262Y58348326D02*
G01*
X23937936Y58296000D01*
X23937936Y58084000D01*
X23916262Y58031674D01*
X23863936Y58010000D01*
X22491936Y58010000D01*
X22439610Y58031674D01*
X22417936Y58084000D01*
X22417936Y58296000D01*
X22439610Y58348326D01*
X22491936Y58370000D01*
X23863936Y58370000D01*
X23916262Y58348326D01*
G37*
G36*
X77788326Y60198326D02*
G01*
X77810000Y60146000D01*
X77810000Y59814000D01*
X77788326Y59761674D01*
X77736000Y59740000D01*
X77104000Y59740000D01*
X77051674Y59761674D01*
X77030000Y59814000D01*
X77030000Y60146000D01*
X77051674Y60198326D01*
X77104000Y60220000D01*
X77736000Y60220000D01*
X77788326Y60198326D01*
G37*
G36*
X10178326Y14933326D02*
G01*
X10200000Y14881000D01*
X10200000Y14119000D01*
X10178326Y14066674D01*
X10126000Y14045000D01*
X9874000Y14045000D01*
X9821674Y14066674D01*
X9800000Y14119000D01*
X9800000Y14881000D01*
X9821674Y14933326D01*
X9874000Y14955000D01*
X10126000Y14955000D01*
X10178326Y14933326D01*
G37*
G36*
X62478326Y4338326D02*
G01*
X62500000Y4286000D01*
X62500000Y3524000D01*
X62478326Y3471674D01*
X62426000Y3450000D01*
X62174000Y3450000D01*
X62121674Y3471674D01*
X62100000Y3524000D01*
X62100000Y4286000D01*
X62121674Y4338326D01*
X62174000Y4360000D01*
X62426000Y4360000D01*
X62478326Y4338326D01*
G37*
G36*
X7188326Y11483326D02*
G01*
X7210000Y11431000D01*
X7210000Y11379000D01*
X7188326Y11326674D01*
X7136000Y11305000D01*
X6144000Y11305000D01*
X6091674Y11326674D01*
X6070000Y11379000D01*
X6070000Y11431000D01*
X6091674Y11483326D01*
X6144000Y11505000D01*
X7136000Y11505000D01*
X7188326Y11483326D01*
G37*
G36*
X108908326Y15148326D02*
G01*
X108930000Y15096000D01*
X108930000Y14844000D01*
X108908326Y14791674D01*
X108856000Y14770000D01*
X108094000Y14770000D01*
X108041674Y14791674D01*
X108020000Y14844000D01*
X108020000Y15096000D01*
X108041674Y15148326D01*
X108094000Y15170000D01*
X108856000Y15170000D01*
X108908326Y15148326D01*
G37*
G36*
X7188326Y14483326D02*
G01*
X7210000Y14431000D01*
X7210000Y14379000D01*
X7188326Y14326674D01*
X7136000Y14305000D01*
X6144000Y14305000D01*
X6091674Y14326674D01*
X6070000Y14379000D01*
X6070000Y14431000D01*
X6091674Y14483326D01*
X6144000Y14505000D01*
X7136000Y14505000D01*
X7188326Y14483326D01*
G37*
G36*
X27118326Y22138326D02*
G01*
X27140000Y22086000D01*
X27140000Y21754000D01*
X27118326Y21701674D01*
X27066000Y21680000D01*
X26434000Y21680000D01*
X26381674Y21701674D01*
X26360000Y21754000D01*
X26360000Y22086000D01*
X26381674Y22138326D01*
X26434000Y22160000D01*
X27066000Y22160000D01*
X27118326Y22138326D01*
G37*
G36*
X59378326Y43628326D02*
G01*
X59400000Y43576000D01*
X59400000Y42814000D01*
X59378326Y42761674D01*
X59326000Y42740000D01*
X59074000Y42740000D01*
X59021674Y42761674D01*
X59000000Y42814000D01*
X59000000Y43576000D01*
X59021674Y43628326D01*
X59074000Y43650000D01*
X59326000Y43650000D01*
X59378326Y43628326D01*
G37*
G36*
X56128326Y62828326D02*
G01*
X56150000Y62776000D01*
X56150000Y61974000D01*
X56128326Y61921674D01*
X56076000Y61900000D01*
X55854000Y61900000D01*
X55801674Y61921674D01*
X55780000Y61974000D01*
X55780000Y62776000D01*
X55801674Y62828326D01*
X55854000Y62850000D01*
X56076000Y62850000D01*
X56128326Y62828326D01*
G37*
G36*
X89078326Y58098326D02*
G01*
X89100000Y58046000D01*
X89100000Y57794000D01*
X89078326Y57741674D01*
X89026000Y57720000D01*
X88394000Y57720000D01*
X88341674Y57741674D01*
X88320000Y57794000D01*
X88320000Y58046000D01*
X88341674Y58098326D01*
X88394000Y58120000D01*
X89026000Y58120000D01*
X89078326Y58098326D01*
G37*
G36*
X9558326Y39873326D02*
G01*
X9580000Y39821000D01*
X9580000Y39709000D01*
X9558326Y39656674D01*
X9506000Y39635000D01*
X9004000Y39635000D01*
X8951674Y39656674D01*
X8930000Y39709000D01*
X8930000Y39821000D01*
X8951674Y39873326D01*
X9004000Y39895000D01*
X9506000Y39895000D01*
X9558326Y39873326D01*
G37*
G36*
X7188326Y10983326D02*
G01*
X7210000Y10931000D01*
X7210000Y10879000D01*
X7188326Y10826674D01*
X7136000Y10805000D01*
X6144000Y10805000D01*
X6091674Y10826674D01*
X6070000Y10879000D01*
X6070000Y10931000D01*
X6091674Y10983326D01*
X6144000Y11005000D01*
X7136000Y11005000D01*
X7188326Y10983326D01*
G37*
G36*
X43328326Y40798326D02*
G01*
X43350000Y40746000D01*
X43350000Y40494000D01*
X43328326Y40441674D01*
X43276000Y40420000D01*
X42704000Y40420000D01*
X42651674Y40441674D01*
X42630000Y40494000D01*
X42630000Y40746000D01*
X42651674Y40798326D01*
X42704000Y40820000D01*
X43276000Y40820000D01*
X43328326Y40798326D01*
G37*
G36*
X46578326Y21728326D02*
G01*
X46600000Y21676000D01*
X46600000Y21174000D01*
X46578326Y21121674D01*
X46526000Y21100000D01*
X45514000Y21100000D01*
X45461674Y21121674D01*
X45440000Y21174000D01*
X45440000Y21676000D01*
X45461674Y21728326D01*
X45514000Y21750000D01*
X46526000Y21750000D01*
X46578326Y21728326D01*
G37*
G36*
X31498326Y14968326D02*
G01*
X31520000Y14916000D01*
X31520000Y13914000D01*
X31498326Y13861674D01*
X31446000Y13840000D01*
X31054000Y13840000D01*
X31001674Y13861674D01*
X30980000Y13914000D01*
X30980000Y14916000D01*
X31001674Y14968326D01*
X31054000Y14990000D01*
X31446000Y14990000D01*
X31498326Y14968326D01*
G37*
G36*
X47718326Y26748326D02*
G01*
X47740000Y26696000D01*
X47740000Y26474000D01*
X47718326Y26421674D01*
X47666000Y26400000D01*
X47024000Y26400000D01*
X46971674Y26421674D01*
X46950000Y26474000D01*
X46950000Y26696000D01*
X46971674Y26748326D01*
X47024000Y26770000D01*
X47666000Y26770000D01*
X47718326Y26748326D01*
G37*
G36*
X22398326Y15018326D02*
G01*
X22420000Y14966000D01*
X22420000Y14744000D01*
X22398326Y14691674D01*
X22346000Y14670000D01*
X21704000Y14670000D01*
X21651674Y14691674D01*
X21630000Y14744000D01*
X21630000Y14966000D01*
X21651674Y15018326D01*
X21704000Y15040000D01*
X22346000Y15040000D01*
X22398326Y15018326D01*
G37*
G36*
X94368326Y27698326D02*
G01*
X94390000Y27646000D01*
X94390000Y27314000D01*
X94368326Y27261674D01*
X94316000Y27240000D01*
X93684000Y27240000D01*
X93631674Y27261674D01*
X93610000Y27314000D01*
X93610000Y27646000D01*
X93631674Y27698326D01*
X93684000Y27720000D01*
X94316000Y27720000D01*
X94368326Y27698326D01*
G37*
G36*
X23916262Y51998326D02*
G01*
X23937936Y51946000D01*
X23937936Y51734000D01*
X23916262Y51681674D01*
X23863936Y51660000D01*
X22491936Y51660000D01*
X22439610Y51681674D01*
X22417936Y51734000D01*
X22417936Y51946000D01*
X22439610Y51998326D01*
X22491936Y52020000D01*
X23863936Y52020000D01*
X23916262Y51998326D01*
G37*
G36*
X69068326Y68818326D02*
G01*
X69090000Y68766000D01*
X69090000Y68434000D01*
X69068326Y68381674D01*
X69016000Y68360000D01*
X68384000Y68360000D01*
X68331674Y68381674D01*
X68310000Y68434000D01*
X68310000Y68766000D01*
X68331674Y68818326D01*
X68384000Y68840000D01*
X69016000Y68840000D01*
X69068326Y68818326D01*
G37*
G36*
X8318326Y52518326D02*
G01*
X8340000Y52466000D01*
X8340000Y51674000D01*
X8318326Y51621674D01*
X8266000Y51600000D01*
X7934000Y51600000D01*
X7881674Y51621674D01*
X7860000Y51674000D01*
X7860000Y52466000D01*
X7881674Y52518326D01*
X7934000Y52540000D01*
X8266000Y52540000D01*
X8318326Y52518326D01*
G37*
G36*
X59118326Y54168326D02*
G01*
X59140000Y54116000D01*
X59140000Y53784000D01*
X59118326Y53731674D01*
X59066000Y53710000D01*
X58434000Y53710000D01*
X58381674Y53731674D01*
X58360000Y53784000D01*
X58360000Y54116000D01*
X58381674Y54168326D01*
X58434000Y54190000D01*
X59066000Y54190000D01*
X59118326Y54168326D01*
G37*
G36*
X94248326Y41338326D02*
G01*
X94270000Y41286000D01*
X94270000Y41064000D01*
X94248326Y41011674D01*
X94196000Y40990000D01*
X93554000Y40990000D01*
X93501674Y41011674D01*
X93480000Y41064000D01*
X93480000Y41286000D01*
X93501674Y41338326D01*
X93554000Y41360000D01*
X94196000Y41360000D01*
X94248326Y41338326D01*
G37*
G36*
X72008326Y13468326D02*
G01*
X72030000Y13416000D01*
X72030000Y13224000D01*
X72008326Y13171674D01*
X71956000Y13150000D01*
X71344000Y13150000D01*
X71291674Y13171674D01*
X71270000Y13224000D01*
X71270000Y13416000D01*
X71291674Y13468326D01*
X71344000Y13490000D01*
X71956000Y13490000D01*
X72008326Y13468326D01*
G37*
G36*
X23916262Y57078326D02*
G01*
X23937936Y57026000D01*
X23937936Y56814000D01*
X23916262Y56761674D01*
X23863936Y56740000D01*
X22491936Y56740000D01*
X22439610Y56761674D01*
X22417936Y56814000D01*
X22417936Y57026000D01*
X22439610Y57078326D01*
X22491936Y57100000D01*
X23863936Y57100000D01*
X23916262Y57078326D01*
G37*
G36*
X4528326Y29378326D02*
G01*
X4550000Y29326000D01*
X4550000Y29074000D01*
X4528326Y29021674D01*
X4476000Y29000000D01*
X3714000Y29000000D01*
X3661674Y29021674D01*
X3640000Y29074000D01*
X3640000Y29326000D01*
X3661674Y29378326D01*
X3714000Y29400000D01*
X4476000Y29400000D01*
X4528326Y29378326D01*
G37*
G36*
X16578326Y31343326D02*
G01*
X16600000Y31291000D01*
X16600000Y30479000D01*
X16578326Y30426674D01*
X16526000Y30405000D01*
X16024000Y30405000D01*
X15971674Y30426674D01*
X15950000Y30479000D01*
X15950000Y31291000D01*
X15971674Y31343326D01*
X16024000Y31365000D01*
X16526000Y31365000D01*
X16578326Y31343326D01*
G37*
G36*
X105348326Y41448326D02*
G01*
X105370000Y41396000D01*
X105370000Y41144000D01*
X105348326Y41091674D01*
X105296000Y41070000D01*
X104534000Y41070000D01*
X104481674Y41091674D01*
X104460000Y41144000D01*
X104460000Y41396000D01*
X104481674Y41448326D01*
X104534000Y41470000D01*
X105296000Y41470000D01*
X105348326Y41448326D01*
G37*
G36*
X77878326Y10498326D02*
G01*
X77900000Y10446000D01*
X77900000Y9814000D01*
X77878326Y9761674D01*
X77826000Y9740000D01*
X77494000Y9740000D01*
X77441674Y9761674D01*
X77420000Y9814000D01*
X77420000Y10446000D01*
X77441674Y10498326D01*
X77494000Y10520000D01*
X77826000Y10520000D01*
X77878326Y10498326D01*
G37*
G36*
X52898326Y27698326D02*
G01*
X52920000Y27646000D01*
X52920000Y27404000D01*
X52898326Y27351674D01*
X52846000Y27330000D01*
X52204000Y27330000D01*
X52151674Y27351674D01*
X52130000Y27404000D01*
X52130000Y27646000D01*
X52151674Y27698326D01*
X52204000Y27720000D01*
X52846000Y27720000D01*
X52898326Y27698326D01*
G37*
G36*
X13808326Y20028326D02*
G01*
X13830000Y19976000D01*
X13830000Y19364000D01*
X13808326Y19311674D01*
X13756000Y19290000D01*
X13424000Y19290000D01*
X13371674Y19311674D01*
X13350000Y19364000D01*
X13350000Y19976000D01*
X13371674Y20028326D01*
X13424000Y20050000D01*
X13756000Y20050000D01*
X13808326Y20028326D01*
G37*
G36*
X19678326Y21048326D02*
G01*
X19700000Y20996000D01*
X19700000Y20100000D01*
X20586000Y20100000D01*
X20638326Y20078326D01*
X20660000Y20026000D01*
X20660000Y17364000D01*
X20638326Y17311674D01*
X20586000Y17290000D01*
X19690000Y17290000D01*
X19690000Y16394000D01*
X19668326Y16341674D01*
X19616000Y16320000D01*
X16964000Y16320000D01*
X16911674Y16341674D01*
X16890000Y16394000D01*
X16890000Y17290000D01*
X15984000Y17290000D01*
X15931674Y17311674D01*
X15910000Y17364000D01*
X15910000Y20026000D01*
X15931674Y20078326D01*
X15984000Y20100000D01*
X16890000Y20100000D01*
X16890000Y20996000D01*
X16911674Y21048326D01*
X16964000Y21070000D01*
X19626000Y21070000D01*
X19678326Y21048326D01*
G37*
G36*
X90068326Y58108326D02*
G01*
X90090000Y58056000D01*
X90090000Y57724000D01*
X90068326Y57671674D01*
X90016000Y57650000D01*
X89384000Y57650000D01*
X89331674Y57671674D01*
X89310000Y57724000D01*
X89310000Y58056000D01*
X89331674Y58108326D01*
X89384000Y58130000D01*
X90016000Y58130000D01*
X90068326Y58108326D01*
G37*
G36*
X44748326Y57018326D02*
G01*
X44770000Y56966000D01*
X44770000Y56634000D01*
X44748326Y56581674D01*
X44696000Y56560000D01*
X43904000Y56560000D01*
X43851674Y56581674D01*
X43830000Y56634000D01*
X43830000Y56966000D01*
X43851674Y57018326D01*
X43904000Y57040000D01*
X44696000Y57040000D01*
X44748326Y57018326D01*
G37*
G36*
X21418326Y15048326D02*
G01*
X21440000Y14996000D01*
X21440000Y14664000D01*
X21418326Y14611674D01*
X21366000Y14590000D01*
X20734000Y14590000D01*
X20681674Y14611674D01*
X20660000Y14664000D01*
X20660000Y14996000D01*
X20681674Y15048326D01*
X20734000Y15070000D01*
X21366000Y15070000D01*
X21418326Y15048326D01*
G37*
G36*
X26788326Y17358326D02*
G01*
X26810000Y17306000D01*
X26810000Y16674000D01*
X26788326Y16621674D01*
X26736000Y16600000D01*
X26404000Y16600000D01*
X26351674Y16621674D01*
X26330000Y16674000D01*
X26330000Y17306000D01*
X26351674Y17358326D01*
X26404000Y17380000D01*
X26736000Y17380000D01*
X26788326Y17358326D01*
G37*
G36*
X72468326Y20998326D02*
G01*
X72490000Y20946000D01*
X72490000Y20614000D01*
X72468326Y20561674D01*
X72416000Y20540000D01*
X71784000Y20540000D01*
X71731674Y20561674D01*
X71710000Y20614000D01*
X71710000Y20946000D01*
X71731674Y20998326D01*
X71784000Y21020000D01*
X72416000Y21020000D01*
X72468326Y20998326D01*
G37*
G36*
X15368326Y34243326D02*
G01*
X15390000Y34191000D01*
X15390000Y33859000D01*
X15368326Y33806674D01*
X15316000Y33785000D01*
X14824000Y33785000D01*
X14771674Y33806674D01*
X14750000Y33859000D01*
X14750000Y34191000D01*
X14771674Y34243326D01*
X14824000Y34265000D01*
X15316000Y34265000D01*
X15368326Y34243326D01*
G37*
G36*
X77558326Y8888326D02*
G01*
X77580000Y8836000D01*
X77580000Y8504000D01*
X77558326Y8451674D01*
X77506000Y8430000D01*
X76874000Y8430000D01*
X76821674Y8451674D01*
X76800000Y8504000D01*
X76800000Y8836000D01*
X76821674Y8888326D01*
X76874000Y8910000D01*
X77506000Y8910000D01*
X77558326Y8888326D01*
G37*
G36*
X102808326Y38888326D02*
G01*
X102830000Y38836000D01*
X102830000Y38204000D01*
X102808326Y38151674D01*
X102756000Y38130000D01*
X102424000Y38130000D01*
X102371674Y38151674D01*
X102350000Y38204000D01*
X102350000Y38836000D01*
X102371674Y38888326D01*
X102424000Y38910000D01*
X102756000Y38910000D01*
X102808326Y38888326D01*
G37*
G36*
X69728326Y3568326D02*
G01*
X69750000Y3516000D01*
X69750000Y2884000D01*
X69728326Y2831674D01*
X69676000Y2810000D01*
X69344000Y2810000D01*
X69291674Y2831674D01*
X69270000Y2884000D01*
X69270000Y3516000D01*
X69291674Y3568326D01*
X69344000Y3590000D01*
X69676000Y3590000D01*
X69728326Y3568326D01*
G37*
G36*
X13808326Y18028326D02*
G01*
X13830000Y17976000D01*
X13830000Y17404000D01*
X13808326Y17351674D01*
X13756000Y17330000D01*
X13424000Y17330000D01*
X13371674Y17351674D01*
X13350000Y17404000D01*
X13350000Y17976000D01*
X13371674Y18028326D01*
X13424000Y18050000D01*
X13756000Y18050000D01*
X13808326Y18028326D01*
G37*
G36*
X43888326Y12718326D02*
G01*
X43910000Y12666000D01*
X43910000Y12034000D01*
X43888326Y11981674D01*
X43836000Y11960000D01*
X43504000Y11960000D01*
X43451674Y11981674D01*
X43430000Y12034000D01*
X43430000Y12666000D01*
X43451674Y12718326D01*
X43504000Y12740000D01*
X43836000Y12740000D01*
X43888326Y12718326D01*
G37*
G36*
X23916262Y48188326D02*
G01*
X23937936Y48136000D01*
X23937936Y47924000D01*
X23916262Y47871674D01*
X23863936Y47850000D01*
X22491936Y47850000D01*
X22439610Y47871674D01*
X22417936Y47924000D01*
X22417936Y48136000D01*
X22439610Y48188326D01*
X22491936Y48210000D01*
X23863936Y48210000D01*
X23916262Y48188326D01*
G37*
G36*
X41416262Y55808326D02*
G01*
X41437936Y55756000D01*
X41437936Y55544000D01*
X41416262Y55491674D01*
X41363936Y55470000D01*
X39991936Y55470000D01*
X39939610Y55491674D01*
X39917936Y55544000D01*
X39917936Y55756000D01*
X39939610Y55808326D01*
X39991936Y55830000D01*
X41363936Y55830000D01*
X41416262Y55808326D01*
G37*
G36*
X89758326Y63528326D02*
G01*
X89780000Y63476000D01*
X89780000Y63224000D01*
X89758326Y63171674D01*
X89706000Y63150000D01*
X88944000Y63150000D01*
X88891674Y63171674D01*
X88870000Y63224000D01*
X88870000Y63476000D01*
X88891674Y63528326D01*
X88944000Y63550000D01*
X89706000Y63550000D01*
X89758326Y63528326D01*
G37*
G36*
X43028326Y56728326D02*
G01*
X43050000Y56676000D01*
X43050000Y55884000D01*
X43028326Y55831674D01*
X42976000Y55810000D01*
X42644000Y55810000D01*
X42591674Y55831674D01*
X42570000Y55884000D01*
X42570000Y56676000D01*
X42591674Y56728326D01*
X42644000Y56750000D01*
X42976000Y56750000D01*
X43028326Y56728326D01*
G37*
G36*
X112818326Y29358326D02*
G01*
X112840000Y29306000D01*
X112840000Y28674000D01*
X112818326Y28621674D01*
X112766000Y28600000D01*
X112434000Y28600000D01*
X112381674Y28621674D01*
X112360000Y28674000D01*
X112360000Y29306000D01*
X112381674Y29358326D01*
X112434000Y29380000D01*
X112766000Y29380000D01*
X112818326Y29358326D01*
G37*
G36*
X7188326Y13483326D02*
G01*
X7210000Y13431000D01*
X7210000Y13379000D01*
X7188326Y13326674D01*
X7136000Y13305000D01*
X6144000Y13305000D01*
X6091674Y13326674D01*
X6070000Y13379000D01*
X6070000Y13431000D01*
X6091674Y13483326D01*
X6144000Y13505000D01*
X7136000Y13505000D01*
X7188326Y13483326D01*
G37*
G36*
X27008326Y45616262D02*
G01*
X27030000Y45563936D01*
X27030000Y44191936D01*
X27008326Y44139610D01*
X26956000Y44117936D01*
X26744000Y44117936D01*
X26691674Y44139610D01*
X26670000Y44191936D01*
X26670000Y45563936D01*
X26691674Y45616262D01*
X26744000Y45637936D01*
X26956000Y45637936D01*
X27008326Y45616262D01*
G37*
G36*
X6748326Y4838326D02*
G01*
X6770000Y4786000D01*
X6770000Y4254000D01*
X6748326Y4201674D01*
X6696000Y4180000D01*
X6364000Y4180000D01*
X6311674Y4201674D01*
X6290000Y4254000D01*
X6290000Y4786000D01*
X6311674Y4838326D01*
X6364000Y4860000D01*
X6696000Y4860000D01*
X6748326Y4838326D01*
G37*
G36*
X41416262Y54538326D02*
G01*
X41437936Y54486000D01*
X41437936Y54274000D01*
X41416262Y54221674D01*
X41363936Y54200000D01*
X39991936Y54200000D01*
X39939610Y54221674D01*
X39917936Y54274000D01*
X39917936Y54486000D01*
X39939610Y54538326D01*
X39991936Y54560000D01*
X41363936Y54560000D01*
X41416262Y54538326D01*
G37*
G36*
X9148326Y37623326D02*
G01*
X9170000Y37571000D01*
X9170000Y37239000D01*
X9148326Y37186674D01*
X9096000Y37165000D01*
X8604000Y37165000D01*
X8551674Y37186674D01*
X8530000Y37239000D01*
X8530000Y37571000D01*
X8551674Y37623326D01*
X8604000Y37645000D01*
X9096000Y37645000D01*
X9148326Y37623326D01*
G37*
G36*
X9558326Y40523326D02*
G01*
X9580000Y40471000D01*
X9580000Y40359000D01*
X9558326Y40306674D01*
X9506000Y40285000D01*
X9004000Y40285000D01*
X8951674Y40306674D01*
X8930000Y40359000D01*
X8930000Y40471000D01*
X8951674Y40523326D01*
X9004000Y40545000D01*
X9506000Y40545000D01*
X9558326Y40523326D01*
G37*
G36*
X112918326Y59408326D02*
G01*
X112940000Y59356000D01*
X112940000Y58654000D01*
X112918326Y58601674D01*
X112866000Y58580000D01*
X112534000Y58580000D01*
X112481674Y58601674D01*
X112460000Y58654000D01*
X112460000Y59356000D01*
X112481674Y59408326D01*
X112534000Y59430000D01*
X112866000Y59430000D01*
X112918326Y59408326D01*
G37*
G36*
X16758326Y15168326D02*
G01*
X16780000Y15116000D01*
X16780000Y14784000D01*
X16758326Y14731674D01*
X16706000Y14710000D01*
X16014000Y14710000D01*
X15961674Y14731674D01*
X15940000Y14784000D01*
X15940000Y15116000D01*
X15961674Y15168326D01*
X16014000Y15190000D01*
X16706000Y15190000D01*
X16758326Y15168326D01*
G37*
G36*
X7188326Y12483326D02*
G01*
X7210000Y12431000D01*
X7210000Y12379000D01*
X7188326Y12326674D01*
X7136000Y12305000D01*
X6144000Y12305000D01*
X6091674Y12326674D01*
X6070000Y12379000D01*
X6070000Y12431000D01*
X6091674Y12483326D01*
X6144000Y12505000D01*
X7136000Y12505000D01*
X7188326Y12483326D01*
G37*
G36*
X20588326Y40848326D02*
G01*
X20610000Y40796000D01*
X20610000Y40464000D01*
X20588326Y40411674D01*
X20536000Y40390000D01*
X19854000Y40390000D01*
X19801674Y40411674D01*
X19780000Y40464000D01*
X19780000Y40796000D01*
X19801674Y40848326D01*
X19854000Y40870000D01*
X20536000Y40870000D01*
X20588326Y40848326D01*
G37*
G36*
X102808326Y39908326D02*
G01*
X102830000Y39856000D01*
X102830000Y39224000D01*
X102808326Y39171674D01*
X102756000Y39150000D01*
X102424000Y39150000D01*
X102371674Y39171674D01*
X102350000Y39224000D01*
X102350000Y39856000D01*
X102371674Y39908326D01*
X102424000Y39930000D01*
X102756000Y39930000D01*
X102808326Y39908326D01*
G37*
G36*
X47678326Y21278326D02*
G01*
X47700000Y21226000D01*
X47700000Y21004000D01*
X47678326Y20951674D01*
X47626000Y20930000D01*
X46994000Y20930000D01*
X46941674Y20951674D01*
X46920000Y21004000D01*
X46920000Y21226000D01*
X46941674Y21278326D01*
X46994000Y21300000D01*
X47626000Y21300000D01*
X47678326Y21278326D01*
G37*
G36*
X18948326Y56568326D02*
G01*
X18970000Y56516000D01*
X18970000Y55554000D01*
X18948326Y55501674D01*
X18896000Y55480000D01*
X18394670Y55480000D01*
X18342344Y55501674D01*
X18320670Y55554000D01*
X18320673Y55554667D01*
X18329339Y56516667D01*
X18351484Y56568795D01*
X18403336Y56590000D01*
X18896000Y56590000D01*
X18948326Y56568326D01*
G37*
G36*
X35364776Y26408326D02*
G01*
X35386450Y26356000D01*
X35386450Y26024000D01*
X35364776Y25971674D01*
X35312450Y25950000D01*
X34680450Y25950000D01*
X34628124Y25971674D01*
X34606450Y26024000D01*
X34606450Y26356000D01*
X34628124Y26408326D01*
X34680450Y26430000D01*
X35312450Y26430000D01*
X35364776Y26408326D01*
G37*
G36*
X56408326Y26668326D02*
G01*
X56430000Y26616000D01*
X56430000Y26384000D01*
X56408326Y26331674D01*
X56356000Y26310000D01*
X55734000Y26310000D01*
X55681674Y26331674D01*
X55660000Y26384000D01*
X55660000Y26616000D01*
X55681674Y26668326D01*
X55734000Y26690000D01*
X56356000Y26690000D01*
X56408326Y26668326D01*
G37*
G36*
X37168326Y45616262D02*
G01*
X37190000Y45563936D01*
X37190000Y44191936D01*
X37168326Y44139610D01*
X37116000Y44117936D01*
X36904000Y44117936D01*
X36851674Y44139610D01*
X36830000Y44191936D01*
X36830000Y45563936D01*
X36851674Y45616262D01*
X36904000Y45637936D01*
X37116000Y45637936D01*
X37168326Y45616262D01*
G37*
G36*
X69138326Y66778326D02*
G01*
X69160000Y66726000D01*
X69160000Y66474000D01*
X69138326Y66421674D01*
X69086000Y66400000D01*
X68324000Y66400000D01*
X68271674Y66421674D01*
X68250000Y66474000D01*
X68250000Y66726000D01*
X68271674Y66778326D01*
X68324000Y66800000D01*
X69086000Y66800000D01*
X69138326Y66778326D01*
G37*
G36*
X11978326Y12733326D02*
G01*
X12000000Y12681000D01*
X12000000Y12629000D01*
X11978326Y12576674D01*
X11926000Y12555000D01*
X11424000Y12555000D01*
X11371674Y12576674D01*
X11350000Y12629000D01*
X11350000Y12681000D01*
X11371674Y12733326D01*
X11424000Y12755000D01*
X11926000Y12755000D01*
X11978326Y12733326D01*
G37*
G36*
X15958326Y6738326D02*
G01*
X15980000Y6686000D01*
X15980000Y6614000D01*
X15958326Y6561674D01*
X15906000Y6540000D01*
X15184000Y6540000D01*
X15131674Y6561674D01*
X15110000Y6614000D01*
X15110000Y6686000D01*
X15131674Y6738326D01*
X15184000Y6760000D01*
X15906000Y6760000D01*
X15958326Y6738326D01*
G37*
G36*
X52948326Y22228326D02*
G01*
X52970000Y22176000D01*
X52970000Y21924000D01*
X52948326Y21871674D01*
X52896000Y21850000D01*
X52254000Y21850000D01*
X52201674Y21871674D01*
X52180000Y21924000D01*
X52180000Y22176000D01*
X52201674Y22228326D01*
X52254000Y22250000D01*
X52896000Y22250000D01*
X52948326Y22228326D01*
G37*
G36*
X30818326Y45616262D02*
G01*
X30840000Y45563936D01*
X30840000Y44191936D01*
X30818326Y44139610D01*
X30766000Y44117936D01*
X30554000Y44117936D01*
X30501674Y44139610D01*
X30480000Y44191936D01*
X30480000Y45563936D01*
X30501674Y45616262D01*
X30554000Y45637936D01*
X30766000Y45637936D01*
X30818326Y45616262D01*
G37*
G36*
X15698326Y15168326D02*
G01*
X15720000Y15116000D01*
X15720000Y14784000D01*
X15698326Y14731674D01*
X15646000Y14710000D01*
X15004000Y14710000D01*
X14951674Y14731674D01*
X14930000Y14784000D01*
X14930000Y15116000D01*
X14951674Y15168326D01*
X15004000Y15190000D01*
X15646000Y15190000D01*
X15698326Y15168326D01*
G37*
G36*
X49348326Y42698326D02*
G01*
X49370000Y42646000D01*
X49370000Y42314000D01*
X49348326Y42261674D01*
X49296000Y42240000D01*
X48704000Y42240000D01*
X48651674Y42261674D01*
X48630000Y42314000D01*
X48630000Y42646000D01*
X48651674Y42698326D01*
X48704000Y42720000D01*
X49296000Y42720000D01*
X49348326Y42698326D01*
G37*
G36*
X23916262Y62158326D02*
G01*
X23937936Y62106000D01*
X23937936Y61894000D01*
X23916262Y61841674D01*
X23863936Y61820000D01*
X22491936Y61820000D01*
X22439610Y61841674D01*
X22417936Y61894000D01*
X22417936Y62106000D01*
X22439610Y62158326D01*
X22491936Y62180000D01*
X23863936Y62180000D01*
X23916262Y62158326D01*
G37*
G36*
X41416262Y60888326D02*
G01*
X41437936Y60836000D01*
X41437936Y60624000D01*
X41416262Y60571674D01*
X41363936Y60550000D01*
X39991936Y60550000D01*
X39939610Y60571674D01*
X39917936Y60624000D01*
X39917936Y60836000D01*
X39939610Y60888326D01*
X39991936Y60910000D01*
X41363936Y60910000D01*
X41416262Y60888326D01*
G37*
G36*
X55378326Y22228326D02*
G01*
X55400000Y22176000D01*
X55400000Y21864000D01*
X55378326Y21811674D01*
X55326000Y21790000D01*
X54694000Y21790000D01*
X54641674Y21811674D01*
X54620000Y21864000D01*
X54620000Y22176000D01*
X54641674Y22228326D01*
X54694000Y22250000D01*
X55326000Y22250000D01*
X55378326Y22228326D01*
G37*
G36*
X70098326Y43628326D02*
G01*
X70120000Y43576000D01*
X70120000Y43324000D01*
X70098326Y43271674D01*
X70046000Y43250000D01*
X69404000Y43250000D01*
X69351674Y43271674D01*
X69330000Y43324000D01*
X69330000Y43576000D01*
X69351674Y43628326D01*
X69404000Y43650000D01*
X70046000Y43650000D01*
X70098326Y43628326D01*
G37*
G36*
X23918326Y55808799D02*
G01*
X23940000Y55756473D01*
X23940000Y55544473D01*
X23918326Y55492147D01*
X23866000Y55470473D01*
X22494000Y55470473D01*
X22441674Y55492147D01*
X22420000Y55544473D01*
X22420000Y55756473D01*
X22441674Y55808799D01*
X22494000Y55830473D01*
X23866000Y55830473D01*
X23918326Y55808799D01*
G37*
G36*
X13808326Y16088326D02*
G01*
X13830000Y16036000D01*
X13830000Y15334000D01*
X13808326Y15281674D01*
X13756000Y15260000D01*
X13424000Y15260000D01*
X13371674Y15281674D01*
X13350000Y15334000D01*
X13350000Y16036000D01*
X13371674Y16088326D01*
X13424000Y16110000D01*
X13756000Y16110000D01*
X13808326Y16088326D01*
G37*
G36*
X41416262Y49458326D02*
G01*
X41437936Y49406000D01*
X41437936Y49194000D01*
X41416262Y49141674D01*
X41363936Y49120000D01*
X39991936Y49120000D01*
X39939610Y49141674D01*
X39917936Y49194000D01*
X39917936Y49406000D01*
X39939610Y49458326D01*
X39991936Y49480000D01*
X41363936Y49480000D01*
X41416262Y49458326D01*
G37*
G36*
X10128326Y12733326D02*
G01*
X10150000Y12681000D01*
X10150000Y12629000D01*
X10128326Y12576674D01*
X10076000Y12555000D01*
X9574000Y12555000D01*
X9521674Y12576674D01*
X9500000Y12629000D01*
X9500000Y12681000D01*
X9521674Y12733326D01*
X9574000Y12755000D01*
X10076000Y12755000D01*
X10128326Y12733326D01*
G37*
G36*
X41416262Y51998326D02*
G01*
X41437936Y51946000D01*
X41437936Y51734000D01*
X41416262Y51681674D01*
X41363936Y51660000D01*
X39991936Y51660000D01*
X39939610Y51681674D01*
X39917936Y51734000D01*
X39917936Y51946000D01*
X39939610Y51998326D01*
X39991936Y52020000D01*
X41363936Y52020000D01*
X41416262Y51998326D01*
G37*
G36*
X15908326Y32393326D02*
G01*
X15930000Y32341000D01*
X15930000Y31859000D01*
X15908326Y31806674D01*
X15856000Y31785000D01*
X15594000Y31785000D01*
X15541674Y31806674D01*
X15520000Y31859000D01*
X15520000Y32341000D01*
X15541674Y32393326D01*
X15594000Y32415000D01*
X15856000Y32415000D01*
X15908326Y32393326D01*
G37*
G36*
X77838326Y12403557D02*
G01*
X77860000Y12351231D01*
X77860000Y11799231D01*
X77838326Y11746905D01*
X77786000Y11725231D01*
X77554000Y11725231D01*
X77501674Y11746905D01*
X77480000Y11799231D01*
X77480000Y12351231D01*
X77501674Y12403557D01*
X77554000Y12425231D01*
X77786000Y12425231D01*
X77838326Y12403557D01*
G37*
G36*
X4138326Y57298326D02*
G01*
X4160000Y57246000D01*
X4160000Y56994000D01*
X4138326Y56941674D01*
X4086000Y56920000D01*
X3394000Y56920000D01*
X3341674Y56941674D01*
X3320000Y56994000D01*
X3320000Y57246000D01*
X3341674Y57298326D01*
X3394000Y57320000D01*
X4086000Y57320000D01*
X4138326Y57298326D01*
G37*
G36*
X24938326Y25598326D02*
G01*
X24960000Y25546000D01*
X24960000Y25214000D01*
X24938326Y25161674D01*
X24886000Y25140000D01*
X24254000Y25140000D01*
X24201674Y25161674D01*
X24180000Y25214000D01*
X24180000Y25546000D01*
X24201674Y25598326D01*
X24254000Y25620000D01*
X24886000Y25620000D01*
X24938326Y25598326D01*
G37*
G36*
X66158326Y45148326D02*
G01*
X66180000Y45096000D01*
X66180000Y44304000D01*
X66158326Y44251674D01*
X66106000Y44230000D01*
X65774000Y44230000D01*
X65721674Y44251674D01*
X65700000Y44304000D01*
X65700000Y45096000D01*
X65721674Y45148326D01*
X65774000Y45170000D01*
X66106000Y45170000D01*
X66158326Y45148326D01*
G37*
G36*
X72268326Y63698326D02*
G01*
X72290000Y63646000D01*
X72290000Y63014000D01*
X72268326Y62961674D01*
X72216000Y62940000D01*
X71884000Y62940000D01*
X71831674Y62961674D01*
X71810000Y63014000D01*
X71810000Y63646000D01*
X71831674Y63698326D01*
X71884000Y63720000D01*
X72216000Y63720000D01*
X72268326Y63698326D01*
G37*
G36*
X79508326Y11778326D02*
G01*
X79530000Y11726000D01*
X79530000Y11474000D01*
X79508326Y11421674D01*
X79456000Y11400000D01*
X78874000Y11400000D01*
X78821674Y11421674D01*
X78800000Y11474000D01*
X78800000Y11726000D01*
X78821674Y11778326D01*
X78874000Y11800000D01*
X79456000Y11800000D01*
X79508326Y11778326D01*
G37*
G36*
X33358326Y45616262D02*
G01*
X33380000Y45563936D01*
X33380000Y44191936D01*
X33358326Y44139610D01*
X33306000Y44117936D01*
X33094000Y44117936D01*
X33041674Y44139610D01*
X33020000Y44191936D01*
X33020000Y45563936D01*
X33041674Y45616262D01*
X33094000Y45637936D01*
X33306000Y45637936D01*
X33358326Y45616262D01*
G37*
G36*
X29698326Y26208326D02*
G01*
X29720000Y26156000D01*
X29720000Y25924000D01*
X29698326Y25871674D01*
X29646000Y25850000D01*
X29014000Y25850000D01*
X28961674Y25871674D01*
X28940000Y25924000D01*
X28940000Y26156000D01*
X28961674Y26208326D01*
X29014000Y26230000D01*
X29646000Y26230000D01*
X29698326Y26208326D01*
G37*
G36*
X14118326Y5828326D02*
G01*
X14140000Y5776000D01*
X14140000Y4984000D01*
X14118326Y4931674D01*
X14066000Y4910000D01*
X13734000Y4910000D01*
X13681674Y4931674D01*
X13660000Y4984000D01*
X13660000Y5776000D01*
X13681674Y5828326D01*
X13734000Y5850000D01*
X14066000Y5850000D01*
X14118326Y5828326D01*
G37*
G36*
X48168326Y42628326D02*
G01*
X48190000Y42576000D01*
X48190000Y42324000D01*
X48168326Y42271674D01*
X48116000Y42250000D01*
X47354000Y42250000D01*
X47301674Y42271674D01*
X47280000Y42324000D01*
X47280000Y42576000D01*
X47301674Y42628326D01*
X47354000Y42650000D01*
X48116000Y42650000D01*
X48168326Y42628326D01*
G37*
G36*
X41416262Y53268326D02*
G01*
X41437936Y53216000D01*
X41437936Y53004000D01*
X41416262Y52951674D01*
X41363936Y52930000D01*
X39991936Y52930000D01*
X39939610Y52951674D01*
X39917936Y53004000D01*
X39917936Y53216000D01*
X39939610Y53268326D01*
X39991936Y53290000D01*
X41363936Y53290000D01*
X41416262Y53268326D01*
G37*
G36*
X35898326Y45616262D02*
G01*
X35920000Y45563936D01*
X35920000Y44191936D01*
X35898326Y44139610D01*
X35846000Y44117936D01*
X35634000Y44117936D01*
X35581674Y44139610D01*
X35560000Y44191936D01*
X35560000Y45563936D01*
X35581674Y45616262D01*
X35634000Y45637936D01*
X35846000Y45637936D01*
X35898326Y45616262D01*
G37*
G36*
X18178326Y14898326D02*
G01*
X18200000Y14846000D01*
X18200000Y14514000D01*
X18178326Y14461674D01*
X18126000Y14440000D01*
X17484000Y14440000D01*
X17431674Y14461674D01*
X17410000Y14514000D01*
X17410000Y14846000D01*
X17431674Y14898326D01*
X17484000Y14920000D01*
X18126000Y14920000D01*
X18178326Y14898326D01*
G37*
G36*
X77878326Y11478326D02*
G01*
X77900000Y11426000D01*
X77900000Y10774000D01*
X77878326Y10721674D01*
X77826000Y10700000D01*
X77564000Y10700000D01*
X77511674Y10721674D01*
X77490000Y10774000D01*
X77490000Y11426000D01*
X77511674Y11478326D01*
X77564000Y11500000D01*
X77826000Y11500000D01*
X77878326Y11478326D01*
G37*
G36*
X41416262Y59618326D02*
G01*
X41437936Y59566000D01*
X41437936Y59354000D01*
X41416262Y59301674D01*
X41363936Y59280000D01*
X39991936Y59280000D01*
X39939610Y59301674D01*
X39917936Y59354000D01*
X39917936Y59566000D01*
X39939610Y59618326D01*
X39991936Y59640000D01*
X41363936Y59640000D01*
X41416262Y59618326D01*
G37*
G36*
X41416262Y46918326D02*
G01*
X41437936Y46866000D01*
X41437936Y46654000D01*
X41416262Y46601674D01*
X41363936Y46580000D01*
X39991936Y46580000D01*
X39939610Y46601674D01*
X39917936Y46654000D01*
X39917936Y46866000D01*
X39939610Y46918326D01*
X39991936Y46940000D01*
X41363936Y46940000D01*
X41416262Y46918326D01*
G37*
G36*
X19178326Y14898326D02*
G01*
X19200000Y14846000D01*
X19200000Y14514000D01*
X19178326Y14461674D01*
X19126000Y14440000D01*
X18474000Y14440000D01*
X18421674Y14461674D01*
X18400000Y14514000D01*
X18400000Y14846000D01*
X18421674Y14898326D01*
X18474000Y14920000D01*
X19126000Y14920000D01*
X19178326Y14898326D01*
G37*
G36*
X64368326Y3618326D02*
G01*
X64390000Y3566000D01*
X64390000Y3234000D01*
X64368326Y3181674D01*
X64316000Y3160000D01*
X63684000Y3160000D01*
X63631674Y3181674D01*
X63610000Y3234000D01*
X63610000Y3566000D01*
X63631674Y3618326D01*
X63684000Y3640000D01*
X64316000Y3640000D01*
X64368326Y3618326D01*
G37*
G36*
X23916262Y53268326D02*
G01*
X23937936Y53216000D01*
X23937936Y53004000D01*
X23916262Y52951674D01*
X23863936Y52930000D01*
X22491936Y52930000D01*
X22439610Y52951674D01*
X22417936Y53004000D01*
X22417936Y53216000D01*
X22439610Y53268326D01*
X22491936Y53290000D01*
X23863936Y53290000D01*
X23916262Y53268326D01*
G37*
G36*
X90528326Y45378326D02*
G01*
X90550000Y45326000D01*
X90550000Y44824000D01*
X90528326Y44771674D01*
X90476000Y44750000D01*
X89474000Y44750000D01*
X89421674Y44771674D01*
X89400000Y44824000D01*
X89400000Y45326000D01*
X89421674Y45378326D01*
X89474000Y45400000D01*
X90476000Y45400000D01*
X90528326Y45378326D01*
G37*
G36*
X94228326Y43318326D02*
G01*
X94250000Y43266000D01*
X94250000Y42934000D01*
X94228326Y42881674D01*
X94176000Y42860000D01*
X93574000Y42860000D01*
X93521674Y42881674D01*
X93500000Y42934000D01*
X93500000Y43266000D01*
X93521674Y43318326D01*
X93574000Y43340000D01*
X94176000Y43340000D01*
X94228326Y43318326D01*
G37*
G36*
X30668326Y26208326D02*
G01*
X30690000Y26156000D01*
X30690000Y25924000D01*
X30668326Y25871674D01*
X30616000Y25850000D01*
X29984000Y25850000D01*
X29931674Y25871674D01*
X29910000Y25924000D01*
X29910000Y26156000D01*
X29931674Y26208326D01*
X29984000Y26230000D01*
X30616000Y26230000D01*
X30668326Y26208326D01*
G37*
G36*
X108898326Y40478326D02*
G01*
X108920000Y40426000D01*
X108920000Y40174000D01*
X108898326Y40121674D01*
X108846000Y40100000D01*
X108084000Y40100000D01*
X108031674Y40121674D01*
X108010000Y40174000D01*
X108010000Y40426000D01*
X108031674Y40478326D01*
X108084000Y40500000D01*
X108846000Y40500000D01*
X108898326Y40478326D01*
G37*
G36*
X74128326Y16468326D02*
G01*
X74150000Y16416000D01*
X74150000Y14750000D01*
X74616000Y14750000D01*
X74668326Y14728326D01*
X74690000Y14676000D01*
X74690000Y14474000D01*
X74668326Y14421674D01*
X74616000Y14400000D01*
X74150000Y14400000D01*
X74150000Y13774000D01*
X74128326Y13721674D01*
X74076000Y13700000D01*
X73924000Y13700000D01*
X73871674Y13721674D01*
X73850000Y13774000D01*
X73850000Y16416000D01*
X73871674Y16468326D01*
X73924000Y16490000D01*
X74076000Y16490000D01*
X74128326Y16468326D01*
G37*
G36*
X7198326Y15283326D02*
G01*
X7220000Y15231000D01*
X7220000Y15179000D01*
X7198326Y15126674D01*
X7146000Y15105000D01*
X6154000Y15105000D01*
X6101674Y15126674D01*
X6080000Y15179000D01*
X6080000Y15231000D01*
X6101674Y15283326D01*
X6154000Y15305000D01*
X7146000Y15305000D01*
X7198326Y15283326D01*
G37*
G36*
X61718326Y60388326D02*
G01*
X61740000Y60336000D01*
X61740000Y60004000D01*
X61718326Y59951674D01*
X61666000Y59930000D01*
X61034000Y59930000D01*
X60981674Y59951674D01*
X60960000Y60004000D01*
X60960000Y60336000D01*
X60981674Y60388326D01*
X61034000Y60410000D01*
X61666000Y60410000D01*
X61718326Y60388326D01*
G37*
G36*
X6678326Y5818326D02*
G01*
X6700000Y5766000D01*
X6700000Y5254000D01*
X6678326Y5201674D01*
X6626000Y5180000D01*
X6374000Y5180000D01*
X6321674Y5201674D01*
X6300000Y5254000D01*
X6300000Y5766000D01*
X6321674Y5818326D01*
X6374000Y5840000D01*
X6626000Y5840000D01*
X6678326Y5818326D01*
G37*
G36*
X16348326Y34243326D02*
G01*
X16370000Y34191000D01*
X16370000Y33859000D01*
X16348326Y33806674D01*
X16296000Y33785000D01*
X15804000Y33785000D01*
X15751674Y33806674D01*
X15730000Y33859000D01*
X15730000Y34191000D01*
X15751674Y34243326D01*
X15804000Y34265000D01*
X16296000Y34265000D01*
X16348326Y34243326D01*
G37*
G36*
X91238326Y62848326D02*
G01*
X91260000Y62796000D01*
X91260000Y62164000D01*
X91238326Y62111674D01*
X91186000Y62090000D01*
X90854000Y62090000D01*
X90801674Y62111674D01*
X90780000Y62164000D01*
X90780000Y62796000D01*
X90801674Y62848326D01*
X90854000Y62870000D01*
X91186000Y62870000D01*
X91238326Y62848326D01*
G37*
G36*
X23906262Y54538326D02*
G01*
X23927936Y54486000D01*
X23927936Y54274000D01*
X23906262Y54221674D01*
X23853936Y54200000D01*
X22481936Y54200000D01*
X22429610Y54221674D01*
X22407936Y54274000D01*
X22407936Y54486000D01*
X22429610Y54538326D01*
X22481936Y54560000D01*
X23853936Y54560000D01*
X23906262Y54538326D01*
G37*
G36*
X32088326Y45616262D02*
G01*
X32110000Y45563936D01*
X32110000Y44191936D01*
X32088326Y44139610D01*
X32036000Y44117936D01*
X31824000Y44117936D01*
X31771674Y44139610D01*
X31750000Y44191936D01*
X31750000Y45563936D01*
X31771674Y45616262D01*
X31824000Y45637936D01*
X32036000Y45637936D01*
X32088326Y45616262D01*
G37*
G36*
X41416262Y58348326D02*
G01*
X41437936Y58296000D01*
X41437936Y58084000D01*
X41416262Y58031674D01*
X41363936Y58010000D01*
X39991936Y58010000D01*
X39939610Y58031674D01*
X39917936Y58084000D01*
X39917936Y58296000D01*
X39939610Y58348326D01*
X39991936Y58370000D01*
X41363936Y58370000D01*
X41416262Y58348326D01*
G37*
G36*
X72208326Y62558326D02*
G01*
X72230000Y62506000D01*
X72230000Y61874000D01*
X72208326Y61821674D01*
X72156000Y61800000D01*
X71924000Y61800000D01*
X71871674Y61821674D01*
X71850000Y61874000D01*
X71850000Y62506000D01*
X71871674Y62558326D01*
X71924000Y62580000D01*
X72156000Y62580000D01*
X72208326Y62558326D01*
G37*
G36*
X66138326Y47628326D02*
G01*
X66160000Y47576000D01*
X66160000Y46944000D01*
X66138326Y46891674D01*
X66086000Y46870000D01*
X65754000Y46870000D01*
X65701674Y46891674D01*
X65680000Y46944000D01*
X65680000Y47576000D01*
X65701674Y47628326D01*
X65754000Y47650000D01*
X66086000Y47650000D01*
X66138326Y47628326D01*
G37*
G36*
X41416262Y50728326D02*
G01*
X41437936Y50676000D01*
X41437936Y50464000D01*
X41416262Y50411674D01*
X41363936Y50390000D01*
X39991936Y50390000D01*
X39939610Y50411674D01*
X39917936Y50464000D01*
X39917936Y50676000D01*
X39939610Y50728326D01*
X39991936Y50750000D01*
X41363936Y50750000D01*
X41416262Y50728326D01*
G37*
G36*
X23916262Y59618326D02*
G01*
X23937936Y59566000D01*
X23937936Y59354000D01*
X23916262Y59301674D01*
X23863936Y59280000D01*
X22491936Y59280000D01*
X22439610Y59301674D01*
X22417936Y59354000D01*
X22417936Y59566000D01*
X22439610Y59618326D01*
X22491936Y59640000D01*
X23863936Y59640000D01*
X23916262Y59618326D01*
G37*
G36*
X23916262Y50728326D02*
G01*
X23937936Y50676000D01*
X23937936Y50464000D01*
X23916262Y50411674D01*
X23863936Y50390000D01*
X22491936Y50390000D01*
X22439610Y50411674D01*
X22417936Y50464000D01*
X22417936Y50676000D01*
X22439610Y50728326D01*
X22491936Y50750000D01*
X23863936Y50750000D01*
X23916262Y50728326D01*
G37*
G36*
X59978326Y31578326D02*
G01*
X60000000Y31526000D01*
X60000000Y30894000D01*
X59978326Y30841674D01*
X59926000Y30820000D01*
X59674000Y30820000D01*
X59621674Y30841674D01*
X59600000Y30894000D01*
X59600000Y31526000D01*
X59621674Y31578326D01*
X59674000Y31600000D01*
X59926000Y31600000D01*
X59978326Y31578326D01*
G37*
G36*
X20178326Y14888326D02*
G01*
X20200000Y14836000D01*
X20200000Y14504000D01*
X20178326Y14451674D01*
X20126000Y14430000D01*
X19474000Y14430000D01*
X19421674Y14451674D01*
X19400000Y14504000D01*
X19400000Y14836000D01*
X19421674Y14888326D01*
X19474000Y14910000D01*
X20126000Y14910000D01*
X20178326Y14888326D01*
G37*
G36*
X90658326Y29748326D02*
G01*
X90680000Y29696000D01*
X90680000Y29194000D01*
X90658326Y29141674D01*
X90606000Y29120000D01*
X89604000Y29120000D01*
X89551674Y29141674D01*
X89530000Y29194000D01*
X89530000Y29696000D01*
X89551674Y29748326D01*
X89604000Y29770000D01*
X90606000Y29770000D01*
X90658326Y29748326D01*
G37*
G36*
X14348326Y37773326D02*
G01*
X14370000Y37721000D01*
X14370000Y37389000D01*
X14348326Y37336674D01*
X14296000Y37315000D01*
X13804000Y37315000D01*
X13751674Y37336674D01*
X13730000Y37389000D01*
X13730000Y37721000D01*
X13751674Y37773326D01*
X13804000Y37795000D01*
X14296000Y37795000D01*
X14348326Y37773326D01*
G37*
G36*
X18948326Y55188326D02*
G01*
X18970000Y55136000D01*
X18970000Y54344000D01*
X18948326Y54291674D01*
X18896000Y54270000D01*
X18564000Y54270000D01*
X18511674Y54291674D01*
X18490000Y54344000D01*
X18490000Y55136000D01*
X18511674Y55188326D01*
X18564000Y55210000D01*
X18896000Y55210000D01*
X18948326Y55188326D01*
G37*
G36*
X50878326Y15378326D02*
G01*
X50900000Y15326000D01*
X50900000Y15254000D01*
X50878326Y15201674D01*
X50826000Y15180000D01*
X50104000Y15180000D01*
X50051674Y15201674D01*
X50030000Y15254000D01*
X50030000Y15326000D01*
X50051674Y15378326D01*
X50104000Y15400000D01*
X50826000Y15400000D01*
X50878326Y15378326D01*
G37*
G36*
X31508326Y13478703D02*
G01*
X31530000Y13426377D01*
X31530000Y12414377D01*
X31508326Y12362051D01*
X31456000Y12340377D01*
X31054000Y12340377D01*
X31001674Y12362051D01*
X30980000Y12414377D01*
X30980000Y13426377D01*
X31001674Y13478703D01*
X31054000Y13500377D01*
X31456000Y13500377D01*
X31508326Y13478703D01*
G37*
G36*
X44668326Y60808326D02*
G01*
X44690000Y60756000D01*
X44690000Y60424000D01*
X44668326Y60371674D01*
X44616000Y60350000D01*
X43984000Y60350000D01*
X43931674Y60371674D01*
X43910000Y60424000D01*
X43910000Y60756000D01*
X43931674Y60808326D01*
X43984000Y60830000D01*
X44616000Y60830000D01*
X44668326Y60808326D01*
G37*
G36*
X41416262Y57078326D02*
G01*
X41437936Y57026000D01*
X41437936Y56814000D01*
X41416262Y56761674D01*
X41363936Y56740000D01*
X39991936Y56740000D01*
X39939610Y56761674D01*
X39917936Y56814000D01*
X39917936Y57026000D01*
X39939610Y57078326D01*
X39991936Y57100000D01*
X41363936Y57100000D01*
X41416262Y57078326D01*
G37*
G36*
X101898326Y59138326D02*
G01*
X101920000Y59086000D01*
X101920000Y58754000D01*
X101898326Y58701674D01*
X101846000Y58680000D01*
X101144000Y58680000D01*
X101091674Y58701674D01*
X101070000Y58754000D01*
X101070000Y59086000D01*
X101091674Y59138326D01*
X101144000Y59160000D01*
X101846000Y59160000D01*
X101898326Y59138326D01*
G37*
G36*
X6678326Y6778326D02*
G01*
X6700000Y6726000D01*
X6700000Y6214000D01*
X6678326Y6161674D01*
X6626000Y6140000D01*
X6374000Y6140000D01*
X6321674Y6161674D01*
X6300000Y6214000D01*
X6300000Y6726000D01*
X6321674Y6778326D01*
X6374000Y6800000D01*
X6626000Y6800000D01*
X6678326Y6778326D01*
G37*
G36*
X43028326Y60528326D02*
G01*
X43050000Y60476000D01*
X43050000Y59684000D01*
X43028326Y59631674D01*
X42976000Y59610000D01*
X42644000Y59610000D01*
X42591674Y59631674D01*
X42570000Y59684000D01*
X42570000Y60476000D01*
X42591674Y60528326D01*
X42644000Y60550000D01*
X42976000Y60550000D01*
X43028326Y60528326D01*
G37*
G36*
X44358326Y40868326D02*
G01*
X44380000Y40816000D01*
X44380000Y40484000D01*
X44358326Y40431674D01*
X44306000Y40410000D01*
X43694000Y40410000D01*
X43641674Y40431674D01*
X43620000Y40484000D01*
X43620000Y40816000D01*
X43641674Y40868326D01*
X43694000Y40890000D01*
X44306000Y40890000D01*
X44358326Y40868326D01*
G37*
G36*
X13808326Y22028326D02*
G01*
X13830000Y21976000D01*
X13830000Y21334000D01*
X13808326Y21281674D01*
X13756000Y21260000D01*
X13424000Y21260000D01*
X13371674Y21281674D01*
X13350000Y21334000D01*
X13350000Y21976000D01*
X13371674Y22028326D01*
X13424000Y22050000D01*
X13756000Y22050000D01*
X13808326Y22028326D01*
G37*
G36*
X65088326Y60608326D02*
G01*
X65110000Y60556000D01*
X65110000Y59924000D01*
X65088326Y59871674D01*
X65036000Y59850000D01*
X64704000Y59850000D01*
X64651674Y59871674D01*
X64630000Y59924000D01*
X64630000Y60556000D01*
X64651674Y60608326D01*
X64704000Y60630000D01*
X65036000Y60630000D01*
X65088326Y60608326D01*
G37*
G36*
X100928326Y65078326D02*
G01*
X100950000Y65026000D01*
X100950000Y64774000D01*
X100928326Y64721674D01*
X100876000Y64700000D01*
X100114000Y64700000D01*
X100061674Y64721674D01*
X100040000Y64774000D01*
X100040000Y65026000D01*
X100061674Y65078326D01*
X100114000Y65100000D01*
X100876000Y65100000D01*
X100928326Y65078326D01*
G37*
G36*
X54378326Y27698326D02*
G01*
X54400000Y27646000D01*
X54400000Y27154000D01*
X54378326Y27101674D01*
X54326000Y27080000D01*
X53274000Y27080000D01*
X53221674Y27101674D01*
X53200000Y27154000D01*
X53200000Y27646000D01*
X53221674Y27698326D01*
X53274000Y27720000D01*
X54326000Y27720000D01*
X54378326Y27698326D01*
G37*
G36*
X37432012Y25308326D02*
G01*
X37453686Y25256000D01*
X37453686Y25024000D01*
X37432012Y24971674D01*
X37379686Y24950000D01*
X36747686Y24950000D01*
X36695360Y24971674D01*
X36673686Y25024000D01*
X36673686Y25256000D01*
X36695360Y25308326D01*
X36747686Y25330000D01*
X37379686Y25330000D01*
X37432012Y25308326D01*
G37*
G36*
X11428326Y37773326D02*
G01*
X11450000Y37721000D01*
X11450000Y37389000D01*
X11428326Y37336674D01*
X11376000Y37315000D01*
X10884000Y37315000D01*
X10831674Y37336674D01*
X10810000Y37389000D01*
X10810000Y37721000D01*
X10831674Y37773326D01*
X10884000Y37795000D01*
X11376000Y37795000D01*
X11428326Y37773326D01*
G37*
G36*
X56198326Y63878326D02*
G01*
X56220000Y63826000D01*
X56220000Y63194000D01*
X56198326Y63141674D01*
X56146000Y63120000D01*
X55814000Y63120000D01*
X55761674Y63141674D01*
X55740000Y63194000D01*
X55740000Y63826000D01*
X55761674Y63878326D01*
X55814000Y63900000D01*
X56146000Y63900000D01*
X56198326Y63878326D01*
G37*
G36*
X102818326Y13558326D02*
G01*
X102840000Y13506000D01*
X102840000Y12874000D01*
X102818326Y12821674D01*
X102766000Y12800000D01*
X102434000Y12800000D01*
X102381674Y12821674D01*
X102360000Y12874000D01*
X102360000Y13506000D01*
X102381674Y13558326D01*
X102434000Y13580000D01*
X102766000Y13580000D01*
X102818326Y13558326D01*
G37*
G36*
X68968326Y28130969D02*
G01*
X68990000Y28078643D01*
X68990000Y27576643D01*
X68968326Y27524317D01*
X68916000Y27502643D01*
X67964000Y27502643D01*
X67911674Y27524317D01*
X67890000Y27576643D01*
X67890000Y28078643D01*
X67911674Y28130969D01*
X67964000Y28152643D01*
X68916000Y28152643D01*
X68968326Y28130969D01*
G37*
G36*
X13808326Y21018326D02*
G01*
X13830000Y20966000D01*
X13830000Y20354000D01*
X13808326Y20301674D01*
X13756000Y20280000D01*
X13424000Y20280000D01*
X13371674Y20301674D01*
X13350000Y20354000D01*
X13350000Y20966000D01*
X13371674Y21018326D01*
X13424000Y21040000D01*
X13756000Y21040000D01*
X13808326Y21018326D01*
G37*
G36*
X74948326Y62688326D02*
G01*
X74970000Y62636000D01*
X74970000Y61674000D01*
X74948326Y61621674D01*
X74896000Y61600000D01*
X74404000Y61600000D01*
X74351674Y61621674D01*
X74330000Y61674000D01*
X74330000Y62636000D01*
X74351674Y62688326D01*
X74404000Y62710000D01*
X74896000Y62710000D01*
X74948326Y62688326D01*
G37*
G36*
X23916262Y60888326D02*
G01*
X23937936Y60836000D01*
X23937936Y60624000D01*
X23916262Y60571674D01*
X23863936Y60550000D01*
X22491936Y60550000D01*
X22439610Y60571674D01*
X22417936Y60624000D01*
X22417936Y60836000D01*
X22439610Y60888326D01*
X22491936Y60910000D01*
X23863936Y60910000D01*
X23916262Y60888326D01*
G37*
G36*
X32718326Y29528326D02*
G01*
X32740000Y29476000D01*
X32740000Y28844000D01*
X32718326Y28791674D01*
X32666000Y28770000D01*
X32334000Y28770000D01*
X32281674Y28791674D01*
X32260000Y28844000D01*
X32260000Y29476000D01*
X32281674Y29528326D01*
X32334000Y29550000D01*
X32666000Y29550000D01*
X32718326Y29528326D01*
G37*
G36*
X63708326Y63368326D02*
G01*
X63730000Y63316000D01*
X63730000Y62984000D01*
X63708326Y62931674D01*
X63656000Y62910000D01*
X63004000Y62910000D01*
X62951674Y62931674D01*
X62930000Y62984000D01*
X62930000Y63316000D01*
X62951674Y63368326D01*
X63004000Y63390000D01*
X63656000Y63390000D01*
X63708326Y63368326D01*
G37*
G36*
X49398326Y12978326D02*
G01*
X49420000Y12926000D01*
X49420000Y12694000D01*
X49398326Y12641674D01*
X49346000Y12620000D01*
X48694000Y12620000D01*
X48641674Y12641674D01*
X48620000Y12694000D01*
X48620000Y12926000D01*
X48641674Y12978326D01*
X48694000Y13000000D01*
X49346000Y13000000D01*
X49398326Y12978326D01*
G37*
G36*
X112528326Y27478326D02*
G01*
X112550000Y27426000D01*
X112550000Y27174000D01*
X112528326Y27121674D01*
X112476000Y27100000D01*
X111714000Y27100000D01*
X111661674Y27121674D01*
X111640000Y27174000D01*
X111640000Y27426000D01*
X111661674Y27478326D01*
X111714000Y27500000D01*
X112476000Y27500000D01*
X112528326Y27478326D01*
G37*
G36*
X11978326Y12233326D02*
G01*
X12000000Y12181000D01*
X12000000Y12129000D01*
X11978326Y12076674D01*
X11926000Y12055000D01*
X11424000Y12055000D01*
X11371674Y12076674D01*
X11350000Y12129000D01*
X11350000Y12181000D01*
X11371674Y12233326D01*
X11424000Y12255000D01*
X11926000Y12255000D01*
X11978326Y12233326D01*
G37*
G36*
X23916262Y49458326D02*
G01*
X23937936Y49406000D01*
X23937936Y49194000D01*
X23916262Y49141674D01*
X23863936Y49120000D01*
X22491936Y49120000D01*
X22439610Y49141674D01*
X22417936Y49194000D01*
X22417936Y49406000D01*
X22439610Y49458326D01*
X22491936Y49480000D01*
X23863936Y49480000D01*
X23916262Y49458326D01*
G37*
G36*
X79768326Y63168326D02*
G01*
X79790000Y63116000D01*
X79790000Y62784000D01*
X79768326Y62731674D01*
X79716000Y62710000D01*
X79084000Y62710000D01*
X79031674Y62731674D01*
X79010000Y62784000D01*
X79010000Y63116000D01*
X79031674Y63168326D01*
X79084000Y63190000D01*
X79716000Y63190000D01*
X79768326Y63168326D01*
G37*
G36*
X41416262Y62158326D02*
G01*
X41437936Y62106000D01*
X41437936Y61894000D01*
X41416262Y61841674D01*
X41363936Y61820000D01*
X39991936Y61820000D01*
X39939610Y61841674D01*
X39917936Y61894000D01*
X39917936Y62106000D01*
X39939610Y62158326D01*
X39991936Y62180000D01*
X41363936Y62180000D01*
X41416262Y62158326D01*
G37*
G36*
X49388326Y11118326D02*
G01*
X49410000Y11066000D01*
X49410000Y10734000D01*
X49388326Y10681674D01*
X49336000Y10660000D01*
X48704000Y10660000D01*
X48651674Y10681674D01*
X48630000Y10734000D01*
X48630000Y11066000D01*
X48651674Y11118326D01*
X48704000Y11140000D01*
X49336000Y11140000D01*
X49388326Y11118326D01*
G37*
G36*
X46618326Y27208326D02*
G01*
X46640000Y27156000D01*
X46640000Y26654000D01*
X46618326Y26601674D01*
X46566000Y26580000D01*
X45554000Y26580000D01*
X45501674Y26601674D01*
X45480000Y26654000D01*
X45480000Y27156000D01*
X45501674Y27208326D01*
X45554000Y27230000D01*
X46566000Y27230000D01*
X46618326Y27208326D01*
G37*
G36*
X41416262Y48188326D02*
G01*
X41437936Y48136000D01*
X41437936Y47924000D01*
X41416262Y47871674D01*
X41363936Y47850000D01*
X39991936Y47850000D01*
X39939610Y47871674D01*
X39917936Y47924000D01*
X39917936Y48136000D01*
X39939610Y48188326D01*
X39991936Y48210000D01*
X41363936Y48210000D01*
X41416262Y48188326D01*
G37*
G36*
X7188326Y10483326D02*
G01*
X7210000Y10431000D01*
X7210000Y10379000D01*
X7188326Y10326674D01*
X7136000Y10305000D01*
X6144000Y10305000D01*
X6091674Y10326674D01*
X6070000Y10379000D01*
X6070000Y10431000D01*
X6091674Y10483326D01*
X6144000Y10505000D01*
X7136000Y10505000D01*
X7188326Y10483326D01*
G37*
M02*
