%TF.GenerationSoftware,KiCad,Pcbnew,9.0.6*%
%TF.CreationDate,2025-11-17T11:06:36+01:00*%
%TF.ProjectId,Plantomatic2000,506c616e-746f-46d6-9174-696332303030,v0.2*%
%TF.SameCoordinates,PX5e82560PY8847b20*%
%TF.FileFunction,Legend,Bot*%
%TF.FilePolarity,Positive*%
%FSLAX46Y46*%
G04 Gerber Fmt 4.6, Leading zero omitted, Abs format (unit mm)*
G04 Created by KiCad (PCBNEW 9.0.6) date 2025-11-17 11:06:36*
%MOMM*%
%LPD*%
G01*
G04 APERTURE LIST*
%ADD10C,0.150000*%
%ADD11C,0.100000*%
%ADD12C,0.000000*%
%ADD13C,0.120000*%
G04 APERTURE END LIST*
D10*
X59091792Y47425420D02*
X59139411Y47377800D01*
X59139411Y47377800D02*
X59282268Y47330181D01*
X59282268Y47330181D02*
X59377506Y47330181D01*
X59377506Y47330181D02*
X59520363Y47377800D01*
X59520363Y47377800D02*
X59615601Y47473039D01*
X59615601Y47473039D02*
X59663220Y47568277D01*
X59663220Y47568277D02*
X59710839Y47758753D01*
X59710839Y47758753D02*
X59710839Y47901610D01*
X59710839Y47901610D02*
X59663220Y48092086D01*
X59663220Y48092086D02*
X59615601Y48187324D01*
X59615601Y48187324D02*
X59520363Y48282562D01*
X59520363Y48282562D02*
X59377506Y48330181D01*
X59377506Y48330181D02*
X59282268Y48330181D01*
X59282268Y48330181D02*
X59139411Y48282562D01*
X59139411Y48282562D02*
X59091792Y48234943D01*
X58091792Y47330181D02*
X58425125Y47806372D01*
X58663220Y47330181D02*
X58663220Y48330181D01*
X58663220Y48330181D02*
X58282268Y48330181D01*
X58282268Y48330181D02*
X58187030Y48282562D01*
X58187030Y48282562D02*
X58139411Y48234943D01*
X58139411Y48234943D02*
X58091792Y48139705D01*
X58091792Y48139705D02*
X58091792Y47996848D01*
X58091792Y47996848D02*
X58139411Y47901610D01*
X58139411Y47901610D02*
X58187030Y47853991D01*
X58187030Y47853991D02*
X58282268Y47806372D01*
X58282268Y47806372D02*
X58663220Y47806372D01*
X57710839Y48234943D02*
X57663220Y48282562D01*
X57663220Y48282562D02*
X57567982Y48330181D01*
X57567982Y48330181D02*
X57329887Y48330181D01*
X57329887Y48330181D02*
X57234649Y48282562D01*
X57234649Y48282562D02*
X57187030Y48234943D01*
X57187030Y48234943D02*
X57139411Y48139705D01*
X57139411Y48139705D02*
X57139411Y48044467D01*
X57139411Y48044467D02*
X57187030Y47901610D01*
X57187030Y47901610D02*
X57758458Y47330181D01*
X57758458Y47330181D02*
X57139411Y47330181D01*
X56520363Y48330181D02*
X56425125Y48330181D01*
X56425125Y48330181D02*
X56329887Y48282562D01*
X56329887Y48282562D02*
X56282268Y48234943D01*
X56282268Y48234943D02*
X56234649Y48139705D01*
X56234649Y48139705D02*
X56187030Y47949229D01*
X56187030Y47949229D02*
X56187030Y47711134D01*
X56187030Y47711134D02*
X56234649Y47520658D01*
X56234649Y47520658D02*
X56282268Y47425420D01*
X56282268Y47425420D02*
X56329887Y47377800D01*
X56329887Y47377800D02*
X56425125Y47330181D01*
X56425125Y47330181D02*
X56520363Y47330181D01*
X56520363Y47330181D02*
X56615601Y47377800D01*
X56615601Y47377800D02*
X56663220Y47425420D01*
X56663220Y47425420D02*
X56710839Y47520658D01*
X56710839Y47520658D02*
X56758458Y47711134D01*
X56758458Y47711134D02*
X56758458Y47949229D01*
X56758458Y47949229D02*
X56710839Y48139705D01*
X56710839Y48139705D02*
X56663220Y48234943D01*
X56663220Y48234943D02*
X56615601Y48282562D01*
X56615601Y48282562D02*
X56520363Y48330181D01*
X55853696Y48330181D02*
X55234649Y48330181D01*
X55234649Y48330181D02*
X55567982Y47949229D01*
X55567982Y47949229D02*
X55425125Y47949229D01*
X55425125Y47949229D02*
X55329887Y47901610D01*
X55329887Y47901610D02*
X55282268Y47853991D01*
X55282268Y47853991D02*
X55234649Y47758753D01*
X55234649Y47758753D02*
X55234649Y47520658D01*
X55234649Y47520658D02*
X55282268Y47425420D01*
X55282268Y47425420D02*
X55329887Y47377800D01*
X55329887Y47377800D02*
X55425125Y47330181D01*
X55425125Y47330181D02*
X55710839Y47330181D01*
X55710839Y47330181D02*
X55806077Y47377800D01*
X55806077Y47377800D02*
X55853696Y47425420D01*
X54853696Y48234943D02*
X54806077Y48282562D01*
X54806077Y48282562D02*
X54710839Y48330181D01*
X54710839Y48330181D02*
X54472744Y48330181D01*
X54472744Y48330181D02*
X54377506Y48282562D01*
X54377506Y48282562D02*
X54329887Y48234943D01*
X54329887Y48234943D02*
X54282268Y48139705D01*
X54282268Y48139705D02*
X54282268Y48044467D01*
X54282268Y48044467D02*
X54329887Y47901610D01*
X54329887Y47901610D02*
X54901315Y47330181D01*
X54901315Y47330181D02*
X54282268Y47330181D01*
X61838866Y65613221D02*
X61838866Y64851316D01*
X62219819Y65232269D02*
X61457914Y65232269D01*
X61219819Y64470364D02*
X61219819Y63851317D01*
X61219819Y63851317D02*
X61600771Y64184650D01*
X61600771Y64184650D02*
X61600771Y64041793D01*
X61600771Y64041793D02*
X61648390Y63946555D01*
X61648390Y63946555D02*
X61696009Y63898936D01*
X61696009Y63898936D02*
X61791247Y63851317D01*
X61791247Y63851317D02*
X62029342Y63851317D01*
X62029342Y63851317D02*
X62124580Y63898936D01*
X62124580Y63898936D02*
X62172200Y63946555D01*
X62172200Y63946555D02*
X62219819Y64041793D01*
X62219819Y64041793D02*
X62219819Y64327507D01*
X62219819Y64327507D02*
X62172200Y64422745D01*
X62172200Y64422745D02*
X62124580Y64470364D01*
X61219819Y63565602D02*
X62219819Y63232269D01*
X62219819Y63232269D02*
X61219819Y62898936D01*
X61219819Y62660840D02*
X61219819Y62041793D01*
X61219819Y62041793D02*
X61600771Y62375126D01*
X61600771Y62375126D02*
X61600771Y62232269D01*
X61600771Y62232269D02*
X61648390Y62137031D01*
X61648390Y62137031D02*
X61696009Y62089412D01*
X61696009Y62089412D02*
X61791247Y62041793D01*
X61791247Y62041793D02*
X62029342Y62041793D01*
X62029342Y62041793D02*
X62124580Y62089412D01*
X62124580Y62089412D02*
X62172200Y62137031D01*
X62172200Y62137031D02*
X62219819Y62232269D01*
X62219819Y62232269D02*
X62219819Y62517983D01*
X62219819Y62517983D02*
X62172200Y62613221D01*
X62172200Y62613221D02*
X62124580Y62660840D01*
X80538866Y65313221D02*
X80538866Y64551316D01*
X80919819Y64932269D02*
X80157914Y64932269D01*
X79919819Y64170364D02*
X79919819Y63551317D01*
X79919819Y63551317D02*
X80300771Y63884650D01*
X80300771Y63884650D02*
X80300771Y63741793D01*
X80300771Y63741793D02*
X80348390Y63646555D01*
X80348390Y63646555D02*
X80396009Y63598936D01*
X80396009Y63598936D02*
X80491247Y63551317D01*
X80491247Y63551317D02*
X80729342Y63551317D01*
X80729342Y63551317D02*
X80824580Y63598936D01*
X80824580Y63598936D02*
X80872200Y63646555D01*
X80872200Y63646555D02*
X80919819Y63741793D01*
X80919819Y63741793D02*
X80919819Y64027507D01*
X80919819Y64027507D02*
X80872200Y64122745D01*
X80872200Y64122745D02*
X80824580Y64170364D01*
X79919819Y63265602D02*
X80919819Y62932269D01*
X80919819Y62932269D02*
X79919819Y62598936D01*
X79919819Y62360840D02*
X79919819Y61741793D01*
X79919819Y61741793D02*
X80300771Y62075126D01*
X80300771Y62075126D02*
X80300771Y61932269D01*
X80300771Y61932269D02*
X80348390Y61837031D01*
X80348390Y61837031D02*
X80396009Y61789412D01*
X80396009Y61789412D02*
X80491247Y61741793D01*
X80491247Y61741793D02*
X80729342Y61741793D01*
X80729342Y61741793D02*
X80824580Y61789412D01*
X80824580Y61789412D02*
X80872200Y61837031D01*
X80872200Y61837031D02*
X80919819Y61932269D01*
X80919819Y61932269D02*
X80919819Y62217983D01*
X80919819Y62217983D02*
X80872200Y62313221D01*
X80872200Y62313221D02*
X80824580Y62360840D01*
X74967438Y64689412D02*
X74919819Y64784650D01*
X74919819Y64784650D02*
X74919819Y64927507D01*
X74919819Y64927507D02*
X74967438Y65070364D01*
X74967438Y65070364D02*
X75062676Y65165602D01*
X75062676Y65165602D02*
X75157914Y65213221D01*
X75157914Y65213221D02*
X75348390Y65260840D01*
X75348390Y65260840D02*
X75491247Y65260840D01*
X75491247Y65260840D02*
X75681723Y65213221D01*
X75681723Y65213221D02*
X75776961Y65165602D01*
X75776961Y65165602D02*
X75872200Y65070364D01*
X75872200Y65070364D02*
X75919819Y64927507D01*
X75919819Y64927507D02*
X75919819Y64832269D01*
X75919819Y64832269D02*
X75872200Y64689412D01*
X75872200Y64689412D02*
X75824580Y64641793D01*
X75824580Y64641793D02*
X75491247Y64641793D01*
X75491247Y64641793D02*
X75491247Y64832269D01*
X75919819Y64213221D02*
X74919819Y64213221D01*
X74919819Y64213221D02*
X75919819Y63641793D01*
X75919819Y63641793D02*
X74919819Y63641793D01*
X75919819Y63165602D02*
X74919819Y63165602D01*
X74919819Y63165602D02*
X74919819Y62927507D01*
X74919819Y62927507D02*
X74967438Y62784650D01*
X74967438Y62784650D02*
X75062676Y62689412D01*
X75062676Y62689412D02*
X75157914Y62641793D01*
X75157914Y62641793D02*
X75348390Y62594174D01*
X75348390Y62594174D02*
X75491247Y62594174D01*
X75491247Y62594174D02*
X75681723Y62641793D01*
X75681723Y62641793D02*
X75776961Y62689412D01*
X75776961Y62689412D02*
X75872200Y62784650D01*
X75872200Y62784650D02*
X75919819Y62927507D01*
X75919819Y62927507D02*
X75919819Y63165602D01*
X72467438Y64689412D02*
X72419819Y64784650D01*
X72419819Y64784650D02*
X72419819Y64927507D01*
X72419819Y64927507D02*
X72467438Y65070364D01*
X72467438Y65070364D02*
X72562676Y65165602D01*
X72562676Y65165602D02*
X72657914Y65213221D01*
X72657914Y65213221D02*
X72848390Y65260840D01*
X72848390Y65260840D02*
X72991247Y65260840D01*
X72991247Y65260840D02*
X73181723Y65213221D01*
X73181723Y65213221D02*
X73276961Y65165602D01*
X73276961Y65165602D02*
X73372200Y65070364D01*
X73372200Y65070364D02*
X73419819Y64927507D01*
X73419819Y64927507D02*
X73419819Y64832269D01*
X73419819Y64832269D02*
X73372200Y64689412D01*
X73372200Y64689412D02*
X73324580Y64641793D01*
X73324580Y64641793D02*
X72991247Y64641793D01*
X72991247Y64641793D02*
X72991247Y64832269D01*
X73419819Y64213221D02*
X72419819Y64213221D01*
X72419819Y64213221D02*
X73419819Y63641793D01*
X73419819Y63641793D02*
X72419819Y63641793D01*
X73419819Y63165602D02*
X72419819Y63165602D01*
X72419819Y63165602D02*
X72419819Y62927507D01*
X72419819Y62927507D02*
X72467438Y62784650D01*
X72467438Y62784650D02*
X72562676Y62689412D01*
X72562676Y62689412D02*
X72657914Y62641793D01*
X72657914Y62641793D02*
X72848390Y62594174D01*
X72848390Y62594174D02*
X72991247Y62594174D01*
X72991247Y62594174D02*
X73181723Y62641793D01*
X73181723Y62641793D02*
X73276961Y62689412D01*
X73276961Y62689412D02*
X73372200Y62784650D01*
X73372200Y62784650D02*
X73419819Y62927507D01*
X73419819Y62927507D02*
X73419819Y63165602D01*
X57022200Y65360840D02*
X57069819Y65217983D01*
X57069819Y65217983D02*
X57069819Y64979888D01*
X57069819Y64979888D02*
X57022200Y64884650D01*
X57022200Y64884650D02*
X56974580Y64837031D01*
X56974580Y64837031D02*
X56879342Y64789412D01*
X56879342Y64789412D02*
X56784104Y64789412D01*
X56784104Y64789412D02*
X56688866Y64837031D01*
X56688866Y64837031D02*
X56641247Y64884650D01*
X56641247Y64884650D02*
X56593628Y64979888D01*
X56593628Y64979888D02*
X56546009Y65170364D01*
X56546009Y65170364D02*
X56498390Y65265602D01*
X56498390Y65265602D02*
X56450771Y65313221D01*
X56450771Y65313221D02*
X56355533Y65360840D01*
X56355533Y65360840D02*
X56260295Y65360840D01*
X56260295Y65360840D02*
X56165057Y65313221D01*
X56165057Y65313221D02*
X56117438Y65265602D01*
X56117438Y65265602D02*
X56069819Y65170364D01*
X56069819Y65170364D02*
X56069819Y64932269D01*
X56069819Y64932269D02*
X56117438Y64789412D01*
X57069819Y64360840D02*
X56069819Y64360840D01*
X56069819Y64360840D02*
X56069819Y64122745D01*
X56069819Y64122745D02*
X56117438Y63979888D01*
X56117438Y63979888D02*
X56212676Y63884650D01*
X56212676Y63884650D02*
X56307914Y63837031D01*
X56307914Y63837031D02*
X56498390Y63789412D01*
X56498390Y63789412D02*
X56641247Y63789412D01*
X56641247Y63789412D02*
X56831723Y63837031D01*
X56831723Y63837031D02*
X56926961Y63884650D01*
X56926961Y63884650D02*
X57022200Y63979888D01*
X57022200Y63979888D02*
X57069819Y64122745D01*
X57069819Y64122745D02*
X57069819Y64360840D01*
X56784104Y63408459D02*
X56784104Y62932269D01*
X57069819Y63503697D02*
X56069819Y63170364D01*
X56069819Y63170364D02*
X57069819Y62837031D01*
X63867438Y64989412D02*
X63819819Y65084650D01*
X63819819Y65084650D02*
X63819819Y65227507D01*
X63819819Y65227507D02*
X63867438Y65370364D01*
X63867438Y65370364D02*
X63962676Y65465602D01*
X63962676Y65465602D02*
X64057914Y65513221D01*
X64057914Y65513221D02*
X64248390Y65560840D01*
X64248390Y65560840D02*
X64391247Y65560840D01*
X64391247Y65560840D02*
X64581723Y65513221D01*
X64581723Y65513221D02*
X64676961Y65465602D01*
X64676961Y65465602D02*
X64772200Y65370364D01*
X64772200Y65370364D02*
X64819819Y65227507D01*
X64819819Y65227507D02*
X64819819Y65132269D01*
X64819819Y65132269D02*
X64772200Y64989412D01*
X64772200Y64989412D02*
X64724580Y64941793D01*
X64724580Y64941793D02*
X64391247Y64941793D01*
X64391247Y64941793D02*
X64391247Y65132269D01*
X64819819Y64513221D02*
X63819819Y64513221D01*
X63819819Y64513221D02*
X64819819Y63941793D01*
X64819819Y63941793D02*
X63819819Y63941793D01*
X64819819Y63465602D02*
X63819819Y63465602D01*
X63819819Y63465602D02*
X63819819Y63227507D01*
X63819819Y63227507D02*
X63867438Y63084650D01*
X63867438Y63084650D02*
X63962676Y62989412D01*
X63962676Y62989412D02*
X64057914Y62941793D01*
X64057914Y62941793D02*
X64248390Y62894174D01*
X64248390Y62894174D02*
X64391247Y62894174D01*
X64391247Y62894174D02*
X64581723Y62941793D01*
X64581723Y62941793D02*
X64676961Y62989412D01*
X64676961Y62989412D02*
X64772200Y63084650D01*
X64772200Y63084650D02*
X64819819Y63227507D01*
X64819819Y63227507D02*
X64819819Y63465602D01*
D11*
X89336115Y3607581D02*
X89336115Y4607581D01*
X89336115Y4607581D02*
X88955163Y4607581D01*
X88955163Y4607581D02*
X88859925Y4559962D01*
X88859925Y4559962D02*
X88812306Y4512343D01*
X88812306Y4512343D02*
X88764687Y4417105D01*
X88764687Y4417105D02*
X88764687Y4274248D01*
X88764687Y4274248D02*
X88812306Y4179010D01*
X88812306Y4179010D02*
X88859925Y4131391D01*
X88859925Y4131391D02*
X88955163Y4083772D01*
X88955163Y4083772D02*
X89336115Y4083772D01*
X88193258Y3607581D02*
X88288496Y3655200D01*
X88288496Y3655200D02*
X88336115Y3750439D01*
X88336115Y3750439D02*
X88336115Y4607581D01*
X87383734Y3607581D02*
X87383734Y4131391D01*
X87383734Y4131391D02*
X87431353Y4226629D01*
X87431353Y4226629D02*
X87526591Y4274248D01*
X87526591Y4274248D02*
X87717067Y4274248D01*
X87717067Y4274248D02*
X87812305Y4226629D01*
X87383734Y3655200D02*
X87478972Y3607581D01*
X87478972Y3607581D02*
X87717067Y3607581D01*
X87717067Y3607581D02*
X87812305Y3655200D01*
X87812305Y3655200D02*
X87859924Y3750439D01*
X87859924Y3750439D02*
X87859924Y3845677D01*
X87859924Y3845677D02*
X87812305Y3940915D01*
X87812305Y3940915D02*
X87717067Y3988534D01*
X87717067Y3988534D02*
X87478972Y3988534D01*
X87478972Y3988534D02*
X87383734Y4036153D01*
X86907543Y4274248D02*
X86907543Y3607581D01*
X86907543Y4179010D02*
X86859924Y4226629D01*
X86859924Y4226629D02*
X86764686Y4274248D01*
X86764686Y4274248D02*
X86621829Y4274248D01*
X86621829Y4274248D02*
X86526591Y4226629D01*
X86526591Y4226629D02*
X86478972Y4131391D01*
X86478972Y4131391D02*
X86478972Y3607581D01*
X86145638Y4274248D02*
X85764686Y4274248D01*
X86002781Y4607581D02*
X86002781Y3750439D01*
X86002781Y3750439D02*
X85955162Y3655200D01*
X85955162Y3655200D02*
X85859924Y3607581D01*
X85859924Y3607581D02*
X85764686Y3607581D01*
X85288495Y3607581D02*
X85383733Y3655200D01*
X85383733Y3655200D02*
X85431352Y3702820D01*
X85431352Y3702820D02*
X85478971Y3798058D01*
X85478971Y3798058D02*
X85478971Y4083772D01*
X85478971Y4083772D02*
X85431352Y4179010D01*
X85431352Y4179010D02*
X85383733Y4226629D01*
X85383733Y4226629D02*
X85288495Y4274248D01*
X85288495Y4274248D02*
X85145638Y4274248D01*
X85145638Y4274248D02*
X85050400Y4226629D01*
X85050400Y4226629D02*
X85002781Y4179010D01*
X85002781Y4179010D02*
X84955162Y4083772D01*
X84955162Y4083772D02*
X84955162Y3798058D01*
X84955162Y3798058D02*
X85002781Y3702820D01*
X85002781Y3702820D02*
X85050400Y3655200D01*
X85050400Y3655200D02*
X85145638Y3607581D01*
X85145638Y3607581D02*
X85288495Y3607581D01*
X84526590Y3607581D02*
X84526590Y4274248D01*
X84526590Y4179010D02*
X84478971Y4226629D01*
X84478971Y4226629D02*
X84383733Y4274248D01*
X84383733Y4274248D02*
X84240876Y4274248D01*
X84240876Y4274248D02*
X84145638Y4226629D01*
X84145638Y4226629D02*
X84098019Y4131391D01*
X84098019Y4131391D02*
X84098019Y3607581D01*
X84098019Y4131391D02*
X84050400Y4226629D01*
X84050400Y4226629D02*
X83955162Y4274248D01*
X83955162Y4274248D02*
X83812305Y4274248D01*
X83812305Y4274248D02*
X83717066Y4226629D01*
X83717066Y4226629D02*
X83669447Y4131391D01*
X83669447Y4131391D02*
X83669447Y3607581D01*
X82764686Y3607581D02*
X82764686Y4131391D01*
X82764686Y4131391D02*
X82812305Y4226629D01*
X82812305Y4226629D02*
X82907543Y4274248D01*
X82907543Y4274248D02*
X83098019Y4274248D01*
X83098019Y4274248D02*
X83193257Y4226629D01*
X82764686Y3655200D02*
X82859924Y3607581D01*
X82859924Y3607581D02*
X83098019Y3607581D01*
X83098019Y3607581D02*
X83193257Y3655200D01*
X83193257Y3655200D02*
X83240876Y3750439D01*
X83240876Y3750439D02*
X83240876Y3845677D01*
X83240876Y3845677D02*
X83193257Y3940915D01*
X83193257Y3940915D02*
X83098019Y3988534D01*
X83098019Y3988534D02*
X82859924Y3988534D01*
X82859924Y3988534D02*
X82764686Y4036153D01*
X82431352Y4274248D02*
X82050400Y4274248D01*
X82288495Y4607581D02*
X82288495Y3750439D01*
X82288495Y3750439D02*
X82240876Y3655200D01*
X82240876Y3655200D02*
X82145638Y3607581D01*
X82145638Y3607581D02*
X82050400Y3607581D01*
X81717066Y3607581D02*
X81717066Y4274248D01*
X81717066Y4607581D02*
X81764685Y4559962D01*
X81764685Y4559962D02*
X81717066Y4512343D01*
X81717066Y4512343D02*
X81669447Y4559962D01*
X81669447Y4559962D02*
X81717066Y4607581D01*
X81717066Y4607581D02*
X81717066Y4512343D01*
X80812305Y3655200D02*
X80907543Y3607581D01*
X80907543Y3607581D02*
X81098019Y3607581D01*
X81098019Y3607581D02*
X81193257Y3655200D01*
X81193257Y3655200D02*
X81240876Y3702820D01*
X81240876Y3702820D02*
X81288495Y3798058D01*
X81288495Y3798058D02*
X81288495Y4083772D01*
X81288495Y4083772D02*
X81240876Y4179010D01*
X81240876Y4179010D02*
X81193257Y4226629D01*
X81193257Y4226629D02*
X81098019Y4274248D01*
X81098019Y4274248D02*
X80907543Y4274248D01*
X80907543Y4274248D02*
X80812305Y4226629D01*
X79717066Y4274248D02*
X79478971Y3607581D01*
X79478971Y3607581D02*
X79240876Y4274248D01*
X78669447Y4607581D02*
X78574209Y4607581D01*
X78574209Y4607581D02*
X78478971Y4559962D01*
X78478971Y4559962D02*
X78431352Y4512343D01*
X78431352Y4512343D02*
X78383733Y4417105D01*
X78383733Y4417105D02*
X78336114Y4226629D01*
X78336114Y4226629D02*
X78336114Y3988534D01*
X78336114Y3988534D02*
X78383733Y3798058D01*
X78383733Y3798058D02*
X78431352Y3702820D01*
X78431352Y3702820D02*
X78478971Y3655200D01*
X78478971Y3655200D02*
X78574209Y3607581D01*
X78574209Y3607581D02*
X78669447Y3607581D01*
X78669447Y3607581D02*
X78764685Y3655200D01*
X78764685Y3655200D02*
X78812304Y3702820D01*
X78812304Y3702820D02*
X78859923Y3798058D01*
X78859923Y3798058D02*
X78907542Y3988534D01*
X78907542Y3988534D02*
X78907542Y4226629D01*
X78907542Y4226629D02*
X78859923Y4417105D01*
X78859923Y4417105D02*
X78812304Y4512343D01*
X78812304Y4512343D02*
X78764685Y4559962D01*
X78764685Y4559962D02*
X78669447Y4607581D01*
X77907542Y3702820D02*
X77859923Y3655200D01*
X77859923Y3655200D02*
X77907542Y3607581D01*
X77907542Y3607581D02*
X77955161Y3655200D01*
X77955161Y3655200D02*
X77907542Y3702820D01*
X77907542Y3702820D02*
X77907542Y3607581D01*
X77478971Y4512343D02*
X77431352Y4559962D01*
X77431352Y4559962D02*
X77336114Y4607581D01*
X77336114Y4607581D02*
X77098019Y4607581D01*
X77098019Y4607581D02*
X77002781Y4559962D01*
X77002781Y4559962D02*
X76955162Y4512343D01*
X76955162Y4512343D02*
X76907543Y4417105D01*
X76907543Y4417105D02*
X76907543Y4321867D01*
X76907543Y4321867D02*
X76955162Y4179010D01*
X76955162Y4179010D02*
X77526590Y3607581D01*
X77526590Y3607581D02*
X76907543Y3607581D01*
X75764685Y4512343D02*
X75717066Y4559962D01*
X75717066Y4559962D02*
X75621828Y4607581D01*
X75621828Y4607581D02*
X75383733Y4607581D01*
X75383733Y4607581D02*
X75288495Y4559962D01*
X75288495Y4559962D02*
X75240876Y4512343D01*
X75240876Y4512343D02*
X75193257Y4417105D01*
X75193257Y4417105D02*
X75193257Y4321867D01*
X75193257Y4321867D02*
X75240876Y4179010D01*
X75240876Y4179010D02*
X75812304Y3607581D01*
X75812304Y3607581D02*
X75193257Y3607581D01*
X74574209Y4607581D02*
X74478971Y4607581D01*
X74478971Y4607581D02*
X74383733Y4559962D01*
X74383733Y4559962D02*
X74336114Y4512343D01*
X74336114Y4512343D02*
X74288495Y4417105D01*
X74288495Y4417105D02*
X74240876Y4226629D01*
X74240876Y4226629D02*
X74240876Y3988534D01*
X74240876Y3988534D02*
X74288495Y3798058D01*
X74288495Y3798058D02*
X74336114Y3702820D01*
X74336114Y3702820D02*
X74383733Y3655200D01*
X74383733Y3655200D02*
X74478971Y3607581D01*
X74478971Y3607581D02*
X74574209Y3607581D01*
X74574209Y3607581D02*
X74669447Y3655200D01*
X74669447Y3655200D02*
X74717066Y3702820D01*
X74717066Y3702820D02*
X74764685Y3798058D01*
X74764685Y3798058D02*
X74812304Y3988534D01*
X74812304Y3988534D02*
X74812304Y4226629D01*
X74812304Y4226629D02*
X74764685Y4417105D01*
X74764685Y4417105D02*
X74717066Y4512343D01*
X74717066Y4512343D02*
X74669447Y4559962D01*
X74669447Y4559962D02*
X74574209Y4607581D01*
X73859923Y4512343D02*
X73812304Y4559962D01*
X73812304Y4559962D02*
X73717066Y4607581D01*
X73717066Y4607581D02*
X73478971Y4607581D01*
X73478971Y4607581D02*
X73383733Y4559962D01*
X73383733Y4559962D02*
X73336114Y4512343D01*
X73336114Y4512343D02*
X73288495Y4417105D01*
X73288495Y4417105D02*
X73288495Y4321867D01*
X73288495Y4321867D02*
X73336114Y4179010D01*
X73336114Y4179010D02*
X73907542Y3607581D01*
X73907542Y3607581D02*
X73288495Y3607581D01*
X72383733Y4607581D02*
X72859923Y4607581D01*
X72859923Y4607581D02*
X72907542Y4131391D01*
X72907542Y4131391D02*
X72859923Y4179010D01*
X72859923Y4179010D02*
X72764685Y4226629D01*
X72764685Y4226629D02*
X72526590Y4226629D01*
X72526590Y4226629D02*
X72431352Y4179010D01*
X72431352Y4179010D02*
X72383733Y4131391D01*
X72383733Y4131391D02*
X72336114Y4036153D01*
X72336114Y4036153D02*
X72336114Y3798058D01*
X72336114Y3798058D02*
X72383733Y3702820D01*
X72383733Y3702820D02*
X72431352Y3655200D01*
X72431352Y3655200D02*
X72526590Y3607581D01*
X72526590Y3607581D02*
X72764685Y3607581D01*
X72764685Y3607581D02*
X72859923Y3655200D01*
X72859923Y3655200D02*
X72907542Y3702820D01*
X71383733Y3607581D02*
X71955161Y3607581D01*
X71669447Y3607581D02*
X71669447Y4607581D01*
X71669447Y4607581D02*
X71764685Y4464724D01*
X71764685Y4464724D02*
X71859923Y4369486D01*
X71859923Y4369486D02*
X71955161Y4321867D01*
X70431352Y3607581D02*
X71002780Y3607581D01*
X70717066Y3607581D02*
X70717066Y4607581D01*
X70717066Y4607581D02*
X70812304Y4464724D01*
X70812304Y4464724D02*
X70907542Y4369486D01*
X70907542Y4369486D02*
X71002780Y4321867D01*
X69478971Y3607581D02*
X70050399Y3607581D01*
X69764685Y3607581D02*
X69764685Y4607581D01*
X69764685Y4607581D02*
X69859923Y4464724D01*
X69859923Y4464724D02*
X69955161Y4369486D01*
X69955161Y4369486D02*
X70050399Y4321867D01*
X68621828Y4607581D02*
X68812304Y4607581D01*
X68812304Y4607581D02*
X68907542Y4559962D01*
X68907542Y4559962D02*
X68955161Y4512343D01*
X68955161Y4512343D02*
X69050399Y4369486D01*
X69050399Y4369486D02*
X69098018Y4179010D01*
X69098018Y4179010D02*
X69098018Y3798058D01*
X69098018Y3798058D02*
X69050399Y3702820D01*
X69050399Y3702820D02*
X69002780Y3655200D01*
X69002780Y3655200D02*
X68907542Y3607581D01*
X68907542Y3607581D02*
X68717066Y3607581D01*
X68717066Y3607581D02*
X68621828Y3655200D01*
X68621828Y3655200D02*
X68574209Y3702820D01*
X68574209Y3702820D02*
X68526590Y3798058D01*
X68526590Y3798058D02*
X68526590Y4036153D01*
X68526590Y4036153D02*
X68574209Y4131391D01*
X68574209Y4131391D02*
X68621828Y4179010D01*
X68621828Y4179010D02*
X68717066Y4226629D01*
X68717066Y4226629D02*
X68907542Y4226629D01*
X68907542Y4226629D02*
X69002780Y4179010D01*
X69002780Y4179010D02*
X69050399Y4131391D01*
X69050399Y4131391D02*
X69098018Y4036153D01*
D10*
X59722200Y65310840D02*
X59769819Y65167983D01*
X59769819Y65167983D02*
X59769819Y64929888D01*
X59769819Y64929888D02*
X59722200Y64834650D01*
X59722200Y64834650D02*
X59674580Y64787031D01*
X59674580Y64787031D02*
X59579342Y64739412D01*
X59579342Y64739412D02*
X59484104Y64739412D01*
X59484104Y64739412D02*
X59388866Y64787031D01*
X59388866Y64787031D02*
X59341247Y64834650D01*
X59341247Y64834650D02*
X59293628Y64929888D01*
X59293628Y64929888D02*
X59246009Y65120364D01*
X59246009Y65120364D02*
X59198390Y65215602D01*
X59198390Y65215602D02*
X59150771Y65263221D01*
X59150771Y65263221D02*
X59055533Y65310840D01*
X59055533Y65310840D02*
X58960295Y65310840D01*
X58960295Y65310840D02*
X58865057Y65263221D01*
X58865057Y65263221D02*
X58817438Y65215602D01*
X58817438Y65215602D02*
X58769819Y65120364D01*
X58769819Y65120364D02*
X58769819Y64882269D01*
X58769819Y64882269D02*
X58817438Y64739412D01*
X59674580Y63739412D02*
X59722200Y63787031D01*
X59722200Y63787031D02*
X59769819Y63929888D01*
X59769819Y63929888D02*
X59769819Y64025126D01*
X59769819Y64025126D02*
X59722200Y64167983D01*
X59722200Y64167983D02*
X59626961Y64263221D01*
X59626961Y64263221D02*
X59531723Y64310840D01*
X59531723Y64310840D02*
X59341247Y64358459D01*
X59341247Y64358459D02*
X59198390Y64358459D01*
X59198390Y64358459D02*
X59007914Y64310840D01*
X59007914Y64310840D02*
X58912676Y64263221D01*
X58912676Y64263221D02*
X58817438Y64167983D01*
X58817438Y64167983D02*
X58769819Y64025126D01*
X58769819Y64025126D02*
X58769819Y63929888D01*
X58769819Y63929888D02*
X58817438Y63787031D01*
X58817438Y63787031D02*
X58865057Y63739412D01*
X59769819Y62834650D02*
X59769819Y63310840D01*
X59769819Y63310840D02*
X58769819Y63310840D01*
X45863220Y56061134D02*
X45101316Y56061134D01*
X45482268Y55680181D02*
X45482268Y56442086D01*
X44767982Y56680181D02*
X44434649Y55680181D01*
X44434649Y55680181D02*
X44101316Y56680181D01*
X43434649Y56203991D02*
X43291792Y56156372D01*
X43291792Y56156372D02*
X43244173Y56108753D01*
X43244173Y56108753D02*
X43196554Y56013515D01*
X43196554Y56013515D02*
X43196554Y55870658D01*
X43196554Y55870658D02*
X43244173Y55775420D01*
X43244173Y55775420D02*
X43291792Y55727800D01*
X43291792Y55727800D02*
X43387030Y55680181D01*
X43387030Y55680181D02*
X43767982Y55680181D01*
X43767982Y55680181D02*
X43767982Y56680181D01*
X43767982Y56680181D02*
X43434649Y56680181D01*
X43434649Y56680181D02*
X43339411Y56632562D01*
X43339411Y56632562D02*
X43291792Y56584943D01*
X43291792Y56584943D02*
X43244173Y56489705D01*
X43244173Y56489705D02*
X43244173Y56394467D01*
X43244173Y56394467D02*
X43291792Y56299229D01*
X43291792Y56299229D02*
X43339411Y56251610D01*
X43339411Y56251610D02*
X43434649Y56203991D01*
X43434649Y56203991D02*
X43767982Y56203991D01*
X42815601Y55965896D02*
X42339411Y55965896D01*
X42910839Y55680181D02*
X42577506Y56680181D01*
X42577506Y56680181D02*
X42244173Y55680181D01*
X42053696Y56680181D02*
X41482268Y56680181D01*
X41767982Y55680181D02*
X41767982Y56680181D01*
X103363220Y54099509D02*
X103363220Y55099509D01*
X102696554Y55099509D02*
X102506078Y55099509D01*
X102506078Y55099509D02*
X102410840Y55051890D01*
X102410840Y55051890D02*
X102315602Y54956652D01*
X102315602Y54956652D02*
X102267983Y54766176D01*
X102267983Y54766176D02*
X102267983Y54432843D01*
X102267983Y54432843D02*
X102315602Y54242367D01*
X102315602Y54242367D02*
X102410840Y54147128D01*
X102410840Y54147128D02*
X102506078Y54099509D01*
X102506078Y54099509D02*
X102696554Y54099509D01*
X102696554Y54099509D02*
X102791792Y54147128D01*
X102791792Y54147128D02*
X102887030Y54242367D01*
X102887030Y54242367D02*
X102934649Y54432843D01*
X102934649Y54432843D02*
X102934649Y54766176D01*
X102934649Y54766176D02*
X102887030Y54956652D01*
X102887030Y54956652D02*
X102791792Y55051890D01*
X102791792Y55051890D02*
X102696554Y55099509D01*
X101887030Y55004271D02*
X101839411Y55051890D01*
X101839411Y55051890D02*
X101744173Y55099509D01*
X101744173Y55099509D02*
X101506078Y55099509D01*
X101506078Y55099509D02*
X101410840Y55051890D01*
X101410840Y55051890D02*
X101363221Y55004271D01*
X101363221Y55004271D02*
X101315602Y54909033D01*
X101315602Y54909033D02*
X101315602Y54813795D01*
X101315602Y54813795D02*
X101363221Y54670938D01*
X101363221Y54670938D02*
X101934649Y54099509D01*
X101934649Y54099509D02*
X101315602Y54099509D01*
X100887030Y54194748D02*
X100839411Y54147128D01*
X100839411Y54147128D02*
X100887030Y54099509D01*
X100887030Y54099509D02*
X100934649Y54147128D01*
X100934649Y54147128D02*
X100887030Y54194748D01*
X100887030Y54194748D02*
X100887030Y54099509D01*
X100887030Y54718557D02*
X100839411Y54670938D01*
X100839411Y54670938D02*
X100887030Y54623319D01*
X100887030Y54623319D02*
X100934649Y54670938D01*
X100934649Y54670938D02*
X100887030Y54718557D01*
X100887030Y54718557D02*
X100887030Y54623319D01*
X99315602Y54623319D02*
X99172745Y54575700D01*
X99172745Y54575700D02*
X99125126Y54528081D01*
X99125126Y54528081D02*
X99077507Y54432843D01*
X99077507Y54432843D02*
X99077507Y54289986D01*
X99077507Y54289986D02*
X99125126Y54194748D01*
X99125126Y54194748D02*
X99172745Y54147128D01*
X99172745Y54147128D02*
X99267983Y54099509D01*
X99267983Y54099509D02*
X99648935Y54099509D01*
X99648935Y54099509D02*
X99648935Y55099509D01*
X99648935Y55099509D02*
X99315602Y55099509D01*
X99315602Y55099509D02*
X99220364Y55051890D01*
X99220364Y55051890D02*
X99172745Y55004271D01*
X99172745Y55004271D02*
X99125126Y54909033D01*
X99125126Y54909033D02*
X99125126Y54813795D01*
X99125126Y54813795D02*
X99172745Y54718557D01*
X99172745Y54718557D02*
X99220364Y54670938D01*
X99220364Y54670938D02*
X99315602Y54623319D01*
X99315602Y54623319D02*
X99648935Y54623319D01*
X98458459Y55099509D02*
X98267983Y55099509D01*
X98267983Y55099509D02*
X98172745Y55051890D01*
X98172745Y55051890D02*
X98077507Y54956652D01*
X98077507Y54956652D02*
X98029888Y54766176D01*
X98029888Y54766176D02*
X98029888Y54432843D01*
X98029888Y54432843D02*
X98077507Y54242367D01*
X98077507Y54242367D02*
X98172745Y54147128D01*
X98172745Y54147128D02*
X98267983Y54099509D01*
X98267983Y54099509D02*
X98458459Y54099509D01*
X98458459Y54099509D02*
X98553697Y54147128D01*
X98553697Y54147128D02*
X98648935Y54242367D01*
X98648935Y54242367D02*
X98696554Y54432843D01*
X98696554Y54432843D02*
X98696554Y54766176D01*
X98696554Y54766176D02*
X98648935Y54956652D01*
X98648935Y54956652D02*
X98553697Y55051890D01*
X98553697Y55051890D02*
X98458459Y55099509D01*
X97410840Y55099509D02*
X97220364Y55099509D01*
X97220364Y55099509D02*
X97125126Y55051890D01*
X97125126Y55051890D02*
X97029888Y54956652D01*
X97029888Y54956652D02*
X96982269Y54766176D01*
X96982269Y54766176D02*
X96982269Y54432843D01*
X96982269Y54432843D02*
X97029888Y54242367D01*
X97029888Y54242367D02*
X97125126Y54147128D01*
X97125126Y54147128D02*
X97220364Y54099509D01*
X97220364Y54099509D02*
X97410840Y54099509D01*
X97410840Y54099509D02*
X97506078Y54147128D01*
X97506078Y54147128D02*
X97601316Y54242367D01*
X97601316Y54242367D02*
X97648935Y54432843D01*
X97648935Y54432843D02*
X97648935Y54766176D01*
X97648935Y54766176D02*
X97601316Y54956652D01*
X97601316Y54956652D02*
X97506078Y55051890D01*
X97506078Y55051890D02*
X97410840Y55099509D01*
X96601316Y54147128D02*
X96458459Y54099509D01*
X96458459Y54099509D02*
X96220364Y54099509D01*
X96220364Y54099509D02*
X96125126Y54147128D01*
X96125126Y54147128D02*
X96077507Y54194748D01*
X96077507Y54194748D02*
X96029888Y54289986D01*
X96029888Y54289986D02*
X96029888Y54385224D01*
X96029888Y54385224D02*
X96077507Y54480462D01*
X96077507Y54480462D02*
X96125126Y54528081D01*
X96125126Y54528081D02*
X96220364Y54575700D01*
X96220364Y54575700D02*
X96410840Y54623319D01*
X96410840Y54623319D02*
X96506078Y54670938D01*
X96506078Y54670938D02*
X96553697Y54718557D01*
X96553697Y54718557D02*
X96601316Y54813795D01*
X96601316Y54813795D02*
X96601316Y54909033D01*
X96601316Y54909033D02*
X96553697Y55004271D01*
X96553697Y55004271D02*
X96506078Y55051890D01*
X96506078Y55051890D02*
X96410840Y55099509D01*
X96410840Y55099509D02*
X96172745Y55099509D01*
X96172745Y55099509D02*
X96029888Y55051890D01*
X95744173Y55099509D02*
X95172745Y55099509D01*
X95458459Y54099509D02*
X95458459Y55099509D01*
X95077507Y54004271D02*
X94315602Y54004271D01*
X94077506Y54623319D02*
X93744173Y54623319D01*
X93601316Y54099509D02*
X94077506Y54099509D01*
X94077506Y54099509D02*
X94077506Y55099509D01*
X94077506Y55099509D02*
X93601316Y55099509D01*
X93172744Y54099509D02*
X93172744Y55099509D01*
X93172744Y55099509D02*
X92601316Y54099509D01*
X92601316Y54099509D02*
X92601316Y55099509D01*
X92172744Y54385224D02*
X91696554Y54385224D01*
X92267982Y54099509D02*
X91934649Y55099509D01*
X91934649Y55099509D02*
X91601316Y54099509D01*
X90934649Y54623319D02*
X90791792Y54575700D01*
X90791792Y54575700D02*
X90744173Y54528081D01*
X90744173Y54528081D02*
X90696554Y54432843D01*
X90696554Y54432843D02*
X90696554Y54289986D01*
X90696554Y54289986D02*
X90744173Y54194748D01*
X90744173Y54194748D02*
X90791792Y54147128D01*
X90791792Y54147128D02*
X90887030Y54099509D01*
X90887030Y54099509D02*
X91267982Y54099509D01*
X91267982Y54099509D02*
X91267982Y55099509D01*
X91267982Y55099509D02*
X90934649Y55099509D01*
X90934649Y55099509D02*
X90839411Y55051890D01*
X90839411Y55051890D02*
X90791792Y55004271D01*
X90791792Y55004271D02*
X90744173Y54909033D01*
X90744173Y54909033D02*
X90744173Y54813795D01*
X90744173Y54813795D02*
X90791792Y54718557D01*
X90791792Y54718557D02*
X90839411Y54670938D01*
X90839411Y54670938D02*
X90934649Y54623319D01*
X90934649Y54623319D02*
X91267982Y54623319D01*
X89791792Y54099509D02*
X90267982Y54099509D01*
X90267982Y54099509D02*
X90267982Y55099509D01*
X89458458Y54623319D02*
X89125125Y54623319D01*
X88982268Y54099509D02*
X89458458Y54099509D01*
X89458458Y54099509D02*
X89458458Y55099509D01*
X89458458Y55099509D02*
X88982268Y55099509D01*
X103363220Y52489565D02*
X103363220Y53489565D01*
X102696554Y53489565D02*
X102506078Y53489565D01*
X102506078Y53489565D02*
X102410840Y53441946D01*
X102410840Y53441946D02*
X102315602Y53346708D01*
X102315602Y53346708D02*
X102267983Y53156232D01*
X102267983Y53156232D02*
X102267983Y52822899D01*
X102267983Y52822899D02*
X102315602Y52632423D01*
X102315602Y52632423D02*
X102410840Y52537184D01*
X102410840Y52537184D02*
X102506078Y52489565D01*
X102506078Y52489565D02*
X102696554Y52489565D01*
X102696554Y52489565D02*
X102791792Y52537184D01*
X102791792Y52537184D02*
X102887030Y52632423D01*
X102887030Y52632423D02*
X102934649Y52822899D01*
X102934649Y52822899D02*
X102934649Y53156232D01*
X102934649Y53156232D02*
X102887030Y53346708D01*
X102887030Y53346708D02*
X102791792Y53441946D01*
X102791792Y53441946D02*
X102696554Y53489565D01*
X101410840Y53156232D02*
X101410840Y52489565D01*
X101648935Y53537184D02*
X101887030Y52822899D01*
X101887030Y52822899D02*
X101267983Y52822899D01*
X100887030Y52584804D02*
X100839411Y52537184D01*
X100839411Y52537184D02*
X100887030Y52489565D01*
X100887030Y52489565D02*
X100934649Y52537184D01*
X100934649Y52537184D02*
X100887030Y52584804D01*
X100887030Y52584804D02*
X100887030Y52489565D01*
X100887030Y53108613D02*
X100839411Y53060994D01*
X100839411Y53060994D02*
X100887030Y53013375D01*
X100887030Y53013375D02*
X100934649Y53060994D01*
X100934649Y53060994D02*
X100887030Y53108613D01*
X100887030Y53108613D02*
X100887030Y53013375D01*
X99744173Y53489565D02*
X99506078Y52489565D01*
X99506078Y52489565D02*
X99315602Y53203851D01*
X99315602Y53203851D02*
X99125126Y52489565D01*
X99125126Y52489565D02*
X98887031Y53489565D01*
X98553697Y52775280D02*
X98077507Y52775280D01*
X98648935Y52489565D02*
X98315602Y53489565D01*
X98315602Y53489565D02*
X97982269Y52489565D01*
X97648935Y52489565D02*
X97648935Y53489565D01*
X97077507Y52489565D02*
X97506078Y53060994D01*
X97077507Y53489565D02*
X97648935Y52918137D01*
X96648935Y53013375D02*
X96315602Y53013375D01*
X96172745Y52489565D02*
X96648935Y52489565D01*
X96648935Y52489565D02*
X96648935Y53489565D01*
X96648935Y53489565D02*
X96172745Y53489565D01*
X95982269Y52394327D02*
X95220364Y52394327D01*
X95029887Y52537184D02*
X94887030Y52489565D01*
X94887030Y52489565D02*
X94648935Y52489565D01*
X94648935Y52489565D02*
X94553697Y52537184D01*
X94553697Y52537184D02*
X94506078Y52584804D01*
X94506078Y52584804D02*
X94458459Y52680042D01*
X94458459Y52680042D02*
X94458459Y52775280D01*
X94458459Y52775280D02*
X94506078Y52870518D01*
X94506078Y52870518D02*
X94553697Y52918137D01*
X94553697Y52918137D02*
X94648935Y52965756D01*
X94648935Y52965756D02*
X94839411Y53013375D01*
X94839411Y53013375D02*
X94934649Y53060994D01*
X94934649Y53060994D02*
X94982268Y53108613D01*
X94982268Y53108613D02*
X95029887Y53203851D01*
X95029887Y53203851D02*
X95029887Y53299089D01*
X95029887Y53299089D02*
X94982268Y53394327D01*
X94982268Y53394327D02*
X94934649Y53441946D01*
X94934649Y53441946D02*
X94839411Y53489565D01*
X94839411Y53489565D02*
X94601316Y53489565D01*
X94601316Y53489565D02*
X94458459Y53441946D01*
X93553697Y52489565D02*
X94029887Y52489565D01*
X94029887Y52489565D02*
X94029887Y53489565D01*
X93220363Y53013375D02*
X92887030Y53013375D01*
X92744173Y52489565D02*
X93220363Y52489565D01*
X93220363Y52489565D02*
X93220363Y53489565D01*
X93220363Y53489565D02*
X92744173Y53489565D01*
X92315601Y53013375D02*
X91982268Y53013375D01*
X91839411Y52489565D02*
X92315601Y52489565D01*
X92315601Y52489565D02*
X92315601Y53489565D01*
X92315601Y53489565D02*
X91839411Y53489565D01*
X91410839Y52489565D02*
X91410839Y53489565D01*
X91410839Y53489565D02*
X91029887Y53489565D01*
X91029887Y53489565D02*
X90934649Y53441946D01*
X90934649Y53441946D02*
X90887030Y53394327D01*
X90887030Y53394327D02*
X90839411Y53299089D01*
X90839411Y53299089D02*
X90839411Y53156232D01*
X90839411Y53156232D02*
X90887030Y53060994D01*
X90887030Y53060994D02*
X90934649Y53013375D01*
X90934649Y53013375D02*
X91029887Y52965756D01*
X91029887Y52965756D02*
X91410839Y52965756D01*
X103363220Y50879621D02*
X103363220Y51879621D01*
X102696554Y51879621D02*
X102506078Y51879621D01*
X102506078Y51879621D02*
X102410840Y51832002D01*
X102410840Y51832002D02*
X102315602Y51736764D01*
X102315602Y51736764D02*
X102267983Y51546288D01*
X102267983Y51546288D02*
X102267983Y51212955D01*
X102267983Y51212955D02*
X102315602Y51022479D01*
X102315602Y51022479D02*
X102410840Y50927240D01*
X102410840Y50927240D02*
X102506078Y50879621D01*
X102506078Y50879621D02*
X102696554Y50879621D01*
X102696554Y50879621D02*
X102791792Y50927240D01*
X102791792Y50927240D02*
X102887030Y51022479D01*
X102887030Y51022479D02*
X102934649Y51212955D01*
X102934649Y51212955D02*
X102934649Y51546288D01*
X102934649Y51546288D02*
X102887030Y51736764D01*
X102887030Y51736764D02*
X102791792Y51832002D01*
X102791792Y51832002D02*
X102696554Y51879621D01*
X101363221Y51879621D02*
X101839411Y51879621D01*
X101839411Y51879621D02*
X101887030Y51403431D01*
X101887030Y51403431D02*
X101839411Y51451050D01*
X101839411Y51451050D02*
X101744173Y51498669D01*
X101744173Y51498669D02*
X101506078Y51498669D01*
X101506078Y51498669D02*
X101410840Y51451050D01*
X101410840Y51451050D02*
X101363221Y51403431D01*
X101363221Y51403431D02*
X101315602Y51308193D01*
X101315602Y51308193D02*
X101315602Y51070098D01*
X101315602Y51070098D02*
X101363221Y50974860D01*
X101363221Y50974860D02*
X101410840Y50927240D01*
X101410840Y50927240D02*
X101506078Y50879621D01*
X101506078Y50879621D02*
X101744173Y50879621D01*
X101744173Y50879621D02*
X101839411Y50927240D01*
X101839411Y50927240D02*
X101887030Y50974860D01*
X100887030Y50974860D02*
X100839411Y50927240D01*
X100839411Y50927240D02*
X100887030Y50879621D01*
X100887030Y50879621D02*
X100934649Y50927240D01*
X100934649Y50927240D02*
X100887030Y50974860D01*
X100887030Y50974860D02*
X100887030Y50879621D01*
X100887030Y51498669D02*
X100839411Y51451050D01*
X100839411Y51451050D02*
X100887030Y51403431D01*
X100887030Y51403431D02*
X100934649Y51451050D01*
X100934649Y51451050D02*
X100887030Y51498669D01*
X100887030Y51498669D02*
X100887030Y51403431D01*
X99648935Y50879621D02*
X99648935Y51879621D01*
X99648935Y51403431D02*
X99077507Y51403431D01*
X99077507Y50879621D02*
X99077507Y51879621D01*
X98410840Y51879621D02*
X98220364Y51879621D01*
X98220364Y51879621D02*
X98125126Y51832002D01*
X98125126Y51832002D02*
X98029888Y51736764D01*
X98029888Y51736764D02*
X97982269Y51546288D01*
X97982269Y51546288D02*
X97982269Y51212955D01*
X97982269Y51212955D02*
X98029888Y51022479D01*
X98029888Y51022479D02*
X98125126Y50927240D01*
X98125126Y50927240D02*
X98220364Y50879621D01*
X98220364Y50879621D02*
X98410840Y50879621D01*
X98410840Y50879621D02*
X98506078Y50927240D01*
X98506078Y50927240D02*
X98601316Y51022479D01*
X98601316Y51022479D02*
X98648935Y51212955D01*
X98648935Y51212955D02*
X98648935Y51546288D01*
X98648935Y51546288D02*
X98601316Y51736764D01*
X98601316Y51736764D02*
X98506078Y51832002D01*
X98506078Y51832002D02*
X98410840Y51879621D01*
X97553697Y51879621D02*
X97553697Y51070098D01*
X97553697Y51070098D02*
X97506078Y50974860D01*
X97506078Y50974860D02*
X97458459Y50927240D01*
X97458459Y50927240D02*
X97363221Y50879621D01*
X97363221Y50879621D02*
X97172745Y50879621D01*
X97172745Y50879621D02*
X97077507Y50927240D01*
X97077507Y50927240D02*
X97029888Y50974860D01*
X97029888Y50974860D02*
X96982269Y51070098D01*
X96982269Y51070098D02*
X96982269Y51879621D01*
X95934650Y50879621D02*
X96267983Y51355812D01*
X96506078Y50879621D02*
X96506078Y51879621D01*
X96506078Y51879621D02*
X96125126Y51879621D01*
X96125126Y51879621D02*
X96029888Y51832002D01*
X96029888Y51832002D02*
X95982269Y51784383D01*
X95982269Y51784383D02*
X95934650Y51689145D01*
X95934650Y51689145D02*
X95934650Y51546288D01*
X95934650Y51546288D02*
X95982269Y51451050D01*
X95982269Y51451050D02*
X96029888Y51403431D01*
X96029888Y51403431D02*
X96125126Y51355812D01*
X96125126Y51355812D02*
X96506078Y51355812D01*
X95553697Y50927240D02*
X95410840Y50879621D01*
X95410840Y50879621D02*
X95172745Y50879621D01*
X95172745Y50879621D02*
X95077507Y50927240D01*
X95077507Y50927240D02*
X95029888Y50974860D01*
X95029888Y50974860D02*
X94982269Y51070098D01*
X94982269Y51070098D02*
X94982269Y51165336D01*
X94982269Y51165336D02*
X95029888Y51260574D01*
X95029888Y51260574D02*
X95077507Y51308193D01*
X95077507Y51308193D02*
X95172745Y51355812D01*
X95172745Y51355812D02*
X95363221Y51403431D01*
X95363221Y51403431D02*
X95458459Y51451050D01*
X95458459Y51451050D02*
X95506078Y51498669D01*
X95506078Y51498669D02*
X95553697Y51593907D01*
X95553697Y51593907D02*
X95553697Y51689145D01*
X95553697Y51689145D02*
X95506078Y51784383D01*
X95506078Y51784383D02*
X95458459Y51832002D01*
X95458459Y51832002D02*
X95363221Y51879621D01*
X95363221Y51879621D02*
X95125126Y51879621D01*
X95125126Y51879621D02*
X94982269Y51832002D01*
X103363220Y49269677D02*
X103363220Y50269677D01*
X102696554Y50269677D02*
X102506078Y50269677D01*
X102506078Y50269677D02*
X102410840Y50222058D01*
X102410840Y50222058D02*
X102315602Y50126820D01*
X102315602Y50126820D02*
X102267983Y49936344D01*
X102267983Y49936344D02*
X102267983Y49603011D01*
X102267983Y49603011D02*
X102315602Y49412535D01*
X102315602Y49412535D02*
X102410840Y49317296D01*
X102410840Y49317296D02*
X102506078Y49269677D01*
X102506078Y49269677D02*
X102696554Y49269677D01*
X102696554Y49269677D02*
X102791792Y49317296D01*
X102791792Y49317296D02*
X102887030Y49412535D01*
X102887030Y49412535D02*
X102934649Y49603011D01*
X102934649Y49603011D02*
X102934649Y49936344D01*
X102934649Y49936344D02*
X102887030Y50126820D01*
X102887030Y50126820D02*
X102791792Y50222058D01*
X102791792Y50222058D02*
X102696554Y50269677D01*
X101315602Y49269677D02*
X101887030Y49269677D01*
X101601316Y49269677D02*
X101601316Y50269677D01*
X101601316Y50269677D02*
X101696554Y50126820D01*
X101696554Y50126820D02*
X101791792Y50031582D01*
X101791792Y50031582D02*
X101887030Y49983963D01*
X100982268Y50269677D02*
X100315602Y50269677D01*
X100315602Y50269677D02*
X100744173Y49269677D01*
X99934649Y49364916D02*
X99887030Y49317296D01*
X99887030Y49317296D02*
X99934649Y49269677D01*
X99934649Y49269677D02*
X99982268Y49317296D01*
X99982268Y49317296D02*
X99934649Y49364916D01*
X99934649Y49364916D02*
X99934649Y49269677D01*
X99934649Y49888725D02*
X99887030Y49841106D01*
X99887030Y49841106D02*
X99934649Y49793487D01*
X99934649Y49793487D02*
X99982268Y49841106D01*
X99982268Y49841106D02*
X99934649Y49888725D01*
X99934649Y49888725D02*
X99934649Y49793487D01*
X98696554Y49269677D02*
X98696554Y50269677D01*
X98696554Y50269677D02*
X98363221Y49555392D01*
X98363221Y49555392D02*
X98029888Y50269677D01*
X98029888Y50269677D02*
X98029888Y49269677D01*
X97553697Y49269677D02*
X97553697Y50269677D01*
X97077507Y49269677D02*
X97077507Y50269677D01*
X97077507Y50269677D02*
X96506079Y49269677D01*
X96506079Y49269677D02*
X96506079Y50269677D01*
X96029888Y50269677D02*
X96029888Y49460154D01*
X96029888Y49460154D02*
X95982269Y49364916D01*
X95982269Y49364916D02*
X95934650Y49317296D01*
X95934650Y49317296D02*
X95839412Y49269677D01*
X95839412Y49269677D02*
X95648936Y49269677D01*
X95648936Y49269677D02*
X95553698Y49317296D01*
X95553698Y49317296D02*
X95506079Y49364916D01*
X95506079Y49364916D02*
X95458460Y49460154D01*
X95458460Y49460154D02*
X95458460Y50269677D01*
X95125126Y50269677D02*
X94553698Y50269677D01*
X94839412Y49269677D02*
X94839412Y50269677D01*
X94220364Y49793487D02*
X93887031Y49793487D01*
X93744174Y49269677D02*
X94220364Y49269677D01*
X94220364Y49269677D02*
X94220364Y50269677D01*
X94220364Y50269677D02*
X93744174Y50269677D01*
X93363221Y49317296D02*
X93220364Y49269677D01*
X93220364Y49269677D02*
X92982269Y49269677D01*
X92982269Y49269677D02*
X92887031Y49317296D01*
X92887031Y49317296D02*
X92839412Y49364916D01*
X92839412Y49364916D02*
X92791793Y49460154D01*
X92791793Y49460154D02*
X92791793Y49555392D01*
X92791793Y49555392D02*
X92839412Y49650630D01*
X92839412Y49650630D02*
X92887031Y49698249D01*
X92887031Y49698249D02*
X92982269Y49745868D01*
X92982269Y49745868D02*
X93172745Y49793487D01*
X93172745Y49793487D02*
X93267983Y49841106D01*
X93267983Y49841106D02*
X93315602Y49888725D01*
X93315602Y49888725D02*
X93363221Y49983963D01*
X93363221Y49983963D02*
X93363221Y50079201D01*
X93363221Y50079201D02*
X93315602Y50174439D01*
X93315602Y50174439D02*
X93267983Y50222058D01*
X93267983Y50222058D02*
X93172745Y50269677D01*
X93172745Y50269677D02*
X92934650Y50269677D01*
X92934650Y50269677D02*
X92791793Y50222058D01*
X103363220Y47659733D02*
X103363220Y48659733D01*
X102696554Y48659733D02*
X102506078Y48659733D01*
X102506078Y48659733D02*
X102410840Y48612114D01*
X102410840Y48612114D02*
X102315602Y48516876D01*
X102315602Y48516876D02*
X102267983Y48326400D01*
X102267983Y48326400D02*
X102267983Y47993067D01*
X102267983Y47993067D02*
X102315602Y47802591D01*
X102315602Y47802591D02*
X102410840Y47707352D01*
X102410840Y47707352D02*
X102506078Y47659733D01*
X102506078Y47659733D02*
X102696554Y47659733D01*
X102696554Y47659733D02*
X102791792Y47707352D01*
X102791792Y47707352D02*
X102887030Y47802591D01*
X102887030Y47802591D02*
X102934649Y47993067D01*
X102934649Y47993067D02*
X102934649Y48326400D01*
X102934649Y48326400D02*
X102887030Y48516876D01*
X102887030Y48516876D02*
X102791792Y48612114D01*
X102791792Y48612114D02*
X102696554Y48659733D01*
X101315602Y47659733D02*
X101887030Y47659733D01*
X101601316Y47659733D02*
X101601316Y48659733D01*
X101601316Y48659733D02*
X101696554Y48516876D01*
X101696554Y48516876D02*
X101791792Y48421638D01*
X101791792Y48421638D02*
X101887030Y48374019D01*
X100744173Y48231162D02*
X100839411Y48278781D01*
X100839411Y48278781D02*
X100887030Y48326400D01*
X100887030Y48326400D02*
X100934649Y48421638D01*
X100934649Y48421638D02*
X100934649Y48469257D01*
X100934649Y48469257D02*
X100887030Y48564495D01*
X100887030Y48564495D02*
X100839411Y48612114D01*
X100839411Y48612114D02*
X100744173Y48659733D01*
X100744173Y48659733D02*
X100553697Y48659733D01*
X100553697Y48659733D02*
X100458459Y48612114D01*
X100458459Y48612114D02*
X100410840Y48564495D01*
X100410840Y48564495D02*
X100363221Y48469257D01*
X100363221Y48469257D02*
X100363221Y48421638D01*
X100363221Y48421638D02*
X100410840Y48326400D01*
X100410840Y48326400D02*
X100458459Y48278781D01*
X100458459Y48278781D02*
X100553697Y48231162D01*
X100553697Y48231162D02*
X100744173Y48231162D01*
X100744173Y48231162D02*
X100839411Y48183543D01*
X100839411Y48183543D02*
X100887030Y48135924D01*
X100887030Y48135924D02*
X100934649Y48040686D01*
X100934649Y48040686D02*
X100934649Y47850210D01*
X100934649Y47850210D02*
X100887030Y47754972D01*
X100887030Y47754972D02*
X100839411Y47707352D01*
X100839411Y47707352D02*
X100744173Y47659733D01*
X100744173Y47659733D02*
X100553697Y47659733D01*
X100553697Y47659733D02*
X100458459Y47707352D01*
X100458459Y47707352D02*
X100410840Y47754972D01*
X100410840Y47754972D02*
X100363221Y47850210D01*
X100363221Y47850210D02*
X100363221Y48040686D01*
X100363221Y48040686D02*
X100410840Y48135924D01*
X100410840Y48135924D02*
X100458459Y48183543D01*
X100458459Y48183543D02*
X100553697Y48231162D01*
X99934649Y47754972D02*
X99887030Y47707352D01*
X99887030Y47707352D02*
X99934649Y47659733D01*
X99934649Y47659733D02*
X99982268Y47707352D01*
X99982268Y47707352D02*
X99934649Y47754972D01*
X99934649Y47754972D02*
X99934649Y47659733D01*
X99934649Y48278781D02*
X99887030Y48231162D01*
X99887030Y48231162D02*
X99934649Y48183543D01*
X99934649Y48183543D02*
X99982268Y48231162D01*
X99982268Y48231162D02*
X99934649Y48278781D01*
X99934649Y48278781D02*
X99934649Y48183543D01*
X98696554Y48183543D02*
X98363221Y48183543D01*
X98220364Y47659733D02*
X98696554Y47659733D01*
X98696554Y47659733D02*
X98696554Y48659733D01*
X98696554Y48659733D02*
X98220364Y48659733D01*
X97887030Y48659733D02*
X97220364Y47659733D01*
X97220364Y48659733D02*
X97887030Y47659733D01*
X96982268Y48659733D02*
X96410840Y48659733D01*
X96696554Y47659733D02*
X96696554Y48659733D01*
X96077506Y48183543D02*
X95744173Y48183543D01*
X95601316Y47659733D02*
X96077506Y47659733D01*
X96077506Y47659733D02*
X96077506Y48659733D01*
X96077506Y48659733D02*
X95601316Y48659733D01*
X94601316Y47659733D02*
X94934649Y48135924D01*
X95172744Y47659733D02*
X95172744Y48659733D01*
X95172744Y48659733D02*
X94791792Y48659733D01*
X94791792Y48659733D02*
X94696554Y48612114D01*
X94696554Y48612114D02*
X94648935Y48564495D01*
X94648935Y48564495D02*
X94601316Y48469257D01*
X94601316Y48469257D02*
X94601316Y48326400D01*
X94601316Y48326400D02*
X94648935Y48231162D01*
X94648935Y48231162D02*
X94696554Y48183543D01*
X94696554Y48183543D02*
X94791792Y48135924D01*
X94791792Y48135924D02*
X95172744Y48135924D01*
X94172744Y47659733D02*
X94172744Y48659733D01*
X94172744Y48659733D02*
X93601316Y47659733D01*
X93601316Y47659733D02*
X93601316Y48659733D01*
X93172744Y47945448D02*
X92696554Y47945448D01*
X93267982Y47659733D02*
X92934649Y48659733D01*
X92934649Y48659733D02*
X92601316Y47659733D01*
X91791792Y47659733D02*
X92267982Y47659733D01*
X92267982Y47659733D02*
X92267982Y48659733D01*
X91696554Y47564495D02*
X90934649Y47564495D01*
X90125125Y47659733D02*
X90458458Y48135924D01*
X90696553Y47659733D02*
X90696553Y48659733D01*
X90696553Y48659733D02*
X90315601Y48659733D01*
X90315601Y48659733D02*
X90220363Y48612114D01*
X90220363Y48612114D02*
X90172744Y48564495D01*
X90172744Y48564495D02*
X90125125Y48469257D01*
X90125125Y48469257D02*
X90125125Y48326400D01*
X90125125Y48326400D02*
X90172744Y48231162D01*
X90172744Y48231162D02*
X90220363Y48183543D01*
X90220363Y48183543D02*
X90315601Y48135924D01*
X90315601Y48135924D02*
X90696553Y48135924D01*
X89696553Y48183543D02*
X89363220Y48183543D01*
X89220363Y47659733D02*
X89696553Y47659733D01*
X89696553Y47659733D02*
X89696553Y48659733D01*
X89696553Y48659733D02*
X89220363Y48659733D01*
X88839410Y47707352D02*
X88696553Y47659733D01*
X88696553Y47659733D02*
X88458458Y47659733D01*
X88458458Y47659733D02*
X88363220Y47707352D01*
X88363220Y47707352D02*
X88315601Y47754972D01*
X88315601Y47754972D02*
X88267982Y47850210D01*
X88267982Y47850210D02*
X88267982Y47945448D01*
X88267982Y47945448D02*
X88315601Y48040686D01*
X88315601Y48040686D02*
X88363220Y48088305D01*
X88363220Y48088305D02*
X88458458Y48135924D01*
X88458458Y48135924D02*
X88648934Y48183543D01*
X88648934Y48183543D02*
X88744172Y48231162D01*
X88744172Y48231162D02*
X88791791Y48278781D01*
X88791791Y48278781D02*
X88839410Y48374019D01*
X88839410Y48374019D02*
X88839410Y48469257D01*
X88839410Y48469257D02*
X88791791Y48564495D01*
X88791791Y48564495D02*
X88744172Y48612114D01*
X88744172Y48612114D02*
X88648934Y48659733D01*
X88648934Y48659733D02*
X88410839Y48659733D01*
X88410839Y48659733D02*
X88267982Y48612114D01*
X87839410Y48183543D02*
X87506077Y48183543D01*
X87363220Y47659733D02*
X87839410Y47659733D01*
X87839410Y47659733D02*
X87839410Y48659733D01*
X87839410Y48659733D02*
X87363220Y48659733D01*
X87077505Y48659733D02*
X86506077Y48659733D01*
X86791791Y47659733D02*
X86791791Y48659733D01*
X103363220Y46049789D02*
X103363220Y47049789D01*
X102696554Y47049789D02*
X102506078Y47049789D01*
X102506078Y47049789D02*
X102410840Y47002170D01*
X102410840Y47002170D02*
X102315602Y46906932D01*
X102315602Y46906932D02*
X102267983Y46716456D01*
X102267983Y46716456D02*
X102267983Y46383123D01*
X102267983Y46383123D02*
X102315602Y46192647D01*
X102315602Y46192647D02*
X102410840Y46097408D01*
X102410840Y46097408D02*
X102506078Y46049789D01*
X102506078Y46049789D02*
X102696554Y46049789D01*
X102696554Y46049789D02*
X102791792Y46097408D01*
X102791792Y46097408D02*
X102887030Y46192647D01*
X102887030Y46192647D02*
X102934649Y46383123D01*
X102934649Y46383123D02*
X102934649Y46716456D01*
X102934649Y46716456D02*
X102887030Y46906932D01*
X102887030Y46906932D02*
X102791792Y47002170D01*
X102791792Y47002170D02*
X102696554Y47049789D01*
X101315602Y46049789D02*
X101887030Y46049789D01*
X101601316Y46049789D02*
X101601316Y47049789D01*
X101601316Y47049789D02*
X101696554Y46906932D01*
X101696554Y46906932D02*
X101791792Y46811694D01*
X101791792Y46811694D02*
X101887030Y46764075D01*
X100839411Y46049789D02*
X100648935Y46049789D01*
X100648935Y46049789D02*
X100553697Y46097408D01*
X100553697Y46097408D02*
X100506078Y46145028D01*
X100506078Y46145028D02*
X100410840Y46287885D01*
X100410840Y46287885D02*
X100363221Y46478361D01*
X100363221Y46478361D02*
X100363221Y46859313D01*
X100363221Y46859313D02*
X100410840Y46954551D01*
X100410840Y46954551D02*
X100458459Y47002170D01*
X100458459Y47002170D02*
X100553697Y47049789D01*
X100553697Y47049789D02*
X100744173Y47049789D01*
X100744173Y47049789D02*
X100839411Y47002170D01*
X100839411Y47002170D02*
X100887030Y46954551D01*
X100887030Y46954551D02*
X100934649Y46859313D01*
X100934649Y46859313D02*
X100934649Y46621218D01*
X100934649Y46621218D02*
X100887030Y46525980D01*
X100887030Y46525980D02*
X100839411Y46478361D01*
X100839411Y46478361D02*
X100744173Y46430742D01*
X100744173Y46430742D02*
X100553697Y46430742D01*
X100553697Y46430742D02*
X100458459Y46478361D01*
X100458459Y46478361D02*
X100410840Y46525980D01*
X100410840Y46525980D02*
X100363221Y46621218D01*
X99934649Y46145028D02*
X99887030Y46097408D01*
X99887030Y46097408D02*
X99934649Y46049789D01*
X99934649Y46049789D02*
X99982268Y46097408D01*
X99982268Y46097408D02*
X99934649Y46145028D01*
X99934649Y46145028D02*
X99934649Y46049789D01*
X99934649Y46668837D02*
X99887030Y46621218D01*
X99887030Y46621218D02*
X99934649Y46573599D01*
X99934649Y46573599D02*
X99982268Y46621218D01*
X99982268Y46621218D02*
X99934649Y46668837D01*
X99934649Y46668837D02*
X99934649Y46573599D01*
X98791792Y47049789D02*
X98553697Y46049789D01*
X98553697Y46049789D02*
X98363221Y46764075D01*
X98363221Y46764075D02*
X98172745Y46049789D01*
X98172745Y46049789D02*
X97934650Y47049789D01*
X97601316Y46335504D02*
X97125126Y46335504D01*
X97696554Y46049789D02*
X97363221Y47049789D01*
X97363221Y47049789D02*
X97029888Y46049789D01*
X96839411Y47049789D02*
X96267983Y47049789D01*
X96553697Y46049789D02*
X96553697Y47049789D01*
X95934649Y46573599D02*
X95601316Y46573599D01*
X95458459Y46049789D02*
X95934649Y46049789D01*
X95934649Y46049789D02*
X95934649Y47049789D01*
X95934649Y47049789D02*
X95458459Y47049789D01*
X94458459Y46049789D02*
X94791792Y46525980D01*
X95029887Y46049789D02*
X95029887Y47049789D01*
X95029887Y47049789D02*
X94648935Y47049789D01*
X94648935Y47049789D02*
X94553697Y47002170D01*
X94553697Y47002170D02*
X94506078Y46954551D01*
X94506078Y46954551D02*
X94458459Y46859313D01*
X94458459Y46859313D02*
X94458459Y46716456D01*
X94458459Y46716456D02*
X94506078Y46621218D01*
X94506078Y46621218D02*
X94553697Y46573599D01*
X94553697Y46573599D02*
X94648935Y46525980D01*
X94648935Y46525980D02*
X95029887Y46525980D01*
X94267983Y45954551D02*
X93506078Y45954551D01*
X93315601Y46097408D02*
X93172744Y46049789D01*
X93172744Y46049789D02*
X92934649Y46049789D01*
X92934649Y46049789D02*
X92839411Y46097408D01*
X92839411Y46097408D02*
X92791792Y46145028D01*
X92791792Y46145028D02*
X92744173Y46240266D01*
X92744173Y46240266D02*
X92744173Y46335504D01*
X92744173Y46335504D02*
X92791792Y46430742D01*
X92791792Y46430742D02*
X92839411Y46478361D01*
X92839411Y46478361D02*
X92934649Y46525980D01*
X92934649Y46525980D02*
X93125125Y46573599D01*
X93125125Y46573599D02*
X93220363Y46621218D01*
X93220363Y46621218D02*
X93267982Y46668837D01*
X93267982Y46668837D02*
X93315601Y46764075D01*
X93315601Y46764075D02*
X93315601Y46859313D01*
X93315601Y46859313D02*
X93267982Y46954551D01*
X93267982Y46954551D02*
X93220363Y47002170D01*
X93220363Y47002170D02*
X93125125Y47049789D01*
X93125125Y47049789D02*
X92887030Y47049789D01*
X92887030Y47049789D02*
X92744173Y47002170D01*
X92315601Y46049789D02*
X92315601Y47049789D01*
X91315602Y47002170D02*
X91410840Y47049789D01*
X91410840Y47049789D02*
X91553697Y47049789D01*
X91553697Y47049789D02*
X91696554Y47002170D01*
X91696554Y47002170D02*
X91791792Y46906932D01*
X91791792Y46906932D02*
X91839411Y46811694D01*
X91839411Y46811694D02*
X91887030Y46621218D01*
X91887030Y46621218D02*
X91887030Y46478361D01*
X91887030Y46478361D02*
X91839411Y46287885D01*
X91839411Y46287885D02*
X91791792Y46192647D01*
X91791792Y46192647D02*
X91696554Y46097408D01*
X91696554Y46097408D02*
X91553697Y46049789D01*
X91553697Y46049789D02*
X91458459Y46049789D01*
X91458459Y46049789D02*
X91315602Y46097408D01*
X91315602Y46097408D02*
X91267983Y46145028D01*
X91267983Y46145028D02*
X91267983Y46478361D01*
X91267983Y46478361D02*
X91458459Y46478361D01*
X90839411Y46049789D02*
X90839411Y47049789D01*
X90839411Y47049789D02*
X90267983Y46049789D01*
X90267983Y46049789D02*
X90267983Y47049789D01*
X89839411Y46335504D02*
X89363221Y46335504D01*
X89934649Y46049789D02*
X89601316Y47049789D01*
X89601316Y47049789D02*
X89267983Y46049789D01*
X88458459Y46049789D02*
X88934649Y46049789D01*
X88934649Y46049789D02*
X88934649Y47049789D01*
X103363220Y44439845D02*
X103363220Y45439845D01*
X102696554Y45439845D02*
X102506078Y45439845D01*
X102506078Y45439845D02*
X102410840Y45392226D01*
X102410840Y45392226D02*
X102315602Y45296988D01*
X102315602Y45296988D02*
X102267983Y45106512D01*
X102267983Y45106512D02*
X102267983Y44773179D01*
X102267983Y44773179D02*
X102315602Y44582703D01*
X102315602Y44582703D02*
X102410840Y44487464D01*
X102410840Y44487464D02*
X102506078Y44439845D01*
X102506078Y44439845D02*
X102696554Y44439845D01*
X102696554Y44439845D02*
X102791792Y44487464D01*
X102791792Y44487464D02*
X102887030Y44582703D01*
X102887030Y44582703D02*
X102934649Y44773179D01*
X102934649Y44773179D02*
X102934649Y45106512D01*
X102934649Y45106512D02*
X102887030Y45296988D01*
X102887030Y45296988D02*
X102791792Y45392226D01*
X102791792Y45392226D02*
X102696554Y45439845D01*
X101887030Y45344607D02*
X101839411Y45392226D01*
X101839411Y45392226D02*
X101744173Y45439845D01*
X101744173Y45439845D02*
X101506078Y45439845D01*
X101506078Y45439845D02*
X101410840Y45392226D01*
X101410840Y45392226D02*
X101363221Y45344607D01*
X101363221Y45344607D02*
X101315602Y45249369D01*
X101315602Y45249369D02*
X101315602Y45154131D01*
X101315602Y45154131D02*
X101363221Y45011274D01*
X101363221Y45011274D02*
X101934649Y44439845D01*
X101934649Y44439845D02*
X101315602Y44439845D01*
X100982268Y45439845D02*
X100363221Y45439845D01*
X100363221Y45439845D02*
X100696554Y45058893D01*
X100696554Y45058893D02*
X100553697Y45058893D01*
X100553697Y45058893D02*
X100458459Y45011274D01*
X100458459Y45011274D02*
X100410840Y44963655D01*
X100410840Y44963655D02*
X100363221Y44868417D01*
X100363221Y44868417D02*
X100363221Y44630322D01*
X100363221Y44630322D02*
X100410840Y44535084D01*
X100410840Y44535084D02*
X100458459Y44487464D01*
X100458459Y44487464D02*
X100553697Y44439845D01*
X100553697Y44439845D02*
X100839411Y44439845D01*
X100839411Y44439845D02*
X100934649Y44487464D01*
X100934649Y44487464D02*
X100982268Y44535084D01*
X99934649Y44535084D02*
X99887030Y44487464D01*
X99887030Y44487464D02*
X99934649Y44439845D01*
X99934649Y44439845D02*
X99982268Y44487464D01*
X99982268Y44487464D02*
X99934649Y44535084D01*
X99934649Y44535084D02*
X99934649Y44439845D01*
X99934649Y45058893D02*
X99887030Y45011274D01*
X99887030Y45011274D02*
X99934649Y44963655D01*
X99934649Y44963655D02*
X99982268Y45011274D01*
X99982268Y45011274D02*
X99934649Y45058893D01*
X99934649Y45058893D02*
X99934649Y44963655D01*
X98791792Y45439845D02*
X98553697Y44439845D01*
X98553697Y44439845D02*
X98363221Y45154131D01*
X98363221Y45154131D02*
X98172745Y44439845D01*
X98172745Y44439845D02*
X97934650Y45439845D01*
X97601316Y44725560D02*
X97125126Y44725560D01*
X97696554Y44439845D02*
X97363221Y45439845D01*
X97363221Y45439845D02*
X97029888Y44439845D01*
X96839411Y45439845D02*
X96267983Y45439845D01*
X96553697Y44439845D02*
X96553697Y45439845D01*
X95934649Y44963655D02*
X95601316Y44963655D01*
X95458459Y44439845D02*
X95934649Y44439845D01*
X95934649Y44439845D02*
X95934649Y45439845D01*
X95934649Y45439845D02*
X95458459Y45439845D01*
X94458459Y44439845D02*
X94791792Y44916036D01*
X95029887Y44439845D02*
X95029887Y45439845D01*
X95029887Y45439845D02*
X94648935Y45439845D01*
X94648935Y45439845D02*
X94553697Y45392226D01*
X94553697Y45392226D02*
X94506078Y45344607D01*
X94506078Y45344607D02*
X94458459Y45249369D01*
X94458459Y45249369D02*
X94458459Y45106512D01*
X94458459Y45106512D02*
X94506078Y45011274D01*
X94506078Y45011274D02*
X94553697Y44963655D01*
X94553697Y44963655D02*
X94648935Y44916036D01*
X94648935Y44916036D02*
X95029887Y44916036D01*
X94267983Y44344607D02*
X93506078Y44344607D01*
X93315601Y44487464D02*
X93172744Y44439845D01*
X93172744Y44439845D02*
X92934649Y44439845D01*
X92934649Y44439845D02*
X92839411Y44487464D01*
X92839411Y44487464D02*
X92791792Y44535084D01*
X92791792Y44535084D02*
X92744173Y44630322D01*
X92744173Y44630322D02*
X92744173Y44725560D01*
X92744173Y44725560D02*
X92791792Y44820798D01*
X92791792Y44820798D02*
X92839411Y44868417D01*
X92839411Y44868417D02*
X92934649Y44916036D01*
X92934649Y44916036D02*
X93125125Y44963655D01*
X93125125Y44963655D02*
X93220363Y45011274D01*
X93220363Y45011274D02*
X93267982Y45058893D01*
X93267982Y45058893D02*
X93315601Y45154131D01*
X93315601Y45154131D02*
X93315601Y45249369D01*
X93315601Y45249369D02*
X93267982Y45344607D01*
X93267982Y45344607D02*
X93220363Y45392226D01*
X93220363Y45392226D02*
X93125125Y45439845D01*
X93125125Y45439845D02*
X92887030Y45439845D01*
X92887030Y45439845D02*
X92744173Y45392226D01*
X92315601Y44963655D02*
X91982268Y44963655D01*
X91839411Y44439845D02*
X92315601Y44439845D01*
X92315601Y44439845D02*
X92315601Y45439845D01*
X92315601Y45439845D02*
X91839411Y45439845D01*
X91410839Y44439845D02*
X91410839Y45439845D01*
X91410839Y45439845D02*
X90839411Y44439845D01*
X90839411Y44439845D02*
X90839411Y45439845D01*
X90410839Y44487464D02*
X90267982Y44439845D01*
X90267982Y44439845D02*
X90029887Y44439845D01*
X90029887Y44439845D02*
X89934649Y44487464D01*
X89934649Y44487464D02*
X89887030Y44535084D01*
X89887030Y44535084D02*
X89839411Y44630322D01*
X89839411Y44630322D02*
X89839411Y44725560D01*
X89839411Y44725560D02*
X89887030Y44820798D01*
X89887030Y44820798D02*
X89934649Y44868417D01*
X89934649Y44868417D02*
X90029887Y44916036D01*
X90029887Y44916036D02*
X90220363Y44963655D01*
X90220363Y44963655D02*
X90315601Y45011274D01*
X90315601Y45011274D02*
X90363220Y45058893D01*
X90363220Y45058893D02*
X90410839Y45154131D01*
X90410839Y45154131D02*
X90410839Y45249369D01*
X90410839Y45249369D02*
X90363220Y45344607D01*
X90363220Y45344607D02*
X90315601Y45392226D01*
X90315601Y45392226D02*
X90220363Y45439845D01*
X90220363Y45439845D02*
X89982268Y45439845D01*
X89982268Y45439845D02*
X89839411Y45392226D01*
X89220363Y45439845D02*
X89029887Y45439845D01*
X89029887Y45439845D02*
X88934649Y45392226D01*
X88934649Y45392226D02*
X88839411Y45296988D01*
X88839411Y45296988D02*
X88791792Y45106512D01*
X88791792Y45106512D02*
X88791792Y44773179D01*
X88791792Y44773179D02*
X88839411Y44582703D01*
X88839411Y44582703D02*
X88934649Y44487464D01*
X88934649Y44487464D02*
X89029887Y44439845D01*
X89029887Y44439845D02*
X89220363Y44439845D01*
X89220363Y44439845D02*
X89315601Y44487464D01*
X89315601Y44487464D02*
X89410839Y44582703D01*
X89410839Y44582703D02*
X89458458Y44773179D01*
X89458458Y44773179D02*
X89458458Y45106512D01*
X89458458Y45106512D02*
X89410839Y45296988D01*
X89410839Y45296988D02*
X89315601Y45392226D01*
X89315601Y45392226D02*
X89220363Y45439845D01*
X87791792Y44439845D02*
X88125125Y44916036D01*
X88363220Y44439845D02*
X88363220Y45439845D01*
X88363220Y45439845D02*
X87982268Y45439845D01*
X87982268Y45439845D02*
X87887030Y45392226D01*
X87887030Y45392226D02*
X87839411Y45344607D01*
X87839411Y45344607D02*
X87791792Y45249369D01*
X87791792Y45249369D02*
X87791792Y45106512D01*
X87791792Y45106512D02*
X87839411Y45011274D01*
X87839411Y45011274D02*
X87887030Y44963655D01*
X87887030Y44963655D02*
X87982268Y44916036D01*
X87982268Y44916036D02*
X88363220Y44916036D01*
X87601316Y44344607D02*
X86839411Y44344607D01*
X86601315Y44963655D02*
X86267982Y44963655D01*
X86125125Y44439845D02*
X86601315Y44439845D01*
X86601315Y44439845D02*
X86601315Y45439845D01*
X86601315Y45439845D02*
X86125125Y45439845D01*
X85696553Y44439845D02*
X85696553Y45439845D01*
X85696553Y45439845D02*
X85125125Y44439845D01*
X85125125Y44439845D02*
X85125125Y45439845D01*
X84696553Y44725560D02*
X84220363Y44725560D01*
X84791791Y44439845D02*
X84458458Y45439845D01*
X84458458Y45439845D02*
X84125125Y44439845D01*
X83458458Y44963655D02*
X83315601Y44916036D01*
X83315601Y44916036D02*
X83267982Y44868417D01*
X83267982Y44868417D02*
X83220363Y44773179D01*
X83220363Y44773179D02*
X83220363Y44630322D01*
X83220363Y44630322D02*
X83267982Y44535084D01*
X83267982Y44535084D02*
X83315601Y44487464D01*
X83315601Y44487464D02*
X83410839Y44439845D01*
X83410839Y44439845D02*
X83791791Y44439845D01*
X83791791Y44439845D02*
X83791791Y45439845D01*
X83791791Y45439845D02*
X83458458Y45439845D01*
X83458458Y45439845D02*
X83363220Y45392226D01*
X83363220Y45392226D02*
X83315601Y45344607D01*
X83315601Y45344607D02*
X83267982Y45249369D01*
X83267982Y45249369D02*
X83267982Y45154131D01*
X83267982Y45154131D02*
X83315601Y45058893D01*
X83315601Y45058893D02*
X83363220Y45011274D01*
X83363220Y45011274D02*
X83458458Y44963655D01*
X83458458Y44963655D02*
X83791791Y44963655D01*
X82315601Y44439845D02*
X82791791Y44439845D01*
X82791791Y44439845D02*
X82791791Y45439845D01*
X81982267Y44963655D02*
X81648934Y44963655D01*
X81506077Y44439845D02*
X81982267Y44439845D01*
X81982267Y44439845D02*
X81982267Y45439845D01*
X81982267Y45439845D02*
X81506077Y45439845D01*
X103363220Y42829901D02*
X103363220Y43829901D01*
X102696554Y43829901D02*
X102506078Y43829901D01*
X102506078Y43829901D02*
X102410840Y43782282D01*
X102410840Y43782282D02*
X102315602Y43687044D01*
X102315602Y43687044D02*
X102267983Y43496568D01*
X102267983Y43496568D02*
X102267983Y43163235D01*
X102267983Y43163235D02*
X102315602Y42972759D01*
X102315602Y42972759D02*
X102410840Y42877520D01*
X102410840Y42877520D02*
X102506078Y42829901D01*
X102506078Y42829901D02*
X102696554Y42829901D01*
X102696554Y42829901D02*
X102791792Y42877520D01*
X102791792Y42877520D02*
X102887030Y42972759D01*
X102887030Y42972759D02*
X102934649Y43163235D01*
X102934649Y43163235D02*
X102934649Y43496568D01*
X102934649Y43496568D02*
X102887030Y43687044D01*
X102887030Y43687044D02*
X102791792Y43782282D01*
X102791792Y43782282D02*
X102696554Y43829901D01*
X101887030Y43734663D02*
X101839411Y43782282D01*
X101839411Y43782282D02*
X101744173Y43829901D01*
X101744173Y43829901D02*
X101506078Y43829901D01*
X101506078Y43829901D02*
X101410840Y43782282D01*
X101410840Y43782282D02*
X101363221Y43734663D01*
X101363221Y43734663D02*
X101315602Y43639425D01*
X101315602Y43639425D02*
X101315602Y43544187D01*
X101315602Y43544187D02*
X101363221Y43401330D01*
X101363221Y43401330D02*
X101934649Y42829901D01*
X101934649Y42829901D02*
X101315602Y42829901D01*
X100410840Y43829901D02*
X100887030Y43829901D01*
X100887030Y43829901D02*
X100934649Y43353711D01*
X100934649Y43353711D02*
X100887030Y43401330D01*
X100887030Y43401330D02*
X100791792Y43448949D01*
X100791792Y43448949D02*
X100553697Y43448949D01*
X100553697Y43448949D02*
X100458459Y43401330D01*
X100458459Y43401330D02*
X100410840Y43353711D01*
X100410840Y43353711D02*
X100363221Y43258473D01*
X100363221Y43258473D02*
X100363221Y43020378D01*
X100363221Y43020378D02*
X100410840Y42925140D01*
X100410840Y42925140D02*
X100458459Y42877520D01*
X100458459Y42877520D02*
X100553697Y42829901D01*
X100553697Y42829901D02*
X100791792Y42829901D01*
X100791792Y42829901D02*
X100887030Y42877520D01*
X100887030Y42877520D02*
X100934649Y42925140D01*
X99934649Y42925140D02*
X99887030Y42877520D01*
X99887030Y42877520D02*
X99934649Y42829901D01*
X99934649Y42829901D02*
X99982268Y42877520D01*
X99982268Y42877520D02*
X99934649Y42925140D01*
X99934649Y42925140D02*
X99934649Y42829901D01*
X99934649Y43448949D02*
X99887030Y43401330D01*
X99887030Y43401330D02*
X99934649Y43353711D01*
X99934649Y43353711D02*
X99982268Y43401330D01*
X99982268Y43401330D02*
X99934649Y43448949D01*
X99934649Y43448949D02*
X99934649Y43353711D01*
X98363221Y43353711D02*
X98220364Y43306092D01*
X98220364Y43306092D02*
X98172745Y43258473D01*
X98172745Y43258473D02*
X98125126Y43163235D01*
X98125126Y43163235D02*
X98125126Y43020378D01*
X98125126Y43020378D02*
X98172745Y42925140D01*
X98172745Y42925140D02*
X98220364Y42877520D01*
X98220364Y42877520D02*
X98315602Y42829901D01*
X98315602Y42829901D02*
X98696554Y42829901D01*
X98696554Y42829901D02*
X98696554Y43829901D01*
X98696554Y43829901D02*
X98363221Y43829901D01*
X98363221Y43829901D02*
X98267983Y43782282D01*
X98267983Y43782282D02*
X98220364Y43734663D01*
X98220364Y43734663D02*
X98172745Y43639425D01*
X98172745Y43639425D02*
X98172745Y43544187D01*
X98172745Y43544187D02*
X98220364Y43448949D01*
X98220364Y43448949D02*
X98267983Y43401330D01*
X98267983Y43401330D02*
X98363221Y43353711D01*
X98363221Y43353711D02*
X98696554Y43353711D01*
X97744173Y43115616D02*
X97267983Y43115616D01*
X97839411Y42829901D02*
X97506078Y43829901D01*
X97506078Y43829901D02*
X97172745Y42829901D01*
X96982268Y43829901D02*
X96410840Y43829901D01*
X96696554Y42829901D02*
X96696554Y43829901D01*
X96220363Y43829901D02*
X95648935Y43829901D01*
X95934649Y42829901D02*
X95934649Y43829901D01*
X95315601Y43353711D02*
X94982268Y43353711D01*
X94839411Y42829901D02*
X95315601Y42829901D01*
X95315601Y42829901D02*
X95315601Y43829901D01*
X95315601Y43829901D02*
X94839411Y43829901D01*
X93839411Y42829901D02*
X94172744Y43306092D01*
X94410839Y42829901D02*
X94410839Y43829901D01*
X94410839Y43829901D02*
X94029887Y43829901D01*
X94029887Y43829901D02*
X93934649Y43782282D01*
X93934649Y43782282D02*
X93887030Y43734663D01*
X93887030Y43734663D02*
X93839411Y43639425D01*
X93839411Y43639425D02*
X93839411Y43496568D01*
X93839411Y43496568D02*
X93887030Y43401330D01*
X93887030Y43401330D02*
X93934649Y43353711D01*
X93934649Y43353711D02*
X94029887Y43306092D01*
X94029887Y43306092D02*
X94410839Y43306092D01*
X93220363Y43306092D02*
X93220363Y42829901D01*
X93553696Y43829901D02*
X93220363Y43306092D01*
X93220363Y43306092D02*
X92887030Y43829901D01*
X91220363Y42925140D02*
X91267982Y42877520D01*
X91267982Y42877520D02*
X91410839Y42829901D01*
X91410839Y42829901D02*
X91506077Y42829901D01*
X91506077Y42829901D02*
X91648934Y42877520D01*
X91648934Y42877520D02*
X91744172Y42972759D01*
X91744172Y42972759D02*
X91791791Y43067997D01*
X91791791Y43067997D02*
X91839410Y43258473D01*
X91839410Y43258473D02*
X91839410Y43401330D01*
X91839410Y43401330D02*
X91791791Y43591806D01*
X91791791Y43591806D02*
X91744172Y43687044D01*
X91744172Y43687044D02*
X91648934Y43782282D01*
X91648934Y43782282D02*
X91506077Y43829901D01*
X91506077Y43829901D02*
X91410839Y43829901D01*
X91410839Y43829901D02*
X91267982Y43782282D01*
X91267982Y43782282D02*
X91220363Y43734663D01*
X90791791Y42829901D02*
X90791791Y43829901D01*
X90791791Y43353711D02*
X90220363Y43353711D01*
X90220363Y42829901D02*
X90220363Y43829901D01*
X89791791Y43115616D02*
X89315601Y43115616D01*
X89887029Y42829901D02*
X89553696Y43829901D01*
X89553696Y43829901D02*
X89220363Y42829901D01*
X88315601Y42829901D02*
X88648934Y43306092D01*
X88887029Y42829901D02*
X88887029Y43829901D01*
X88887029Y43829901D02*
X88506077Y43829901D01*
X88506077Y43829901D02*
X88410839Y43782282D01*
X88410839Y43782282D02*
X88363220Y43734663D01*
X88363220Y43734663D02*
X88315601Y43639425D01*
X88315601Y43639425D02*
X88315601Y43496568D01*
X88315601Y43496568D02*
X88363220Y43401330D01*
X88363220Y43401330D02*
X88410839Y43353711D01*
X88410839Y43353711D02*
X88506077Y43306092D01*
X88506077Y43306092D02*
X88887029Y43306092D01*
X87363220Y43782282D02*
X87458458Y43829901D01*
X87458458Y43829901D02*
X87601315Y43829901D01*
X87601315Y43829901D02*
X87744172Y43782282D01*
X87744172Y43782282D02*
X87839410Y43687044D01*
X87839410Y43687044D02*
X87887029Y43591806D01*
X87887029Y43591806D02*
X87934648Y43401330D01*
X87934648Y43401330D02*
X87934648Y43258473D01*
X87934648Y43258473D02*
X87887029Y43067997D01*
X87887029Y43067997D02*
X87839410Y42972759D01*
X87839410Y42972759D02*
X87744172Y42877520D01*
X87744172Y42877520D02*
X87601315Y42829901D01*
X87601315Y42829901D02*
X87506077Y42829901D01*
X87506077Y42829901D02*
X87363220Y42877520D01*
X87363220Y42877520D02*
X87315601Y42925140D01*
X87315601Y42925140D02*
X87315601Y43258473D01*
X87315601Y43258473D02*
X87506077Y43258473D01*
X86887029Y43353711D02*
X86553696Y43353711D01*
X86410839Y42829901D02*
X86887029Y42829901D01*
X86887029Y42829901D02*
X86887029Y43829901D01*
X86887029Y43829901D02*
X86410839Y43829901D01*
X85220362Y43353711D02*
X84887029Y43353711D01*
X84744172Y42829901D02*
X85220362Y42829901D01*
X85220362Y42829901D02*
X85220362Y43829901D01*
X85220362Y43829901D02*
X84744172Y43829901D01*
X84315600Y42829901D02*
X84315600Y43829901D01*
X84315600Y43829901D02*
X83744172Y42829901D01*
X83744172Y42829901D02*
X83744172Y43829901D01*
X83315600Y43115616D02*
X82839410Y43115616D01*
X83410838Y42829901D02*
X83077505Y43829901D01*
X83077505Y43829901D02*
X82744172Y42829901D01*
X82077505Y43353711D02*
X81934648Y43306092D01*
X81934648Y43306092D02*
X81887029Y43258473D01*
X81887029Y43258473D02*
X81839410Y43163235D01*
X81839410Y43163235D02*
X81839410Y43020378D01*
X81839410Y43020378D02*
X81887029Y42925140D01*
X81887029Y42925140D02*
X81934648Y42877520D01*
X81934648Y42877520D02*
X82029886Y42829901D01*
X82029886Y42829901D02*
X82410838Y42829901D01*
X82410838Y42829901D02*
X82410838Y43829901D01*
X82410838Y43829901D02*
X82077505Y43829901D01*
X82077505Y43829901D02*
X81982267Y43782282D01*
X81982267Y43782282D02*
X81934648Y43734663D01*
X81934648Y43734663D02*
X81887029Y43639425D01*
X81887029Y43639425D02*
X81887029Y43544187D01*
X81887029Y43544187D02*
X81934648Y43448949D01*
X81934648Y43448949D02*
X81982267Y43401330D01*
X81982267Y43401330D02*
X82077505Y43353711D01*
X82077505Y43353711D02*
X82410838Y43353711D01*
X80934648Y42829901D02*
X81410838Y42829901D01*
X81410838Y42829901D02*
X81410838Y43829901D01*
X80601314Y43353711D02*
X80267981Y43353711D01*
X80125124Y42829901D02*
X80601314Y42829901D01*
X80601314Y42829901D02*
X80601314Y43829901D01*
X80601314Y43829901D02*
X80125124Y43829901D01*
X103363220Y41219957D02*
X103363220Y42219957D01*
X102696554Y42219957D02*
X102506078Y42219957D01*
X102506078Y42219957D02*
X102410840Y42172338D01*
X102410840Y42172338D02*
X102315602Y42077100D01*
X102315602Y42077100D02*
X102267983Y41886624D01*
X102267983Y41886624D02*
X102267983Y41553291D01*
X102267983Y41553291D02*
X102315602Y41362815D01*
X102315602Y41362815D02*
X102410840Y41267576D01*
X102410840Y41267576D02*
X102506078Y41219957D01*
X102506078Y41219957D02*
X102696554Y41219957D01*
X102696554Y41219957D02*
X102791792Y41267576D01*
X102791792Y41267576D02*
X102887030Y41362815D01*
X102887030Y41362815D02*
X102934649Y41553291D01*
X102934649Y41553291D02*
X102934649Y41886624D01*
X102934649Y41886624D02*
X102887030Y42077100D01*
X102887030Y42077100D02*
X102791792Y42172338D01*
X102791792Y42172338D02*
X102696554Y42219957D01*
X101887030Y42124719D02*
X101839411Y42172338D01*
X101839411Y42172338D02*
X101744173Y42219957D01*
X101744173Y42219957D02*
X101506078Y42219957D01*
X101506078Y42219957D02*
X101410840Y42172338D01*
X101410840Y42172338D02*
X101363221Y42124719D01*
X101363221Y42124719D02*
X101315602Y42029481D01*
X101315602Y42029481D02*
X101315602Y41934243D01*
X101315602Y41934243D02*
X101363221Y41791386D01*
X101363221Y41791386D02*
X101934649Y41219957D01*
X101934649Y41219957D02*
X101315602Y41219957D01*
X100458459Y42219957D02*
X100648935Y42219957D01*
X100648935Y42219957D02*
X100744173Y42172338D01*
X100744173Y42172338D02*
X100791792Y42124719D01*
X100791792Y42124719D02*
X100887030Y41981862D01*
X100887030Y41981862D02*
X100934649Y41791386D01*
X100934649Y41791386D02*
X100934649Y41410434D01*
X100934649Y41410434D02*
X100887030Y41315196D01*
X100887030Y41315196D02*
X100839411Y41267576D01*
X100839411Y41267576D02*
X100744173Y41219957D01*
X100744173Y41219957D02*
X100553697Y41219957D01*
X100553697Y41219957D02*
X100458459Y41267576D01*
X100458459Y41267576D02*
X100410840Y41315196D01*
X100410840Y41315196D02*
X100363221Y41410434D01*
X100363221Y41410434D02*
X100363221Y41648529D01*
X100363221Y41648529D02*
X100410840Y41743767D01*
X100410840Y41743767D02*
X100458459Y41791386D01*
X100458459Y41791386D02*
X100553697Y41839005D01*
X100553697Y41839005D02*
X100744173Y41839005D01*
X100744173Y41839005D02*
X100839411Y41791386D01*
X100839411Y41791386D02*
X100887030Y41743767D01*
X100887030Y41743767D02*
X100934649Y41648529D01*
X99934649Y41315196D02*
X99887030Y41267576D01*
X99887030Y41267576D02*
X99934649Y41219957D01*
X99934649Y41219957D02*
X99982268Y41267576D01*
X99982268Y41267576D02*
X99934649Y41315196D01*
X99934649Y41315196D02*
X99934649Y41219957D01*
X99934649Y41839005D02*
X99887030Y41791386D01*
X99887030Y41791386D02*
X99934649Y41743767D01*
X99934649Y41743767D02*
X99982268Y41791386D01*
X99982268Y41791386D02*
X99934649Y41839005D01*
X99934649Y41839005D02*
X99934649Y41743767D01*
X98696554Y41219957D02*
X98696554Y42219957D01*
X98696554Y42219957D02*
X98315602Y42219957D01*
X98315602Y42219957D02*
X98220364Y42172338D01*
X98220364Y42172338D02*
X98172745Y42124719D01*
X98172745Y42124719D02*
X98125126Y42029481D01*
X98125126Y42029481D02*
X98125126Y41886624D01*
X98125126Y41886624D02*
X98172745Y41791386D01*
X98172745Y41791386D02*
X98220364Y41743767D01*
X98220364Y41743767D02*
X98315602Y41696148D01*
X98315602Y41696148D02*
X98696554Y41696148D01*
X97696554Y42219957D02*
X97696554Y41410434D01*
X97696554Y41410434D02*
X97648935Y41315196D01*
X97648935Y41315196D02*
X97601316Y41267576D01*
X97601316Y41267576D02*
X97506078Y41219957D01*
X97506078Y41219957D02*
X97315602Y41219957D01*
X97315602Y41219957D02*
X97220364Y41267576D01*
X97220364Y41267576D02*
X97172745Y41315196D01*
X97172745Y41315196D02*
X97125126Y41410434D01*
X97125126Y41410434D02*
X97125126Y42219957D01*
X96648935Y41219957D02*
X96648935Y42219957D01*
X96648935Y42219957D02*
X96315602Y41505672D01*
X96315602Y41505672D02*
X95982269Y42219957D01*
X95982269Y42219957D02*
X95982269Y41219957D01*
X95506078Y41219957D02*
X95506078Y42219957D01*
X95506078Y42219957D02*
X95125126Y42219957D01*
X95125126Y42219957D02*
X95029888Y42172338D01*
X95029888Y42172338D02*
X94982269Y42124719D01*
X94982269Y42124719D02*
X94934650Y42029481D01*
X94934650Y42029481D02*
X94934650Y41886624D01*
X94934650Y41886624D02*
X94982269Y41791386D01*
X94982269Y41791386D02*
X95029888Y41743767D01*
X95029888Y41743767D02*
X95125126Y41696148D01*
X95125126Y41696148D02*
X95506078Y41696148D01*
X94744174Y41124719D02*
X93982269Y41124719D01*
X93791792Y42124719D02*
X93744173Y42172338D01*
X93744173Y42172338D02*
X93648935Y42219957D01*
X93648935Y42219957D02*
X93410840Y42219957D01*
X93410840Y42219957D02*
X93315602Y42172338D01*
X93315602Y42172338D02*
X93267983Y42124719D01*
X93267983Y42124719D02*
X93220364Y42029481D01*
X93220364Y42029481D02*
X93220364Y41934243D01*
X93220364Y41934243D02*
X93267983Y41791386D01*
X93267983Y41791386D02*
X93839411Y41219957D01*
X93839411Y41219957D02*
X93220364Y41219957D01*
X93029888Y41124719D02*
X92267983Y41124719D01*
X92029887Y41743767D02*
X91696554Y41743767D01*
X91553697Y41219957D02*
X92029887Y41219957D01*
X92029887Y41219957D02*
X92029887Y42219957D01*
X92029887Y42219957D02*
X91553697Y42219957D01*
X91125125Y41219957D02*
X91125125Y42219957D01*
X91125125Y42219957D02*
X90553697Y41219957D01*
X90553697Y41219957D02*
X90553697Y42219957D01*
X90125125Y41505672D02*
X89648935Y41505672D01*
X90220363Y41219957D02*
X89887030Y42219957D01*
X89887030Y42219957D02*
X89553697Y41219957D01*
X88887030Y41743767D02*
X88744173Y41696148D01*
X88744173Y41696148D02*
X88696554Y41648529D01*
X88696554Y41648529D02*
X88648935Y41553291D01*
X88648935Y41553291D02*
X88648935Y41410434D01*
X88648935Y41410434D02*
X88696554Y41315196D01*
X88696554Y41315196D02*
X88744173Y41267576D01*
X88744173Y41267576D02*
X88839411Y41219957D01*
X88839411Y41219957D02*
X89220363Y41219957D01*
X89220363Y41219957D02*
X89220363Y42219957D01*
X89220363Y42219957D02*
X88887030Y42219957D01*
X88887030Y42219957D02*
X88791792Y42172338D01*
X88791792Y42172338D02*
X88744173Y42124719D01*
X88744173Y42124719D02*
X88696554Y42029481D01*
X88696554Y42029481D02*
X88696554Y41934243D01*
X88696554Y41934243D02*
X88744173Y41839005D01*
X88744173Y41839005D02*
X88791792Y41791386D01*
X88791792Y41791386D02*
X88887030Y41743767D01*
X88887030Y41743767D02*
X89220363Y41743767D01*
X87744173Y41219957D02*
X88220363Y41219957D01*
X88220363Y41219957D02*
X88220363Y42219957D01*
X87410839Y41743767D02*
X87077506Y41743767D01*
X86934649Y41219957D02*
X87410839Y41219957D01*
X87410839Y41219957D02*
X87410839Y42219957D01*
X87410839Y42219957D02*
X86934649Y42219957D01*
X103363220Y39610013D02*
X103363220Y40610013D01*
X102696554Y40610013D02*
X102506078Y40610013D01*
X102506078Y40610013D02*
X102410840Y40562394D01*
X102410840Y40562394D02*
X102315602Y40467156D01*
X102315602Y40467156D02*
X102267983Y40276680D01*
X102267983Y40276680D02*
X102267983Y39943347D01*
X102267983Y39943347D02*
X102315602Y39752871D01*
X102315602Y39752871D02*
X102410840Y39657632D01*
X102410840Y39657632D02*
X102506078Y39610013D01*
X102506078Y39610013D02*
X102696554Y39610013D01*
X102696554Y39610013D02*
X102791792Y39657632D01*
X102791792Y39657632D02*
X102887030Y39752871D01*
X102887030Y39752871D02*
X102934649Y39943347D01*
X102934649Y39943347D02*
X102934649Y40276680D01*
X102934649Y40276680D02*
X102887030Y40467156D01*
X102887030Y40467156D02*
X102791792Y40562394D01*
X102791792Y40562394D02*
X102696554Y40610013D01*
X101887030Y40514775D02*
X101839411Y40562394D01*
X101839411Y40562394D02*
X101744173Y40610013D01*
X101744173Y40610013D02*
X101506078Y40610013D01*
X101506078Y40610013D02*
X101410840Y40562394D01*
X101410840Y40562394D02*
X101363221Y40514775D01*
X101363221Y40514775D02*
X101315602Y40419537D01*
X101315602Y40419537D02*
X101315602Y40324299D01*
X101315602Y40324299D02*
X101363221Y40181442D01*
X101363221Y40181442D02*
X101934649Y39610013D01*
X101934649Y39610013D02*
X101315602Y39610013D01*
X100982268Y40610013D02*
X100315602Y40610013D01*
X100315602Y40610013D02*
X100744173Y39610013D01*
X99934649Y39705252D02*
X99887030Y39657632D01*
X99887030Y39657632D02*
X99934649Y39610013D01*
X99934649Y39610013D02*
X99982268Y39657632D01*
X99982268Y39657632D02*
X99934649Y39705252D01*
X99934649Y39705252D02*
X99934649Y39610013D01*
X99934649Y40229061D02*
X99887030Y40181442D01*
X99887030Y40181442D02*
X99934649Y40133823D01*
X99934649Y40133823D02*
X99982268Y40181442D01*
X99982268Y40181442D02*
X99934649Y40229061D01*
X99934649Y40229061D02*
X99934649Y40133823D01*
X98696554Y39610013D02*
X98696554Y40610013D01*
X98696554Y40610013D02*
X98315602Y40610013D01*
X98315602Y40610013D02*
X98220364Y40562394D01*
X98220364Y40562394D02*
X98172745Y40514775D01*
X98172745Y40514775D02*
X98125126Y40419537D01*
X98125126Y40419537D02*
X98125126Y40276680D01*
X98125126Y40276680D02*
X98172745Y40181442D01*
X98172745Y40181442D02*
X98220364Y40133823D01*
X98220364Y40133823D02*
X98315602Y40086204D01*
X98315602Y40086204D02*
X98696554Y40086204D01*
X97696554Y40610013D02*
X97696554Y39800490D01*
X97696554Y39800490D02*
X97648935Y39705252D01*
X97648935Y39705252D02*
X97601316Y39657632D01*
X97601316Y39657632D02*
X97506078Y39610013D01*
X97506078Y39610013D02*
X97315602Y39610013D01*
X97315602Y39610013D02*
X97220364Y39657632D01*
X97220364Y39657632D02*
X97172745Y39705252D01*
X97172745Y39705252D02*
X97125126Y39800490D01*
X97125126Y39800490D02*
X97125126Y40610013D01*
X96648935Y39610013D02*
X96648935Y40610013D01*
X96648935Y40610013D02*
X96315602Y39895728D01*
X96315602Y39895728D02*
X95982269Y40610013D01*
X95982269Y40610013D02*
X95982269Y39610013D01*
X95506078Y39610013D02*
X95506078Y40610013D01*
X95506078Y40610013D02*
X95125126Y40610013D01*
X95125126Y40610013D02*
X95029888Y40562394D01*
X95029888Y40562394D02*
X94982269Y40514775D01*
X94982269Y40514775D02*
X94934650Y40419537D01*
X94934650Y40419537D02*
X94934650Y40276680D01*
X94934650Y40276680D02*
X94982269Y40181442D01*
X94982269Y40181442D02*
X95029888Y40133823D01*
X95029888Y40133823D02*
X95125126Y40086204D01*
X95125126Y40086204D02*
X95506078Y40086204D01*
X94744174Y39514775D02*
X93982269Y39514775D01*
X93220364Y39610013D02*
X93791792Y39610013D01*
X93506078Y39610013D02*
X93506078Y40610013D01*
X93506078Y40610013D02*
X93601316Y40467156D01*
X93601316Y40467156D02*
X93696554Y40371918D01*
X93696554Y40371918D02*
X93791792Y40324299D01*
X93029888Y39514775D02*
X92267983Y39514775D01*
X92029887Y40133823D02*
X91696554Y40133823D01*
X91553697Y39610013D02*
X92029887Y39610013D01*
X92029887Y39610013D02*
X92029887Y40610013D01*
X92029887Y40610013D02*
X91553697Y40610013D01*
X91125125Y39610013D02*
X91125125Y40610013D01*
X91125125Y40610013D02*
X90553697Y39610013D01*
X90553697Y39610013D02*
X90553697Y40610013D01*
X90125125Y39895728D02*
X89648935Y39895728D01*
X90220363Y39610013D02*
X89887030Y40610013D01*
X89887030Y40610013D02*
X89553697Y39610013D01*
X88887030Y40133823D02*
X88744173Y40086204D01*
X88744173Y40086204D02*
X88696554Y40038585D01*
X88696554Y40038585D02*
X88648935Y39943347D01*
X88648935Y39943347D02*
X88648935Y39800490D01*
X88648935Y39800490D02*
X88696554Y39705252D01*
X88696554Y39705252D02*
X88744173Y39657632D01*
X88744173Y39657632D02*
X88839411Y39610013D01*
X88839411Y39610013D02*
X89220363Y39610013D01*
X89220363Y39610013D02*
X89220363Y40610013D01*
X89220363Y40610013D02*
X88887030Y40610013D01*
X88887030Y40610013D02*
X88791792Y40562394D01*
X88791792Y40562394D02*
X88744173Y40514775D01*
X88744173Y40514775D02*
X88696554Y40419537D01*
X88696554Y40419537D02*
X88696554Y40324299D01*
X88696554Y40324299D02*
X88744173Y40229061D01*
X88744173Y40229061D02*
X88791792Y40181442D01*
X88791792Y40181442D02*
X88887030Y40133823D01*
X88887030Y40133823D02*
X89220363Y40133823D01*
X87744173Y39610013D02*
X88220363Y39610013D01*
X88220363Y39610013D02*
X88220363Y40610013D01*
X87410839Y40133823D02*
X87077506Y40133823D01*
X86934649Y39610013D02*
X87410839Y39610013D01*
X87410839Y39610013D02*
X87410839Y40610013D01*
X87410839Y40610013D02*
X86934649Y40610013D01*
X103363220Y38000069D02*
X103363220Y39000069D01*
X102696554Y39000069D02*
X102506078Y39000069D01*
X102506078Y39000069D02*
X102410840Y38952450D01*
X102410840Y38952450D02*
X102315602Y38857212D01*
X102315602Y38857212D02*
X102267983Y38666736D01*
X102267983Y38666736D02*
X102267983Y38333403D01*
X102267983Y38333403D02*
X102315602Y38142927D01*
X102315602Y38142927D02*
X102410840Y38047688D01*
X102410840Y38047688D02*
X102506078Y38000069D01*
X102506078Y38000069D02*
X102696554Y38000069D01*
X102696554Y38000069D02*
X102791792Y38047688D01*
X102791792Y38047688D02*
X102887030Y38142927D01*
X102887030Y38142927D02*
X102934649Y38333403D01*
X102934649Y38333403D02*
X102934649Y38666736D01*
X102934649Y38666736D02*
X102887030Y38857212D01*
X102887030Y38857212D02*
X102791792Y38952450D01*
X102791792Y38952450D02*
X102696554Y39000069D01*
X101934649Y39000069D02*
X101315602Y39000069D01*
X101315602Y39000069D02*
X101648935Y38619117D01*
X101648935Y38619117D02*
X101506078Y38619117D01*
X101506078Y38619117D02*
X101410840Y38571498D01*
X101410840Y38571498D02*
X101363221Y38523879D01*
X101363221Y38523879D02*
X101315602Y38428641D01*
X101315602Y38428641D02*
X101315602Y38190546D01*
X101315602Y38190546D02*
X101363221Y38095308D01*
X101363221Y38095308D02*
X101410840Y38047688D01*
X101410840Y38047688D02*
X101506078Y38000069D01*
X101506078Y38000069D02*
X101791792Y38000069D01*
X101791792Y38000069D02*
X101887030Y38047688D01*
X101887030Y38047688D02*
X101934649Y38095308D01*
X100934649Y38904831D02*
X100887030Y38952450D01*
X100887030Y38952450D02*
X100791792Y39000069D01*
X100791792Y39000069D02*
X100553697Y39000069D01*
X100553697Y39000069D02*
X100458459Y38952450D01*
X100458459Y38952450D02*
X100410840Y38904831D01*
X100410840Y38904831D02*
X100363221Y38809593D01*
X100363221Y38809593D02*
X100363221Y38714355D01*
X100363221Y38714355D02*
X100410840Y38571498D01*
X100410840Y38571498D02*
X100982268Y38000069D01*
X100982268Y38000069D02*
X100363221Y38000069D01*
X99934649Y38095308D02*
X99887030Y38047688D01*
X99887030Y38047688D02*
X99934649Y38000069D01*
X99934649Y38000069D02*
X99982268Y38047688D01*
X99982268Y38047688D02*
X99934649Y38095308D01*
X99934649Y38095308D02*
X99934649Y38000069D01*
X99934649Y38619117D02*
X99887030Y38571498D01*
X99887030Y38571498D02*
X99934649Y38523879D01*
X99934649Y38523879D02*
X99982268Y38571498D01*
X99982268Y38571498D02*
X99934649Y38619117D01*
X99934649Y38619117D02*
X99934649Y38523879D01*
X98696554Y38000069D02*
X98696554Y39000069D01*
X98696554Y39000069D02*
X98458459Y39000069D01*
X98458459Y39000069D02*
X98315602Y38952450D01*
X98315602Y38952450D02*
X98220364Y38857212D01*
X98220364Y38857212D02*
X98172745Y38761974D01*
X98172745Y38761974D02*
X98125126Y38571498D01*
X98125126Y38571498D02*
X98125126Y38428641D01*
X98125126Y38428641D02*
X98172745Y38238165D01*
X98172745Y38238165D02*
X98220364Y38142927D01*
X98220364Y38142927D02*
X98315602Y38047688D01*
X98315602Y38047688D02*
X98458459Y38000069D01*
X98458459Y38000069D02*
X98696554Y38000069D01*
X97696554Y38000069D02*
X97696554Y39000069D01*
X97267983Y38047688D02*
X97125126Y38000069D01*
X97125126Y38000069D02*
X96887031Y38000069D01*
X96887031Y38000069D02*
X96791793Y38047688D01*
X96791793Y38047688D02*
X96744174Y38095308D01*
X96744174Y38095308D02*
X96696555Y38190546D01*
X96696555Y38190546D02*
X96696555Y38285784D01*
X96696555Y38285784D02*
X96744174Y38381022D01*
X96744174Y38381022D02*
X96791793Y38428641D01*
X96791793Y38428641D02*
X96887031Y38476260D01*
X96887031Y38476260D02*
X97077507Y38523879D01*
X97077507Y38523879D02*
X97172745Y38571498D01*
X97172745Y38571498D02*
X97220364Y38619117D01*
X97220364Y38619117D02*
X97267983Y38714355D01*
X97267983Y38714355D02*
X97267983Y38809593D01*
X97267983Y38809593D02*
X97220364Y38904831D01*
X97220364Y38904831D02*
X97172745Y38952450D01*
X97172745Y38952450D02*
X97077507Y39000069D01*
X97077507Y39000069D02*
X96839412Y39000069D01*
X96839412Y39000069D02*
X96696555Y38952450D01*
X96267983Y38000069D02*
X96267983Y39000069D01*
X96267983Y39000069D02*
X95887031Y39000069D01*
X95887031Y39000069D02*
X95791793Y38952450D01*
X95791793Y38952450D02*
X95744174Y38904831D01*
X95744174Y38904831D02*
X95696555Y38809593D01*
X95696555Y38809593D02*
X95696555Y38666736D01*
X95696555Y38666736D02*
X95744174Y38571498D01*
X95744174Y38571498D02*
X95791793Y38523879D01*
X95791793Y38523879D02*
X95887031Y38476260D01*
X95887031Y38476260D02*
X96267983Y38476260D01*
X94791793Y38000069D02*
X95267983Y38000069D01*
X95267983Y38000069D02*
X95267983Y39000069D01*
X94506078Y38285784D02*
X94029888Y38285784D01*
X94601316Y38000069D02*
X94267983Y39000069D01*
X94267983Y39000069D02*
X93934650Y38000069D01*
X93410840Y38476260D02*
X93410840Y38000069D01*
X93744173Y39000069D02*
X93410840Y38476260D01*
X93410840Y38476260D02*
X93077507Y39000069D01*
X92982269Y37904831D02*
X92220364Y37904831D01*
X91982268Y38523879D02*
X91648935Y38523879D01*
X91506078Y38000069D02*
X91982268Y38000069D01*
X91982268Y38000069D02*
X91982268Y39000069D01*
X91982268Y39000069D02*
X91506078Y39000069D01*
X91077506Y38000069D02*
X91077506Y39000069D01*
X91077506Y39000069D02*
X90506078Y38000069D01*
X90506078Y38000069D02*
X90506078Y39000069D01*
X90077506Y38285784D02*
X89601316Y38285784D01*
X90172744Y38000069D02*
X89839411Y39000069D01*
X89839411Y39000069D02*
X89506078Y38000069D01*
X88839411Y38523879D02*
X88696554Y38476260D01*
X88696554Y38476260D02*
X88648935Y38428641D01*
X88648935Y38428641D02*
X88601316Y38333403D01*
X88601316Y38333403D02*
X88601316Y38190546D01*
X88601316Y38190546D02*
X88648935Y38095308D01*
X88648935Y38095308D02*
X88696554Y38047688D01*
X88696554Y38047688D02*
X88791792Y38000069D01*
X88791792Y38000069D02*
X89172744Y38000069D01*
X89172744Y38000069D02*
X89172744Y39000069D01*
X89172744Y39000069D02*
X88839411Y39000069D01*
X88839411Y39000069D02*
X88744173Y38952450D01*
X88744173Y38952450D02*
X88696554Y38904831D01*
X88696554Y38904831D02*
X88648935Y38809593D01*
X88648935Y38809593D02*
X88648935Y38714355D01*
X88648935Y38714355D02*
X88696554Y38619117D01*
X88696554Y38619117D02*
X88744173Y38571498D01*
X88744173Y38571498D02*
X88839411Y38523879D01*
X88839411Y38523879D02*
X89172744Y38523879D01*
X87696554Y38000069D02*
X88172744Y38000069D01*
X88172744Y38000069D02*
X88172744Y39000069D01*
X87363220Y38523879D02*
X87029887Y38523879D01*
X86887030Y38000069D02*
X87363220Y38000069D01*
X87363220Y38000069D02*
X87363220Y39000069D01*
X87363220Y39000069D02*
X86887030Y39000069D01*
X103363220Y36390125D02*
X103363220Y37390125D01*
X102696554Y37390125D02*
X102506078Y37390125D01*
X102506078Y37390125D02*
X102410840Y37342506D01*
X102410840Y37342506D02*
X102315602Y37247268D01*
X102315602Y37247268D02*
X102267983Y37056792D01*
X102267983Y37056792D02*
X102267983Y36723459D01*
X102267983Y36723459D02*
X102315602Y36532983D01*
X102315602Y36532983D02*
X102410840Y36437744D01*
X102410840Y36437744D02*
X102506078Y36390125D01*
X102506078Y36390125D02*
X102696554Y36390125D01*
X102696554Y36390125D02*
X102791792Y36437744D01*
X102791792Y36437744D02*
X102887030Y36532983D01*
X102887030Y36532983D02*
X102934649Y36723459D01*
X102934649Y36723459D02*
X102934649Y37056792D01*
X102934649Y37056792D02*
X102887030Y37247268D01*
X102887030Y37247268D02*
X102791792Y37342506D01*
X102791792Y37342506D02*
X102696554Y37390125D01*
X101934649Y37390125D02*
X101315602Y37390125D01*
X101315602Y37390125D02*
X101648935Y37009173D01*
X101648935Y37009173D02*
X101506078Y37009173D01*
X101506078Y37009173D02*
X101410840Y36961554D01*
X101410840Y36961554D02*
X101363221Y36913935D01*
X101363221Y36913935D02*
X101315602Y36818697D01*
X101315602Y36818697D02*
X101315602Y36580602D01*
X101315602Y36580602D02*
X101363221Y36485364D01*
X101363221Y36485364D02*
X101410840Y36437744D01*
X101410840Y36437744D02*
X101506078Y36390125D01*
X101506078Y36390125D02*
X101791792Y36390125D01*
X101791792Y36390125D02*
X101887030Y36437744D01*
X101887030Y36437744D02*
X101934649Y36485364D01*
X100458459Y37056792D02*
X100458459Y36390125D01*
X100696554Y37437744D02*
X100934649Y36723459D01*
X100934649Y36723459D02*
X100315602Y36723459D01*
X99934649Y36485364D02*
X99887030Y36437744D01*
X99887030Y36437744D02*
X99934649Y36390125D01*
X99934649Y36390125D02*
X99982268Y36437744D01*
X99982268Y36437744D02*
X99934649Y36485364D01*
X99934649Y36485364D02*
X99934649Y36390125D01*
X99934649Y37009173D02*
X99887030Y36961554D01*
X99887030Y36961554D02*
X99934649Y36913935D01*
X99934649Y36913935D02*
X99982268Y36961554D01*
X99982268Y36961554D02*
X99934649Y37009173D01*
X99934649Y37009173D02*
X99934649Y36913935D01*
X98744173Y36437744D02*
X98601316Y36390125D01*
X98601316Y36390125D02*
X98363221Y36390125D01*
X98363221Y36390125D02*
X98267983Y36437744D01*
X98267983Y36437744D02*
X98220364Y36485364D01*
X98220364Y36485364D02*
X98172745Y36580602D01*
X98172745Y36580602D02*
X98172745Y36675840D01*
X98172745Y36675840D02*
X98220364Y36771078D01*
X98220364Y36771078D02*
X98267983Y36818697D01*
X98267983Y36818697D02*
X98363221Y36866316D01*
X98363221Y36866316D02*
X98553697Y36913935D01*
X98553697Y36913935D02*
X98648935Y36961554D01*
X98648935Y36961554D02*
X98696554Y37009173D01*
X98696554Y37009173D02*
X98744173Y37104411D01*
X98744173Y37104411D02*
X98744173Y37199649D01*
X98744173Y37199649D02*
X98696554Y37294887D01*
X98696554Y37294887D02*
X98648935Y37342506D01*
X98648935Y37342506D02*
X98553697Y37390125D01*
X98553697Y37390125D02*
X98315602Y37390125D01*
X98315602Y37390125D02*
X98172745Y37342506D01*
X97887030Y37390125D02*
X97315602Y37390125D01*
X97601316Y36390125D02*
X97601316Y37390125D01*
X97029887Y36675840D02*
X96553697Y36675840D01*
X97125125Y36390125D02*
X96791792Y37390125D01*
X96791792Y37390125D02*
X96458459Y36390125D01*
X95553697Y36390125D02*
X95887030Y36866316D01*
X96125125Y36390125D02*
X96125125Y37390125D01*
X96125125Y37390125D02*
X95744173Y37390125D01*
X95744173Y37390125D02*
X95648935Y37342506D01*
X95648935Y37342506D02*
X95601316Y37294887D01*
X95601316Y37294887D02*
X95553697Y37199649D01*
X95553697Y37199649D02*
X95553697Y37056792D01*
X95553697Y37056792D02*
X95601316Y36961554D01*
X95601316Y36961554D02*
X95648935Y36913935D01*
X95648935Y36913935D02*
X95744173Y36866316D01*
X95744173Y36866316D02*
X96125125Y36866316D01*
X95267982Y37390125D02*
X94696554Y37390125D01*
X94982268Y36390125D02*
X94982268Y37390125D01*
X94601316Y36294887D02*
X93839411Y36294887D01*
X93267982Y36913935D02*
X93125125Y36866316D01*
X93125125Y36866316D02*
X93077506Y36818697D01*
X93077506Y36818697D02*
X93029887Y36723459D01*
X93029887Y36723459D02*
X93029887Y36580602D01*
X93029887Y36580602D02*
X93077506Y36485364D01*
X93077506Y36485364D02*
X93125125Y36437744D01*
X93125125Y36437744D02*
X93220363Y36390125D01*
X93220363Y36390125D02*
X93601315Y36390125D01*
X93601315Y36390125D02*
X93601315Y37390125D01*
X93601315Y37390125D02*
X93267982Y37390125D01*
X93267982Y37390125D02*
X93172744Y37342506D01*
X93172744Y37342506D02*
X93125125Y37294887D01*
X93125125Y37294887D02*
X93077506Y37199649D01*
X93077506Y37199649D02*
X93077506Y37104411D01*
X93077506Y37104411D02*
X93125125Y37009173D01*
X93125125Y37009173D02*
X93172744Y36961554D01*
X93172744Y36961554D02*
X93267982Y36913935D01*
X93267982Y36913935D02*
X93601315Y36913935D01*
X92601315Y37390125D02*
X92601315Y36580602D01*
X92601315Y36580602D02*
X92553696Y36485364D01*
X92553696Y36485364D02*
X92506077Y36437744D01*
X92506077Y36437744D02*
X92410839Y36390125D01*
X92410839Y36390125D02*
X92220363Y36390125D01*
X92220363Y36390125D02*
X92125125Y36437744D01*
X92125125Y36437744D02*
X92077506Y36485364D01*
X92077506Y36485364D02*
X92029887Y36580602D01*
X92029887Y36580602D02*
X92029887Y37390125D01*
X91696553Y37390125D02*
X91125125Y37390125D01*
X91410839Y36390125D02*
X91410839Y37390125D01*
X90934648Y37390125D02*
X90363220Y37390125D01*
X90648934Y36390125D02*
X90648934Y37390125D01*
X89839410Y37390125D02*
X89648934Y37390125D01*
X89648934Y37390125D02*
X89553696Y37342506D01*
X89553696Y37342506D02*
X89458458Y37247268D01*
X89458458Y37247268D02*
X89410839Y37056792D01*
X89410839Y37056792D02*
X89410839Y36723459D01*
X89410839Y36723459D02*
X89458458Y36532983D01*
X89458458Y36532983D02*
X89553696Y36437744D01*
X89553696Y36437744D02*
X89648934Y36390125D01*
X89648934Y36390125D02*
X89839410Y36390125D01*
X89839410Y36390125D02*
X89934648Y36437744D01*
X89934648Y36437744D02*
X90029886Y36532983D01*
X90029886Y36532983D02*
X90077505Y36723459D01*
X90077505Y36723459D02*
X90077505Y37056792D01*
X90077505Y37056792D02*
X90029886Y37247268D01*
X90029886Y37247268D02*
X89934648Y37342506D01*
X89934648Y37342506D02*
X89839410Y37390125D01*
X88982267Y36390125D02*
X88982267Y37390125D01*
X88982267Y37390125D02*
X88410839Y36390125D01*
X88410839Y36390125D02*
X88410839Y37390125D01*
X103363220Y34780181D02*
X103363220Y35780181D01*
X102696554Y35780181D02*
X102506078Y35780181D01*
X102506078Y35780181D02*
X102410840Y35732562D01*
X102410840Y35732562D02*
X102315602Y35637324D01*
X102315602Y35637324D02*
X102267983Y35446848D01*
X102267983Y35446848D02*
X102267983Y35113515D01*
X102267983Y35113515D02*
X102315602Y34923039D01*
X102315602Y34923039D02*
X102410840Y34827800D01*
X102410840Y34827800D02*
X102506078Y34780181D01*
X102506078Y34780181D02*
X102696554Y34780181D01*
X102696554Y34780181D02*
X102791792Y34827800D01*
X102791792Y34827800D02*
X102887030Y34923039D01*
X102887030Y34923039D02*
X102934649Y35113515D01*
X102934649Y35113515D02*
X102934649Y35446848D01*
X102934649Y35446848D02*
X102887030Y35637324D01*
X102887030Y35637324D02*
X102791792Y35732562D01*
X102791792Y35732562D02*
X102696554Y35780181D01*
X101934649Y35780181D02*
X101315602Y35780181D01*
X101315602Y35780181D02*
X101648935Y35399229D01*
X101648935Y35399229D02*
X101506078Y35399229D01*
X101506078Y35399229D02*
X101410840Y35351610D01*
X101410840Y35351610D02*
X101363221Y35303991D01*
X101363221Y35303991D02*
X101315602Y35208753D01*
X101315602Y35208753D02*
X101315602Y34970658D01*
X101315602Y34970658D02*
X101363221Y34875420D01*
X101363221Y34875420D02*
X101410840Y34827800D01*
X101410840Y34827800D02*
X101506078Y34780181D01*
X101506078Y34780181D02*
X101791792Y34780181D01*
X101791792Y34780181D02*
X101887030Y34827800D01*
X101887030Y34827800D02*
X101934649Y34875420D01*
X100410840Y35780181D02*
X100887030Y35780181D01*
X100887030Y35780181D02*
X100934649Y35303991D01*
X100934649Y35303991D02*
X100887030Y35351610D01*
X100887030Y35351610D02*
X100791792Y35399229D01*
X100791792Y35399229D02*
X100553697Y35399229D01*
X100553697Y35399229D02*
X100458459Y35351610D01*
X100458459Y35351610D02*
X100410840Y35303991D01*
X100410840Y35303991D02*
X100363221Y35208753D01*
X100363221Y35208753D02*
X100363221Y34970658D01*
X100363221Y34970658D02*
X100410840Y34875420D01*
X100410840Y34875420D02*
X100458459Y34827800D01*
X100458459Y34827800D02*
X100553697Y34780181D01*
X100553697Y34780181D02*
X100791792Y34780181D01*
X100791792Y34780181D02*
X100887030Y34827800D01*
X100887030Y34827800D02*
X100934649Y34875420D01*
X99934649Y34875420D02*
X99887030Y34827800D01*
X99887030Y34827800D02*
X99934649Y34780181D01*
X99934649Y34780181D02*
X99982268Y34827800D01*
X99982268Y34827800D02*
X99934649Y34875420D01*
X99934649Y34875420D02*
X99934649Y34780181D01*
X99934649Y35399229D02*
X99887030Y35351610D01*
X99887030Y35351610D02*
X99934649Y35303991D01*
X99934649Y35303991D02*
X99982268Y35351610D01*
X99982268Y35351610D02*
X99934649Y35399229D01*
X99934649Y35399229D02*
X99934649Y35303991D01*
X98744173Y34827800D02*
X98601316Y34780181D01*
X98601316Y34780181D02*
X98363221Y34780181D01*
X98363221Y34780181D02*
X98267983Y34827800D01*
X98267983Y34827800D02*
X98220364Y34875420D01*
X98220364Y34875420D02*
X98172745Y34970658D01*
X98172745Y34970658D02*
X98172745Y35065896D01*
X98172745Y35065896D02*
X98220364Y35161134D01*
X98220364Y35161134D02*
X98267983Y35208753D01*
X98267983Y35208753D02*
X98363221Y35256372D01*
X98363221Y35256372D02*
X98553697Y35303991D01*
X98553697Y35303991D02*
X98648935Y35351610D01*
X98648935Y35351610D02*
X98696554Y35399229D01*
X98696554Y35399229D02*
X98744173Y35494467D01*
X98744173Y35494467D02*
X98744173Y35589705D01*
X98744173Y35589705D02*
X98696554Y35684943D01*
X98696554Y35684943D02*
X98648935Y35732562D01*
X98648935Y35732562D02*
X98553697Y35780181D01*
X98553697Y35780181D02*
X98315602Y35780181D01*
X98315602Y35780181D02*
X98172745Y35732562D01*
X97744173Y35303991D02*
X97410840Y35303991D01*
X97267983Y34780181D02*
X97744173Y34780181D01*
X97744173Y34780181D02*
X97744173Y35780181D01*
X97744173Y35780181D02*
X97267983Y35780181D01*
X96363221Y34780181D02*
X96839411Y34780181D01*
X96839411Y34780181D02*
X96839411Y35780181D01*
X96029887Y35303991D02*
X95696554Y35303991D01*
X95553697Y34780181D02*
X96029887Y34780181D01*
X96029887Y34780181D02*
X96029887Y35780181D01*
X96029887Y35780181D02*
X95553697Y35780181D01*
X94553697Y34875420D02*
X94601316Y34827800D01*
X94601316Y34827800D02*
X94744173Y34780181D01*
X94744173Y34780181D02*
X94839411Y34780181D01*
X94839411Y34780181D02*
X94982268Y34827800D01*
X94982268Y34827800D02*
X95077506Y34923039D01*
X95077506Y34923039D02*
X95125125Y35018277D01*
X95125125Y35018277D02*
X95172744Y35208753D01*
X95172744Y35208753D02*
X95172744Y35351610D01*
X95172744Y35351610D02*
X95125125Y35542086D01*
X95125125Y35542086D02*
X95077506Y35637324D01*
X95077506Y35637324D02*
X94982268Y35732562D01*
X94982268Y35732562D02*
X94839411Y35780181D01*
X94839411Y35780181D02*
X94744173Y35780181D01*
X94744173Y35780181D02*
X94601316Y35732562D01*
X94601316Y35732562D02*
X94553697Y35684943D01*
X94267982Y35780181D02*
X93696554Y35780181D01*
X93982268Y34780181D02*
X93982268Y35780181D01*
X93601316Y34684943D02*
X92839411Y34684943D01*
X92125125Y34780181D02*
X92601315Y34780181D01*
X92601315Y34780181D02*
X92601315Y35780181D01*
X91791791Y34780181D02*
X91791791Y35780181D01*
X91315601Y34780181D02*
X91315601Y35780181D01*
X91315601Y35780181D02*
X90744173Y34780181D01*
X90744173Y34780181D02*
X90744173Y35780181D01*
X90267982Y35303991D02*
X89934649Y35303991D01*
X89791792Y34780181D02*
X90267982Y34780181D01*
X90267982Y34780181D02*
X90267982Y35780181D01*
X90267982Y35780181D02*
X89791792Y35780181D01*
X78472200Y65260840D02*
X78519819Y65117983D01*
X78519819Y65117983D02*
X78519819Y64879888D01*
X78519819Y64879888D02*
X78472200Y64784650D01*
X78472200Y64784650D02*
X78424580Y64737031D01*
X78424580Y64737031D02*
X78329342Y64689412D01*
X78329342Y64689412D02*
X78234104Y64689412D01*
X78234104Y64689412D02*
X78138866Y64737031D01*
X78138866Y64737031D02*
X78091247Y64784650D01*
X78091247Y64784650D02*
X78043628Y64879888D01*
X78043628Y64879888D02*
X77996009Y65070364D01*
X77996009Y65070364D02*
X77948390Y65165602D01*
X77948390Y65165602D02*
X77900771Y65213221D01*
X77900771Y65213221D02*
X77805533Y65260840D01*
X77805533Y65260840D02*
X77710295Y65260840D01*
X77710295Y65260840D02*
X77615057Y65213221D01*
X77615057Y65213221D02*
X77567438Y65165602D01*
X77567438Y65165602D02*
X77519819Y65070364D01*
X77519819Y65070364D02*
X77519819Y64832269D01*
X77519819Y64832269D02*
X77567438Y64689412D01*
X78519819Y64260840D02*
X77519819Y64260840D01*
X77567438Y63260841D02*
X77519819Y63356079D01*
X77519819Y63356079D02*
X77519819Y63498936D01*
X77519819Y63498936D02*
X77567438Y63641793D01*
X77567438Y63641793D02*
X77662676Y63737031D01*
X77662676Y63737031D02*
X77757914Y63784650D01*
X77757914Y63784650D02*
X77948390Y63832269D01*
X77948390Y63832269D02*
X78091247Y63832269D01*
X78091247Y63832269D02*
X78281723Y63784650D01*
X78281723Y63784650D02*
X78376961Y63737031D01*
X78376961Y63737031D02*
X78472200Y63641793D01*
X78472200Y63641793D02*
X78519819Y63498936D01*
X78519819Y63498936D02*
X78519819Y63403698D01*
X78519819Y63403698D02*
X78472200Y63260841D01*
X78472200Y63260841D02*
X78424580Y63213222D01*
X78424580Y63213222D02*
X78091247Y63213222D01*
X78091247Y63213222D02*
X78091247Y63403698D01*
X43889411Y27282562D02*
X43984649Y27330181D01*
X43984649Y27330181D02*
X44127506Y27330181D01*
X44127506Y27330181D02*
X44270363Y27282562D01*
X44270363Y27282562D02*
X44365601Y27187324D01*
X44365601Y27187324D02*
X44413220Y27092086D01*
X44413220Y27092086D02*
X44460839Y26901610D01*
X44460839Y26901610D02*
X44460839Y26758753D01*
X44460839Y26758753D02*
X44413220Y26568277D01*
X44413220Y26568277D02*
X44365601Y26473039D01*
X44365601Y26473039D02*
X44270363Y26377800D01*
X44270363Y26377800D02*
X44127506Y26330181D01*
X44127506Y26330181D02*
X44032268Y26330181D01*
X44032268Y26330181D02*
X43889411Y26377800D01*
X43889411Y26377800D02*
X43841792Y26425420D01*
X43841792Y26425420D02*
X43841792Y26758753D01*
X43841792Y26758753D02*
X44032268Y26758753D01*
X43413220Y26330181D02*
X43413220Y27330181D01*
X43413220Y27330181D02*
X42841792Y26330181D01*
X42841792Y26330181D02*
X42841792Y27330181D01*
X42365601Y26330181D02*
X42365601Y27330181D01*
X42365601Y27330181D02*
X42127506Y27330181D01*
X42127506Y27330181D02*
X41984649Y27282562D01*
X41984649Y27282562D02*
X41889411Y27187324D01*
X41889411Y27187324D02*
X41841792Y27092086D01*
X41841792Y27092086D02*
X41794173Y26901610D01*
X41794173Y26901610D02*
X41794173Y26758753D01*
X41794173Y26758753D02*
X41841792Y26568277D01*
X41841792Y26568277D02*
X41889411Y26473039D01*
X41889411Y26473039D02*
X41984649Y26377800D01*
X41984649Y26377800D02*
X42127506Y26330181D01*
X42127506Y26330181D02*
X42365601Y26330181D01*
D12*
%TO.C,G\u002A\u002A\u002A*%
G36*
X63346026Y21079375D02*
G01*
X63371823Y21063578D01*
X63436008Y20998911D01*
X63472149Y20919408D01*
X63480381Y20833611D01*
X63460835Y20750064D01*
X63413645Y20677312D01*
X63338944Y20623899D01*
X63277214Y20602867D01*
X63183412Y20598468D01*
X63099293Y20625441D01*
X63031470Y20679658D01*
X62986558Y20756994D01*
X62971171Y20853325D01*
X62981653Y20931840D01*
X63023241Y21012773D01*
X63099177Y21076860D01*
X63160158Y21104289D01*
X63251597Y21111283D01*
X63346026Y21079375D01*
G37*
G36*
X57709818Y17282991D02*
G01*
X57786991Y17266413D01*
X57849544Y17235913D01*
X57885898Y17193454D01*
X57910449Y17119302D01*
X57919903Y17020532D01*
X57894994Y16937213D01*
X57835314Y16866718D01*
X57831455Y16863555D01*
X57756130Y16825387D01*
X57669908Y16815215D01*
X57583874Y16831092D01*
X57509115Y16871072D01*
X57456716Y16933207D01*
X57430555Y17017764D01*
X57435074Y17108434D01*
X57470007Y17190464D01*
X57532853Y17253330D01*
X57557924Y17266525D01*
X57629603Y17283683D01*
X57709818Y17282991D01*
G37*
G36*
X68895685Y17263796D02*
G01*
X68964881Y17214938D01*
X69000102Y17163907D01*
X69023082Y17080745D01*
X69015051Y16994927D01*
X68977516Y16916671D01*
X68911984Y16856193D01*
X68901779Y16850330D01*
X68811887Y16821357D01*
X68715718Y16822833D01*
X68628564Y16854831D01*
X68616471Y16862967D01*
X68564469Y16922938D01*
X68536170Y17001380D01*
X68532372Y17087065D01*
X68553875Y17168763D01*
X68601480Y17235247D01*
X68637187Y17260403D01*
X68719037Y17287244D01*
X68809470Y17288137D01*
X68895685Y17263796D01*
G37*
G36*
X57894844Y19076935D02*
G01*
X57974220Y19041957D01*
X58032687Y18980987D01*
X58061182Y18914703D01*
X58070888Y18826346D01*
X58053764Y18741627D01*
X58012170Y18670574D01*
X57948467Y18623213D01*
X57897145Y18604818D01*
X57816967Y18598043D01*
X57730815Y18622291D01*
X57726084Y18624318D01*
X57654262Y18673663D01*
X57612153Y18746702D01*
X57598414Y18845699D01*
X57598711Y18865951D01*
X57610669Y18951415D01*
X57643125Y19011133D01*
X57700225Y19053567D01*
X57713751Y19060101D01*
X57804657Y19083718D01*
X57894844Y19076935D01*
G37*
G36*
X63312039Y20165317D02*
G01*
X63374294Y20136429D01*
X63428820Y20081138D01*
X63472753Y19992881D01*
X63481004Y19894946D01*
X63452146Y19793624D01*
X63421396Y19743404D01*
X63369100Y19700074D01*
X63289757Y19668701D01*
X63279133Y19665925D01*
X63190441Y19665405D01*
X63088677Y19701611D01*
X63065591Y19715610D01*
X63012719Y19774421D01*
X62983320Y19851493D01*
X62977219Y19937247D01*
X62994239Y20022102D01*
X63034205Y20096479D01*
X63096938Y20150798D01*
X63150444Y20169863D01*
X63231663Y20176760D01*
X63312039Y20165317D01*
G37*
G36*
X63367409Y19209746D02*
G01*
X63391217Y19195143D01*
X63446700Y19134484D01*
X63477508Y19056455D01*
X63483842Y18970609D01*
X63465902Y18886499D01*
X63423889Y18813678D01*
X63358003Y18761698D01*
X63323029Y18747364D01*
X63229700Y18732626D01*
X63138287Y18746958D01*
X63059097Y18787732D01*
X63002433Y18852323D01*
X62995468Y18867409D01*
X62980590Y18933074D01*
X62977625Y19011018D01*
X62986339Y19084669D01*
X63006494Y19137457D01*
X63026162Y19160957D01*
X63097416Y19209725D01*
X63186055Y19235718D01*
X63280059Y19236527D01*
X63367409Y19209746D01*
G37*
G36*
X67450724Y20453008D02*
G01*
X67526220Y20413933D01*
X67584632Y20349935D01*
X67618107Y20262846D01*
X67620239Y20248898D01*
X67612849Y20161064D01*
X67573924Y20081244D01*
X67509887Y20018842D01*
X67427161Y19983263D01*
X67346965Y19977669D01*
X67254783Y19998910D01*
X67180290Y20047599D01*
X67161129Y20069755D01*
X67135283Y20123645D01*
X67122662Y20201288D01*
X67120756Y20227411D01*
X67121537Y20284312D01*
X67135252Y20325598D01*
X67166351Y20368281D01*
X67200253Y20402370D01*
X67279888Y20449059D01*
X67365996Y20465328D01*
X67450724Y20453008D01*
G37*
G36*
X68671226Y19082207D02*
G01*
X68720049Y19075464D01*
X68753676Y19057706D01*
X68786178Y19023887D01*
X68814562Y18982945D01*
X68846149Y18895300D01*
X68848048Y18804388D01*
X68820840Y18720403D01*
X68765105Y18653536D01*
X68757079Y18647753D01*
X68689443Y18620936D01*
X68606723Y18612765D01*
X68525366Y18623291D01*
X68461818Y18652569D01*
X68413756Y18704633D01*
X68378317Y18785784D01*
X68371554Y18874100D01*
X68393921Y18958861D01*
X68445871Y19029346D01*
X68460622Y19042007D01*
X68501489Y19068034D01*
X68549774Y19080119D01*
X68621187Y19083077D01*
X68671226Y19082207D01*
G37*
G36*
X59585892Y19116052D02*
G01*
X59684457Y19100367D01*
X59777427Y19077523D01*
X59853646Y19050279D01*
X59901959Y19021393D01*
X59938486Y18966319D01*
X59950693Y18892477D01*
X59934502Y18816131D01*
X59890426Y18749420D01*
X59871237Y18730856D01*
X59842458Y18709106D01*
X59809787Y18697526D01*
X59764535Y18695012D01*
X59698012Y18700462D01*
X59601529Y18712776D01*
X59485779Y18733248D01*
X59396202Y18762186D01*
X59336447Y18800605D01*
X59301945Y18850607D01*
X59284880Y18922130D01*
X59296496Y19000074D01*
X59338621Y19063646D01*
X59406631Y19106380D01*
X59495904Y19121815D01*
X59585892Y19116052D01*
G37*
G36*
X63484000Y12523736D02*
G01*
X63484000Y12510099D01*
X63483801Y12312053D01*
X63483175Y12149801D01*
X63482016Y12020255D01*
X63480222Y11920327D01*
X63477686Y11846927D01*
X63474305Y11796968D01*
X63469974Y11767362D01*
X63464588Y11755019D01*
X63458043Y11756852D01*
X63429785Y11789668D01*
X63381146Y11848444D01*
X63319994Y11923635D01*
X63252370Y12007695D01*
X63184312Y12093081D01*
X63121858Y12172247D01*
X63071049Y12237648D01*
X63037922Y12281739D01*
X62976000Y12367709D01*
X62976000Y12843470D01*
X62976000Y13319231D01*
X63230000Y13319231D01*
X63484000Y13319231D01*
X63484000Y12523736D01*
G37*
G36*
X59497013Y17904713D02*
G01*
X59529628Y17893959D01*
X59559458Y17873854D01*
X59605663Y17822073D01*
X59626841Y17748474D01*
X59615174Y17655985D01*
X59589718Y17594594D01*
X59546066Y17550294D01*
X59477832Y17520941D01*
X59377986Y17501968D01*
X59313876Y17494084D01*
X59223862Y17485861D01*
X59159039Y17485443D01*
X59110950Y17493015D01*
X59071141Y17508766D01*
X59027474Y17541641D01*
X58985368Y17612141D01*
X58970616Y17704370D01*
X58976819Y17760720D01*
X58999828Y17807293D01*
X59044101Y17842325D01*
X59114074Y17868127D01*
X59214183Y17887008D01*
X59348866Y17901277D01*
X59380300Y17903786D01*
X59450832Y17907521D01*
X59497013Y17904713D01*
G37*
G36*
X60430653Y18839152D02*
G01*
X60499024Y18811857D01*
X60579413Y18772086D01*
X60661731Y18725230D01*
X60735891Y18676682D01*
X60791805Y18631833D01*
X60830366Y18589369D01*
X60863564Y18520921D01*
X60858436Y18452527D01*
X60815263Y18381192D01*
X60797292Y18361717D01*
X60754228Y18331586D01*
X60703417Y18321832D01*
X60638890Y18333099D01*
X60554678Y18366032D01*
X60444813Y18421279D01*
X60407840Y18441334D01*
X60321930Y18492610D01*
X60265842Y18537339D01*
X60234787Y18581528D01*
X60223972Y18631182D01*
X60228607Y18692308D01*
X60236793Y18723477D01*
X60273483Y18785720D01*
X60326967Y18831072D01*
X60386237Y18848616D01*
X60430653Y18839152D01*
G37*
G36*
X61057315Y17522472D02*
G01*
X61150497Y17476039D01*
X61156798Y17471848D01*
X61264011Y17392864D01*
X61344588Y17317886D01*
X61395302Y17250384D01*
X61412923Y17193831D01*
X61412232Y17181324D01*
X61390062Y17113854D01*
X61344942Y17051814D01*
X61288109Y17011611D01*
X61252401Y16999803D01*
X61213409Y16997501D01*
X61169597Y17010485D01*
X61112214Y17041562D01*
X61032513Y17093533D01*
X61003366Y17113410D01*
X60917058Y17176305D01*
X60859449Y17228007D01*
X60826051Y17274263D01*
X60812375Y17320822D01*
X60813932Y17373431D01*
X60816869Y17391231D01*
X60847819Y17468747D01*
X60901316Y17517405D01*
X60972701Y17535787D01*
X61057315Y17522472D01*
G37*
G36*
X61448426Y19447201D02*
G01*
X61531243Y19404795D01*
X61548438Y19391830D01*
X61619794Y19332360D01*
X61689564Y19266590D01*
X61750455Y19202121D01*
X61795177Y19146555D01*
X61816435Y19107493D01*
X61819312Y19069632D01*
X61800345Y19001313D01*
X61758294Y18939280D01*
X61700948Y18897687D01*
X61666276Y18885731D01*
X61610214Y18880928D01*
X61550789Y18896782D01*
X61482824Y18935825D01*
X61401146Y19000591D01*
X61300577Y19093612D01*
X61257309Y19136992D01*
X61220169Y19182222D01*
X61202495Y19220894D01*
X61198000Y19263415D01*
X61205686Y19317256D01*
X61248583Y19394193D01*
X61292140Y19431717D01*
X61366175Y19456079D01*
X61448426Y19447201D01*
G37*
G36*
X66436469Y17860466D02*
G01*
X66487026Y17827731D01*
X66521733Y17773417D01*
X66538627Y17699454D01*
X66529826Y17626295D01*
X66496944Y17564690D01*
X66441596Y17525386D01*
X66395175Y17509701D01*
X66325648Y17488074D01*
X66248692Y17465408D01*
X66246506Y17464784D01*
X66172423Y17445096D01*
X66108468Y17430570D01*
X66068270Y17424311D01*
X66015597Y17438384D01*
X65961527Y17479934D01*
X65917481Y17538564D01*
X65893640Y17603810D01*
X65890944Y17641138D01*
X65905050Y17696385D01*
X65946373Y17742668D01*
X66018849Y17783693D01*
X66126409Y17823168D01*
X66133420Y17825368D01*
X66262545Y17859321D01*
X66362602Y17871008D01*
X66436469Y17860466D01*
G37*
G36*
X65283040Y18331415D02*
G01*
X65347655Y18288709D01*
X65363505Y18272131D01*
X65401039Y18220140D01*
X65414820Y18168618D01*
X65403203Y18112978D01*
X65364543Y18048636D01*
X65297197Y17971003D01*
X65199520Y17875493D01*
X65184468Y17861496D01*
X65109826Y17795913D01*
X65052112Y17755589D01*
X65003443Y17737309D01*
X64955936Y17737857D01*
X64901706Y17754018D01*
X64869172Y17773903D01*
X64826455Y17827804D01*
X64801434Y17895699D01*
X64801399Y17962438D01*
X64804268Y17970735D01*
X64831871Y18014950D01*
X64880390Y18073961D01*
X64942332Y18140069D01*
X65010201Y18205572D01*
X65076505Y18262771D01*
X65133750Y18303963D01*
X65211659Y18336091D01*
X65283040Y18331415D01*
G37*
G36*
X65510220Y17550113D02*
G01*
X65577603Y17513419D01*
X65627611Y17456313D01*
X65655460Y17387379D01*
X65656367Y17315204D01*
X65625548Y17248371D01*
X65606308Y17229246D01*
X65558004Y17189118D01*
X65490518Y17137287D01*
X65411379Y17079497D01*
X65328116Y17021491D01*
X65281527Y16991194D01*
X65244856Y16976445D01*
X65208727Y16980126D01*
X65156465Y17000167D01*
X65096177Y17035821D01*
X65045035Y17101626D01*
X65027539Y17186313D01*
X65029449Y17214221D01*
X65042743Y17252811D01*
X65074186Y17295054D01*
X65130116Y17351132D01*
X65146497Y17366393D01*
X65238399Y17444409D01*
X65324346Y17505321D01*
X65397848Y17544940D01*
X65452411Y17559077D01*
X65510220Y17550113D01*
G37*
G36*
X66797133Y20291641D02*
G01*
X66861049Y20246407D01*
X66905869Y20178821D01*
X66922769Y20100213D01*
X66917355Y20044269D01*
X66893921Y19990388D01*
X66847144Y19945815D01*
X66771870Y19905905D01*
X66662947Y19866012D01*
X66583314Y19840423D01*
X66513512Y19820115D01*
X66464998Y19811032D01*
X66429107Y19812576D01*
X66397179Y19824151D01*
X66360552Y19845159D01*
X66324664Y19873215D01*
X66280440Y19938019D01*
X66263149Y20012403D01*
X66274393Y20085575D01*
X66315774Y20146744D01*
X66337464Y20162674D01*
X66398084Y20194767D01*
X66477378Y20228195D01*
X66564587Y20259263D01*
X66648952Y20284278D01*
X66719714Y20299544D01*
X66766116Y20301369D01*
X66797133Y20291641D01*
G37*
G36*
X66998463Y19121400D02*
G01*
X67053257Y19116193D01*
X67090453Y19098518D01*
X67126186Y19062040D01*
X67143293Y19039359D01*
X67174874Y18961806D01*
X67168105Y18883663D01*
X67123039Y18809239D01*
X67112406Y18798017D01*
X67070560Y18765511D01*
X67014787Y18742350D01*
X66932539Y18722844D01*
X66887447Y18714348D01*
X66775934Y18698195D01*
X66692516Y18695675D01*
X66630754Y18706963D01*
X66584208Y18732231D01*
X66548064Y18772049D01*
X66519533Y18841304D01*
X66515533Y18916480D01*
X66536170Y18985550D01*
X66581548Y19036487D01*
X66612732Y19052580D01*
X66688132Y19078145D01*
X66782117Y19099987D01*
X66881917Y19115348D01*
X66974763Y19121468D01*
X66998463Y19121400D01*
G37*
G36*
X67976290Y17701901D02*
G01*
X68030011Y17685431D01*
X68108458Y17654350D01*
X68113850Y17652103D01*
X68228805Y17595395D01*
X68315086Y17534796D01*
X68369326Y17473205D01*
X68388154Y17413522D01*
X68387470Y17399566D01*
X68370341Y17332603D01*
X68336712Y17269752D01*
X68295347Y17228489D01*
X68262915Y17214980D01*
X68193969Y17210347D01*
X68104142Y17229589D01*
X67988937Y17273366D01*
X67890005Y17319552D01*
X67821751Y17360949D01*
X67779916Y17402558D01*
X67758913Y17449957D01*
X67753154Y17508722D01*
X67753182Y17513135D01*
X67768310Y17596612D01*
X67813259Y17656283D01*
X67891013Y17696206D01*
X67900529Y17699191D01*
X67936671Y17705806D01*
X67976290Y17701901D01*
G37*
G36*
X58515081Y17705393D02*
G01*
X58549417Y17696217D01*
X58551414Y17695548D01*
X58628197Y17651986D01*
X58678822Y17586244D01*
X58697077Y17506312D01*
X58694440Y17461955D01*
X58679169Y17412775D01*
X58644910Y17371363D01*
X58585609Y17331090D01*
X58495212Y17285328D01*
X58409024Y17247598D01*
X58314727Y17217095D01*
X58240682Y17209974D01*
X58180791Y17225891D01*
X58128959Y17264497D01*
X58117438Y17276522D01*
X58081771Y17331402D01*
X58071846Y17396919D01*
X58071952Y17406968D01*
X58078533Y17460784D01*
X58099375Y17504713D01*
X58140107Y17544533D01*
X58206356Y17586019D01*
X58303751Y17634948D01*
X58385961Y17673178D01*
X58442520Y17696160D01*
X58482505Y17706136D01*
X58515081Y17705393D01*
G37*
G36*
X60123385Y17866107D02*
G01*
X60167129Y17861449D01*
X60304281Y17835874D01*
X60415527Y17797470D01*
X60498672Y17748401D01*
X60551521Y17690831D01*
X60571879Y17626922D01*
X60557549Y17558837D01*
X60506339Y17488739D01*
X60484338Y17468074D01*
X60441890Y17435253D01*
X60413083Y17422308D01*
X60396900Y17424416D01*
X60347346Y17434382D01*
X60275686Y17450669D01*
X60191321Y17471204D01*
X60158546Y17479661D01*
X60051467Y17512759D01*
X59977903Y17547834D01*
X59933475Y17588524D01*
X59913810Y17638466D01*
X59914530Y17701297D01*
X59915777Y17709155D01*
X59937045Y17773885D01*
X59970360Y17826814D01*
X59987264Y17843821D01*
X60017904Y17863563D01*
X60058507Y17869767D01*
X60123385Y17866107D01*
G37*
G36*
X61949330Y17555932D02*
G01*
X61965774Y17544466D01*
X62006702Y17502372D01*
X62058835Y17438488D01*
X62116702Y17360329D01*
X62174834Y17275410D01*
X62227760Y17191247D01*
X62270011Y17115355D01*
X62294369Y17057942D01*
X62311955Y16968357D01*
X62300495Y16892801D01*
X62260211Y16837572D01*
X62203912Y16805066D01*
X62139381Y16799526D01*
X62075003Y16830115D01*
X62009080Y16897710D01*
X61939913Y17003191D01*
X61903723Y17062041D01*
X61848784Y17143462D01*
X61793585Y17218653D01*
X61775682Y17242137D01*
X61733363Y17305348D01*
X61711939Y17356447D01*
X61706000Y17407073D01*
X61710442Y17451052D01*
X61741440Y17519381D01*
X61796190Y17562453D01*
X61867787Y17576044D01*
X61949330Y17555932D01*
G37*
G36*
X65117362Y19454267D02*
G01*
X65181014Y19412322D01*
X65225638Y19349187D01*
X65242462Y19271261D01*
X65242258Y19258044D01*
X65237189Y19218882D01*
X65221537Y19182651D01*
X65190313Y19142527D01*
X65138526Y19091681D01*
X65061185Y19023289D01*
X65019196Y18987383D01*
X64956081Y18936850D01*
X64909273Y18906465D01*
X64871030Y18891617D01*
X64833611Y18887692D01*
X64775720Y18895950D01*
X64705228Y18932339D01*
X64654624Y18990310D01*
X64630268Y19061691D01*
X64638519Y19138312D01*
X64647238Y19155421D01*
X64684432Y19203432D01*
X64740691Y19262728D01*
X64807547Y19325551D01*
X64876533Y19384143D01*
X64939182Y19430748D01*
X64987027Y19457608D01*
X65043455Y19468622D01*
X65117362Y19454267D01*
G37*
G36*
X65895445Y19974359D02*
G01*
X65960599Y19940693D01*
X66016908Y19890072D01*
X66049576Y19833709D01*
X66056066Y19776818D01*
X66036463Y19701971D01*
X66024836Y19677489D01*
X66002011Y19646332D01*
X65966111Y19617086D01*
X65909525Y19583976D01*
X65824642Y19541226D01*
X65770848Y19515588D01*
X65687063Y19480734D01*
X65624448Y19465978D01*
X65574821Y19471353D01*
X65530002Y19496893D01*
X65481808Y19542630D01*
X65458179Y19570680D01*
X65422423Y19642904D01*
X65423687Y19711627D01*
X65462269Y19773311D01*
X65474405Y19784287D01*
X65526836Y19822363D01*
X65597010Y19865512D01*
X65674877Y19908384D01*
X65750385Y19945630D01*
X65813481Y19971901D01*
X65854114Y19981846D01*
X65895445Y19974359D01*
G37*
G36*
X60596322Y19981649D02*
G01*
X60638419Y19968759D01*
X60701467Y19939637D01*
X60775728Y19899761D01*
X60851466Y19854615D01*
X60918944Y19809677D01*
X60968423Y19770430D01*
X60974444Y19764549D01*
X61008329Y19718041D01*
X61022154Y19674374D01*
X61007944Y19605809D01*
X60966932Y19534911D01*
X60909562Y19484893D01*
X60888787Y19474139D01*
X60853281Y19461170D01*
X60816693Y19459766D01*
X60770623Y19471537D01*
X60706669Y19498090D01*
X60616432Y19541036D01*
X60557490Y19571024D01*
X60471455Y19623624D01*
X60415977Y19674443D01*
X60386229Y19728524D01*
X60377385Y19790913D01*
X60378284Y19804751D01*
X60403032Y19868421D01*
X60453960Y19925297D01*
X60520684Y19966175D01*
X60592813Y19981846D01*
X60596322Y19981649D01*
G37*
G36*
X62515575Y17890862D02*
G01*
X62570961Y17878811D01*
X62618434Y17846398D01*
X62661623Y17789085D01*
X62704161Y17702335D01*
X62749679Y17581609D01*
X62763817Y17540081D01*
X62797522Y17429774D01*
X62814810Y17346512D01*
X62816036Y17284067D01*
X62801559Y17236214D01*
X62771734Y17196727D01*
X62725482Y17167117D01*
X62653639Y17149004D01*
X62579347Y17150642D01*
X62519669Y17173597D01*
X62514808Y17178585D01*
X62493079Y17215786D01*
X62463967Y17279104D01*
X62430641Y17360041D01*
X62396269Y17450096D01*
X62364019Y17540770D01*
X62337061Y17623563D01*
X62318563Y17689975D01*
X62311692Y17731508D01*
X62327613Y17785873D01*
X62371934Y17838245D01*
X62433704Y17876444D01*
X62501919Y17891231D01*
X62515575Y17890862D01*
G37*
G36*
X59139670Y20461537D02*
G01*
X59155249Y20455981D01*
X59205972Y20425990D01*
X59257029Y20383187D01*
X59269744Y20370205D01*
X59303718Y20327225D01*
X59318853Y20282025D01*
X59322308Y20216308D01*
X59322113Y20195065D01*
X59316179Y20136957D01*
X59296527Y20094166D01*
X59255877Y20048277D01*
X59229402Y20023002D01*
X59190504Y19996040D01*
X59145546Y19984370D01*
X59078077Y19981846D01*
X59034989Y19982562D01*
X58982668Y19989682D01*
X58943247Y20009538D01*
X58900277Y20048277D01*
X58875442Y20074262D01*
X58848206Y20113309D01*
X58836404Y20158254D01*
X58833846Y20225626D01*
X58834153Y20254307D01*
X58839770Y20312699D01*
X58856490Y20353475D01*
X58889522Y20392220D01*
X58959009Y20439883D01*
X59049393Y20465958D01*
X59139670Y20461537D01*
G37*
G36*
X59739006Y20299809D02*
G01*
X59798613Y20283370D01*
X59886062Y20254861D01*
X59937107Y20236861D01*
X60017344Y20204959D01*
X60081211Y20175123D01*
X60118201Y20152008D01*
X60145246Y20121193D01*
X60174400Y20049859D01*
X60172375Y19973232D01*
X60140451Y19901576D01*
X60079910Y19845159D01*
X60069587Y19839022D01*
X60024229Y19815596D01*
X59995165Y19806073D01*
X59965711Y19811798D01*
X59908477Y19828662D01*
X59834899Y19853036D01*
X59755311Y19881252D01*
X59680046Y19909636D01*
X59619435Y19934518D01*
X59583812Y19952226D01*
X59556629Y19977490D01*
X59529985Y20037484D01*
X59526990Y20109459D01*
X59545837Y20182850D01*
X59584719Y20247090D01*
X59641831Y20291613D01*
X59667854Y20301816D01*
X59698374Y20305513D01*
X59739006Y20299809D01*
G37*
G36*
X62155804Y18731161D02*
G01*
X62178150Y18711469D01*
X62217120Y18662491D01*
X62262974Y18595185D01*
X62310009Y18518889D01*
X62352522Y18442941D01*
X62384810Y18376678D01*
X62401169Y18329438D01*
X62403590Y18310218D01*
X62391662Y18231797D01*
X62350120Y18162429D01*
X62286005Y18115213D01*
X62256691Y18102658D01*
X62218731Y18090078D01*
X62189089Y18091183D01*
X62149788Y18104568D01*
X62142565Y18108297D01*
X62106299Y18142065D01*
X62060142Y18200364D01*
X62009422Y18274613D01*
X61959464Y18356231D01*
X61915596Y18436636D01*
X61883143Y18507246D01*
X61867431Y18559480D01*
X61864801Y18605709D01*
X61878528Y18646494D01*
X61916974Y18691365D01*
X61922830Y18696991D01*
X61995253Y18740546D01*
X62077140Y18752641D01*
X62155804Y18731161D01*
G37*
G36*
X66081610Y18839067D02*
G01*
X66140146Y18810543D01*
X66187235Y18754509D01*
X66213683Y18683222D01*
X66215474Y18607914D01*
X66188595Y18539814D01*
X66176403Y18526879D01*
X66131214Y18492777D01*
X66065320Y18451552D01*
X65988326Y18409455D01*
X65973558Y18401980D01*
X65869686Y18354016D01*
X65790050Y18328518D01*
X65728125Y18324980D01*
X65677384Y18342896D01*
X65631301Y18381759D01*
X65622541Y18391443D01*
X65585207Y18450449D01*
X65574616Y18518405D01*
X65574652Y18524873D01*
X65580509Y18573795D01*
X65602684Y18610006D01*
X65650217Y18649136D01*
X65656740Y18653759D01*
X65715542Y18691252D01*
X65792412Y18735661D01*
X65872482Y18778344D01*
X65934428Y18808592D01*
X65995960Y18833358D01*
X66041696Y18842551D01*
X66081610Y18839067D01*
G37*
G36*
X67811933Y19158066D02*
G01*
X67887854Y19155690D01*
X67961795Y19151960D01*
X68010658Y19145982D01*
X68042470Y19135965D01*
X68065256Y19120115D01*
X68087042Y19096641D01*
X68115921Y19051023D01*
X68133710Y18975164D01*
X68123857Y18898852D01*
X68088427Y18833125D01*
X68029487Y18789025D01*
X67998076Y18782861D01*
X67935059Y18777981D01*
X67851288Y18775465D01*
X67756302Y18775774D01*
X67672046Y18777608D01*
X67599998Y18780667D01*
X67552494Y18786252D01*
X67521596Y18796051D01*
X67499369Y18811754D01*
X67477879Y18835051D01*
X67447400Y18884382D01*
X67430571Y18959786D01*
X67439876Y19035281D01*
X67473450Y19099753D01*
X67529426Y19142092D01*
X67541022Y19145893D01*
X67601532Y19154951D01*
X67693662Y19159112D01*
X67811933Y19158066D01*
G37*
G36*
X64040990Y17871234D02*
G01*
X64099759Y17824705D01*
X64136215Y17757724D01*
X64139032Y17746462D01*
X64141853Y17709664D01*
X64134372Y17663008D01*
X64114704Y17597892D01*
X64080960Y17505712D01*
X64079071Y17500759D01*
X64034995Y17386934D01*
X64000992Y17304158D01*
X63974173Y17246861D01*
X63951650Y17209474D01*
X63930534Y17186430D01*
X63907935Y17172158D01*
X63841510Y17152228D01*
X63757901Y17157704D01*
X63685359Y17195924D01*
X63657427Y17223627D01*
X63636362Y17266089D01*
X63631817Y17327808D01*
X63637240Y17373318D01*
X63656305Y17452438D01*
X63685416Y17545476D01*
X63720719Y17642052D01*
X63758366Y17731787D01*
X63794504Y17804304D01*
X63825283Y17849223D01*
X63834185Y17857682D01*
X63897864Y17890765D01*
X63970245Y17894269D01*
X64040990Y17871234D01*
G37*
G36*
X64623637Y17571456D02*
G01*
X64690434Y17540314D01*
X64736702Y17486225D01*
X64754000Y17415017D01*
X64752050Y17394871D01*
X64738236Y17350967D01*
X64708880Y17291421D01*
X64661300Y17211065D01*
X64592808Y17104729D01*
X64568167Y17067853D01*
X64508504Y16982335D01*
X64454280Y16909552D01*
X64410651Y16856264D01*
X64382769Y16829232D01*
X64339504Y16808420D01*
X64291461Y16797597D01*
X64287624Y16797671D01*
X64237144Y16814195D01*
X64185389Y16851662D01*
X64145037Y16898673D01*
X64128769Y16943833D01*
X64136760Y16987467D01*
X64164291Y17058934D01*
X64207086Y17145099D01*
X64260583Y17238816D01*
X64320216Y17332935D01*
X64381424Y17420309D01*
X64439641Y17493789D01*
X64490304Y17546228D01*
X64528850Y17570477D01*
X64544750Y17573822D01*
X64623637Y17571456D01*
G37*
G36*
X58744450Y19161121D02*
G01*
X58824708Y19159774D01*
X58878426Y19155737D01*
X58913743Y19147589D01*
X58938799Y19133909D01*
X58961734Y19113273D01*
X58984586Y19086369D01*
X59004357Y19039051D01*
X59009692Y18970469D01*
X59009689Y18968238D01*
X59001484Y18887895D01*
X58973955Y18833077D01*
X58921769Y18793023D01*
X58918161Y18791263D01*
X58870906Y18780128D01*
X58797008Y18773285D01*
X58707254Y18770608D01*
X58612429Y18771972D01*
X58523321Y18777250D01*
X58450715Y18786317D01*
X58405398Y18799047D01*
X58387308Y18809175D01*
X58349403Y18842863D01*
X58330795Y18891145D01*
X58325846Y18965846D01*
X58326245Y18989487D01*
X58334383Y19053047D01*
X58356772Y19099086D01*
X58398331Y19130264D01*
X58463980Y19149241D01*
X58558639Y19158677D01*
X58687226Y19161231D01*
X58744450Y19161121D01*
G37*
G36*
X61278871Y18322991D02*
G01*
X61359062Y18273020D01*
X61362585Y18270314D01*
X61435823Y18207435D01*
X61507176Y18135345D01*
X61569463Y18062421D01*
X61615504Y17997036D01*
X61638116Y17947568D01*
X61640281Y17931629D01*
X61630551Y17865390D01*
X61599278Y17800654D01*
X61554578Y17756027D01*
X61549446Y17753414D01*
X61503221Y17740914D01*
X61444397Y17735517D01*
X61429994Y17735682D01*
X61397220Y17740162D01*
X61364775Y17754173D01*
X61325777Y17782350D01*
X61273349Y17829325D01*
X61200611Y17899732D01*
X61156066Y17943721D01*
X61099093Y18002154D01*
X61063007Y18044661D01*
X61043081Y18078175D01*
X61034591Y18109631D01*
X61032811Y18145963D01*
X61035473Y18190027D01*
X61053347Y18237797D01*
X61096176Y18284000D01*
X61145556Y18320070D01*
X61209956Y18338581D01*
X61278871Y18322991D01*
G37*
G36*
X64406539Y18750315D02*
G01*
X64466987Y18735456D01*
X64521042Y18693811D01*
X64533698Y18680506D01*
X64567291Y18631086D01*
X64578593Y18577407D01*
X64566730Y18513194D01*
X64530826Y18432173D01*
X64470005Y18328070D01*
X64437071Y18276557D01*
X64390945Y18208324D01*
X64353111Y18156884D01*
X64329502Y18130577D01*
X64326664Y18128609D01*
X64283000Y18112686D01*
X64226133Y18106154D01*
X64159958Y18119564D01*
X64097352Y18168326D01*
X64050773Y18252089D01*
X64047525Y18261116D01*
X64040918Y18293491D01*
X64045842Y18329168D01*
X64064853Y18378390D01*
X64100509Y18451402D01*
X64103102Y18456477D01*
X64148064Y18537026D01*
X64197063Y18614156D01*
X64239945Y18671813D01*
X64252096Y18685783D01*
X64294825Y18727369D01*
X64334416Y18746384D01*
X64385795Y18750923D01*
X64406539Y18750315D01*
G37*
G36*
X67116495Y17904556D02*
G01*
X67235385Y17890951D01*
X67312435Y17879445D01*
X67365526Y17865197D01*
X67403311Y17843853D01*
X67437855Y17810629D01*
X67469133Y17771712D01*
X67485699Y17728436D01*
X67483472Y17672020D01*
X67471373Y17620842D01*
X67428370Y17546530D01*
X67362385Y17499394D01*
X67360206Y17498505D01*
X67332756Y17488630D01*
X67305069Y17483906D01*
X67267531Y17484414D01*
X67210530Y17490240D01*
X67124452Y17501467D01*
X67073695Y17508404D01*
X66994807Y17520746D01*
X66942494Y17533311D01*
X66908543Y17549343D01*
X66884742Y17572086D01*
X66862879Y17604783D01*
X66852632Y17623158D01*
X66826957Y17707994D01*
X66833875Y17789933D01*
X66872990Y17859070D01*
X66887406Y17873185D01*
X66921436Y17895105D01*
X66966385Y17907237D01*
X67029116Y17910187D01*
X67116495Y17904556D01*
G37*
G36*
X63255294Y18310864D02*
G01*
X63309313Y18305092D01*
X63345488Y18288633D01*
X63378230Y18256488D01*
X63387155Y18245802D01*
X63404740Y18219545D01*
X63415922Y18188092D01*
X63422135Y18142975D01*
X63424811Y18075725D01*
X63425385Y17977873D01*
X63425372Y17959644D01*
X63424449Y17866968D01*
X63421221Y17804394D01*
X63414505Y17764203D01*
X63403116Y17738671D01*
X63385873Y17720078D01*
X63352290Y17696452D01*
X63302834Y17673371D01*
X63287014Y17669231D01*
X63203848Y17661117D01*
X63125628Y17673021D01*
X63063151Y17702114D01*
X63027214Y17745568D01*
X63023329Y17766913D01*
X63019063Y17822143D01*
X63016153Y17899513D01*
X63015077Y17989432D01*
X63015095Y18011177D01*
X63016093Y18099606D01*
X63019749Y18159535D01*
X63027620Y18199780D01*
X63041262Y18229159D01*
X63062232Y18256488D01*
X63077883Y18273640D01*
X63110423Y18297900D01*
X63153068Y18308789D01*
X63220231Y18311308D01*
X63255294Y18310864D01*
G37*
G36*
X62157855Y15191799D02*
G01*
X62305501Y15190424D01*
X62463011Y15188106D01*
X62626718Y15185609D01*
X62825319Y15183194D01*
X63044854Y15181018D01*
X63276110Y15179154D01*
X63509869Y15177678D01*
X63736917Y15176662D01*
X63948039Y15176182D01*
X64793077Y15175385D01*
X64793077Y14988266D01*
X64793071Y14973274D01*
X64792222Y14890728D01*
X64788345Y14836188D01*
X64779181Y14799996D01*
X64762474Y14772498D01*
X64735965Y14744036D01*
X64678852Y14686923D01*
X63271852Y14686923D01*
X63230982Y14686929D01*
X62965025Y14687266D01*
X62721337Y14688102D01*
X62502018Y14689412D01*
X62309169Y14691167D01*
X62144892Y14693341D01*
X62011287Y14695906D01*
X61910455Y14698836D01*
X61844497Y14702104D01*
X61815514Y14705681D01*
X61761102Y14731159D01*
X61723067Y14764918D01*
X61700340Y14813879D01*
X61689334Y14885911D01*
X61686462Y14988884D01*
X61686462Y15173614D01*
X61754742Y15186424D01*
X61770750Y15188118D01*
X61826521Y15190391D01*
X61913123Y15191770D01*
X62025315Y15192244D01*
X62157855Y15191799D01*
G37*
G36*
X64184337Y14255507D02*
G01*
X64183913Y14243414D01*
X64177705Y14138963D01*
X64163967Y14066981D01*
X64136730Y14021459D01*
X64090030Y13996385D01*
X64017898Y13985748D01*
X63914369Y13983539D01*
X63743374Y13983539D01*
X63729511Y13812577D01*
X63720992Y13732352D01*
X63705060Y13651342D01*
X63684719Y13607423D01*
X63684036Y13606678D01*
X63669905Y13595428D01*
X63647833Y13586996D01*
X63612631Y13580984D01*
X63559109Y13576998D01*
X63482080Y13574641D01*
X63376353Y13573518D01*
X63236741Y13573231D01*
X63234833Y13573231D01*
X63083583Y13573298D01*
X62966882Y13574985D01*
X62880255Y13580497D01*
X62819229Y13592041D01*
X62779331Y13611823D01*
X62756086Y13642050D01*
X62745022Y13684928D01*
X62741664Y13742663D01*
X62741539Y13817462D01*
X62741539Y13983539D01*
X62576734Y13983539D01*
X62554879Y13983697D01*
X62473364Y13986936D01*
X62405002Y13993493D01*
X62362746Y14002238D01*
X62319223Y14028551D01*
X62280543Y14085914D01*
X62260232Y14172646D01*
X62257151Y14291868D01*
X62262846Y14442692D01*
X63226952Y14447762D01*
X64191058Y14452832D01*
X64184337Y14255507D01*
G37*
G36*
X63267531Y17189657D02*
G01*
X63339486Y17158430D01*
X63389620Y17106462D01*
X63397985Y17082410D01*
X63404968Y17037481D01*
X63410191Y16968825D01*
X63413855Y16872609D01*
X63416164Y16744997D01*
X63417320Y16582154D01*
X63417729Y16485142D01*
X63418459Y16359572D01*
X63419327Y16250423D01*
X63420277Y16163360D01*
X63421254Y16104047D01*
X63422204Y16078146D01*
X63422333Y16077316D01*
X63437475Y16063599D01*
X63480041Y16057635D01*
X63555617Y16058607D01*
X63685848Y16064385D01*
X63770555Y16317857D01*
X63777738Y16339102D01*
X63811777Y16433725D01*
X63844337Y16515419D01*
X63872027Y16576059D01*
X63891456Y16607524D01*
X63920196Y16629060D01*
X63991010Y16651880D01*
X64070273Y16650121D01*
X64142899Y16622863D01*
X64154107Y16615547D01*
X64194420Y16579796D01*
X64215676Y16536165D01*
X64218450Y16477799D01*
X64203315Y16397842D01*
X64170848Y16289440D01*
X64153437Y16235363D01*
X64130651Y16161099D01*
X64115029Y16105615D01*
X64109231Y16078036D01*
X64111576Y16074246D01*
X64132098Y16067683D01*
X64176297Y16062598D01*
X64247250Y16058857D01*
X64348036Y16056325D01*
X64481735Y16054867D01*
X64651423Y16054349D01*
X64660899Y16054342D01*
X64804172Y16053799D01*
X64936002Y16052502D01*
X65050863Y16050569D01*
X65143227Y16048113D01*
X65207568Y16045250D01*
X65238360Y16042096D01*
X65270618Y16026702D01*
X65309624Y15975971D01*
X65332615Y15892083D01*
X65340154Y15773550D01*
X65335837Y15663568D01*
X65321715Y15586004D01*
X65296124Y15536011D01*
X65257400Y15508253D01*
X65253502Y15507425D01*
X65216062Y15504799D01*
X65142533Y15502303D01*
X65035199Y15499958D01*
X64896347Y15497787D01*
X64728264Y15495810D01*
X64533235Y15494049D01*
X64313546Y15492526D01*
X64071483Y15491262D01*
X63809333Y15490278D01*
X63529382Y15489597D01*
X63233915Y15489239D01*
X63058110Y15489122D01*
X62747429Y15488920D01*
X62472469Y15488842D01*
X62231021Y15489001D01*
X62020874Y15489506D01*
X61839819Y15490470D01*
X61685646Y15492003D01*
X61556144Y15494219D01*
X61449103Y15497227D01*
X61362314Y15501139D01*
X61293566Y15506067D01*
X61240650Y15512122D01*
X61201355Y15519416D01*
X61173472Y15528060D01*
X61154790Y15538165D01*
X61143100Y15549843D01*
X61136191Y15563206D01*
X61131854Y15578364D01*
X61127878Y15595430D01*
X61126290Y15603576D01*
X61122188Y15653706D01*
X61120892Y15726539D01*
X61122710Y15809308D01*
X61124080Y15848596D01*
X61126386Y15905023D01*
X61132075Y15949489D01*
X61145112Y15983462D01*
X61169460Y16008406D01*
X61209083Y16025787D01*
X61267945Y16037072D01*
X61350009Y16043726D01*
X61459240Y16047216D01*
X61599600Y16049007D01*
X61775054Y16050565D01*
X61820880Y16051036D01*
X61962713Y16052718D01*
X62089563Y16054550D01*
X62196613Y16056442D01*
X62279043Y16058301D01*
X62332035Y16060035D01*
X62350769Y16061553D01*
X62348971Y16068168D01*
X62337432Y16104347D01*
X62317573Y16164507D01*
X62292154Y16240231D01*
X62271052Y16305439D01*
X62243576Y16411422D01*
X62235576Y16491503D01*
X62247661Y16551318D01*
X62280438Y16596505D01*
X62334516Y16632699D01*
X62402165Y16652675D01*
X62481171Y16645969D01*
X62548089Y16609710D01*
X62552708Y16604290D01*
X62574399Y16565309D01*
X62604051Y16499298D01*
X62638366Y16413927D01*
X62674045Y16316865D01*
X62766193Y16054616D01*
X62888545Y16054616D01*
X62896953Y16054636D01*
X62966303Y16057748D01*
X63005578Y16067431D01*
X63022756Y16085521D01*
X63025359Y16104140D01*
X63028413Y16158356D01*
X63031063Y16241527D01*
X63033174Y16347994D01*
X63034610Y16472096D01*
X63035237Y16608175D01*
X63035260Y16625884D01*
X63035708Y16782626D01*
X63037229Y16905272D01*
X63040784Y16998351D01*
X63047336Y17066393D01*
X63057845Y17113924D01*
X63073273Y17145475D01*
X63094582Y17165575D01*
X63122735Y17178751D01*
X63158692Y17189532D01*
X63187711Y17195123D01*
X63267531Y17189657D01*
G37*
G36*
X67826722Y13007530D02*
G01*
X67780933Y12729011D01*
X67721698Y12471231D01*
X67647514Y12227907D01*
X67556880Y11992754D01*
X67448293Y11759491D01*
X67333187Y11548247D01*
X67201853Y11347974D01*
X67054044Y11163675D01*
X66881016Y10983386D01*
X66810463Y10917089D01*
X66621891Y10759617D01*
X66424973Y10625454D01*
X66209530Y10508129D01*
X65965385Y10401167D01*
X65888090Y10371422D01*
X65674052Y10299035D01*
X65451599Y10239043D01*
X65213176Y10189802D01*
X64951225Y10149671D01*
X64658190Y10117006D01*
X64654635Y10116669D01*
X64561282Y10106804D01*
X64495303Y10096044D01*
X64445439Y10081029D01*
X64400432Y10058404D01*
X64349022Y10024811D01*
X64290689Y9981127D01*
X64169989Y9871668D01*
X64052312Y9742393D01*
X63947729Y9604865D01*
X63866314Y9470649D01*
X63863119Y9464446D01*
X63850922Y9438928D01*
X63793378Y9318533D01*
X63735013Y9172260D01*
X63686894Y9020118D01*
X63647892Y8856599D01*
X63616877Y8676194D01*
X63592721Y8473392D01*
X63574294Y8242687D01*
X63560467Y7978567D01*
X63554447Y7834268D01*
X63548791Y7689060D01*
X63545371Y7577379D01*
X63544481Y7496177D01*
X63546415Y7442411D01*
X63551468Y7413032D01*
X63559933Y7404996D01*
X63572105Y7415256D01*
X63588277Y7440767D01*
X63608744Y7478482D01*
X63632366Y7520737D01*
X63678377Y7597971D01*
X63733560Y7686805D01*
X63790569Y7775248D01*
X63804670Y7796793D01*
X63860488Y7886588D01*
X63897693Y7957456D01*
X63915471Y8004769D01*
X64126269Y8004769D01*
X64172540Y8004769D01*
X64190952Y8006813D01*
X64252838Y8030190D01*
X64324129Y8073764D01*
X64393779Y8130108D01*
X64450741Y8191797D01*
X64473204Y8219135D01*
X64522921Y8275249D01*
X64589811Y8347965D01*
X64667978Y8430896D01*
X64751526Y8517654D01*
X64822458Y8591136D01*
X64888901Y8661374D01*
X64940022Y8716993D01*
X64971780Y8753592D01*
X64980139Y8766769D01*
X64965395Y8759042D01*
X64924042Y8730785D01*
X64862263Y8685844D01*
X64785610Y8628486D01*
X64699632Y8562977D01*
X64609881Y8493584D01*
X64521907Y8424574D01*
X64441260Y8360213D01*
X64373493Y8304770D01*
X64324154Y8262510D01*
X64266353Y8205701D01*
X64210002Y8140728D01*
X64171481Y8085563D01*
X64126269Y8004769D01*
X63915471Y8004769D01*
X63920888Y8019185D01*
X63934678Y8081565D01*
X63950801Y8168681D01*
X64019780Y8408957D01*
X64121965Y8629032D01*
X64258175Y8830451D01*
X64429228Y9014761D01*
X64510031Y9084845D01*
X64699960Y9213890D01*
X64913194Y9313823D01*
X65151361Y9385328D01*
X65416091Y9429089D01*
X65516254Y9437273D01*
X65628239Y9441289D01*
X65737150Y9440656D01*
X65835807Y9435743D01*
X65917029Y9426921D01*
X65973635Y9414561D01*
X65998446Y9399034D01*
X66000756Y9388222D01*
X65995533Y9336108D01*
X65974489Y9258744D01*
X65940360Y9162566D01*
X65895882Y9054008D01*
X65843792Y8939508D01*
X65786826Y8825501D01*
X65754407Y8766769D01*
X65727721Y8718423D01*
X65669213Y8624709D01*
X65617706Y8553338D01*
X65464927Y8381076D01*
X65285712Y8224596D01*
X65088785Y8090969D01*
X64882867Y7987266D01*
X64813106Y7960755D01*
X64712226Y7926648D01*
X64599791Y7891810D01*
X64489669Y7860705D01*
X64480625Y7858283D01*
X64383270Y7830203D01*
X64296370Y7801748D01*
X64229099Y7776116D01*
X64190630Y7756502D01*
X64166749Y7737763D01*
X64078453Y7653041D01*
X63987738Y7545779D01*
X63901090Y7425488D01*
X63824997Y7301682D01*
X63765944Y7183874D01*
X63730419Y7081577D01*
X63726358Y7062452D01*
X63726680Y7045089D01*
X63733982Y7037616D01*
X63737253Y7034268D01*
X63762801Y7029915D01*
X63808048Y7031956D01*
X63877719Y7040319D01*
X63976538Y7054930D01*
X64109231Y7075717D01*
X64236782Y7096915D01*
X64486573Y7146271D01*
X64719990Y7204832D01*
X64948957Y7276138D01*
X65185400Y7363728D01*
X65441240Y7471143D01*
X65698435Y7593058D01*
X66086284Y7812153D01*
X66459505Y8067005D01*
X66817200Y8356979D01*
X67158469Y8681443D01*
X67384264Y8926091D01*
X67673662Y9285803D01*
X67927841Y9661802D01*
X68147200Y10054908D01*
X68332138Y10465939D01*
X68483053Y10895713D01*
X68600345Y11345051D01*
X68684413Y11814769D01*
X68687541Y11838900D01*
X68698060Y11957053D01*
X68705460Y12103754D01*
X68709797Y12270683D01*
X68711127Y12449525D01*
X68709509Y12631962D01*
X68704999Y12809676D01*
X68697655Y12974350D01*
X68687533Y13117667D01*
X68674690Y13231308D01*
X68646324Y13404838D01*
X68547498Y13848935D01*
X68413178Y14277163D01*
X68243167Y14689915D01*
X68037271Y15087584D01*
X67795294Y15470563D01*
X67517041Y15839246D01*
X67202316Y16194026D01*
X67132965Y16270558D01*
X67082654Y16339611D01*
X67058702Y16397397D01*
X67058554Y16450395D01*
X67079656Y16505082D01*
X67087212Y16516634D01*
X67133480Y16557362D01*
X67195825Y16588978D01*
X67256340Y16601692D01*
X67289549Y16589808D01*
X67345743Y16550298D01*
X67418282Y16486965D01*
X67503482Y16403809D01*
X67597662Y16304833D01*
X67697140Y16194037D01*
X67798233Y16075424D01*
X67897260Y15952994D01*
X67990538Y15830750D01*
X68074386Y15712692D01*
X68270578Y15407801D01*
X68489750Y15015664D01*
X68672657Y14620180D01*
X68820768Y14217236D01*
X68935553Y13802719D01*
X69018480Y13372516D01*
X69071018Y12922513D01*
X69081509Y12767103D01*
X69086528Y12308712D01*
X69053466Y11850864D01*
X68982990Y11396062D01*
X68875769Y10946808D01*
X68732468Y10505605D01*
X68553757Y10074956D01*
X68340302Y9657364D01*
X68092772Y9255330D01*
X68091904Y9254040D01*
X67816162Y8877178D01*
X67512783Y8524391D01*
X67184160Y8197161D01*
X66832684Y7896972D01*
X66460748Y7625305D01*
X66070742Y7383644D01*
X65665058Y7173469D01*
X65291870Y7015628D01*
X65251466Y6998539D01*
X65246089Y6996265D01*
X64816226Y6853512D01*
X64377861Y6746695D01*
X63933385Y6677294D01*
X63893624Y6672822D01*
X63805174Y6662844D01*
X63729402Y6654258D01*
X63679385Y6648545D01*
X63641653Y6645533D01*
X63554530Y6642631D01*
X63440166Y6641832D01*
X63305767Y6642926D01*
X63158541Y6645701D01*
X63005694Y6649945D01*
X62854432Y6655447D01*
X62711964Y6661995D01*
X62585495Y6669379D01*
X62482233Y6677386D01*
X62409385Y6685805D01*
X62263686Y6709647D01*
X61920215Y6777842D01*
X61599163Y6860823D01*
X61289546Y6962026D01*
X61197665Y6998539D01*
X63308154Y6998539D01*
X63317923Y6988769D01*
X63327692Y6998539D01*
X63317923Y7008308D01*
X63308154Y6998539D01*
X61197665Y6998539D01*
X61143786Y7019950D01*
X62858110Y7019950D01*
X62862300Y7014878D01*
X62897846Y7012841D01*
X62911103Y7013030D01*
X62938120Y7016113D01*
X62936011Y7018077D01*
X62976000Y7018077D01*
X62977964Y7016113D01*
X62985769Y7008308D01*
X62995539Y7018077D01*
X62993271Y7020345D01*
X63496540Y7020345D01*
X63497630Y7018077D01*
X63499478Y7014229D01*
X63532846Y7012117D01*
X63538914Y7012246D01*
X63564865Y7015628D01*
X63556898Y7021848D01*
X63537070Y7024989D01*
X63498282Y7021124D01*
X63496540Y7020345D01*
X62993271Y7020345D01*
X62985769Y7027846D01*
X62976000Y7018077D01*
X62936011Y7018077D01*
X62932039Y7021776D01*
X62913208Y7024815D01*
X62863654Y7021776D01*
X62858110Y7019950D01*
X61143786Y7019950D01*
X60980384Y7084885D01*
X60660692Y7232837D01*
X60520376Y7304253D01*
X60113829Y7539696D01*
X59729055Y7805884D01*
X59367639Y8100796D01*
X59031166Y8422412D01*
X58721223Y8768710D01*
X58439396Y9137669D01*
X58187269Y9527267D01*
X57966430Y9935484D01*
X57778464Y10360299D01*
X57624956Y10799690D01*
X57507493Y11251637D01*
X57434525Y11657252D01*
X57386539Y12122302D01*
X57376194Y12585488D01*
X57403021Y13044768D01*
X57466552Y13498099D01*
X57566318Y13943438D01*
X57701850Y14378743D01*
X57872679Y14801971D01*
X58078337Y15211080D01*
X58318354Y15604027D01*
X58592263Y15978769D01*
X58616703Y16009286D01*
X58713422Y16127075D01*
X58809716Y16240065D01*
X58901622Y16343942D01*
X58985179Y16434390D01*
X59056426Y16507096D01*
X59111401Y16557745D01*
X59146143Y16582022D01*
X59182618Y16590214D01*
X59251463Y16582255D01*
X59316129Y16552528D01*
X59359812Y16506939D01*
X59368391Y16489827D01*
X59382327Y16447226D01*
X59381519Y16404201D01*
X59363430Y16355268D01*
X59325527Y16294943D01*
X59265276Y16217742D01*
X59180141Y16118181D01*
X59077908Y16000776D01*
X58991279Y15899801D01*
X58920582Y15815067D01*
X58860588Y15740024D01*
X58806067Y15668122D01*
X58751787Y15592810D01*
X58692519Y15507539D01*
X58486182Y15186710D01*
X58272134Y14795199D01*
X58095090Y14395983D01*
X57953963Y13986237D01*
X57847666Y13563133D01*
X57775110Y13123846D01*
X57767599Y13046226D01*
X57760264Y12924908D01*
X57754824Y12778424D01*
X57751545Y12614284D01*
X57750697Y12440000D01*
X57750887Y12386625D01*
X57752385Y12227115D01*
X57755586Y12095680D01*
X57760987Y11983827D01*
X57769090Y11883063D01*
X57780396Y11784892D01*
X57795403Y11680822D01*
X57831663Y11472358D01*
X57938459Y11020179D01*
X58080996Y10582691D01*
X58258433Y10161273D01*
X58469933Y9757301D01*
X58714656Y9372152D01*
X58991762Y9007205D01*
X59300413Y8663836D01*
X59639770Y8343423D01*
X60008994Y8047343D01*
X60139939Y7953988D01*
X60499975Y7727636D01*
X60881850Y7528131D01*
X61279782Y7357791D01*
X61687986Y7218933D01*
X62100677Y7113871D01*
X62512072Y7044923D01*
X62564503Y7038972D01*
X62638134Y7032463D01*
X62690882Y7030194D01*
X62713830Y7032702D01*
X62714729Y7037616D01*
X62741539Y7037616D01*
X62751308Y7027846D01*
X62761077Y7037616D01*
X63679385Y7037616D01*
X63689154Y7027846D01*
X63698923Y7037616D01*
X63689154Y7047385D01*
X63679385Y7037616D01*
X62761077Y7037616D01*
X62751308Y7047385D01*
X62741539Y7037616D01*
X62714729Y7037616D01*
X62715999Y7044563D01*
X62705622Y7086120D01*
X62681336Y7148275D01*
X62646922Y7223005D01*
X62606161Y7302288D01*
X62562834Y7378100D01*
X62520724Y7442419D01*
X62467667Y7511055D01*
X62395733Y7595067D01*
X62328067Y7666079D01*
X62288914Y7703129D01*
X62249578Y7735454D01*
X62208888Y7759607D01*
X62157679Y7779887D01*
X62086783Y7800592D01*
X61987032Y7826022D01*
X61751002Y7892397D01*
X61524627Y7975353D01*
X61326653Y8071929D01*
X61151935Y8185055D01*
X60995327Y8317662D01*
X60851685Y8472681D01*
X60834597Y8494027D01*
X60775412Y8578288D01*
X60714618Y8678487D01*
X60681989Y8738620D01*
X61495673Y8738620D01*
X61499224Y8729784D01*
X61507080Y8715581D01*
X61522746Y8693821D01*
X61565823Y8644891D01*
X61629008Y8578616D01*
X61707047Y8500017D01*
X61794685Y8414116D01*
X61886668Y8325935D01*
X61977743Y8240497D01*
X62062655Y8162823D01*
X62136150Y8097935D01*
X62192975Y8050856D01*
X62227876Y8026607D01*
X62235389Y8022847D01*
X62297899Y7994490D01*
X62331129Y7987640D01*
X62338450Y8002786D01*
X62323236Y8040416D01*
X62314201Y8055682D01*
X62265529Y8115966D01*
X62187526Y8194230D01*
X62082847Y8288061D01*
X61954144Y8395045D01*
X61804070Y8512769D01*
X61770810Y8538214D01*
X61671263Y8614348D01*
X61598100Y8670039D01*
X61547639Y8707798D01*
X61516200Y8730140D01*
X61500105Y8739576D01*
X61495673Y8738620D01*
X60681989Y8738620D01*
X60654593Y8789109D01*
X60597712Y8904638D01*
X60546353Y9019560D01*
X60502892Y9128359D01*
X60469705Y9225519D01*
X60449170Y9305525D01*
X60443661Y9362861D01*
X60455557Y9392012D01*
X60493614Y9407295D01*
X60573049Y9421503D01*
X60677855Y9428513D01*
X60800584Y9428563D01*
X60933789Y9421897D01*
X61070021Y9408753D01*
X61201834Y9389374D01*
X61321779Y9364000D01*
X61420326Y9336319D01*
X61657555Y9244303D01*
X61868973Y9122968D01*
X62054504Y8972390D01*
X62214078Y8792647D01*
X62347620Y8583816D01*
X62455057Y8345974D01*
X62536317Y8079199D01*
X62544162Y8047747D01*
X62557614Y8002786D01*
X62576501Y7939663D01*
X62614076Y7852305D01*
X62662916Y7770999D01*
X62693372Y7724510D01*
X62753926Y7624200D01*
X62814013Y7516006D01*
X62868337Y7410032D01*
X62911603Y7316382D01*
X62938515Y7245160D01*
X62949916Y7210041D01*
X62967934Y7171796D01*
X62980737Y7171863D01*
X62988233Y7209956D01*
X62990332Y7285789D01*
X62986946Y7399077D01*
X62983680Y7469648D01*
X62977460Y7606269D01*
X62971119Y7747799D01*
X62965618Y7872885D01*
X62962803Y7928763D01*
X62925100Y8289080D01*
X62854659Y8633189D01*
X62752148Y8958898D01*
X62618239Y9264018D01*
X62453602Y9546357D01*
X62415140Y9601408D01*
X62344622Y9693304D01*
X62266331Y9787129D01*
X62186387Y9876155D01*
X62110914Y9953655D01*
X62046033Y10012901D01*
X61997867Y10047165D01*
X61997739Y10047230D01*
X61958512Y10060030D01*
X61890096Y10075190D01*
X61802087Y10090822D01*
X61704081Y10105033D01*
X61361509Y10160294D01*
X61016619Y10238838D01*
X60688219Y10337103D01*
X60383014Y10453076D01*
X60107709Y10584741D01*
X60024127Y10632061D01*
X59780460Y10798242D01*
X59552975Y10996042D01*
X59346004Y11220924D01*
X59163881Y11468346D01*
X59010938Y11733770D01*
X58933502Y11900983D01*
X58821329Y12200042D01*
X58729056Y12524101D01*
X58658093Y12867023D01*
X58609849Y13222669D01*
X58606504Y13272916D01*
X59308557Y13272916D01*
X59314208Y13264998D01*
X59344359Y13233234D01*
X59397532Y13180213D01*
X59470482Y13109092D01*
X59559963Y13023026D01*
X59662732Y12925171D01*
X59775542Y12818684D01*
X59926410Y12676611D01*
X60117034Y12496067D01*
X60285368Y12335055D01*
X60435297Y12189638D01*
X60570707Y12055876D01*
X60695483Y11929829D01*
X60813512Y11807559D01*
X60928679Y11685126D01*
X61044868Y11558591D01*
X61165967Y11424016D01*
X61295861Y11277462D01*
X61380156Y11182175D01*
X61494049Y11054531D01*
X61603378Y10933184D01*
X61703919Y10822764D01*
X61791448Y10727904D01*
X61861743Y10653234D01*
X61910580Y10603385D01*
X62060407Y10456846D01*
X62046931Y10535000D01*
X62045924Y10540743D01*
X62015427Y10665145D01*
X61966574Y10792094D01*
X61896459Y10927219D01*
X61802176Y11076151D01*
X61680822Y11244520D01*
X61552716Y11408551D01*
X61335590Y11664535D01*
X62305593Y11664535D01*
X62319899Y11597999D01*
X62355678Y11398352D01*
X62382909Y11138593D01*
X62389601Y10881312D01*
X62375577Y10636654D01*
X62347281Y10456846D01*
X62340658Y10414761D01*
X62340745Y10396614D01*
X62356978Y10356771D01*
X62395511Y10299280D01*
X62459234Y10219376D01*
X62543723Y10114441D01*
X62745664Y9831308D01*
X62919245Y9538868D01*
X62945914Y9487807D01*
X63000843Y9377202D01*
X63053528Y9265045D01*
X63095488Y9169128D01*
X63167548Y8994444D01*
X63181784Y9127376D01*
X63186791Y9199651D01*
X63189734Y9307917D01*
X63190229Y9438928D01*
X63188511Y9584958D01*
X63184813Y9738279D01*
X63179370Y9891165D01*
X63172418Y10035886D01*
X63164191Y10164717D01*
X63154922Y10269930D01*
X63144848Y10343798D01*
X63098694Y10549240D01*
X63011299Y10815483D01*
X62897746Y11053236D01*
X62757638Y11263166D01*
X62590581Y11445936D01*
X62396177Y11602212D01*
X62305593Y11664535D01*
X61335590Y11664535D01*
X61321037Y11681692D01*
X61072555Y11948642D01*
X60813510Y12203371D01*
X60550141Y12439854D01*
X60288688Y12652062D01*
X60035392Y12833969D01*
X60029826Y12837675D01*
X59937738Y12897936D01*
X59836311Y12962666D01*
X59730827Y13028674D01*
X59626570Y13092770D01*
X59528820Y13151764D01*
X59442862Y13202466D01*
X59373977Y13241685D01*
X59327448Y13266232D01*
X59308557Y13272916D01*
X58606504Y13272916D01*
X58585734Y13584905D01*
X58574469Y13938502D01*
X58638215Y13951251D01*
X58673394Y13956172D01*
X58755330Y13961389D01*
X58861373Y13963524D01*
X58982425Y13962680D01*
X59109389Y13958960D01*
X59233167Y13952466D01*
X59344661Y13943299D01*
X59352962Y13942441D01*
X59695748Y13890773D01*
X60033899Y13809053D01*
X60362314Y13699476D01*
X60675893Y13564234D01*
X60969535Y13405522D01*
X61238140Y13225532D01*
X61476608Y13026458D01*
X61621989Y12877111D01*
X61770645Y12699166D01*
X61906473Y12511509D01*
X62018616Y12328132D01*
X62030559Y12306479D01*
X62072858Y12234544D01*
X62106708Y12188688D01*
X62138575Y12161334D01*
X62174923Y12144905D01*
X62193137Y12138478D01*
X62274313Y12104558D01*
X62373429Y12057493D01*
X62478725Y12003276D01*
X62578438Y11947899D01*
X62660809Y11897355D01*
X62674144Y11888342D01*
X62771039Y11814189D01*
X62879355Y11719321D01*
X62989183Y11613241D01*
X63090613Y11505453D01*
X63173735Y11405460D01*
X63232779Y11319567D01*
X63307471Y11192626D01*
X63382157Y11049026D01*
X63451276Y10900172D01*
X63509270Y10757472D01*
X63550578Y10632329D01*
X63557859Y10605179D01*
X63583635Y10498606D01*
X63610253Y10375249D01*
X63635635Y10246045D01*
X63657703Y10121927D01*
X63674377Y10013831D01*
X63683579Y9932692D01*
X63689154Y9857923D01*
X63770381Y9981539D01*
X63784104Y10001950D01*
X63841181Y10081509D01*
X63908641Y10169873D01*
X63974651Y10251412D01*
X64097693Y10397671D01*
X64098006Y10524432D01*
X64363231Y10524432D01*
X64363231Y10524324D01*
X64369715Y10483564D01*
X64385260Y10466616D01*
X64409802Y10479799D01*
X64456429Y10518891D01*
X64520799Y10579850D01*
X64599092Y10658611D01*
X64687488Y10751112D01*
X64782169Y10853288D01*
X64879314Y10961074D01*
X64975104Y11070408D01*
X65065720Y11177225D01*
X65147342Y11277462D01*
X65328428Y11500872D01*
X65516895Y11721272D01*
X65707115Y11929829D01*
X65909324Y12137739D01*
X66133762Y12356199D01*
X66214260Y12432247D01*
X66350946Y12559225D01*
X66493317Y12689204D01*
X66635731Y12817171D01*
X66772544Y12938112D01*
X66898115Y13047012D01*
X67006802Y13138857D01*
X67092961Y13208632D01*
X67142935Y13249573D01*
X67176888Y13281099D01*
X67186982Y13295993D01*
X67184741Y13296451D01*
X67157039Y13285407D01*
X67102436Y13256004D01*
X67025358Y13210931D01*
X66930234Y13152879D01*
X66821489Y13084536D01*
X66703551Y13008592D01*
X66580846Y12927737D01*
X66274124Y12711724D01*
X65913109Y12427435D01*
X65568830Y12123406D01*
X65248733Y11806277D01*
X64960267Y11482687D01*
X64958030Y11479999D01*
X64840723Y11333847D01*
X64730277Y11186639D01*
X64629399Y11042719D01*
X64540795Y10906428D01*
X64467170Y10782111D01*
X64411230Y10674111D01*
X64375682Y10586770D01*
X64363231Y10524432D01*
X64098006Y10524432D01*
X64098852Y10866874D01*
X64098913Y10888419D01*
X64100283Y11057937D01*
X64103950Y11197333D01*
X64111047Y11314636D01*
X64122706Y11417872D01*
X64140060Y11515071D01*
X64164240Y11614261D01*
X64196378Y11723469D01*
X64237608Y11850725D01*
X64349768Y12133118D01*
X64501806Y12416719D01*
X64686139Y12683632D01*
X64900039Y12930721D01*
X65140776Y13154849D01*
X65405622Y13352881D01*
X65691846Y13521682D01*
X65931188Y13634949D01*
X66289348Y13768279D01*
X66660785Y13865771D01*
X67042690Y13926732D01*
X67432255Y13950471D01*
X67531175Y13951128D01*
X67661504Y13949183D01*
X67758680Y13943154D01*
X67826269Y13932617D01*
X67867836Y13917147D01*
X67886950Y13896319D01*
X67888707Y13884249D01*
X67889695Y13836825D01*
X67888251Y13762040D01*
X67884553Y13667251D01*
X67878781Y13559812D01*
X67860568Y13313070D01*
X67858676Y13295993D01*
X67826722Y13007530D01*
G37*
D13*
%TO.C,BT500*%
X42825000Y50700000D02*
X43825000Y50700000D01*
X43325000Y51200000D02*
X43325000Y50200000D01*
X46425000Y51699999D02*
G75*
G02*
X40225000Y51699999I-3100000J-11499999D01*
G01*
%TD*%
M02*
