%TF.GenerationSoftware,KiCad,Pcbnew,9.0.0*%
%TF.CreationDate,2025-06-25T10:36:33+02:00*%
%TF.ProjectId,Plantomatic2000,506c616e-746f-46d6-9174-696332303030,rev?*%
%TF.SameCoordinates,Original*%
%TF.FileFunction,Legend,Bot*%
%TF.FilePolarity,Positive*%
%FSLAX46Y46*%
G04 Gerber Fmt 4.6, Leading zero omitted, Abs format (unit mm)*
G04 Created by KiCad (PCBNEW 9.0.0) date 2025-06-25 10:36:33*
%MOMM*%
%LPD*%
G01*
G04 APERTURE LIST*
%ADD10C,0.100000*%
%ADD11C,0.150000*%
%ADD12C,0.120000*%
%ADD13C,0.000000*%
G04 APERTURE END LIST*
D10*
X173396115Y-125372419D02*
X173396115Y-124372419D01*
X173396115Y-124372419D02*
X173015163Y-124372419D01*
X173015163Y-124372419D02*
X172919925Y-124420038D01*
X172919925Y-124420038D02*
X172872306Y-124467657D01*
X172872306Y-124467657D02*
X172824687Y-124562895D01*
X172824687Y-124562895D02*
X172824687Y-124705752D01*
X172824687Y-124705752D02*
X172872306Y-124800990D01*
X172872306Y-124800990D02*
X172919925Y-124848609D01*
X172919925Y-124848609D02*
X173015163Y-124896228D01*
X173015163Y-124896228D02*
X173396115Y-124896228D01*
X172253258Y-125372419D02*
X172348496Y-125324800D01*
X172348496Y-125324800D02*
X172396115Y-125229561D01*
X172396115Y-125229561D02*
X172396115Y-124372419D01*
X171443734Y-125372419D02*
X171443734Y-124848609D01*
X171443734Y-124848609D02*
X171491353Y-124753371D01*
X171491353Y-124753371D02*
X171586591Y-124705752D01*
X171586591Y-124705752D02*
X171777067Y-124705752D01*
X171777067Y-124705752D02*
X171872305Y-124753371D01*
X171443734Y-125324800D02*
X171538972Y-125372419D01*
X171538972Y-125372419D02*
X171777067Y-125372419D01*
X171777067Y-125372419D02*
X171872305Y-125324800D01*
X171872305Y-125324800D02*
X171919924Y-125229561D01*
X171919924Y-125229561D02*
X171919924Y-125134323D01*
X171919924Y-125134323D02*
X171872305Y-125039085D01*
X171872305Y-125039085D02*
X171777067Y-124991466D01*
X171777067Y-124991466D02*
X171538972Y-124991466D01*
X171538972Y-124991466D02*
X171443734Y-124943847D01*
X170967543Y-124705752D02*
X170967543Y-125372419D01*
X170967543Y-124800990D02*
X170919924Y-124753371D01*
X170919924Y-124753371D02*
X170824686Y-124705752D01*
X170824686Y-124705752D02*
X170681829Y-124705752D01*
X170681829Y-124705752D02*
X170586591Y-124753371D01*
X170586591Y-124753371D02*
X170538972Y-124848609D01*
X170538972Y-124848609D02*
X170538972Y-125372419D01*
X170205638Y-124705752D02*
X169824686Y-124705752D01*
X170062781Y-124372419D02*
X170062781Y-125229561D01*
X170062781Y-125229561D02*
X170015162Y-125324800D01*
X170015162Y-125324800D02*
X169919924Y-125372419D01*
X169919924Y-125372419D02*
X169824686Y-125372419D01*
X169348495Y-125372419D02*
X169443733Y-125324800D01*
X169443733Y-125324800D02*
X169491352Y-125277180D01*
X169491352Y-125277180D02*
X169538971Y-125181942D01*
X169538971Y-125181942D02*
X169538971Y-124896228D01*
X169538971Y-124896228D02*
X169491352Y-124800990D01*
X169491352Y-124800990D02*
X169443733Y-124753371D01*
X169443733Y-124753371D02*
X169348495Y-124705752D01*
X169348495Y-124705752D02*
X169205638Y-124705752D01*
X169205638Y-124705752D02*
X169110400Y-124753371D01*
X169110400Y-124753371D02*
X169062781Y-124800990D01*
X169062781Y-124800990D02*
X169015162Y-124896228D01*
X169015162Y-124896228D02*
X169015162Y-125181942D01*
X169015162Y-125181942D02*
X169062781Y-125277180D01*
X169062781Y-125277180D02*
X169110400Y-125324800D01*
X169110400Y-125324800D02*
X169205638Y-125372419D01*
X169205638Y-125372419D02*
X169348495Y-125372419D01*
X168586590Y-125372419D02*
X168586590Y-124705752D01*
X168586590Y-124800990D02*
X168538971Y-124753371D01*
X168538971Y-124753371D02*
X168443733Y-124705752D01*
X168443733Y-124705752D02*
X168300876Y-124705752D01*
X168300876Y-124705752D02*
X168205638Y-124753371D01*
X168205638Y-124753371D02*
X168158019Y-124848609D01*
X168158019Y-124848609D02*
X168158019Y-125372419D01*
X168158019Y-124848609D02*
X168110400Y-124753371D01*
X168110400Y-124753371D02*
X168015162Y-124705752D01*
X168015162Y-124705752D02*
X167872305Y-124705752D01*
X167872305Y-124705752D02*
X167777066Y-124753371D01*
X167777066Y-124753371D02*
X167729447Y-124848609D01*
X167729447Y-124848609D02*
X167729447Y-125372419D01*
X166824686Y-125372419D02*
X166824686Y-124848609D01*
X166824686Y-124848609D02*
X166872305Y-124753371D01*
X166872305Y-124753371D02*
X166967543Y-124705752D01*
X166967543Y-124705752D02*
X167158019Y-124705752D01*
X167158019Y-124705752D02*
X167253257Y-124753371D01*
X166824686Y-125324800D02*
X166919924Y-125372419D01*
X166919924Y-125372419D02*
X167158019Y-125372419D01*
X167158019Y-125372419D02*
X167253257Y-125324800D01*
X167253257Y-125324800D02*
X167300876Y-125229561D01*
X167300876Y-125229561D02*
X167300876Y-125134323D01*
X167300876Y-125134323D02*
X167253257Y-125039085D01*
X167253257Y-125039085D02*
X167158019Y-124991466D01*
X167158019Y-124991466D02*
X166919924Y-124991466D01*
X166919924Y-124991466D02*
X166824686Y-124943847D01*
X166491352Y-124705752D02*
X166110400Y-124705752D01*
X166348495Y-124372419D02*
X166348495Y-125229561D01*
X166348495Y-125229561D02*
X166300876Y-125324800D01*
X166300876Y-125324800D02*
X166205638Y-125372419D01*
X166205638Y-125372419D02*
X166110400Y-125372419D01*
X165777066Y-125372419D02*
X165777066Y-124705752D01*
X165777066Y-124372419D02*
X165824685Y-124420038D01*
X165824685Y-124420038D02*
X165777066Y-124467657D01*
X165777066Y-124467657D02*
X165729447Y-124420038D01*
X165729447Y-124420038D02*
X165777066Y-124372419D01*
X165777066Y-124372419D02*
X165777066Y-124467657D01*
X164872305Y-125324800D02*
X164967543Y-125372419D01*
X164967543Y-125372419D02*
X165158019Y-125372419D01*
X165158019Y-125372419D02*
X165253257Y-125324800D01*
X165253257Y-125324800D02*
X165300876Y-125277180D01*
X165300876Y-125277180D02*
X165348495Y-125181942D01*
X165348495Y-125181942D02*
X165348495Y-124896228D01*
X165348495Y-124896228D02*
X165300876Y-124800990D01*
X165300876Y-124800990D02*
X165253257Y-124753371D01*
X165253257Y-124753371D02*
X165158019Y-124705752D01*
X165158019Y-124705752D02*
X164967543Y-124705752D01*
X164967543Y-124705752D02*
X164872305Y-124753371D01*
X164491352Y-124467657D02*
X164443733Y-124420038D01*
X164443733Y-124420038D02*
X164348495Y-124372419D01*
X164348495Y-124372419D02*
X164110400Y-124372419D01*
X164110400Y-124372419D02*
X164015162Y-124420038D01*
X164015162Y-124420038D02*
X163967543Y-124467657D01*
X163967543Y-124467657D02*
X163919924Y-124562895D01*
X163919924Y-124562895D02*
X163919924Y-124658133D01*
X163919924Y-124658133D02*
X163967543Y-124800990D01*
X163967543Y-124800990D02*
X164538971Y-125372419D01*
X164538971Y-125372419D02*
X163919924Y-125372419D01*
X163300876Y-124372419D02*
X163205638Y-124372419D01*
X163205638Y-124372419D02*
X163110400Y-124420038D01*
X163110400Y-124420038D02*
X163062781Y-124467657D01*
X163062781Y-124467657D02*
X163015162Y-124562895D01*
X163015162Y-124562895D02*
X162967543Y-124753371D01*
X162967543Y-124753371D02*
X162967543Y-124991466D01*
X162967543Y-124991466D02*
X163015162Y-125181942D01*
X163015162Y-125181942D02*
X163062781Y-125277180D01*
X163062781Y-125277180D02*
X163110400Y-125324800D01*
X163110400Y-125324800D02*
X163205638Y-125372419D01*
X163205638Y-125372419D02*
X163300876Y-125372419D01*
X163300876Y-125372419D02*
X163396114Y-125324800D01*
X163396114Y-125324800D02*
X163443733Y-125277180D01*
X163443733Y-125277180D02*
X163491352Y-125181942D01*
X163491352Y-125181942D02*
X163538971Y-124991466D01*
X163538971Y-124991466D02*
X163538971Y-124753371D01*
X163538971Y-124753371D02*
X163491352Y-124562895D01*
X163491352Y-124562895D02*
X163443733Y-124467657D01*
X163443733Y-124467657D02*
X163396114Y-124420038D01*
X163396114Y-124420038D02*
X163300876Y-124372419D01*
X162348495Y-124372419D02*
X162253257Y-124372419D01*
X162253257Y-124372419D02*
X162158019Y-124420038D01*
X162158019Y-124420038D02*
X162110400Y-124467657D01*
X162110400Y-124467657D02*
X162062781Y-124562895D01*
X162062781Y-124562895D02*
X162015162Y-124753371D01*
X162015162Y-124753371D02*
X162015162Y-124991466D01*
X162015162Y-124991466D02*
X162062781Y-125181942D01*
X162062781Y-125181942D02*
X162110400Y-125277180D01*
X162110400Y-125277180D02*
X162158019Y-125324800D01*
X162158019Y-125324800D02*
X162253257Y-125372419D01*
X162253257Y-125372419D02*
X162348495Y-125372419D01*
X162348495Y-125372419D02*
X162443733Y-125324800D01*
X162443733Y-125324800D02*
X162491352Y-125277180D01*
X162491352Y-125277180D02*
X162538971Y-125181942D01*
X162538971Y-125181942D02*
X162586590Y-124991466D01*
X162586590Y-124991466D02*
X162586590Y-124753371D01*
X162586590Y-124753371D02*
X162538971Y-124562895D01*
X162538971Y-124562895D02*
X162491352Y-124467657D01*
X162491352Y-124467657D02*
X162443733Y-124420038D01*
X162443733Y-124420038D02*
X162348495Y-124372419D01*
X161396114Y-124372419D02*
X161300876Y-124372419D01*
X161300876Y-124372419D02*
X161205638Y-124420038D01*
X161205638Y-124420038D02*
X161158019Y-124467657D01*
X161158019Y-124467657D02*
X161110400Y-124562895D01*
X161110400Y-124562895D02*
X161062781Y-124753371D01*
X161062781Y-124753371D02*
X161062781Y-124991466D01*
X161062781Y-124991466D02*
X161110400Y-125181942D01*
X161110400Y-125181942D02*
X161158019Y-125277180D01*
X161158019Y-125277180D02*
X161205638Y-125324800D01*
X161205638Y-125324800D02*
X161300876Y-125372419D01*
X161300876Y-125372419D02*
X161396114Y-125372419D01*
X161396114Y-125372419D02*
X161491352Y-125324800D01*
X161491352Y-125324800D02*
X161538971Y-125277180D01*
X161538971Y-125277180D02*
X161586590Y-125181942D01*
X161586590Y-125181942D02*
X161634209Y-124991466D01*
X161634209Y-124991466D02*
X161634209Y-124753371D01*
X161634209Y-124753371D02*
X161586590Y-124562895D01*
X161586590Y-124562895D02*
X161538971Y-124467657D01*
X161538971Y-124467657D02*
X161491352Y-124420038D01*
X161491352Y-124420038D02*
X161396114Y-124372419D01*
X159967542Y-124705752D02*
X159729447Y-125372419D01*
X159729447Y-125372419D02*
X159491352Y-124705752D01*
X158919923Y-124372419D02*
X158824685Y-124372419D01*
X158824685Y-124372419D02*
X158729447Y-124420038D01*
X158729447Y-124420038D02*
X158681828Y-124467657D01*
X158681828Y-124467657D02*
X158634209Y-124562895D01*
X158634209Y-124562895D02*
X158586590Y-124753371D01*
X158586590Y-124753371D02*
X158586590Y-124991466D01*
X158586590Y-124991466D02*
X158634209Y-125181942D01*
X158634209Y-125181942D02*
X158681828Y-125277180D01*
X158681828Y-125277180D02*
X158729447Y-125324800D01*
X158729447Y-125324800D02*
X158824685Y-125372419D01*
X158824685Y-125372419D02*
X158919923Y-125372419D01*
X158919923Y-125372419D02*
X159015161Y-125324800D01*
X159015161Y-125324800D02*
X159062780Y-125277180D01*
X159062780Y-125277180D02*
X159110399Y-125181942D01*
X159110399Y-125181942D02*
X159158018Y-124991466D01*
X159158018Y-124991466D02*
X159158018Y-124753371D01*
X159158018Y-124753371D02*
X159110399Y-124562895D01*
X159110399Y-124562895D02*
X159062780Y-124467657D01*
X159062780Y-124467657D02*
X159015161Y-124420038D01*
X159015161Y-124420038D02*
X158919923Y-124372419D01*
X158158018Y-125277180D02*
X158110399Y-125324800D01*
X158110399Y-125324800D02*
X158158018Y-125372419D01*
X158158018Y-125372419D02*
X158205637Y-125324800D01*
X158205637Y-125324800D02*
X158158018Y-125277180D01*
X158158018Y-125277180D02*
X158158018Y-125372419D01*
X157158019Y-125372419D02*
X157729447Y-125372419D01*
X157443733Y-125372419D02*
X157443733Y-124372419D01*
X157443733Y-124372419D02*
X157538971Y-124515276D01*
X157538971Y-124515276D02*
X157634209Y-124610514D01*
X157634209Y-124610514D02*
X157729447Y-124658133D01*
X156015161Y-124467657D02*
X155967542Y-124420038D01*
X155967542Y-124420038D02*
X155872304Y-124372419D01*
X155872304Y-124372419D02*
X155634209Y-124372419D01*
X155634209Y-124372419D02*
X155538971Y-124420038D01*
X155538971Y-124420038D02*
X155491352Y-124467657D01*
X155491352Y-124467657D02*
X155443733Y-124562895D01*
X155443733Y-124562895D02*
X155443733Y-124658133D01*
X155443733Y-124658133D02*
X155491352Y-124800990D01*
X155491352Y-124800990D02*
X156062780Y-125372419D01*
X156062780Y-125372419D02*
X155443733Y-125372419D01*
X154824685Y-124372419D02*
X154729447Y-124372419D01*
X154729447Y-124372419D02*
X154634209Y-124420038D01*
X154634209Y-124420038D02*
X154586590Y-124467657D01*
X154586590Y-124467657D02*
X154538971Y-124562895D01*
X154538971Y-124562895D02*
X154491352Y-124753371D01*
X154491352Y-124753371D02*
X154491352Y-124991466D01*
X154491352Y-124991466D02*
X154538971Y-125181942D01*
X154538971Y-125181942D02*
X154586590Y-125277180D01*
X154586590Y-125277180D02*
X154634209Y-125324800D01*
X154634209Y-125324800D02*
X154729447Y-125372419D01*
X154729447Y-125372419D02*
X154824685Y-125372419D01*
X154824685Y-125372419D02*
X154919923Y-125324800D01*
X154919923Y-125324800D02*
X154967542Y-125277180D01*
X154967542Y-125277180D02*
X155015161Y-125181942D01*
X155015161Y-125181942D02*
X155062780Y-124991466D01*
X155062780Y-124991466D02*
X155062780Y-124753371D01*
X155062780Y-124753371D02*
X155015161Y-124562895D01*
X155015161Y-124562895D02*
X154967542Y-124467657D01*
X154967542Y-124467657D02*
X154919923Y-124420038D01*
X154919923Y-124420038D02*
X154824685Y-124372419D01*
X154110399Y-124467657D02*
X154062780Y-124420038D01*
X154062780Y-124420038D02*
X153967542Y-124372419D01*
X153967542Y-124372419D02*
X153729447Y-124372419D01*
X153729447Y-124372419D02*
X153634209Y-124420038D01*
X153634209Y-124420038D02*
X153586590Y-124467657D01*
X153586590Y-124467657D02*
X153538971Y-124562895D01*
X153538971Y-124562895D02*
X153538971Y-124658133D01*
X153538971Y-124658133D02*
X153586590Y-124800990D01*
X153586590Y-124800990D02*
X154158018Y-125372419D01*
X154158018Y-125372419D02*
X153538971Y-125372419D01*
X152634209Y-124372419D02*
X153110399Y-124372419D01*
X153110399Y-124372419D02*
X153158018Y-124848609D01*
X153158018Y-124848609D02*
X153110399Y-124800990D01*
X153110399Y-124800990D02*
X153015161Y-124753371D01*
X153015161Y-124753371D02*
X152777066Y-124753371D01*
X152777066Y-124753371D02*
X152681828Y-124800990D01*
X152681828Y-124800990D02*
X152634209Y-124848609D01*
X152634209Y-124848609D02*
X152586590Y-124943847D01*
X152586590Y-124943847D02*
X152586590Y-125181942D01*
X152586590Y-125181942D02*
X152634209Y-125277180D01*
X152634209Y-125277180D02*
X152681828Y-125324800D01*
X152681828Y-125324800D02*
X152777066Y-125372419D01*
X152777066Y-125372419D02*
X153015161Y-125372419D01*
X153015161Y-125372419D02*
X153110399Y-125324800D01*
X153110399Y-125324800D02*
X153158018Y-125277180D01*
X151967542Y-124372419D02*
X151872304Y-124372419D01*
X151872304Y-124372419D02*
X151777066Y-124420038D01*
X151777066Y-124420038D02*
X151729447Y-124467657D01*
X151729447Y-124467657D02*
X151681828Y-124562895D01*
X151681828Y-124562895D02*
X151634209Y-124753371D01*
X151634209Y-124753371D02*
X151634209Y-124991466D01*
X151634209Y-124991466D02*
X151681828Y-125181942D01*
X151681828Y-125181942D02*
X151729447Y-125277180D01*
X151729447Y-125277180D02*
X151777066Y-125324800D01*
X151777066Y-125324800D02*
X151872304Y-125372419D01*
X151872304Y-125372419D02*
X151967542Y-125372419D01*
X151967542Y-125372419D02*
X152062780Y-125324800D01*
X152062780Y-125324800D02*
X152110399Y-125277180D01*
X152110399Y-125277180D02*
X152158018Y-125181942D01*
X152158018Y-125181942D02*
X152205637Y-124991466D01*
X152205637Y-124991466D02*
X152205637Y-124753371D01*
X152205637Y-124753371D02*
X152158018Y-124562895D01*
X152158018Y-124562895D02*
X152110399Y-124467657D01*
X152110399Y-124467657D02*
X152062780Y-124420038D01*
X152062780Y-124420038D02*
X151967542Y-124372419D01*
X150777066Y-124372419D02*
X150967542Y-124372419D01*
X150967542Y-124372419D02*
X151062780Y-124420038D01*
X151062780Y-124420038D02*
X151110399Y-124467657D01*
X151110399Y-124467657D02*
X151205637Y-124610514D01*
X151205637Y-124610514D02*
X151253256Y-124800990D01*
X151253256Y-124800990D02*
X151253256Y-125181942D01*
X151253256Y-125181942D02*
X151205637Y-125277180D01*
X151205637Y-125277180D02*
X151158018Y-125324800D01*
X151158018Y-125324800D02*
X151062780Y-125372419D01*
X151062780Y-125372419D02*
X150872304Y-125372419D01*
X150872304Y-125372419D02*
X150777066Y-125324800D01*
X150777066Y-125324800D02*
X150729447Y-125277180D01*
X150729447Y-125277180D02*
X150681828Y-125181942D01*
X150681828Y-125181942D02*
X150681828Y-124943847D01*
X150681828Y-124943847D02*
X150729447Y-124848609D01*
X150729447Y-124848609D02*
X150777066Y-124800990D01*
X150777066Y-124800990D02*
X150872304Y-124753371D01*
X150872304Y-124753371D02*
X151062780Y-124753371D01*
X151062780Y-124753371D02*
X151158018Y-124800990D01*
X151158018Y-124800990D02*
X151205637Y-124848609D01*
X151205637Y-124848609D02*
X151253256Y-124943847D01*
X150300875Y-124467657D02*
X150253256Y-124420038D01*
X150253256Y-124420038D02*
X150158018Y-124372419D01*
X150158018Y-124372419D02*
X149919923Y-124372419D01*
X149919923Y-124372419D02*
X149824685Y-124420038D01*
X149824685Y-124420038D02*
X149777066Y-124467657D01*
X149777066Y-124467657D02*
X149729447Y-124562895D01*
X149729447Y-124562895D02*
X149729447Y-124658133D01*
X149729447Y-124658133D02*
X149777066Y-124800990D01*
X149777066Y-124800990D02*
X150348494Y-125372419D01*
X150348494Y-125372419D02*
X149729447Y-125372419D01*
X148824685Y-124372419D02*
X149300875Y-124372419D01*
X149300875Y-124372419D02*
X149348494Y-124848609D01*
X149348494Y-124848609D02*
X149300875Y-124800990D01*
X149300875Y-124800990D02*
X149205637Y-124753371D01*
X149205637Y-124753371D02*
X148967542Y-124753371D01*
X148967542Y-124753371D02*
X148872304Y-124800990D01*
X148872304Y-124800990D02*
X148824685Y-124848609D01*
X148824685Y-124848609D02*
X148777066Y-124943847D01*
X148777066Y-124943847D02*
X148777066Y-125181942D01*
X148777066Y-125181942D02*
X148824685Y-125277180D01*
X148824685Y-125277180D02*
X148872304Y-125324800D01*
X148872304Y-125324800D02*
X148967542Y-125372419D01*
X148967542Y-125372419D02*
X149205637Y-125372419D01*
X149205637Y-125372419D02*
X149300875Y-125324800D01*
X149300875Y-125324800D02*
X149348494Y-125277180D01*
D11*
X115554819Y-115147619D02*
X116554819Y-115385714D01*
X116554819Y-115385714D02*
X115840533Y-115576190D01*
X115840533Y-115576190D02*
X116554819Y-115766666D01*
X116554819Y-115766666D02*
X115554819Y-116004762D01*
X116554819Y-116814285D02*
X116031009Y-116814285D01*
X116031009Y-116814285D02*
X115935771Y-116766666D01*
X115935771Y-116766666D02*
X115888152Y-116671428D01*
X115888152Y-116671428D02*
X115888152Y-116480952D01*
X115888152Y-116480952D02*
X115935771Y-116385714D01*
X116507200Y-116814285D02*
X116554819Y-116719047D01*
X116554819Y-116719047D02*
X116554819Y-116480952D01*
X116554819Y-116480952D02*
X116507200Y-116385714D01*
X116507200Y-116385714D02*
X116411961Y-116338095D01*
X116411961Y-116338095D02*
X116316723Y-116338095D01*
X116316723Y-116338095D02*
X116221485Y-116385714D01*
X116221485Y-116385714D02*
X116173866Y-116480952D01*
X116173866Y-116480952D02*
X116173866Y-116719047D01*
X116173866Y-116719047D02*
X116126247Y-116814285D01*
X115888152Y-117147619D02*
X115888152Y-117528571D01*
X115554819Y-117290476D02*
X116411961Y-117290476D01*
X116411961Y-117290476D02*
X116507200Y-117338095D01*
X116507200Y-117338095D02*
X116554819Y-117433333D01*
X116554819Y-117433333D02*
X116554819Y-117528571D01*
X116507200Y-118242857D02*
X116554819Y-118147619D01*
X116554819Y-118147619D02*
X116554819Y-117957143D01*
X116554819Y-117957143D02*
X116507200Y-117861905D01*
X116507200Y-117861905D02*
X116411961Y-117814286D01*
X116411961Y-117814286D02*
X116031009Y-117814286D01*
X116031009Y-117814286D02*
X115935771Y-117861905D01*
X115935771Y-117861905D02*
X115888152Y-117957143D01*
X115888152Y-117957143D02*
X115888152Y-118147619D01*
X115888152Y-118147619D02*
X115935771Y-118242857D01*
X115935771Y-118242857D02*
X116031009Y-118290476D01*
X116031009Y-118290476D02*
X116126247Y-118290476D01*
X116126247Y-118290476D02*
X116221485Y-117814286D01*
X116554819Y-118719048D02*
X115888152Y-118719048D01*
X116078628Y-118719048D02*
X115983390Y-118766667D01*
X115983390Y-118766667D02*
X115935771Y-118814286D01*
X115935771Y-118814286D02*
X115888152Y-118909524D01*
X115888152Y-118909524D02*
X115888152Y-119004762D01*
X116507200Y-120052382D02*
X116554819Y-120195239D01*
X116554819Y-120195239D02*
X116554819Y-120433334D01*
X116554819Y-120433334D02*
X116507200Y-120528572D01*
X116507200Y-120528572D02*
X116459580Y-120576191D01*
X116459580Y-120576191D02*
X116364342Y-120623810D01*
X116364342Y-120623810D02*
X116269104Y-120623810D01*
X116269104Y-120623810D02*
X116173866Y-120576191D01*
X116173866Y-120576191D02*
X116126247Y-120528572D01*
X116126247Y-120528572D02*
X116078628Y-120433334D01*
X116078628Y-120433334D02*
X116031009Y-120242858D01*
X116031009Y-120242858D02*
X115983390Y-120147620D01*
X115983390Y-120147620D02*
X115935771Y-120100001D01*
X115935771Y-120100001D02*
X115840533Y-120052382D01*
X115840533Y-120052382D02*
X115745295Y-120052382D01*
X115745295Y-120052382D02*
X115650057Y-120100001D01*
X115650057Y-120100001D02*
X115602438Y-120147620D01*
X115602438Y-120147620D02*
X115554819Y-120242858D01*
X115554819Y-120242858D02*
X115554819Y-120480953D01*
X115554819Y-120480953D02*
X115602438Y-120623810D01*
X116554819Y-121052382D02*
X115888152Y-121052382D01*
X115554819Y-121052382D02*
X115602438Y-121004763D01*
X115602438Y-121004763D02*
X115650057Y-121052382D01*
X115650057Y-121052382D02*
X115602438Y-121100001D01*
X115602438Y-121100001D02*
X115554819Y-121052382D01*
X115554819Y-121052382D02*
X115650057Y-121052382D01*
X115888152Y-121957143D02*
X116697676Y-121957143D01*
X116697676Y-121957143D02*
X116792914Y-121909524D01*
X116792914Y-121909524D02*
X116840533Y-121861905D01*
X116840533Y-121861905D02*
X116888152Y-121766667D01*
X116888152Y-121766667D02*
X116888152Y-121623810D01*
X116888152Y-121623810D02*
X116840533Y-121528572D01*
X116507200Y-121957143D02*
X116554819Y-121861905D01*
X116554819Y-121861905D02*
X116554819Y-121671429D01*
X116554819Y-121671429D02*
X116507200Y-121576191D01*
X116507200Y-121576191D02*
X116459580Y-121528572D01*
X116459580Y-121528572D02*
X116364342Y-121480953D01*
X116364342Y-121480953D02*
X116078628Y-121480953D01*
X116078628Y-121480953D02*
X115983390Y-121528572D01*
X115983390Y-121528572D02*
X115935771Y-121576191D01*
X115935771Y-121576191D02*
X115888152Y-121671429D01*
X115888152Y-121671429D02*
X115888152Y-121861905D01*
X115888152Y-121861905D02*
X115935771Y-121957143D01*
X188819047Y-81354819D02*
X189152380Y-80878628D01*
X189390475Y-81354819D02*
X189390475Y-80354819D01*
X189390475Y-80354819D02*
X189009523Y-80354819D01*
X189009523Y-80354819D02*
X188914285Y-80402438D01*
X188914285Y-80402438D02*
X188866666Y-80450057D01*
X188866666Y-80450057D02*
X188819047Y-80545295D01*
X188819047Y-80545295D02*
X188819047Y-80688152D01*
X188819047Y-80688152D02*
X188866666Y-80783390D01*
X188866666Y-80783390D02*
X188914285Y-80831009D01*
X188914285Y-80831009D02*
X189009523Y-80878628D01*
X189009523Y-80878628D02*
X189390475Y-80878628D01*
X187866666Y-81354819D02*
X188438094Y-81354819D01*
X188152380Y-81354819D02*
X188152380Y-80354819D01*
X188152380Y-80354819D02*
X188247618Y-80497676D01*
X188247618Y-80497676D02*
X188342856Y-80592914D01*
X188342856Y-80592914D02*
X188438094Y-80640533D01*
X186914285Y-81354819D02*
X187485713Y-81354819D01*
X187199999Y-81354819D02*
X187199999Y-80354819D01*
X187199999Y-80354819D02*
X187295237Y-80497676D01*
X187295237Y-80497676D02*
X187390475Y-80592914D01*
X187390475Y-80592914D02*
X187485713Y-80640533D01*
X186342856Y-80783390D02*
X186438094Y-80735771D01*
X186438094Y-80735771D02*
X186485713Y-80688152D01*
X186485713Y-80688152D02*
X186533332Y-80592914D01*
X186533332Y-80592914D02*
X186533332Y-80545295D01*
X186533332Y-80545295D02*
X186485713Y-80450057D01*
X186485713Y-80450057D02*
X186438094Y-80402438D01*
X186438094Y-80402438D02*
X186342856Y-80354819D01*
X186342856Y-80354819D02*
X186152380Y-80354819D01*
X186152380Y-80354819D02*
X186057142Y-80402438D01*
X186057142Y-80402438D02*
X186009523Y-80450057D01*
X186009523Y-80450057D02*
X185961904Y-80545295D01*
X185961904Y-80545295D02*
X185961904Y-80592914D01*
X185961904Y-80592914D02*
X186009523Y-80688152D01*
X186009523Y-80688152D02*
X186057142Y-80735771D01*
X186057142Y-80735771D02*
X186152380Y-80783390D01*
X186152380Y-80783390D02*
X186342856Y-80783390D01*
X186342856Y-80783390D02*
X186438094Y-80831009D01*
X186438094Y-80831009D02*
X186485713Y-80878628D01*
X186485713Y-80878628D02*
X186533332Y-80973866D01*
X186533332Y-80973866D02*
X186533332Y-81164342D01*
X186533332Y-81164342D02*
X186485713Y-81259580D01*
X186485713Y-81259580D02*
X186438094Y-81307200D01*
X186438094Y-81307200D02*
X186342856Y-81354819D01*
X186342856Y-81354819D02*
X186152380Y-81354819D01*
X186152380Y-81354819D02*
X186057142Y-81307200D01*
X186057142Y-81307200D02*
X186009523Y-81259580D01*
X186009523Y-81259580D02*
X185961904Y-81164342D01*
X185961904Y-81164342D02*
X185961904Y-80973866D01*
X185961904Y-80973866D02*
X186009523Y-80878628D01*
X186009523Y-80878628D02*
X186057142Y-80831009D01*
X186057142Y-80831009D02*
X186152380Y-80783390D01*
X132419047Y-114259580D02*
X132466666Y-114307200D01*
X132466666Y-114307200D02*
X132609523Y-114354819D01*
X132609523Y-114354819D02*
X132704761Y-114354819D01*
X132704761Y-114354819D02*
X132847618Y-114307200D01*
X132847618Y-114307200D02*
X132942856Y-114211961D01*
X132942856Y-114211961D02*
X132990475Y-114116723D01*
X132990475Y-114116723D02*
X133038094Y-113926247D01*
X133038094Y-113926247D02*
X133038094Y-113783390D01*
X133038094Y-113783390D02*
X132990475Y-113592914D01*
X132990475Y-113592914D02*
X132942856Y-113497676D01*
X132942856Y-113497676D02*
X132847618Y-113402438D01*
X132847618Y-113402438D02*
X132704761Y-113354819D01*
X132704761Y-113354819D02*
X132609523Y-113354819D01*
X132609523Y-113354819D02*
X132466666Y-113402438D01*
X132466666Y-113402438D02*
X132419047Y-113450057D01*
X131466666Y-114354819D02*
X132038094Y-114354819D01*
X131752380Y-114354819D02*
X131752380Y-113354819D01*
X131752380Y-113354819D02*
X131847618Y-113497676D01*
X131847618Y-113497676D02*
X131942856Y-113592914D01*
X131942856Y-113592914D02*
X132038094Y-113640533D01*
X130514285Y-114354819D02*
X131085713Y-114354819D01*
X130799999Y-114354819D02*
X130799999Y-113354819D01*
X130799999Y-113354819D02*
X130895237Y-113497676D01*
X130895237Y-113497676D02*
X130990475Y-113592914D01*
X130990475Y-113592914D02*
X131085713Y-113640533D01*
X129657142Y-113354819D02*
X129847618Y-113354819D01*
X129847618Y-113354819D02*
X129942856Y-113402438D01*
X129942856Y-113402438D02*
X129990475Y-113450057D01*
X129990475Y-113450057D02*
X130085713Y-113592914D01*
X130085713Y-113592914D02*
X130133332Y-113783390D01*
X130133332Y-113783390D02*
X130133332Y-114164342D01*
X130133332Y-114164342D02*
X130085713Y-114259580D01*
X130085713Y-114259580D02*
X130038094Y-114307200D01*
X130038094Y-114307200D02*
X129942856Y-114354819D01*
X129942856Y-114354819D02*
X129752380Y-114354819D01*
X129752380Y-114354819D02*
X129657142Y-114307200D01*
X129657142Y-114307200D02*
X129609523Y-114259580D01*
X129609523Y-114259580D02*
X129561904Y-114164342D01*
X129561904Y-114164342D02*
X129561904Y-113926247D01*
X129561904Y-113926247D02*
X129609523Y-113831009D01*
X129609523Y-113831009D02*
X129657142Y-113783390D01*
X129657142Y-113783390D02*
X129752380Y-113735771D01*
X129752380Y-113735771D02*
X129942856Y-113735771D01*
X129942856Y-113735771D02*
X130038094Y-113783390D01*
X130038094Y-113783390D02*
X130085713Y-113831009D01*
X130085713Y-113831009D02*
X130133332Y-113926247D01*
X159154819Y-87480952D02*
X158678628Y-87147619D01*
X159154819Y-86909524D02*
X158154819Y-86909524D01*
X158154819Y-86909524D02*
X158154819Y-87290476D01*
X158154819Y-87290476D02*
X158202438Y-87385714D01*
X158202438Y-87385714D02*
X158250057Y-87433333D01*
X158250057Y-87433333D02*
X158345295Y-87480952D01*
X158345295Y-87480952D02*
X158488152Y-87480952D01*
X158488152Y-87480952D02*
X158583390Y-87433333D01*
X158583390Y-87433333D02*
X158631009Y-87385714D01*
X158631009Y-87385714D02*
X158678628Y-87290476D01*
X158678628Y-87290476D02*
X158678628Y-86909524D01*
X159154819Y-88433333D02*
X159154819Y-87861905D01*
X159154819Y-88147619D02*
X158154819Y-88147619D01*
X158154819Y-88147619D02*
X158297676Y-88052381D01*
X158297676Y-88052381D02*
X158392914Y-87957143D01*
X158392914Y-87957143D02*
X158440533Y-87861905D01*
X158154819Y-89338095D02*
X158154819Y-88861905D01*
X158154819Y-88861905D02*
X158631009Y-88814286D01*
X158631009Y-88814286D02*
X158583390Y-88861905D01*
X158583390Y-88861905D02*
X158535771Y-88957143D01*
X158535771Y-88957143D02*
X158535771Y-89195238D01*
X158535771Y-89195238D02*
X158583390Y-89290476D01*
X158583390Y-89290476D02*
X158631009Y-89338095D01*
X158631009Y-89338095D02*
X158726247Y-89385714D01*
X158726247Y-89385714D02*
X158964342Y-89385714D01*
X158964342Y-89385714D02*
X159059580Y-89338095D01*
X159059580Y-89338095D02*
X159107200Y-89290476D01*
X159107200Y-89290476D02*
X159154819Y-89195238D01*
X159154819Y-89195238D02*
X159154819Y-88957143D01*
X159154819Y-88957143D02*
X159107200Y-88861905D01*
X159107200Y-88861905D02*
X159059580Y-88814286D01*
X159154819Y-90338095D02*
X159154819Y-89766667D01*
X159154819Y-90052381D02*
X158154819Y-90052381D01*
X158154819Y-90052381D02*
X158297676Y-89957143D01*
X158297676Y-89957143D02*
X158392914Y-89861905D01*
X158392914Y-89861905D02*
X158440533Y-89766667D01*
X135739819Y-107783333D02*
X136454104Y-107783333D01*
X136454104Y-107783333D02*
X136596961Y-107735714D01*
X136596961Y-107735714D02*
X136692200Y-107640476D01*
X136692200Y-107640476D02*
X136739819Y-107497619D01*
X136739819Y-107497619D02*
X136739819Y-107402381D01*
X135739819Y-108116667D02*
X135739819Y-108688095D01*
X136739819Y-108402381D02*
X135739819Y-108402381D01*
X136454104Y-108973810D02*
X136454104Y-109450000D01*
X136739819Y-108878572D02*
X135739819Y-109211905D01*
X135739819Y-109211905D02*
X136739819Y-109545238D01*
X135787438Y-110402381D02*
X135739819Y-110307143D01*
X135739819Y-110307143D02*
X135739819Y-110164286D01*
X135739819Y-110164286D02*
X135787438Y-110021429D01*
X135787438Y-110021429D02*
X135882676Y-109926191D01*
X135882676Y-109926191D02*
X135977914Y-109878572D01*
X135977914Y-109878572D02*
X136168390Y-109830953D01*
X136168390Y-109830953D02*
X136311247Y-109830953D01*
X136311247Y-109830953D02*
X136501723Y-109878572D01*
X136501723Y-109878572D02*
X136596961Y-109926191D01*
X136596961Y-109926191D02*
X136692200Y-110021429D01*
X136692200Y-110021429D02*
X136739819Y-110164286D01*
X136739819Y-110164286D02*
X136739819Y-110259524D01*
X136739819Y-110259524D02*
X136692200Y-110402381D01*
X136692200Y-110402381D02*
X136644580Y-110450000D01*
X136644580Y-110450000D02*
X136311247Y-110450000D01*
X136311247Y-110450000D02*
X136311247Y-110259524D01*
X155419047Y-84854819D02*
X155752380Y-84378628D01*
X155990475Y-84854819D02*
X155990475Y-83854819D01*
X155990475Y-83854819D02*
X155609523Y-83854819D01*
X155609523Y-83854819D02*
X155514285Y-83902438D01*
X155514285Y-83902438D02*
X155466666Y-83950057D01*
X155466666Y-83950057D02*
X155419047Y-84045295D01*
X155419047Y-84045295D02*
X155419047Y-84188152D01*
X155419047Y-84188152D02*
X155466666Y-84283390D01*
X155466666Y-84283390D02*
X155514285Y-84331009D01*
X155514285Y-84331009D02*
X155609523Y-84378628D01*
X155609523Y-84378628D02*
X155990475Y-84378628D01*
X154466666Y-84854819D02*
X155038094Y-84854819D01*
X154752380Y-84854819D02*
X154752380Y-83854819D01*
X154752380Y-83854819D02*
X154847618Y-83997676D01*
X154847618Y-83997676D02*
X154942856Y-84092914D01*
X154942856Y-84092914D02*
X155038094Y-84140533D01*
X153609523Y-84188152D02*
X153609523Y-84854819D01*
X153847618Y-83807200D02*
X154085713Y-84521485D01*
X154085713Y-84521485D02*
X153466666Y-84521485D01*
X152657142Y-83854819D02*
X152847618Y-83854819D01*
X152847618Y-83854819D02*
X152942856Y-83902438D01*
X152942856Y-83902438D02*
X152990475Y-83950057D01*
X152990475Y-83950057D02*
X153085713Y-84092914D01*
X153085713Y-84092914D02*
X153133332Y-84283390D01*
X153133332Y-84283390D02*
X153133332Y-84664342D01*
X153133332Y-84664342D02*
X153085713Y-84759580D01*
X153085713Y-84759580D02*
X153038094Y-84807200D01*
X153038094Y-84807200D02*
X152942856Y-84854819D01*
X152942856Y-84854819D02*
X152752380Y-84854819D01*
X152752380Y-84854819D02*
X152657142Y-84807200D01*
X152657142Y-84807200D02*
X152609523Y-84759580D01*
X152609523Y-84759580D02*
X152561904Y-84664342D01*
X152561904Y-84664342D02*
X152561904Y-84426247D01*
X152561904Y-84426247D02*
X152609523Y-84331009D01*
X152609523Y-84331009D02*
X152657142Y-84283390D01*
X152657142Y-84283390D02*
X152752380Y-84235771D01*
X152752380Y-84235771D02*
X152942856Y-84235771D01*
X152942856Y-84235771D02*
X153038094Y-84283390D01*
X153038094Y-84283390D02*
X153085713Y-84331009D01*
X153085713Y-84331009D02*
X153133332Y-84426247D01*
X157814819Y-87480952D02*
X157338628Y-87147619D01*
X157814819Y-86909524D02*
X156814819Y-86909524D01*
X156814819Y-86909524D02*
X156814819Y-87290476D01*
X156814819Y-87290476D02*
X156862438Y-87385714D01*
X156862438Y-87385714D02*
X156910057Y-87433333D01*
X156910057Y-87433333D02*
X157005295Y-87480952D01*
X157005295Y-87480952D02*
X157148152Y-87480952D01*
X157148152Y-87480952D02*
X157243390Y-87433333D01*
X157243390Y-87433333D02*
X157291009Y-87385714D01*
X157291009Y-87385714D02*
X157338628Y-87290476D01*
X157338628Y-87290476D02*
X157338628Y-86909524D01*
X157814819Y-88433333D02*
X157814819Y-87861905D01*
X157814819Y-88147619D02*
X156814819Y-88147619D01*
X156814819Y-88147619D02*
X156957676Y-88052381D01*
X156957676Y-88052381D02*
X157052914Y-87957143D01*
X157052914Y-87957143D02*
X157100533Y-87861905D01*
X156814819Y-89338095D02*
X156814819Y-88861905D01*
X156814819Y-88861905D02*
X157291009Y-88814286D01*
X157291009Y-88814286D02*
X157243390Y-88861905D01*
X157243390Y-88861905D02*
X157195771Y-88957143D01*
X157195771Y-88957143D02*
X157195771Y-89195238D01*
X157195771Y-89195238D02*
X157243390Y-89290476D01*
X157243390Y-89290476D02*
X157291009Y-89338095D01*
X157291009Y-89338095D02*
X157386247Y-89385714D01*
X157386247Y-89385714D02*
X157624342Y-89385714D01*
X157624342Y-89385714D02*
X157719580Y-89338095D01*
X157719580Y-89338095D02*
X157767200Y-89290476D01*
X157767200Y-89290476D02*
X157814819Y-89195238D01*
X157814819Y-89195238D02*
X157814819Y-88957143D01*
X157814819Y-88957143D02*
X157767200Y-88861905D01*
X157767200Y-88861905D02*
X157719580Y-88814286D01*
X156814819Y-89719048D02*
X156814819Y-90338095D01*
X156814819Y-90338095D02*
X157195771Y-90004762D01*
X157195771Y-90004762D02*
X157195771Y-90147619D01*
X157195771Y-90147619D02*
X157243390Y-90242857D01*
X157243390Y-90242857D02*
X157291009Y-90290476D01*
X157291009Y-90290476D02*
X157386247Y-90338095D01*
X157386247Y-90338095D02*
X157624342Y-90338095D01*
X157624342Y-90338095D02*
X157719580Y-90290476D01*
X157719580Y-90290476D02*
X157767200Y-90242857D01*
X157767200Y-90242857D02*
X157814819Y-90147619D01*
X157814819Y-90147619D02*
X157814819Y-89861905D01*
X157814819Y-89861905D02*
X157767200Y-89766667D01*
X157767200Y-89766667D02*
X157719580Y-89719048D01*
X143354819Y-102280952D02*
X142878628Y-101947619D01*
X143354819Y-101709524D02*
X142354819Y-101709524D01*
X142354819Y-101709524D02*
X142354819Y-102090476D01*
X142354819Y-102090476D02*
X142402438Y-102185714D01*
X142402438Y-102185714D02*
X142450057Y-102233333D01*
X142450057Y-102233333D02*
X142545295Y-102280952D01*
X142545295Y-102280952D02*
X142688152Y-102280952D01*
X142688152Y-102280952D02*
X142783390Y-102233333D01*
X142783390Y-102233333D02*
X142831009Y-102185714D01*
X142831009Y-102185714D02*
X142878628Y-102090476D01*
X142878628Y-102090476D02*
X142878628Y-101709524D01*
X143354819Y-103233333D02*
X143354819Y-102661905D01*
X143354819Y-102947619D02*
X142354819Y-102947619D01*
X142354819Y-102947619D02*
X142497676Y-102852381D01*
X142497676Y-102852381D02*
X142592914Y-102757143D01*
X142592914Y-102757143D02*
X142640533Y-102661905D01*
X142450057Y-103614286D02*
X142402438Y-103661905D01*
X142402438Y-103661905D02*
X142354819Y-103757143D01*
X142354819Y-103757143D02*
X142354819Y-103995238D01*
X142354819Y-103995238D02*
X142402438Y-104090476D01*
X142402438Y-104090476D02*
X142450057Y-104138095D01*
X142450057Y-104138095D02*
X142545295Y-104185714D01*
X142545295Y-104185714D02*
X142640533Y-104185714D01*
X142640533Y-104185714D02*
X142783390Y-104138095D01*
X142783390Y-104138095D02*
X143354819Y-103566667D01*
X143354819Y-103566667D02*
X143354819Y-104185714D01*
X142354819Y-105090476D02*
X142354819Y-104614286D01*
X142354819Y-104614286D02*
X142831009Y-104566667D01*
X142831009Y-104566667D02*
X142783390Y-104614286D01*
X142783390Y-104614286D02*
X142735771Y-104709524D01*
X142735771Y-104709524D02*
X142735771Y-104947619D01*
X142735771Y-104947619D02*
X142783390Y-105042857D01*
X142783390Y-105042857D02*
X142831009Y-105090476D01*
X142831009Y-105090476D02*
X142926247Y-105138095D01*
X142926247Y-105138095D02*
X143164342Y-105138095D01*
X143164342Y-105138095D02*
X143259580Y-105090476D01*
X143259580Y-105090476D02*
X143307200Y-105042857D01*
X143307200Y-105042857D02*
X143354819Y-104947619D01*
X143354819Y-104947619D02*
X143354819Y-104709524D01*
X143354819Y-104709524D02*
X143307200Y-104614286D01*
X143307200Y-104614286D02*
X143259580Y-104566667D01*
X169414285Y-92054819D02*
X168842857Y-92054819D01*
X169128571Y-93054819D02*
X169128571Y-92054819D01*
X168509523Y-93054819D02*
X168509523Y-92054819D01*
X168509523Y-92054819D02*
X168128571Y-92054819D01*
X168128571Y-92054819D02*
X168033333Y-92102438D01*
X168033333Y-92102438D02*
X167985714Y-92150057D01*
X167985714Y-92150057D02*
X167938095Y-92245295D01*
X167938095Y-92245295D02*
X167938095Y-92388152D01*
X167938095Y-92388152D02*
X167985714Y-92483390D01*
X167985714Y-92483390D02*
X168033333Y-92531009D01*
X168033333Y-92531009D02*
X168128571Y-92578628D01*
X168128571Y-92578628D02*
X168509523Y-92578628D01*
X166985714Y-93054819D02*
X167557142Y-93054819D01*
X167271428Y-93054819D02*
X167271428Y-92054819D01*
X167271428Y-92054819D02*
X167366666Y-92197676D01*
X167366666Y-92197676D02*
X167461904Y-92292914D01*
X167461904Y-92292914D02*
X167557142Y-92340533D01*
X166366666Y-92054819D02*
X166271428Y-92054819D01*
X166271428Y-92054819D02*
X166176190Y-92102438D01*
X166176190Y-92102438D02*
X166128571Y-92150057D01*
X166128571Y-92150057D02*
X166080952Y-92245295D01*
X166080952Y-92245295D02*
X166033333Y-92435771D01*
X166033333Y-92435771D02*
X166033333Y-92673866D01*
X166033333Y-92673866D02*
X166080952Y-92864342D01*
X166080952Y-92864342D02*
X166128571Y-92959580D01*
X166128571Y-92959580D02*
X166176190Y-93007200D01*
X166176190Y-93007200D02*
X166271428Y-93054819D01*
X166271428Y-93054819D02*
X166366666Y-93054819D01*
X166366666Y-93054819D02*
X166461904Y-93007200D01*
X166461904Y-93007200D02*
X166509523Y-92959580D01*
X166509523Y-92959580D02*
X166557142Y-92864342D01*
X166557142Y-92864342D02*
X166604761Y-92673866D01*
X166604761Y-92673866D02*
X166604761Y-92435771D01*
X166604761Y-92435771D02*
X166557142Y-92245295D01*
X166557142Y-92245295D02*
X166509523Y-92150057D01*
X166509523Y-92150057D02*
X166461904Y-92102438D01*
X166461904Y-92102438D02*
X166366666Y-92054819D01*
X165461904Y-92483390D02*
X165557142Y-92435771D01*
X165557142Y-92435771D02*
X165604761Y-92388152D01*
X165604761Y-92388152D02*
X165652380Y-92292914D01*
X165652380Y-92292914D02*
X165652380Y-92245295D01*
X165652380Y-92245295D02*
X165604761Y-92150057D01*
X165604761Y-92150057D02*
X165557142Y-92102438D01*
X165557142Y-92102438D02*
X165461904Y-92054819D01*
X165461904Y-92054819D02*
X165271428Y-92054819D01*
X165271428Y-92054819D02*
X165176190Y-92102438D01*
X165176190Y-92102438D02*
X165128571Y-92150057D01*
X165128571Y-92150057D02*
X165080952Y-92245295D01*
X165080952Y-92245295D02*
X165080952Y-92292914D01*
X165080952Y-92292914D02*
X165128571Y-92388152D01*
X165128571Y-92388152D02*
X165176190Y-92435771D01*
X165176190Y-92435771D02*
X165271428Y-92483390D01*
X165271428Y-92483390D02*
X165461904Y-92483390D01*
X165461904Y-92483390D02*
X165557142Y-92531009D01*
X165557142Y-92531009D02*
X165604761Y-92578628D01*
X165604761Y-92578628D02*
X165652380Y-92673866D01*
X165652380Y-92673866D02*
X165652380Y-92864342D01*
X165652380Y-92864342D02*
X165604761Y-92959580D01*
X165604761Y-92959580D02*
X165557142Y-93007200D01*
X165557142Y-93007200D02*
X165461904Y-93054819D01*
X165461904Y-93054819D02*
X165271428Y-93054819D01*
X165271428Y-93054819D02*
X165176190Y-93007200D01*
X165176190Y-93007200D02*
X165128571Y-92959580D01*
X165128571Y-92959580D02*
X165080952Y-92864342D01*
X165080952Y-92864342D02*
X165080952Y-92673866D01*
X165080952Y-92673866D02*
X165128571Y-92578628D01*
X165128571Y-92578628D02*
X165176190Y-92531009D01*
X165176190Y-92531009D02*
X165271428Y-92483390D01*
X166680235Y-119322197D02*
X166612891Y-119456884D01*
X166612891Y-119456884D02*
X166612891Y-119524227D01*
X166612891Y-119524227D02*
X166646563Y-119625243D01*
X166646563Y-119625243D02*
X166747578Y-119726258D01*
X166747578Y-119726258D02*
X166848594Y-119759930D01*
X166848594Y-119759930D02*
X166915937Y-119759930D01*
X166915937Y-119759930D02*
X167016952Y-119726258D01*
X167016952Y-119726258D02*
X167286326Y-119456884D01*
X167286326Y-119456884D02*
X166579220Y-118749777D01*
X166579220Y-118749777D02*
X166343517Y-118985479D01*
X166343517Y-118985479D02*
X166309846Y-119086495D01*
X166309846Y-119086495D02*
X166309846Y-119153838D01*
X166309846Y-119153838D02*
X166343517Y-119254853D01*
X166343517Y-119254853D02*
X166410861Y-119322197D01*
X166410861Y-119322197D02*
X166511876Y-119355869D01*
X166511876Y-119355869D02*
X166579220Y-119355869D01*
X166579220Y-119355869D02*
X166680235Y-119322197D01*
X166680235Y-119322197D02*
X166915937Y-119086495D01*
X165973128Y-119355869D02*
X165569067Y-119759930D01*
X166478204Y-120265006D02*
X165771098Y-119557899D01*
X165670082Y-121073128D02*
X166074143Y-120669067D01*
X165872113Y-120871098D02*
X165165006Y-120163991D01*
X165165006Y-120163991D02*
X165333365Y-120197663D01*
X165333365Y-120197663D02*
X165468052Y-120197663D01*
X165468052Y-120197663D02*
X165569067Y-120163991D01*
X164525243Y-120803754D02*
X164457899Y-120871098D01*
X164457899Y-120871098D02*
X164424227Y-120972113D01*
X164424227Y-120972113D02*
X164424227Y-121039456D01*
X164424227Y-121039456D02*
X164457899Y-121140472D01*
X164457899Y-121140472D02*
X164558914Y-121308830D01*
X164558914Y-121308830D02*
X164727273Y-121477189D01*
X164727273Y-121477189D02*
X164895632Y-121578204D01*
X164895632Y-121578204D02*
X164996647Y-121611876D01*
X164996647Y-121611876D02*
X165063991Y-121611876D01*
X165063991Y-121611876D02*
X165165006Y-121578204D01*
X165165006Y-121578204D02*
X165232349Y-121510861D01*
X165232349Y-121510861D02*
X165266021Y-121409846D01*
X165266021Y-121409846D02*
X165266021Y-121342502D01*
X165266021Y-121342502D02*
X165232349Y-121241487D01*
X165232349Y-121241487D02*
X165131334Y-121073128D01*
X165131334Y-121073128D02*
X164962975Y-120904769D01*
X164962975Y-120904769D02*
X164794617Y-120803754D01*
X164794617Y-120803754D02*
X164693601Y-120770082D01*
X164693601Y-120770082D02*
X164626258Y-120770082D01*
X164626258Y-120770082D02*
X164525243Y-120803754D01*
X164323212Y-122419998D02*
X164727273Y-122015937D01*
X164525243Y-122217968D02*
X163818136Y-121510861D01*
X163818136Y-121510861D02*
X163986495Y-121544533D01*
X163986495Y-121544533D02*
X164121182Y-121544533D01*
X164121182Y-121544533D02*
X164222197Y-121510861D01*
X144859580Y-102280952D02*
X144907200Y-102233333D01*
X144907200Y-102233333D02*
X144954819Y-102090476D01*
X144954819Y-102090476D02*
X144954819Y-101995238D01*
X144954819Y-101995238D02*
X144907200Y-101852381D01*
X144907200Y-101852381D02*
X144811961Y-101757143D01*
X144811961Y-101757143D02*
X144716723Y-101709524D01*
X144716723Y-101709524D02*
X144526247Y-101661905D01*
X144526247Y-101661905D02*
X144383390Y-101661905D01*
X144383390Y-101661905D02*
X144192914Y-101709524D01*
X144192914Y-101709524D02*
X144097676Y-101757143D01*
X144097676Y-101757143D02*
X144002438Y-101852381D01*
X144002438Y-101852381D02*
X143954819Y-101995238D01*
X143954819Y-101995238D02*
X143954819Y-102090476D01*
X143954819Y-102090476D02*
X144002438Y-102233333D01*
X144002438Y-102233333D02*
X144050057Y-102280952D01*
X144954819Y-103233333D02*
X144954819Y-102661905D01*
X144954819Y-102947619D02*
X143954819Y-102947619D01*
X143954819Y-102947619D02*
X144097676Y-102852381D01*
X144097676Y-102852381D02*
X144192914Y-102757143D01*
X144192914Y-102757143D02*
X144240533Y-102661905D01*
X143954819Y-103566667D02*
X143954819Y-104185714D01*
X143954819Y-104185714D02*
X144335771Y-103852381D01*
X144335771Y-103852381D02*
X144335771Y-103995238D01*
X144335771Y-103995238D02*
X144383390Y-104090476D01*
X144383390Y-104090476D02*
X144431009Y-104138095D01*
X144431009Y-104138095D02*
X144526247Y-104185714D01*
X144526247Y-104185714D02*
X144764342Y-104185714D01*
X144764342Y-104185714D02*
X144859580Y-104138095D01*
X144859580Y-104138095D02*
X144907200Y-104090476D01*
X144907200Y-104090476D02*
X144954819Y-103995238D01*
X144954819Y-103995238D02*
X144954819Y-103709524D01*
X144954819Y-103709524D02*
X144907200Y-103614286D01*
X144907200Y-103614286D02*
X144859580Y-103566667D01*
X143954819Y-104519048D02*
X143954819Y-105185714D01*
X143954819Y-105185714D02*
X144954819Y-104757143D01*
X148519047Y-100559580D02*
X148566666Y-100607200D01*
X148566666Y-100607200D02*
X148709523Y-100654819D01*
X148709523Y-100654819D02*
X148804761Y-100654819D01*
X148804761Y-100654819D02*
X148947618Y-100607200D01*
X148947618Y-100607200D02*
X149042856Y-100511961D01*
X149042856Y-100511961D02*
X149090475Y-100416723D01*
X149090475Y-100416723D02*
X149138094Y-100226247D01*
X149138094Y-100226247D02*
X149138094Y-100083390D01*
X149138094Y-100083390D02*
X149090475Y-99892914D01*
X149090475Y-99892914D02*
X149042856Y-99797676D01*
X149042856Y-99797676D02*
X148947618Y-99702438D01*
X148947618Y-99702438D02*
X148804761Y-99654819D01*
X148804761Y-99654819D02*
X148709523Y-99654819D01*
X148709523Y-99654819D02*
X148566666Y-99702438D01*
X148566666Y-99702438D02*
X148519047Y-99750057D01*
X147566666Y-100654819D02*
X148138094Y-100654819D01*
X147852380Y-100654819D02*
X147852380Y-99654819D01*
X147852380Y-99654819D02*
X147947618Y-99797676D01*
X147947618Y-99797676D02*
X148042856Y-99892914D01*
X148042856Y-99892914D02*
X148138094Y-99940533D01*
X147233332Y-99654819D02*
X146614285Y-99654819D01*
X146614285Y-99654819D02*
X146947618Y-100035771D01*
X146947618Y-100035771D02*
X146804761Y-100035771D01*
X146804761Y-100035771D02*
X146709523Y-100083390D01*
X146709523Y-100083390D02*
X146661904Y-100131009D01*
X146661904Y-100131009D02*
X146614285Y-100226247D01*
X146614285Y-100226247D02*
X146614285Y-100464342D01*
X146614285Y-100464342D02*
X146661904Y-100559580D01*
X146661904Y-100559580D02*
X146709523Y-100607200D01*
X146709523Y-100607200D02*
X146804761Y-100654819D01*
X146804761Y-100654819D02*
X147090475Y-100654819D01*
X147090475Y-100654819D02*
X147185713Y-100607200D01*
X147185713Y-100607200D02*
X147233332Y-100559580D01*
X145757142Y-99654819D02*
X145947618Y-99654819D01*
X145947618Y-99654819D02*
X146042856Y-99702438D01*
X146042856Y-99702438D02*
X146090475Y-99750057D01*
X146090475Y-99750057D02*
X146185713Y-99892914D01*
X146185713Y-99892914D02*
X146233332Y-100083390D01*
X146233332Y-100083390D02*
X146233332Y-100464342D01*
X146233332Y-100464342D02*
X146185713Y-100559580D01*
X146185713Y-100559580D02*
X146138094Y-100607200D01*
X146138094Y-100607200D02*
X146042856Y-100654819D01*
X146042856Y-100654819D02*
X145852380Y-100654819D01*
X145852380Y-100654819D02*
X145757142Y-100607200D01*
X145757142Y-100607200D02*
X145709523Y-100559580D01*
X145709523Y-100559580D02*
X145661904Y-100464342D01*
X145661904Y-100464342D02*
X145661904Y-100226247D01*
X145661904Y-100226247D02*
X145709523Y-100131009D01*
X145709523Y-100131009D02*
X145757142Y-100083390D01*
X145757142Y-100083390D02*
X145852380Y-100035771D01*
X145852380Y-100035771D02*
X146042856Y-100035771D01*
X146042856Y-100035771D02*
X146138094Y-100083390D01*
X146138094Y-100083390D02*
X146185713Y-100131009D01*
X146185713Y-100131009D02*
X146233332Y-100226247D01*
X156319047Y-80354819D02*
X156652380Y-79878628D01*
X156890475Y-80354819D02*
X156890475Y-79354819D01*
X156890475Y-79354819D02*
X156509523Y-79354819D01*
X156509523Y-79354819D02*
X156414285Y-79402438D01*
X156414285Y-79402438D02*
X156366666Y-79450057D01*
X156366666Y-79450057D02*
X156319047Y-79545295D01*
X156319047Y-79545295D02*
X156319047Y-79688152D01*
X156319047Y-79688152D02*
X156366666Y-79783390D01*
X156366666Y-79783390D02*
X156414285Y-79831009D01*
X156414285Y-79831009D02*
X156509523Y-79878628D01*
X156509523Y-79878628D02*
X156890475Y-79878628D01*
X155366666Y-80354819D02*
X155938094Y-80354819D01*
X155652380Y-80354819D02*
X155652380Y-79354819D01*
X155652380Y-79354819D02*
X155747618Y-79497676D01*
X155747618Y-79497676D02*
X155842856Y-79592914D01*
X155842856Y-79592914D02*
X155938094Y-79640533D01*
X154509523Y-79688152D02*
X154509523Y-80354819D01*
X154747618Y-79307200D02*
X154985713Y-80021485D01*
X154985713Y-80021485D02*
X154366666Y-80021485D01*
X153509523Y-79354819D02*
X153985713Y-79354819D01*
X153985713Y-79354819D02*
X154033332Y-79831009D01*
X154033332Y-79831009D02*
X153985713Y-79783390D01*
X153985713Y-79783390D02*
X153890475Y-79735771D01*
X153890475Y-79735771D02*
X153652380Y-79735771D01*
X153652380Y-79735771D02*
X153557142Y-79783390D01*
X153557142Y-79783390D02*
X153509523Y-79831009D01*
X153509523Y-79831009D02*
X153461904Y-79926247D01*
X153461904Y-79926247D02*
X153461904Y-80164342D01*
X153461904Y-80164342D02*
X153509523Y-80259580D01*
X153509523Y-80259580D02*
X153557142Y-80307200D01*
X153557142Y-80307200D02*
X153652380Y-80354819D01*
X153652380Y-80354819D02*
X153890475Y-80354819D01*
X153890475Y-80354819D02*
X153985713Y-80307200D01*
X153985713Y-80307200D02*
X154033332Y-80259580D01*
X160554819Y-87480952D02*
X160078628Y-87147619D01*
X160554819Y-86909524D02*
X159554819Y-86909524D01*
X159554819Y-86909524D02*
X159554819Y-87290476D01*
X159554819Y-87290476D02*
X159602438Y-87385714D01*
X159602438Y-87385714D02*
X159650057Y-87433333D01*
X159650057Y-87433333D02*
X159745295Y-87480952D01*
X159745295Y-87480952D02*
X159888152Y-87480952D01*
X159888152Y-87480952D02*
X159983390Y-87433333D01*
X159983390Y-87433333D02*
X160031009Y-87385714D01*
X160031009Y-87385714D02*
X160078628Y-87290476D01*
X160078628Y-87290476D02*
X160078628Y-86909524D01*
X160554819Y-88433333D02*
X160554819Y-87861905D01*
X160554819Y-88147619D02*
X159554819Y-88147619D01*
X159554819Y-88147619D02*
X159697676Y-88052381D01*
X159697676Y-88052381D02*
X159792914Y-87957143D01*
X159792914Y-87957143D02*
X159840533Y-87861905D01*
X159554819Y-89338095D02*
X159554819Y-88861905D01*
X159554819Y-88861905D02*
X160031009Y-88814286D01*
X160031009Y-88814286D02*
X159983390Y-88861905D01*
X159983390Y-88861905D02*
X159935771Y-88957143D01*
X159935771Y-88957143D02*
X159935771Y-89195238D01*
X159935771Y-89195238D02*
X159983390Y-89290476D01*
X159983390Y-89290476D02*
X160031009Y-89338095D01*
X160031009Y-89338095D02*
X160126247Y-89385714D01*
X160126247Y-89385714D02*
X160364342Y-89385714D01*
X160364342Y-89385714D02*
X160459580Y-89338095D01*
X160459580Y-89338095D02*
X160507200Y-89290476D01*
X160507200Y-89290476D02*
X160554819Y-89195238D01*
X160554819Y-89195238D02*
X160554819Y-88957143D01*
X160554819Y-88957143D02*
X160507200Y-88861905D01*
X160507200Y-88861905D02*
X160459580Y-88814286D01*
X159650057Y-89766667D02*
X159602438Y-89814286D01*
X159602438Y-89814286D02*
X159554819Y-89909524D01*
X159554819Y-89909524D02*
X159554819Y-90147619D01*
X159554819Y-90147619D02*
X159602438Y-90242857D01*
X159602438Y-90242857D02*
X159650057Y-90290476D01*
X159650057Y-90290476D02*
X159745295Y-90338095D01*
X159745295Y-90338095D02*
X159840533Y-90338095D01*
X159840533Y-90338095D02*
X159983390Y-90290476D01*
X159983390Y-90290476D02*
X160554819Y-89719048D01*
X160554819Y-89719048D02*
X160554819Y-90338095D01*
X141019047Y-82154819D02*
X141352380Y-81678628D01*
X141590475Y-82154819D02*
X141590475Y-81154819D01*
X141590475Y-81154819D02*
X141209523Y-81154819D01*
X141209523Y-81154819D02*
X141114285Y-81202438D01*
X141114285Y-81202438D02*
X141066666Y-81250057D01*
X141066666Y-81250057D02*
X141019047Y-81345295D01*
X141019047Y-81345295D02*
X141019047Y-81488152D01*
X141019047Y-81488152D02*
X141066666Y-81583390D01*
X141066666Y-81583390D02*
X141114285Y-81631009D01*
X141114285Y-81631009D02*
X141209523Y-81678628D01*
X141209523Y-81678628D02*
X141590475Y-81678628D01*
X140066666Y-82154819D02*
X140638094Y-82154819D01*
X140352380Y-82154819D02*
X140352380Y-81154819D01*
X140352380Y-81154819D02*
X140447618Y-81297676D01*
X140447618Y-81297676D02*
X140542856Y-81392914D01*
X140542856Y-81392914D02*
X140638094Y-81440533D01*
X139685713Y-81250057D02*
X139638094Y-81202438D01*
X139638094Y-81202438D02*
X139542856Y-81154819D01*
X139542856Y-81154819D02*
X139304761Y-81154819D01*
X139304761Y-81154819D02*
X139209523Y-81202438D01*
X139209523Y-81202438D02*
X139161904Y-81250057D01*
X139161904Y-81250057D02*
X139114285Y-81345295D01*
X139114285Y-81345295D02*
X139114285Y-81440533D01*
X139114285Y-81440533D02*
X139161904Y-81583390D01*
X139161904Y-81583390D02*
X139733332Y-82154819D01*
X139733332Y-82154819D02*
X139114285Y-82154819D01*
X138733332Y-81250057D02*
X138685713Y-81202438D01*
X138685713Y-81202438D02*
X138590475Y-81154819D01*
X138590475Y-81154819D02*
X138352380Y-81154819D01*
X138352380Y-81154819D02*
X138257142Y-81202438D01*
X138257142Y-81202438D02*
X138209523Y-81250057D01*
X138209523Y-81250057D02*
X138161904Y-81345295D01*
X138161904Y-81345295D02*
X138161904Y-81440533D01*
X138161904Y-81440533D02*
X138209523Y-81583390D01*
X138209523Y-81583390D02*
X138780951Y-82154819D01*
X138780951Y-82154819D02*
X138161904Y-82154819D01*
X164714285Y-81354819D02*
X164142857Y-81354819D01*
X164428571Y-82354819D02*
X164428571Y-81354819D01*
X163809523Y-82354819D02*
X163809523Y-81354819D01*
X163809523Y-81354819D02*
X163428571Y-81354819D01*
X163428571Y-81354819D02*
X163333333Y-81402438D01*
X163333333Y-81402438D02*
X163285714Y-81450057D01*
X163285714Y-81450057D02*
X163238095Y-81545295D01*
X163238095Y-81545295D02*
X163238095Y-81688152D01*
X163238095Y-81688152D02*
X163285714Y-81783390D01*
X163285714Y-81783390D02*
X163333333Y-81831009D01*
X163333333Y-81831009D02*
X163428571Y-81878628D01*
X163428571Y-81878628D02*
X163809523Y-81878628D01*
X162285714Y-82354819D02*
X162857142Y-82354819D01*
X162571428Y-82354819D02*
X162571428Y-81354819D01*
X162571428Y-81354819D02*
X162666666Y-81497676D01*
X162666666Y-81497676D02*
X162761904Y-81592914D01*
X162761904Y-81592914D02*
X162857142Y-81640533D01*
X161333333Y-82354819D02*
X161904761Y-82354819D01*
X161619047Y-82354819D02*
X161619047Y-81354819D01*
X161619047Y-81354819D02*
X161714285Y-81497676D01*
X161714285Y-81497676D02*
X161809523Y-81592914D01*
X161809523Y-81592914D02*
X161904761Y-81640533D01*
X160761904Y-81783390D02*
X160857142Y-81735771D01*
X160857142Y-81735771D02*
X160904761Y-81688152D01*
X160904761Y-81688152D02*
X160952380Y-81592914D01*
X160952380Y-81592914D02*
X160952380Y-81545295D01*
X160952380Y-81545295D02*
X160904761Y-81450057D01*
X160904761Y-81450057D02*
X160857142Y-81402438D01*
X160857142Y-81402438D02*
X160761904Y-81354819D01*
X160761904Y-81354819D02*
X160571428Y-81354819D01*
X160571428Y-81354819D02*
X160476190Y-81402438D01*
X160476190Y-81402438D02*
X160428571Y-81450057D01*
X160428571Y-81450057D02*
X160380952Y-81545295D01*
X160380952Y-81545295D02*
X160380952Y-81592914D01*
X160380952Y-81592914D02*
X160428571Y-81688152D01*
X160428571Y-81688152D02*
X160476190Y-81735771D01*
X160476190Y-81735771D02*
X160571428Y-81783390D01*
X160571428Y-81783390D02*
X160761904Y-81783390D01*
X160761904Y-81783390D02*
X160857142Y-81831009D01*
X160857142Y-81831009D02*
X160904761Y-81878628D01*
X160904761Y-81878628D02*
X160952380Y-81973866D01*
X160952380Y-81973866D02*
X160952380Y-82164342D01*
X160952380Y-82164342D02*
X160904761Y-82259580D01*
X160904761Y-82259580D02*
X160857142Y-82307200D01*
X160857142Y-82307200D02*
X160761904Y-82354819D01*
X160761904Y-82354819D02*
X160571428Y-82354819D01*
X160571428Y-82354819D02*
X160476190Y-82307200D01*
X160476190Y-82307200D02*
X160428571Y-82259580D01*
X160428571Y-82259580D02*
X160380952Y-82164342D01*
X160380952Y-82164342D02*
X160380952Y-81973866D01*
X160380952Y-81973866D02*
X160428571Y-81878628D01*
X160428571Y-81878628D02*
X160476190Y-81831009D01*
X160476190Y-81831009D02*
X160571428Y-81783390D01*
X189476730Y-86930952D02*
X189000539Y-86597619D01*
X189476730Y-86359524D02*
X188476730Y-86359524D01*
X188476730Y-86359524D02*
X188476730Y-86740476D01*
X188476730Y-86740476D02*
X188524349Y-86835714D01*
X188524349Y-86835714D02*
X188571968Y-86883333D01*
X188571968Y-86883333D02*
X188667206Y-86930952D01*
X188667206Y-86930952D02*
X188810063Y-86930952D01*
X188810063Y-86930952D02*
X188905301Y-86883333D01*
X188905301Y-86883333D02*
X188952920Y-86835714D01*
X188952920Y-86835714D02*
X189000539Y-86740476D01*
X189000539Y-86740476D02*
X189000539Y-86359524D01*
X189476730Y-87883333D02*
X189476730Y-87311905D01*
X189476730Y-87597619D02*
X188476730Y-87597619D01*
X188476730Y-87597619D02*
X188619587Y-87502381D01*
X188619587Y-87502381D02*
X188714825Y-87407143D01*
X188714825Y-87407143D02*
X188762444Y-87311905D01*
X189476730Y-88835714D02*
X189476730Y-88264286D01*
X189476730Y-88550000D02*
X188476730Y-88550000D01*
X188476730Y-88550000D02*
X188619587Y-88454762D01*
X188619587Y-88454762D02*
X188714825Y-88359524D01*
X188714825Y-88359524D02*
X188762444Y-88264286D01*
X188476730Y-89692857D02*
X188476730Y-89502381D01*
X188476730Y-89502381D02*
X188524349Y-89407143D01*
X188524349Y-89407143D02*
X188571968Y-89359524D01*
X188571968Y-89359524D02*
X188714825Y-89264286D01*
X188714825Y-89264286D02*
X188905301Y-89216667D01*
X188905301Y-89216667D02*
X189286253Y-89216667D01*
X189286253Y-89216667D02*
X189381491Y-89264286D01*
X189381491Y-89264286D02*
X189429111Y-89311905D01*
X189429111Y-89311905D02*
X189476730Y-89407143D01*
X189476730Y-89407143D02*
X189476730Y-89597619D01*
X189476730Y-89597619D02*
X189429111Y-89692857D01*
X189429111Y-89692857D02*
X189381491Y-89740476D01*
X189381491Y-89740476D02*
X189286253Y-89788095D01*
X189286253Y-89788095D02*
X189048158Y-89788095D01*
X189048158Y-89788095D02*
X188952920Y-89740476D01*
X188952920Y-89740476D02*
X188905301Y-89692857D01*
X188905301Y-89692857D02*
X188857682Y-89597619D01*
X188857682Y-89597619D02*
X188857682Y-89407143D01*
X188857682Y-89407143D02*
X188905301Y-89311905D01*
X188905301Y-89311905D02*
X188952920Y-89264286D01*
X188952920Y-89264286D02*
X189048158Y-89216667D01*
X140619047Y-101054819D02*
X140952380Y-100578628D01*
X141190475Y-101054819D02*
X141190475Y-100054819D01*
X141190475Y-100054819D02*
X140809523Y-100054819D01*
X140809523Y-100054819D02*
X140714285Y-100102438D01*
X140714285Y-100102438D02*
X140666666Y-100150057D01*
X140666666Y-100150057D02*
X140619047Y-100245295D01*
X140619047Y-100245295D02*
X140619047Y-100388152D01*
X140619047Y-100388152D02*
X140666666Y-100483390D01*
X140666666Y-100483390D02*
X140714285Y-100531009D01*
X140714285Y-100531009D02*
X140809523Y-100578628D01*
X140809523Y-100578628D02*
X141190475Y-100578628D01*
X139666666Y-101054819D02*
X140238094Y-101054819D01*
X139952380Y-101054819D02*
X139952380Y-100054819D01*
X139952380Y-100054819D02*
X140047618Y-100197676D01*
X140047618Y-100197676D02*
X140142856Y-100292914D01*
X140142856Y-100292914D02*
X140238094Y-100340533D01*
X139285713Y-100150057D02*
X139238094Y-100102438D01*
X139238094Y-100102438D02*
X139142856Y-100054819D01*
X139142856Y-100054819D02*
X138904761Y-100054819D01*
X138904761Y-100054819D02*
X138809523Y-100102438D01*
X138809523Y-100102438D02*
X138761904Y-100150057D01*
X138761904Y-100150057D02*
X138714285Y-100245295D01*
X138714285Y-100245295D02*
X138714285Y-100340533D01*
X138714285Y-100340533D02*
X138761904Y-100483390D01*
X138761904Y-100483390D02*
X139333332Y-101054819D01*
X139333332Y-101054819D02*
X138714285Y-101054819D01*
X137857142Y-100388152D02*
X137857142Y-101054819D01*
X138095237Y-100007200D02*
X138333332Y-100721485D01*
X138333332Y-100721485D02*
X137714285Y-100721485D01*
X155419047Y-83554819D02*
X155752380Y-83078628D01*
X155990475Y-83554819D02*
X155990475Y-82554819D01*
X155990475Y-82554819D02*
X155609523Y-82554819D01*
X155609523Y-82554819D02*
X155514285Y-82602438D01*
X155514285Y-82602438D02*
X155466666Y-82650057D01*
X155466666Y-82650057D02*
X155419047Y-82745295D01*
X155419047Y-82745295D02*
X155419047Y-82888152D01*
X155419047Y-82888152D02*
X155466666Y-82983390D01*
X155466666Y-82983390D02*
X155514285Y-83031009D01*
X155514285Y-83031009D02*
X155609523Y-83078628D01*
X155609523Y-83078628D02*
X155990475Y-83078628D01*
X154466666Y-83554819D02*
X155038094Y-83554819D01*
X154752380Y-83554819D02*
X154752380Y-82554819D01*
X154752380Y-82554819D02*
X154847618Y-82697676D01*
X154847618Y-82697676D02*
X154942856Y-82792914D01*
X154942856Y-82792914D02*
X155038094Y-82840533D01*
X153609523Y-82888152D02*
X153609523Y-83554819D01*
X153847618Y-82507200D02*
X154085713Y-83221485D01*
X154085713Y-83221485D02*
X153466666Y-83221485D01*
X152657142Y-82888152D02*
X152657142Y-83554819D01*
X152895237Y-82507200D02*
X153133332Y-83221485D01*
X153133332Y-83221485D02*
X152514285Y-83221485D01*
X147859580Y-86380952D02*
X147907200Y-86333333D01*
X147907200Y-86333333D02*
X147954819Y-86190476D01*
X147954819Y-86190476D02*
X147954819Y-86095238D01*
X147954819Y-86095238D02*
X147907200Y-85952381D01*
X147907200Y-85952381D02*
X147811961Y-85857143D01*
X147811961Y-85857143D02*
X147716723Y-85809524D01*
X147716723Y-85809524D02*
X147526247Y-85761905D01*
X147526247Y-85761905D02*
X147383390Y-85761905D01*
X147383390Y-85761905D02*
X147192914Y-85809524D01*
X147192914Y-85809524D02*
X147097676Y-85857143D01*
X147097676Y-85857143D02*
X147002438Y-85952381D01*
X147002438Y-85952381D02*
X146954819Y-86095238D01*
X146954819Y-86095238D02*
X146954819Y-86190476D01*
X146954819Y-86190476D02*
X147002438Y-86333333D01*
X147002438Y-86333333D02*
X147050057Y-86380952D01*
X147954819Y-87333333D02*
X147954819Y-86761905D01*
X147954819Y-87047619D02*
X146954819Y-87047619D01*
X146954819Y-87047619D02*
X147097676Y-86952381D01*
X147097676Y-86952381D02*
X147192914Y-86857143D01*
X147192914Y-86857143D02*
X147240533Y-86761905D01*
X147288152Y-88190476D02*
X147954819Y-88190476D01*
X146907200Y-87952381D02*
X147621485Y-87714286D01*
X147621485Y-87714286D02*
X147621485Y-88333333D01*
X147288152Y-89142857D02*
X147954819Y-89142857D01*
X146907200Y-88904762D02*
X147621485Y-88666667D01*
X147621485Y-88666667D02*
X147621485Y-89285714D01*
X156114285Y-95254819D02*
X156114285Y-96064342D01*
X156114285Y-96064342D02*
X156066666Y-96159580D01*
X156066666Y-96159580D02*
X156019047Y-96207200D01*
X156019047Y-96207200D02*
X155923809Y-96254819D01*
X155923809Y-96254819D02*
X155733333Y-96254819D01*
X155733333Y-96254819D02*
X155638095Y-96207200D01*
X155638095Y-96207200D02*
X155590476Y-96159580D01*
X155590476Y-96159580D02*
X155542857Y-96064342D01*
X155542857Y-96064342D02*
X155542857Y-95254819D01*
X154542857Y-96254819D02*
X155114285Y-96254819D01*
X154828571Y-96254819D02*
X154828571Y-95254819D01*
X154828571Y-95254819D02*
X154923809Y-95397676D01*
X154923809Y-95397676D02*
X155019047Y-95492914D01*
X155019047Y-95492914D02*
X155114285Y-95540533D01*
X153923809Y-95254819D02*
X153828571Y-95254819D01*
X153828571Y-95254819D02*
X153733333Y-95302438D01*
X153733333Y-95302438D02*
X153685714Y-95350057D01*
X153685714Y-95350057D02*
X153638095Y-95445295D01*
X153638095Y-95445295D02*
X153590476Y-95635771D01*
X153590476Y-95635771D02*
X153590476Y-95873866D01*
X153590476Y-95873866D02*
X153638095Y-96064342D01*
X153638095Y-96064342D02*
X153685714Y-96159580D01*
X153685714Y-96159580D02*
X153733333Y-96207200D01*
X153733333Y-96207200D02*
X153828571Y-96254819D01*
X153828571Y-96254819D02*
X153923809Y-96254819D01*
X153923809Y-96254819D02*
X154019047Y-96207200D01*
X154019047Y-96207200D02*
X154066666Y-96159580D01*
X154066666Y-96159580D02*
X154114285Y-96064342D01*
X154114285Y-96064342D02*
X154161904Y-95873866D01*
X154161904Y-95873866D02*
X154161904Y-95635771D01*
X154161904Y-95635771D02*
X154114285Y-95445295D01*
X154114285Y-95445295D02*
X154066666Y-95350057D01*
X154066666Y-95350057D02*
X154019047Y-95302438D01*
X154019047Y-95302438D02*
X153923809Y-95254819D01*
X153019047Y-95683390D02*
X153114285Y-95635771D01*
X153114285Y-95635771D02*
X153161904Y-95588152D01*
X153161904Y-95588152D02*
X153209523Y-95492914D01*
X153209523Y-95492914D02*
X153209523Y-95445295D01*
X153209523Y-95445295D02*
X153161904Y-95350057D01*
X153161904Y-95350057D02*
X153114285Y-95302438D01*
X153114285Y-95302438D02*
X153019047Y-95254819D01*
X153019047Y-95254819D02*
X152828571Y-95254819D01*
X152828571Y-95254819D02*
X152733333Y-95302438D01*
X152733333Y-95302438D02*
X152685714Y-95350057D01*
X152685714Y-95350057D02*
X152638095Y-95445295D01*
X152638095Y-95445295D02*
X152638095Y-95492914D01*
X152638095Y-95492914D02*
X152685714Y-95588152D01*
X152685714Y-95588152D02*
X152733333Y-95635771D01*
X152733333Y-95635771D02*
X152828571Y-95683390D01*
X152828571Y-95683390D02*
X153019047Y-95683390D01*
X153019047Y-95683390D02*
X153114285Y-95731009D01*
X153114285Y-95731009D02*
X153161904Y-95778628D01*
X153161904Y-95778628D02*
X153209523Y-95873866D01*
X153209523Y-95873866D02*
X153209523Y-96064342D01*
X153209523Y-96064342D02*
X153161904Y-96159580D01*
X153161904Y-96159580D02*
X153114285Y-96207200D01*
X153114285Y-96207200D02*
X153019047Y-96254819D01*
X153019047Y-96254819D02*
X152828571Y-96254819D01*
X152828571Y-96254819D02*
X152733333Y-96207200D01*
X152733333Y-96207200D02*
X152685714Y-96159580D01*
X152685714Y-96159580D02*
X152638095Y-96064342D01*
X152638095Y-96064342D02*
X152638095Y-95873866D01*
X152638095Y-95873866D02*
X152685714Y-95778628D01*
X152685714Y-95778628D02*
X152733333Y-95731009D01*
X152733333Y-95731009D02*
X152828571Y-95683390D01*
X148559580Y-93480952D02*
X148607200Y-93433333D01*
X148607200Y-93433333D02*
X148654819Y-93290476D01*
X148654819Y-93290476D02*
X148654819Y-93195238D01*
X148654819Y-93195238D02*
X148607200Y-93052381D01*
X148607200Y-93052381D02*
X148511961Y-92957143D01*
X148511961Y-92957143D02*
X148416723Y-92909524D01*
X148416723Y-92909524D02*
X148226247Y-92861905D01*
X148226247Y-92861905D02*
X148083390Y-92861905D01*
X148083390Y-92861905D02*
X147892914Y-92909524D01*
X147892914Y-92909524D02*
X147797676Y-92957143D01*
X147797676Y-92957143D02*
X147702438Y-93052381D01*
X147702438Y-93052381D02*
X147654819Y-93195238D01*
X147654819Y-93195238D02*
X147654819Y-93290476D01*
X147654819Y-93290476D02*
X147702438Y-93433333D01*
X147702438Y-93433333D02*
X147750057Y-93480952D01*
X148654819Y-94433333D02*
X148654819Y-93861905D01*
X148654819Y-94147619D02*
X147654819Y-94147619D01*
X147654819Y-94147619D02*
X147797676Y-94052381D01*
X147797676Y-94052381D02*
X147892914Y-93957143D01*
X147892914Y-93957143D02*
X147940533Y-93861905D01*
X147988152Y-95290476D02*
X148654819Y-95290476D01*
X147607200Y-95052381D02*
X148321485Y-94814286D01*
X148321485Y-94814286D02*
X148321485Y-95433333D01*
X147654819Y-96290476D02*
X147654819Y-95814286D01*
X147654819Y-95814286D02*
X148131009Y-95766667D01*
X148131009Y-95766667D02*
X148083390Y-95814286D01*
X148083390Y-95814286D02*
X148035771Y-95909524D01*
X148035771Y-95909524D02*
X148035771Y-96147619D01*
X148035771Y-96147619D02*
X148083390Y-96242857D01*
X148083390Y-96242857D02*
X148131009Y-96290476D01*
X148131009Y-96290476D02*
X148226247Y-96338095D01*
X148226247Y-96338095D02*
X148464342Y-96338095D01*
X148464342Y-96338095D02*
X148559580Y-96290476D01*
X148559580Y-96290476D02*
X148607200Y-96242857D01*
X148607200Y-96242857D02*
X148654819Y-96147619D01*
X148654819Y-96147619D02*
X148654819Y-95909524D01*
X148654819Y-95909524D02*
X148607200Y-95814286D01*
X148607200Y-95814286D02*
X148559580Y-95766667D01*
X166914285Y-83354819D02*
X166342857Y-83354819D01*
X166628571Y-84354819D02*
X166628571Y-83354819D01*
X166009523Y-84354819D02*
X166009523Y-83354819D01*
X166009523Y-83354819D02*
X165628571Y-83354819D01*
X165628571Y-83354819D02*
X165533333Y-83402438D01*
X165533333Y-83402438D02*
X165485714Y-83450057D01*
X165485714Y-83450057D02*
X165438095Y-83545295D01*
X165438095Y-83545295D02*
X165438095Y-83688152D01*
X165438095Y-83688152D02*
X165485714Y-83783390D01*
X165485714Y-83783390D02*
X165533333Y-83831009D01*
X165533333Y-83831009D02*
X165628571Y-83878628D01*
X165628571Y-83878628D02*
X166009523Y-83878628D01*
X164485714Y-84354819D02*
X165057142Y-84354819D01*
X164771428Y-84354819D02*
X164771428Y-83354819D01*
X164771428Y-83354819D02*
X164866666Y-83497676D01*
X164866666Y-83497676D02*
X164961904Y-83592914D01*
X164961904Y-83592914D02*
X165057142Y-83640533D01*
X163533333Y-84354819D02*
X164104761Y-84354819D01*
X163819047Y-84354819D02*
X163819047Y-83354819D01*
X163819047Y-83354819D02*
X163914285Y-83497676D01*
X163914285Y-83497676D02*
X164009523Y-83592914D01*
X164009523Y-83592914D02*
X164104761Y-83640533D01*
X163199999Y-83354819D02*
X162533333Y-83354819D01*
X162533333Y-83354819D02*
X162961904Y-84354819D01*
X143990475Y-84954819D02*
X143990475Y-83954819D01*
X143990475Y-83954819D02*
X143752380Y-83954819D01*
X143752380Y-83954819D02*
X143609523Y-84002438D01*
X143609523Y-84002438D02*
X143514285Y-84097676D01*
X143514285Y-84097676D02*
X143466666Y-84192914D01*
X143466666Y-84192914D02*
X143419047Y-84383390D01*
X143419047Y-84383390D02*
X143419047Y-84526247D01*
X143419047Y-84526247D02*
X143466666Y-84716723D01*
X143466666Y-84716723D02*
X143514285Y-84811961D01*
X143514285Y-84811961D02*
X143609523Y-84907200D01*
X143609523Y-84907200D02*
X143752380Y-84954819D01*
X143752380Y-84954819D02*
X143990475Y-84954819D01*
X142466666Y-84954819D02*
X143038094Y-84954819D01*
X142752380Y-84954819D02*
X142752380Y-83954819D01*
X142752380Y-83954819D02*
X142847618Y-84097676D01*
X142847618Y-84097676D02*
X142942856Y-84192914D01*
X142942856Y-84192914D02*
X143038094Y-84240533D01*
X141847618Y-83954819D02*
X141752380Y-83954819D01*
X141752380Y-83954819D02*
X141657142Y-84002438D01*
X141657142Y-84002438D02*
X141609523Y-84050057D01*
X141609523Y-84050057D02*
X141561904Y-84145295D01*
X141561904Y-84145295D02*
X141514285Y-84335771D01*
X141514285Y-84335771D02*
X141514285Y-84573866D01*
X141514285Y-84573866D02*
X141561904Y-84764342D01*
X141561904Y-84764342D02*
X141609523Y-84859580D01*
X141609523Y-84859580D02*
X141657142Y-84907200D01*
X141657142Y-84907200D02*
X141752380Y-84954819D01*
X141752380Y-84954819D02*
X141847618Y-84954819D01*
X141847618Y-84954819D02*
X141942856Y-84907200D01*
X141942856Y-84907200D02*
X141990475Y-84859580D01*
X141990475Y-84859580D02*
X142038094Y-84764342D01*
X142038094Y-84764342D02*
X142085713Y-84573866D01*
X142085713Y-84573866D02*
X142085713Y-84335771D01*
X142085713Y-84335771D02*
X142038094Y-84145295D01*
X142038094Y-84145295D02*
X141990475Y-84050057D01*
X141990475Y-84050057D02*
X141942856Y-84002438D01*
X141942856Y-84002438D02*
X141847618Y-83954819D01*
X140657142Y-83954819D02*
X140847618Y-83954819D01*
X140847618Y-83954819D02*
X140942856Y-84002438D01*
X140942856Y-84002438D02*
X140990475Y-84050057D01*
X140990475Y-84050057D02*
X141085713Y-84192914D01*
X141085713Y-84192914D02*
X141133332Y-84383390D01*
X141133332Y-84383390D02*
X141133332Y-84764342D01*
X141133332Y-84764342D02*
X141085713Y-84859580D01*
X141085713Y-84859580D02*
X141038094Y-84907200D01*
X141038094Y-84907200D02*
X140942856Y-84954819D01*
X140942856Y-84954819D02*
X140752380Y-84954819D01*
X140752380Y-84954819D02*
X140657142Y-84907200D01*
X140657142Y-84907200D02*
X140609523Y-84859580D01*
X140609523Y-84859580D02*
X140561904Y-84764342D01*
X140561904Y-84764342D02*
X140561904Y-84526247D01*
X140561904Y-84526247D02*
X140609523Y-84431009D01*
X140609523Y-84431009D02*
X140657142Y-84383390D01*
X140657142Y-84383390D02*
X140752380Y-84335771D01*
X140752380Y-84335771D02*
X140942856Y-84335771D01*
X140942856Y-84335771D02*
X141038094Y-84383390D01*
X141038094Y-84383390D02*
X141085713Y-84431009D01*
X141085713Y-84431009D02*
X141133332Y-84526247D01*
X183110958Y-79859819D02*
X183444291Y-79383628D01*
X183682386Y-79859819D02*
X183682386Y-78859819D01*
X183682386Y-78859819D02*
X183301434Y-78859819D01*
X183301434Y-78859819D02*
X183206196Y-78907438D01*
X183206196Y-78907438D02*
X183158577Y-78955057D01*
X183158577Y-78955057D02*
X183110958Y-79050295D01*
X183110958Y-79050295D02*
X183110958Y-79193152D01*
X183110958Y-79193152D02*
X183158577Y-79288390D01*
X183158577Y-79288390D02*
X183206196Y-79336009D01*
X183206196Y-79336009D02*
X183301434Y-79383628D01*
X183301434Y-79383628D02*
X183682386Y-79383628D01*
X182158577Y-79859819D02*
X182730005Y-79859819D01*
X182444291Y-79859819D02*
X182444291Y-78859819D01*
X182444291Y-78859819D02*
X182539529Y-79002676D01*
X182539529Y-79002676D02*
X182634767Y-79097914D01*
X182634767Y-79097914D02*
X182730005Y-79145533D01*
X181206196Y-79859819D02*
X181777624Y-79859819D01*
X181491910Y-79859819D02*
X181491910Y-78859819D01*
X181491910Y-78859819D02*
X181587148Y-79002676D01*
X181587148Y-79002676D02*
X181682386Y-79097914D01*
X181682386Y-79097914D02*
X181777624Y-79145533D01*
X180825243Y-78955057D02*
X180777624Y-78907438D01*
X180777624Y-78907438D02*
X180682386Y-78859819D01*
X180682386Y-78859819D02*
X180444291Y-78859819D01*
X180444291Y-78859819D02*
X180349053Y-78907438D01*
X180349053Y-78907438D02*
X180301434Y-78955057D01*
X180301434Y-78955057D02*
X180253815Y-79050295D01*
X180253815Y-79050295D02*
X180253815Y-79145533D01*
X180253815Y-79145533D02*
X180301434Y-79288390D01*
X180301434Y-79288390D02*
X180872862Y-79859819D01*
X180872862Y-79859819D02*
X180253815Y-79859819D01*
X134354819Y-90005714D02*
X135164342Y-90005714D01*
X135164342Y-90005714D02*
X135259580Y-90053333D01*
X135259580Y-90053333D02*
X135307200Y-90100952D01*
X135307200Y-90100952D02*
X135354819Y-90196190D01*
X135354819Y-90196190D02*
X135354819Y-90386666D01*
X135354819Y-90386666D02*
X135307200Y-90481904D01*
X135307200Y-90481904D02*
X135259580Y-90529523D01*
X135259580Y-90529523D02*
X135164342Y-90577142D01*
X135164342Y-90577142D02*
X134354819Y-90577142D01*
X135354819Y-91577142D02*
X135354819Y-91005714D01*
X135354819Y-91291428D02*
X134354819Y-91291428D01*
X134354819Y-91291428D02*
X134497676Y-91196190D01*
X134497676Y-91196190D02*
X134592914Y-91100952D01*
X134592914Y-91100952D02*
X134640533Y-91005714D01*
X134354819Y-92196190D02*
X134354819Y-92291428D01*
X134354819Y-92291428D02*
X134402438Y-92386666D01*
X134402438Y-92386666D02*
X134450057Y-92434285D01*
X134450057Y-92434285D02*
X134545295Y-92481904D01*
X134545295Y-92481904D02*
X134735771Y-92529523D01*
X134735771Y-92529523D02*
X134973866Y-92529523D01*
X134973866Y-92529523D02*
X135164342Y-92481904D01*
X135164342Y-92481904D02*
X135259580Y-92434285D01*
X135259580Y-92434285D02*
X135307200Y-92386666D01*
X135307200Y-92386666D02*
X135354819Y-92291428D01*
X135354819Y-92291428D02*
X135354819Y-92196190D01*
X135354819Y-92196190D02*
X135307200Y-92100952D01*
X135307200Y-92100952D02*
X135259580Y-92053333D01*
X135259580Y-92053333D02*
X135164342Y-92005714D01*
X135164342Y-92005714D02*
X134973866Y-91958095D01*
X134973866Y-91958095D02*
X134735771Y-91958095D01*
X134735771Y-91958095D02*
X134545295Y-92005714D01*
X134545295Y-92005714D02*
X134450057Y-92053333D01*
X134450057Y-92053333D02*
X134402438Y-92100952D01*
X134402438Y-92100952D02*
X134354819Y-92196190D01*
X134354819Y-92862857D02*
X134354819Y-93529523D01*
X134354819Y-93529523D02*
X135354819Y-93100952D01*
D12*
%TO.C,Q104*%
X162882500Y-90640000D02*
X162882500Y-89230000D01*
X163542500Y-89230000D02*
X162882500Y-89230000D01*
X165202500Y-89230000D02*
X164542500Y-89230000D01*
X165202500Y-90640000D02*
X165202500Y-89230000D01*
X165512500Y-91250000D02*
X165182500Y-91010000D01*
X165512500Y-90770000D01*
X165512500Y-91250000D01*
G36*
X165512500Y-91250000D02*
G01*
X165182500Y-91010000D01*
X165512500Y-90770000D01*
X165512500Y-91250000D01*
G37*
%TO.C,R118*%
X189670000Y-81103641D02*
X189670000Y-80796359D01*
X190430000Y-81103641D02*
X190430000Y-80796359D01*
%TO.C,C116*%
X134257836Y-113540000D02*
X134042164Y-113540000D01*
X134257836Y-114260000D02*
X134042164Y-114260000D01*
%TO.C,R151*%
X154610000Y-88476359D02*
X154610000Y-88783641D01*
X155370000Y-88476359D02*
X155370000Y-88783641D01*
%TO.C,JTAG*%
X128815000Y-110715000D02*
X128815000Y-107185000D01*
X128880000Y-107185000D02*
X128815000Y-107185000D01*
X128880000Y-110715000D02*
X128815000Y-110715000D01*
X135220000Y-112040000D02*
X135220000Y-110715000D01*
X135285000Y-107185000D02*
X135220000Y-107185000D01*
X135285000Y-110715000D02*
X135220000Y-110715000D01*
X135285000Y-110715000D02*
X135285000Y-107185000D01*
%TO.C,R146*%
X157278641Y-83800000D02*
X156971359Y-83800000D01*
X157278641Y-84560000D02*
X156971359Y-84560000D01*
%TO.C,R153*%
X153670000Y-88476359D02*
X153670000Y-88783641D01*
X154430000Y-88476359D02*
X154430000Y-88783641D01*
%TO.C,R125*%
X142475000Y-100446359D02*
X142475000Y-100753641D01*
X143235000Y-100446359D02*
X143235000Y-100753641D01*
%TO.C,TP108*%
X167900000Y-90960000D02*
G75*
G02*
X166500000Y-90960000I-700000J0D01*
G01*
X166500000Y-90960000D02*
G75*
G02*
X167900000Y-90960000I700000J0D01*
G01*
%TO.C,BT101*%
X148144754Y-119405247D02*
X148851861Y-118698140D01*
X148851861Y-119405247D02*
X148144754Y-118698140D01*
X145599171Y-117566768D02*
G75*
G02*
X149983233Y-121950830I10323758J5939696D01*
G01*
%TO.C,C137*%
X144497164Y-100690000D02*
X144712836Y-100690000D01*
X144497164Y-101410000D02*
X144712836Y-101410000D01*
%TO.C,C136*%
X144497164Y-99790000D02*
X144712836Y-99790000D01*
X144497164Y-100510000D02*
X144712836Y-100510000D01*
D13*
%TO.C,G\u002A\u002A\u002A*%
G36*
X402577117Y-225219032D02*
G01*
X402581775Y-226075565D01*
X402097105Y-226075565D01*
X401612435Y-226075565D01*
X401617094Y-225219032D01*
X401621752Y-224362500D01*
X402097105Y-224362500D01*
X402572458Y-224362500D01*
X402577117Y-225219032D01*
G37*
G36*
X405285733Y-225219032D02*
G01*
X405290391Y-226075565D01*
X405101696Y-226075565D01*
X404913000Y-226075565D01*
X404917659Y-225219032D01*
X404922317Y-224362500D01*
X405101696Y-224362500D01*
X405281074Y-224362500D01*
X405285733Y-225219032D01*
G37*
G36*
X406164687Y-225219032D02*
G01*
X406169346Y-226075565D01*
X406025495Y-226075565D01*
X405881644Y-226075565D01*
X405886303Y-225219032D01*
X405890961Y-224362500D01*
X406025495Y-224362500D01*
X406160029Y-224362500D01*
X406164687Y-225219032D01*
G37*
G36*
X407187146Y-225220022D02*
G01*
X407191805Y-226077545D01*
X407106425Y-226072070D01*
X407021046Y-226066596D01*
X407021046Y-225214548D01*
X407021046Y-224362500D01*
X407101766Y-224362500D01*
X407182487Y-224362500D01*
X407187146Y-225220022D01*
G37*
G36*
X398505373Y-227034916D02*
G01*
X398506191Y-227131716D01*
X398506549Y-227247594D01*
X398506163Y-227348205D01*
X398505080Y-227428400D01*
X398503347Y-227483025D01*
X398501011Y-227506931D01*
X398480807Y-227522375D01*
X398433422Y-227525192D01*
X398375001Y-227519562D01*
X398375001Y-227053178D01*
X398375001Y-226586793D01*
X398437783Y-226586793D01*
X398500566Y-226586793D01*
X398505373Y-227034916D01*
G37*
G36*
X408052472Y-225215631D02*
G01*
X408052472Y-226077730D01*
X407985206Y-226072163D01*
X407917939Y-226066596D01*
X407913273Y-225234541D01*
X407912511Y-225068654D01*
X407912210Y-224880623D01*
X407912737Y-224725337D01*
X407914124Y-224601023D01*
X407916404Y-224505907D01*
X407919608Y-224438215D01*
X407923771Y-224396173D01*
X407928923Y-224378009D01*
X407956159Y-224361520D01*
X408000855Y-224353531D01*
X408052472Y-224353531D01*
X408052472Y-225215631D01*
G37*
G36*
X401215085Y-227023091D02*
G01*
X401216663Y-227052591D01*
X401211163Y-227090358D01*
X401209539Y-227093438D01*
X401195533Y-227102708D01*
X401165174Y-227109133D01*
X401113588Y-227113147D01*
X401035897Y-227115186D01*
X400927223Y-227115685D01*
X400877901Y-227115393D01*
X400785994Y-227113478D01*
X400709332Y-227110085D01*
X400654792Y-227105569D01*
X400629249Y-227100286D01*
X400614571Y-227076854D01*
X400611312Y-227033293D01*
X400617232Y-226981426D01*
X400913207Y-226981426D01*
X401209182Y-226981426D01*
X401215085Y-227023091D01*
G37*
G36*
X404173601Y-225196610D02*
G01*
X404174313Y-225350028D01*
X404174723Y-225510661D01*
X404174748Y-225657312D01*
X404174404Y-225786334D01*
X404173709Y-225894077D01*
X404172679Y-225976892D01*
X404171330Y-226031130D01*
X404169680Y-226053142D01*
X404158670Y-226061184D01*
X404126089Y-226067878D01*
X404068612Y-226072327D01*
X403982591Y-226074800D01*
X403864373Y-226075565D01*
X403567661Y-226075565D01*
X403572320Y-225219032D01*
X403576978Y-224362500D01*
X403872953Y-224362500D01*
X404168927Y-224362500D01*
X404173601Y-225196610D01*
G37*
G36*
X407741626Y-224356670D02*
G01*
X407744467Y-224357365D01*
X407751588Y-224361661D01*
X407757523Y-224371769D01*
X407762402Y-224390694D01*
X407766357Y-224421444D01*
X407769517Y-224467025D01*
X407772013Y-224530443D01*
X407773975Y-224614705D01*
X407775534Y-224722817D01*
X407776820Y-224857785D01*
X407777963Y-225022615D01*
X407779095Y-225220315D01*
X407783754Y-226077645D01*
X407707343Y-226072120D01*
X407630933Y-226066596D01*
X407626273Y-225219418D01*
X407621613Y-224372240D01*
X407665214Y-224361297D01*
X407698232Y-224355980D01*
X407741626Y-224356670D01*
G37*
G36*
X405677323Y-224357476D02*
G01*
X405715692Y-224361928D01*
X405756427Y-224372152D01*
X405756427Y-225211900D01*
X405756198Y-225371644D01*
X405755478Y-225531668D01*
X405754321Y-225677300D01*
X405752780Y-225804958D01*
X405750906Y-225911063D01*
X405748753Y-225992034D01*
X405746375Y-226044290D01*
X405743823Y-226064251D01*
X405739200Y-226066393D01*
X405705742Y-226070757D01*
X405648935Y-226072671D01*
X405577898Y-226071726D01*
X405424577Y-226066596D01*
X405424577Y-225214548D01*
X405424577Y-224362500D01*
X405549767Y-224357102D01*
X405616597Y-224355778D01*
X405677323Y-224357476D01*
G37*
G36*
X406949295Y-226855861D02*
G01*
X406954212Y-227167414D01*
X406954789Y-227209748D01*
X406954996Y-227331956D01*
X406952413Y-227420568D01*
X406946961Y-227477271D01*
X406938562Y-227503749D01*
X406906112Y-227523631D01*
X406858621Y-227526176D01*
X406818348Y-227507005D01*
X406813910Y-227496300D01*
X406807489Y-227453966D01*
X406802474Y-227387536D01*
X406798931Y-227304393D01*
X406796929Y-227211919D01*
X406796537Y-227117498D01*
X406797823Y-227028511D01*
X406800855Y-226952341D01*
X406805702Y-226896371D01*
X406812432Y-226867984D01*
X406838748Y-226852670D01*
X406888393Y-226850046D01*
X406949295Y-226855861D01*
G37*
G36*
X407487430Y-224362500D02*
G01*
X407492089Y-225219032D01*
X407496747Y-226075565D01*
X407417772Y-226075565D01*
X407401067Y-226075276D01*
X407350466Y-226067300D01*
X407327909Y-226047191D01*
X407327205Y-226044391D01*
X407324450Y-226011728D01*
X407322164Y-225948988D01*
X407320335Y-225860568D01*
X407318951Y-225750864D01*
X407318000Y-225624273D01*
X407317469Y-225485191D01*
X407317345Y-225338016D01*
X407317618Y-225187145D01*
X407318274Y-225036974D01*
X407319301Y-224891900D01*
X407320688Y-224756319D01*
X407322421Y-224634629D01*
X407324488Y-224531227D01*
X407326878Y-224450509D01*
X407329577Y-224396871D01*
X407332574Y-224374712D01*
X407361978Y-224358870D01*
X407417505Y-224356774D01*
X407487430Y-224362500D01*
G37*
G36*
X403079639Y-224357637D02*
G01*
X403433475Y-224362500D01*
X403438149Y-225196610D01*
X403438858Y-225349976D01*
X403439260Y-225510642D01*
X403439272Y-225657340D01*
X403438910Y-225786419D01*
X403438193Y-225894228D01*
X403437138Y-225977116D01*
X403435762Y-226031431D01*
X403434082Y-226053523D01*
X403428464Y-226059127D01*
X403405678Y-226065664D01*
X403362323Y-226069977D01*
X403294579Y-226072255D01*
X403198628Y-226072687D01*
X403070651Y-226071461D01*
X402715961Y-226066596D01*
X402710984Y-225250423D01*
X402710300Y-225115523D01*
X402709860Y-224954167D01*
X402709870Y-224805880D01*
X402710308Y-224674463D01*
X402711152Y-224563717D01*
X402712381Y-224477443D01*
X402713973Y-224419441D01*
X402715905Y-224393513D01*
X402725803Y-224352775D01*
X403079639Y-224357637D01*
G37*
G36*
X406438610Y-224356941D02*
G01*
X406536724Y-224362500D01*
X406541382Y-225219032D01*
X406546041Y-226075565D01*
X406431190Y-226075565D01*
X406418948Y-226075519D01*
X406356322Y-226072509D01*
X406320929Y-226063617D01*
X406305451Y-226047191D01*
X406303767Y-226033147D01*
X406301621Y-225985662D01*
X406299670Y-225908848D01*
X406297963Y-225806466D01*
X406296549Y-225682279D01*
X406295479Y-225540050D01*
X406294800Y-225383539D01*
X406294563Y-225216509D01*
X406294631Y-225099707D01*
X406295118Y-224917536D01*
X406296139Y-224767108D01*
X406297764Y-224645773D01*
X406300069Y-224550882D01*
X406303124Y-224479788D01*
X406307005Y-224429840D01*
X406311782Y-224398391D01*
X406317530Y-224382792D01*
X406338911Y-224364572D01*
X406376196Y-224356270D01*
X406438610Y-224356941D01*
G37*
G36*
X404439887Y-226584836D02*
G01*
X404453990Y-226606105D01*
X404463841Y-226644463D01*
X404470339Y-226703666D01*
X404474381Y-226787472D01*
X404476862Y-226899639D01*
X404478679Y-227043923D01*
X404479339Y-227114176D01*
X404479671Y-227252807D01*
X404478257Y-227358852D01*
X404475018Y-227434584D01*
X404469878Y-227482279D01*
X404462755Y-227504210D01*
X404458219Y-227508232D01*
X404439630Y-227515495D01*
X404405872Y-227520668D01*
X404352810Y-227523947D01*
X404276304Y-227525527D01*
X404172216Y-227525605D01*
X404036407Y-227524377D01*
X403630792Y-227519562D01*
X403630792Y-227456779D01*
X403630792Y-227393997D01*
X403976095Y-227389125D01*
X404321399Y-227384253D01*
X404321399Y-226990350D01*
X404321399Y-226596446D01*
X404369020Y-226584494D01*
X404395344Y-226578533D01*
X404420638Y-226576898D01*
X404439887Y-226584836D01*
G37*
G36*
X404717715Y-224359008D02*
G01*
X404755788Y-224365235D01*
X404772640Y-224375376D01*
X404774159Y-224382065D01*
X404777005Y-224420110D01*
X404779523Y-224487334D01*
X404781706Y-224579399D01*
X404783545Y-224691969D01*
X404785032Y-224820707D01*
X404786159Y-224961277D01*
X404786918Y-225109340D01*
X404787300Y-225260562D01*
X404787298Y-225410605D01*
X404786903Y-225555132D01*
X404786107Y-225689806D01*
X404784901Y-225810291D01*
X404783279Y-225912251D01*
X404781231Y-225991348D01*
X404778749Y-226043245D01*
X404775825Y-226063606D01*
X404774810Y-226064269D01*
X404748853Y-226068680D01*
X404695200Y-226072269D01*
X404621021Y-226074682D01*
X404533490Y-226075565D01*
X404303113Y-226075565D01*
X404307772Y-225219032D01*
X404312430Y-224362500D01*
X404535238Y-224357438D01*
X404559805Y-224356927D01*
X404653895Y-224356353D01*
X404717715Y-224359008D01*
G37*
G36*
X406995823Y-226578167D02*
G01*
X407113706Y-226579243D01*
X407215961Y-226580946D01*
X407297525Y-226583165D01*
X407353337Y-226585791D01*
X407378336Y-226588713D01*
X407396676Y-226607988D01*
X407406102Y-226646301D01*
X407402250Y-226685745D01*
X407384287Y-226709447D01*
X407379762Y-226710471D01*
X407344347Y-226713246D01*
X407280795Y-226715535D01*
X407194920Y-226717333D01*
X407092535Y-226718633D01*
X406979454Y-226719430D01*
X406861491Y-226719718D01*
X406744459Y-226719491D01*
X406634173Y-226718744D01*
X406536445Y-226717471D01*
X406457089Y-226715667D01*
X406401920Y-226713325D01*
X406376750Y-226710439D01*
X406357871Y-226691961D01*
X406348752Y-226653443D01*
X406355045Y-226613368D01*
X406376750Y-226588713D01*
X406398658Y-226586007D01*
X406452273Y-226583355D01*
X406532031Y-226581100D01*
X406632869Y-226579354D01*
X406749727Y-226578225D01*
X406877543Y-226577825D01*
X406995823Y-226578167D01*
G37*
G36*
X406836019Y-224355423D02*
G01*
X406851015Y-224364445D01*
X406862734Y-224382608D01*
X406871575Y-224412885D01*
X406877939Y-224458245D01*
X406882226Y-224521658D01*
X406884836Y-224606094D01*
X406886170Y-224714524D01*
X406886627Y-224849918D01*
X406886607Y-225015246D01*
X406886512Y-225213477D01*
X406886283Y-225371805D01*
X406885557Y-225531772D01*
X406884386Y-225677372D01*
X406882825Y-225805022D01*
X406880926Y-225911135D01*
X406878745Y-225992128D01*
X406876334Y-226044415D01*
X406873748Y-226064412D01*
X406863610Y-226068526D01*
X406824964Y-226072589D01*
X406770605Y-226071886D01*
X406680227Y-226066596D01*
X406675562Y-225234541D01*
X406674799Y-225068654D01*
X406674498Y-224880623D01*
X406675025Y-224725337D01*
X406676412Y-224601023D01*
X406678692Y-224505907D01*
X406681897Y-224438215D01*
X406686059Y-224396173D01*
X406691211Y-224378009D01*
X406691761Y-224377371D01*
X406723612Y-224360512D01*
X406770645Y-224353531D01*
X406794593Y-224352929D01*
X406817345Y-224352575D01*
X406836019Y-224355423D01*
G37*
G36*
X408016597Y-226586793D02*
G01*
X408021258Y-226588419D01*
X408031236Y-226594603D01*
X408038826Y-226607113D01*
X408044354Y-226630169D01*
X408048146Y-226667992D01*
X408050528Y-226724805D01*
X408051825Y-226804829D01*
X408052365Y-226912286D01*
X408052472Y-227051397D01*
X408052162Y-227154256D01*
X408051018Y-227268787D01*
X408049155Y-227367231D01*
X408046698Y-227444641D01*
X408043775Y-227496071D01*
X408040514Y-227516572D01*
X408026547Y-227524150D01*
X407984742Y-227527721D01*
X407937344Y-227517643D01*
X407932341Y-227514754D01*
X407924647Y-227503284D01*
X407918820Y-227480424D01*
X407914610Y-227442096D01*
X407911769Y-227384216D01*
X407910048Y-227302706D01*
X407909198Y-227193483D01*
X407908970Y-227052467D01*
X407908982Y-226991989D01*
X407909224Y-226866021D01*
X407910028Y-226770005D01*
X407911719Y-226699725D01*
X407914622Y-226650965D01*
X407919061Y-226619508D01*
X407925361Y-226601138D01*
X407933848Y-226591639D01*
X407944845Y-226586793D01*
X407968889Y-226582535D01*
X408016597Y-226586793D01*
G37*
G36*
X400935149Y-226580707D02*
G01*
X401056710Y-226581736D01*
X401478249Y-226586793D01*
X401483056Y-227034916D01*
X401483883Y-227131824D01*
X401484271Y-227247587D01*
X401483934Y-227348034D01*
X401482917Y-227428027D01*
X401481263Y-227482427D01*
X401479016Y-227506094D01*
X401475109Y-227510435D01*
X401456194Y-227516702D01*
X401418972Y-227521205D01*
X401359931Y-227524083D01*
X401275561Y-227525475D01*
X401162352Y-227525519D01*
X401016794Y-227524355D01*
X400563419Y-227519562D01*
X400563419Y-227456779D01*
X400563419Y-227393997D01*
X400953567Y-227389163D01*
X401343715Y-227384328D01*
X401343715Y-227052828D01*
X401343715Y-226721327D01*
X400977457Y-226721327D01*
X400953789Y-226721305D01*
X400843110Y-226720587D01*
X400744797Y-226718979D01*
X400664727Y-226716644D01*
X400608776Y-226713743D01*
X400582824Y-226710439D01*
X400563898Y-226691412D01*
X400554450Y-226647999D01*
X400554472Y-226644965D01*
X400563818Y-226604828D01*
X400594810Y-226586562D01*
X400607360Y-226584991D01*
X400654330Y-226582778D01*
X400728354Y-226581287D01*
X400823829Y-226580577D01*
X400935149Y-226580707D01*
G37*
G36*
X396058201Y-226577499D02*
G01*
X396079852Y-226578231D01*
X396111493Y-226579348D01*
X396162480Y-226586918D01*
X396191964Y-226599350D01*
X396196535Y-226607943D01*
X396202969Y-226640977D01*
X396207758Y-226699401D01*
X396211025Y-226785831D01*
X396212894Y-226902884D01*
X396213489Y-227053178D01*
X396213289Y-227145169D01*
X396211965Y-227275725D01*
X396209294Y-227374570D01*
X396205153Y-227444320D01*
X396199418Y-227487593D01*
X396191964Y-227507005D01*
X396173013Y-227521755D01*
X396142177Y-227527168D01*
X396092409Y-227517225D01*
X396080102Y-227513318D01*
X396069748Y-227505720D01*
X396062318Y-227490167D01*
X396057327Y-227462006D01*
X396054290Y-227416584D01*
X396052721Y-227349246D01*
X396052136Y-227255340D01*
X396052049Y-227130211D01*
X396052049Y-226754014D01*
X395993751Y-226802409D01*
X395951241Y-226839186D01*
X395894693Y-226890088D01*
X395836795Y-226943716D01*
X395816241Y-226963019D01*
X395750168Y-227024672D01*
X395675093Y-227094308D01*
X395603602Y-227160242D01*
X395583615Y-227178638D01*
X395501877Y-227254308D01*
X395415253Y-227335031D01*
X395339440Y-227406193D01*
X395323610Y-227421050D01*
X395263458Y-227474773D01*
X395219249Y-227507571D01*
X395184092Y-227523909D01*
X395151093Y-227528256D01*
X395143181Y-227528234D01*
X395113765Y-227527504D01*
X395091067Y-227522773D01*
X395074269Y-227510057D01*
X395062556Y-227485372D01*
X395055111Y-227444733D01*
X395051119Y-227384156D01*
X395049764Y-227299657D01*
X395050229Y-227187252D01*
X395051699Y-227042956D01*
X395056498Y-226586793D01*
X395119280Y-226586793D01*
X395182063Y-226586793D01*
X395191032Y-226959428D01*
X395200001Y-227332062D01*
X395460100Y-227083707D01*
X395512757Y-227033401D01*
X395634598Y-226916861D01*
X395733973Y-226821877D01*
X395813555Y-226746270D01*
X395876014Y-226687859D01*
X395924022Y-226644468D01*
X395960251Y-226613917D01*
X395987371Y-226594026D01*
X396008055Y-226582618D01*
X396024974Y-226577513D01*
X396040799Y-226576533D01*
X396058201Y-226577499D01*
G37*
G36*
X403116761Y-226721994D02*
G01*
X403118484Y-226803460D01*
X403119335Y-226912635D01*
X403119563Y-227053602D01*
X403119528Y-227100381D01*
X403118834Y-227238264D01*
X403117134Y-227344447D01*
X403114270Y-227422153D01*
X403110088Y-227474607D01*
X403104430Y-227505031D01*
X403097141Y-227516651D01*
X403084065Y-227519386D01*
X403036914Y-227523086D01*
X402964479Y-227525504D01*
X402873464Y-227526690D01*
X402770571Y-227526694D01*
X402662504Y-227525566D01*
X402555965Y-227523358D01*
X402457658Y-227520120D01*
X402374285Y-227515901D01*
X402312549Y-227510752D01*
X402300744Y-227509352D01*
X402203317Y-227492673D01*
X402128921Y-227466654D01*
X402074649Y-227426944D01*
X402037592Y-227369194D01*
X402014842Y-227289055D01*
X402003492Y-227182176D01*
X402000632Y-227044209D01*
X402000684Y-227031326D01*
X402003281Y-226939547D01*
X402150836Y-226939547D01*
X402151164Y-227036396D01*
X402151278Y-227081071D01*
X402152589Y-227180474D01*
X402156228Y-227251619D01*
X402163296Y-227300069D01*
X402174892Y-227331390D01*
X402192116Y-227351147D01*
X402216066Y-227364903D01*
X402229123Y-227368808D01*
X402281510Y-227375697D01*
X402365651Y-227380789D01*
X402478784Y-227383945D01*
X402618147Y-227385028D01*
X402976060Y-227385028D01*
X402976060Y-227053178D01*
X402976060Y-226721327D01*
X402602492Y-226721327D01*
X402576225Y-226721311D01*
X402443130Y-226721224D01*
X402341079Y-226723226D01*
X402265967Y-226730181D01*
X402213690Y-226744954D01*
X402180143Y-226770412D01*
X402161221Y-226809420D01*
X402152821Y-226864843D01*
X402150836Y-226939547D01*
X402003281Y-226939547D01*
X402004390Y-226900352D01*
X402015925Y-226799971D01*
X402038340Y-226725584D01*
X402074684Y-226672589D01*
X402128006Y-226636388D01*
X402201356Y-226612380D01*
X402297783Y-226595965D01*
X402334271Y-226592236D01*
X402408859Y-226587427D01*
X402501566Y-226583579D01*
X402605645Y-226580753D01*
X402714351Y-226579010D01*
X402820938Y-226578413D01*
X402918661Y-226579023D01*
X403000774Y-226580902D01*
X403060532Y-226584111D01*
X403091189Y-226588713D01*
X403096170Y-226591584D01*
X403103871Y-226603032D01*
X403109704Y-226625862D01*
X403113918Y-226664155D01*
X403116728Y-226721327D01*
X403116761Y-226721994D01*
G37*
G36*
X405587174Y-226581177D02*
G01*
X405628300Y-226596590D01*
X405662549Y-226631104D01*
X405700207Y-226691748D01*
X405704227Y-226698884D01*
X405732335Y-226748614D01*
X405773812Y-226821831D01*
X405825078Y-226912219D01*
X405882550Y-227013464D01*
X405942648Y-227119251D01*
X405962961Y-227155144D01*
X406017255Y-227252661D01*
X406064029Y-227338964D01*
X406100673Y-227409095D01*
X406124575Y-227458093D01*
X406133122Y-227480998D01*
X406131036Y-227493015D01*
X406110700Y-227516651D01*
X406077844Y-227525970D01*
X406020269Y-227518394D01*
X405972903Y-227476433D01*
X405968201Y-227469765D01*
X405945176Y-227434813D01*
X405935806Y-227416389D01*
X405934864Y-227413954D01*
X405921051Y-227387591D01*
X405892786Y-227336351D01*
X405852688Y-227264904D01*
X405803373Y-227177924D01*
X405747458Y-227080084D01*
X405729434Y-227048574D01*
X405675156Y-226952568D01*
X405628345Y-226868107D01*
X405591641Y-226800060D01*
X405567683Y-226753296D01*
X405559111Y-226732682D01*
X405554089Y-226723102D01*
X405535294Y-226739932D01*
X405502203Y-226787478D01*
X405454435Y-226866296D01*
X405391610Y-226976942D01*
X405274404Y-227187712D01*
X405469940Y-227187712D01*
X405475078Y-227187713D01*
X405560614Y-227188398D01*
X405617452Y-227191104D01*
X405652419Y-227196937D01*
X405672341Y-227207003D01*
X405684045Y-227222408D01*
X405694328Y-227242373D01*
X405704786Y-227271040D01*
X405700690Y-227290726D01*
X405677776Y-227303112D01*
X405631782Y-227309879D01*
X405558442Y-227312707D01*
X405453496Y-227313277D01*
X405204378Y-227313277D01*
X405143312Y-227416419D01*
X405112695Y-227462975D01*
X405064121Y-227512557D01*
X405016555Y-227528442D01*
X404967818Y-227511815D01*
X404959971Y-227506428D01*
X404953359Y-227498318D01*
X404952357Y-227485440D01*
X404958738Y-227464044D01*
X404974275Y-227430379D01*
X405000741Y-227380695D01*
X405039909Y-227311241D01*
X405093552Y-227218267D01*
X405163443Y-227098022D01*
X405179299Y-227070722D01*
X405209877Y-227017700D01*
X405240143Y-226964515D01*
X405274498Y-226903350D01*
X405317346Y-226826388D01*
X405373089Y-226725812D01*
X405385510Y-226703662D01*
X405425132Y-226639781D01*
X405458755Y-226601437D01*
X405492756Y-226582747D01*
X405533517Y-226577825D01*
X405587174Y-226581177D01*
G37*
G36*
X397426300Y-226565286D02*
G01*
X397541400Y-226574519D01*
X397638050Y-226589527D01*
X397707916Y-226610355D01*
X397709915Y-226611242D01*
X397758974Y-226636244D01*
X397795629Y-226665064D01*
X397821651Y-226703038D01*
X397838810Y-226755500D01*
X397848875Y-226827787D01*
X397853616Y-226925235D01*
X397854803Y-227053178D01*
X397854631Y-227120314D01*
X397853233Y-227215889D01*
X397849951Y-227285264D01*
X397844216Y-227334638D01*
X397835458Y-227370210D01*
X397823108Y-227398178D01*
X397821982Y-227400211D01*
X397768806Y-227461518D01*
X397687707Y-227504105D01*
X397576766Y-227528992D01*
X397507174Y-227535918D01*
X397382409Y-227541950D01*
X397247254Y-227542683D01*
X397116794Y-227538137D01*
X397006117Y-227528328D01*
X396938899Y-227517582D01*
X396847327Y-227490862D01*
X396783441Y-227449610D01*
X396743025Y-227388908D01*
X396721866Y-227303839D01*
X396715749Y-227189485D01*
X396715749Y-227044209D01*
X397012860Y-227044209D01*
X397309972Y-227044209D01*
X397304351Y-227102507D01*
X397298730Y-227160805D01*
X397078991Y-227165841D01*
X396859252Y-227170878D01*
X396859497Y-227228624D01*
X396859497Y-227228665D01*
X396865975Y-227304671D01*
X396886612Y-227353694D01*
X396924399Y-227382841D01*
X396948774Y-227388632D01*
X397005391Y-227394526D01*
X397084238Y-227398888D01*
X397178056Y-227401696D01*
X397279588Y-227402930D01*
X397381575Y-227402573D01*
X397476759Y-227400602D01*
X397557882Y-227396999D01*
X397617686Y-227391744D01*
X397648912Y-227384817D01*
X397660778Y-227376568D01*
X397687530Y-227336643D01*
X397705978Y-227269405D01*
X397716675Y-227172206D01*
X397720169Y-227042401D01*
X397718331Y-226943885D01*
X397710201Y-226850717D01*
X397694546Y-226785222D01*
X397670246Y-226743099D01*
X397636180Y-226720046D01*
X397622441Y-226716517D01*
X397571270Y-226710509D01*
X397495949Y-226706329D01*
X397403977Y-226703932D01*
X397302853Y-226703270D01*
X397200077Y-226704299D01*
X397103150Y-226706972D01*
X397019569Y-226711245D01*
X396956836Y-226717070D01*
X396922449Y-226724403D01*
X396907517Y-226732086D01*
X396882906Y-226754629D01*
X396867256Y-226792462D01*
X396855317Y-226855861D01*
X396851400Y-226869695D01*
X396829138Y-226888685D01*
X396780467Y-226897447D01*
X396710949Y-226903158D01*
X396719423Y-226814971D01*
X396736692Y-226735365D01*
X396777596Y-226661944D01*
X396837568Y-226614975D01*
X396865755Y-226604203D01*
X396948090Y-226585223D01*
X397053646Y-226571797D01*
X397174089Y-226563969D01*
X397301085Y-226561784D01*
X397426300Y-226565286D01*
G37*
G36*
X399621682Y-226567632D02*
G01*
X399729065Y-226576078D01*
X399825362Y-226589352D01*
X399898209Y-226608094D01*
X399954233Y-226634079D01*
X400000058Y-226669085D01*
X400006284Y-226674969D01*
X400031288Y-226702881D01*
X400045087Y-226733261D01*
X400050961Y-226777237D01*
X400052190Y-226845936D01*
X400051102Y-226907199D01*
X400045455Y-226956014D01*
X400032530Y-226988896D01*
X400009636Y-227016642D01*
X400000551Y-227025243D01*
X399965745Y-227050119D01*
X399920636Y-227069350D01*
X399860112Y-227083940D01*
X399779059Y-227094896D01*
X399672362Y-227103221D01*
X399534909Y-227109920D01*
X399512972Y-227110820D01*
X399393639Y-227116860D01*
X399305046Y-227124706D01*
X399242755Y-227136056D01*
X399202332Y-227152610D01*
X399179340Y-227176067D01*
X399169343Y-227208125D01*
X399167904Y-227250484D01*
X399172312Y-227292727D01*
X399191614Y-227337990D01*
X399230956Y-227369496D01*
X399295579Y-227390899D01*
X399390728Y-227405855D01*
X399442273Y-227410492D01*
X399551042Y-227414242D01*
X399664191Y-227411896D01*
X399768408Y-227403893D01*
X399850380Y-227390672D01*
X399879860Y-227374020D01*
X399905231Y-227324788D01*
X399916627Y-227292131D01*
X399940048Y-227271071D01*
X399985961Y-227262865D01*
X400001469Y-227261624D01*
X400036778Y-227262764D01*
X400050120Y-227279801D01*
X400052190Y-227322342D01*
X400052153Y-227326541D01*
X400046370Y-227380506D01*
X400033720Y-227421897D01*
X400027947Y-227431079D01*
X399982075Y-227471274D01*
X399910286Y-227505475D01*
X399820739Y-227529559D01*
X399819935Y-227529705D01*
X399769177Y-227535022D01*
X399692998Y-227538392D01*
X399601575Y-227539537D01*
X399505085Y-227538179D01*
X399408467Y-227533904D01*
X399280117Y-227520586D01*
X399181522Y-227497697D01*
X399109289Y-227463398D01*
X399060024Y-227415852D01*
X399030333Y-227353219D01*
X399016823Y-227273660D01*
X399015592Y-227239154D01*
X399030243Y-227144262D01*
X399073159Y-227071400D01*
X399144408Y-227020438D01*
X399155247Y-227015713D01*
X399193085Y-227003804D01*
X399243990Y-226994473D01*
X399313664Y-226987058D01*
X399407810Y-226980895D01*
X399532130Y-226975319D01*
X399598185Y-226972640D01*
X399707534Y-226967006D01*
X399787727Y-226959834D01*
X399843260Y-226949597D01*
X399878627Y-226934769D01*
X399898324Y-226913823D01*
X399906846Y-226885234D01*
X399908687Y-226847476D01*
X399908684Y-226845571D01*
X399905718Y-226800536D01*
X399894092Y-226766834D01*
X399869273Y-226742692D01*
X399826726Y-226726339D01*
X399761915Y-226716001D01*
X399670305Y-226709907D01*
X399547361Y-226706285D01*
X399462484Y-226704927D01*
X399359205Y-226705735D01*
X399283703Y-226711099D01*
X399231133Y-226722227D01*
X399196656Y-226740327D01*
X399175427Y-226766607D01*
X399162606Y-226802275D01*
X399155995Y-226821778D01*
X399134311Y-226841892D01*
X399090007Y-226846892D01*
X399043599Y-226840122D01*
X399018565Y-226820725D01*
X399015865Y-226783728D01*
X399031496Y-226728268D01*
X399061854Y-226673129D01*
X399100959Y-226632012D01*
X399101958Y-226631309D01*
X399162238Y-226603846D01*
X399251069Y-226582916D01*
X399361731Y-226569350D01*
X399487508Y-226563978D01*
X399621682Y-226567632D01*
G37*
G36*
X401482923Y-225196610D02*
G01*
X401483635Y-225350028D01*
X401484045Y-225510661D01*
X401484070Y-225657312D01*
X401483726Y-225786334D01*
X401483031Y-225894077D01*
X401482001Y-225976892D01*
X401480652Y-226031130D01*
X401479002Y-226053142D01*
X401471465Y-226056128D01*
X401450113Y-226058875D01*
X401413574Y-226061370D01*
X401360471Y-226063621D01*
X401289423Y-226065640D01*
X401199051Y-226067437D01*
X401087976Y-226069023D01*
X400954819Y-226070408D01*
X400798200Y-226071602D01*
X400616740Y-226072617D01*
X400409060Y-226073462D01*
X400173780Y-226074148D01*
X399909521Y-226074686D01*
X399614904Y-226075086D01*
X399288549Y-226075359D01*
X398929077Y-226075515D01*
X398535109Y-226075565D01*
X398334018Y-226075558D01*
X397967838Y-226075500D01*
X397635043Y-226075370D01*
X397333986Y-226075152D01*
X397063021Y-226074832D01*
X396820499Y-226074394D01*
X396604775Y-226073822D01*
X396414202Y-226073103D01*
X396247132Y-226072219D01*
X396101919Y-226071157D01*
X395976915Y-226069900D01*
X395870475Y-226068434D01*
X395780951Y-226066742D01*
X395706696Y-226064811D01*
X395646064Y-226062625D01*
X395597407Y-226060168D01*
X395559078Y-226057425D01*
X395529432Y-226054381D01*
X395506820Y-226051020D01*
X395489596Y-226047328D01*
X395380356Y-226011408D01*
X395262215Y-225946359D01*
X395166137Y-225857799D01*
X395140144Y-225825473D01*
X395110016Y-225778818D01*
X395087064Y-225726766D01*
X395070362Y-225664244D01*
X395058983Y-225586178D01*
X395052002Y-225487493D01*
X395048493Y-225363117D01*
X395047529Y-225207975D01*
X395047569Y-225196610D01*
X395239827Y-225196610D01*
X395239860Y-225220700D01*
X395241675Y-225357138D01*
X395246102Y-225470110D01*
X395252922Y-225555497D01*
X395261914Y-225609180D01*
X395272033Y-225637297D01*
X395316262Y-225711030D01*
X395379993Y-225783065D01*
X395453250Y-225843136D01*
X395526057Y-225880976D01*
X395541781Y-225884357D01*
X395572489Y-225887772D01*
X395618786Y-225890859D01*
X395682364Y-225893639D01*
X395764913Y-225896137D01*
X395868123Y-225898374D01*
X395993685Y-225900375D01*
X396143289Y-225902161D01*
X396318626Y-225903756D01*
X396521386Y-225905182D01*
X396753260Y-225906463D01*
X397015938Y-225907622D01*
X397311110Y-225908681D01*
X397640468Y-225909663D01*
X397748723Y-225909943D01*
X398012951Y-225910475D01*
X398266241Y-225910776D01*
X398506327Y-225910853D01*
X398730942Y-225910715D01*
X398937818Y-225910367D01*
X399124689Y-225909819D01*
X399289287Y-225909078D01*
X399429345Y-225908151D01*
X399542596Y-225907047D01*
X399626773Y-225905772D01*
X399679609Y-225904334D01*
X399698837Y-225902741D01*
X399699218Y-225902047D01*
X399702007Y-225877439D01*
X399704566Y-225821485D01*
X399706822Y-225738185D01*
X399708703Y-225631542D01*
X399710137Y-225505556D01*
X399711050Y-225364227D01*
X399711371Y-225211558D01*
X399711371Y-224532909D01*
X397669711Y-224532909D01*
X397426218Y-224532899D01*
X397127956Y-224532898D01*
X396862113Y-224532999D01*
X396626707Y-224533297D01*
X396419754Y-224533884D01*
X396239271Y-224534856D01*
X396083273Y-224536306D01*
X395949777Y-224538328D01*
X395836801Y-224541018D01*
X395742359Y-224544467D01*
X395664469Y-224548772D01*
X395601148Y-224554026D01*
X395550411Y-224560323D01*
X395510275Y-224567758D01*
X395478756Y-224576423D01*
X395453872Y-224586414D01*
X395433638Y-224597825D01*
X395416070Y-224610750D01*
X395399187Y-224625283D01*
X395381003Y-224641517D01*
X395362683Y-224659540D01*
X395316956Y-224717340D01*
X395280120Y-224779766D01*
X395268618Y-224805453D01*
X395257348Y-224837721D01*
X395249465Y-224874903D01*
X395244370Y-224923191D01*
X395241464Y-224988777D01*
X395240149Y-225077853D01*
X395239827Y-225196610D01*
X395047569Y-225196610D01*
X395047830Y-225121509D01*
X395050433Y-224983818D01*
X395056572Y-224873931D01*
X395067288Y-224786614D01*
X395083623Y-224716635D01*
X395106617Y-224658761D01*
X395137311Y-224607759D01*
X395176747Y-224558397D01*
X395186733Y-224547701D01*
X395259559Y-224490612D01*
X395355951Y-224439037D01*
X395465508Y-224397815D01*
X395577830Y-224371785D01*
X395610653Y-224369078D01*
X395676171Y-224366519D01*
X395773774Y-224364258D01*
X395903805Y-224362292D01*
X396066611Y-224360620D01*
X396262535Y-224359242D01*
X396491921Y-224358154D01*
X396755115Y-224357355D01*
X397052461Y-224356845D01*
X397384304Y-224356621D01*
X397750987Y-224356681D01*
X398152856Y-224357024D01*
X398590255Y-224357649D01*
X401478249Y-224362500D01*
X401479204Y-224532909D01*
X401482923Y-225196610D01*
G37*
D12*
%TO.C,R145*%
X157270000Y-79686359D02*
X157270000Y-79993641D01*
X158030000Y-79686359D02*
X158030000Y-79993641D01*
%TO.C,R152*%
X155550000Y-88476359D02*
X155550000Y-88783641D01*
X156310000Y-88476359D02*
X156310000Y-88783641D01*
%TO.C,R122*%
X139520000Y-83353641D02*
X139520000Y-83046359D01*
X140280000Y-83353641D02*
X140280000Y-83046359D01*
%TO.C,TP118*%
X160000000Y-81950000D02*
G75*
G02*
X158600000Y-81950000I-700000J0D01*
G01*
X158600000Y-81950000D02*
G75*
G02*
X160000000Y-81950000I700000J0D01*
G01*
%TO.C,R116*%
X189811911Y-87896359D02*
X189811911Y-88203641D01*
X190571911Y-87896359D02*
X190571911Y-88203641D01*
%TO.C,R124*%
X141475000Y-100753641D02*
X141475000Y-100446359D01*
X142235000Y-100753641D02*
X142235000Y-100446359D01*
%TO.C,R144*%
X157278641Y-82870000D02*
X156971359Y-82870000D01*
X157278641Y-83630000D02*
X156971359Y-83630000D01*
%TO.C,C144*%
X147090000Y-90842164D02*
X147090000Y-91057836D01*
X147810000Y-90842164D02*
X147810000Y-91057836D01*
%TO.C,U108*%
X152525000Y-89830000D02*
X150575000Y-89830000D01*
X152525000Y-89830000D02*
X154475000Y-89830000D01*
X152525000Y-94950000D02*
X150575000Y-94950000D01*
X152525000Y-94950000D02*
X154475000Y-94950000D01*
X155225000Y-89925000D02*
X154985000Y-89595000D01*
X155465000Y-89595000D01*
X155225000Y-89925000D01*
G36*
X155225000Y-89925000D02*
G01*
X154985000Y-89595000D01*
X155465000Y-89595000D01*
X155225000Y-89925000D01*
G37*
%TO.C,C145*%
X147990000Y-90842164D02*
X147990000Y-91057836D01*
X148710000Y-90842164D02*
X148710000Y-91057836D01*
%TO.C,TP117*%
X162250000Y-83850000D02*
G75*
G02*
X160850000Y-83850000I-700000J0D01*
G01*
X160850000Y-83850000D02*
G75*
G02*
X162250000Y-83850000I700000J0D01*
G01*
%TO.C,D106*%
X143560000Y-85250000D02*
X139550000Y-85250000D01*
X143560000Y-85250000D02*
X143560000Y-87250000D01*
X143560000Y-87250000D02*
X139550000Y-87250000D01*
%TO.C,R112*%
X182145552Y-80195000D02*
X181838270Y-80195000D01*
X182145552Y-80955000D02*
X181838270Y-80955000D01*
%TO.C,U107*%
X135690000Y-89790000D02*
X135945000Y-89790000D01*
X135690000Y-93650000D02*
X135690000Y-89790000D01*
X135690000Y-93650000D02*
X135690000Y-97510000D01*
X135690000Y-97510000D02*
X135945000Y-97510000D01*
X146210000Y-89790000D02*
X145955000Y-89790000D01*
X146210000Y-93650000D02*
X146210000Y-89790000D01*
X146210000Y-93650000D02*
X146210000Y-97510000D01*
X146210000Y-97510000D02*
X145955000Y-97510000D01*
X146425000Y-98702500D02*
X145955000Y-98362500D01*
X146425000Y-98022500D01*
X146425000Y-98702500D01*
G36*
X146425000Y-98702500D02*
G01*
X145955000Y-98362500D01*
X146425000Y-98022500D01*
X146425000Y-98702500D01*
G37*
%TD*%
M02*
