%TF.GenerationSoftware,KiCad,Pcbnew,9.0.0*%
%TF.CreationDate,2025-06-25T10:36:33+02:00*%
%TF.ProjectId,Plantomatic2000,506c616e-746f-46d6-9174-696332303030,rev?*%
%TF.SameCoordinates,Original*%
%TF.FileFunction,Soldermask,Bot*%
%TF.FilePolarity,Negative*%
%FSLAX46Y46*%
G04 Gerber Fmt 4.6, Leading zero omitted, Abs format (unit mm)*
G04 Created by KiCad (PCBNEW 9.0.0) date 2025-06-25 10:36:33*
%MOMM*%
%LPD*%
G01*
G04 APERTURE LIST*
G04 Aperture macros list*
%AMRoundRect*
0 Rectangle with rounded corners*
0 $1 Rounding radius*
0 $2 $3 $4 $5 $6 $7 $8 $9 X,Y pos of 4 corners*
0 Add a 4 corners polygon primitive as box body*
4,1,4,$2,$3,$4,$5,$6,$7,$8,$9,$2,$3,0*
0 Add four circle primitives for the rounded corners*
1,1,$1+$1,$2,$3*
1,1,$1+$1,$4,$5*
1,1,$1+$1,$6,$7*
1,1,$1+$1,$8,$9*
0 Add four rect primitives between the rounded corners*
20,1,$1+$1,$2,$3,$4,$5,0*
20,1,$1+$1,$4,$5,$6,$7,0*
20,1,$1+$1,$6,$7,$8,$9,0*
20,1,$1+$1,$8,$9,$2,$3,0*%
%AMRotRect*
0 Rectangle, with rotation*
0 The origin of the aperture is its center*
0 $1 length*
0 $2 width*
0 $3 Rotation angle, in degrees counterclockwise*
0 Add horizontal line*
21,1,$1,$2,0,0,$3*%
G04 Aperture macros list end*
%ADD10RoundRect,0.250000X0.600000X0.750000X-0.600000X0.750000X-0.600000X-0.750000X0.600000X-0.750000X0*%
%ADD11O,1.700000X2.000000*%
%ADD12C,2.600000*%
%ADD13C,4.400000*%
%ADD14C,0.600000*%
%ADD15O,2.000000X0.900000*%
%ADD16O,1.700000X0.900000*%
%ADD17RoundRect,0.250000X-0.600000X-0.750000X0.600000X-0.750000X0.600000X0.750000X-0.600000X0.750000X0*%
%ADD18RoundRect,0.250000X0.750000X-0.600000X0.750000X0.600000X-0.750000X0.600000X-0.750000X-0.600000X0*%
%ADD19O,2.000000X1.700000*%
%ADD20RoundRect,0.250000X0.725000X-0.600000X0.725000X0.600000X-0.725000X0.600000X-0.725000X-0.600000X0*%
%ADD21O,1.950000X1.700000*%
%ADD22RoundRect,0.250000X-0.725000X0.600000X-0.725000X-0.600000X0.725000X-0.600000X0.725000X0.600000X0*%
%ADD23RoundRect,0.250000X-0.600000X-0.725000X0.600000X-0.725000X0.600000X0.725000X-0.600000X0.725000X0*%
%ADD24O,1.700000X1.950000*%
%ADD25RoundRect,0.112500X0.112500X0.237500X-0.112500X0.237500X-0.112500X-0.237500X0.112500X-0.237500X0*%
%ADD26RoundRect,0.135000X0.185000X-0.135000X0.185000X0.135000X-0.185000X0.135000X-0.185000X-0.135000X0*%
%ADD27RoundRect,0.140000X0.140000X0.170000X-0.140000X0.170000X-0.140000X-0.170000X0.140000X-0.170000X0*%
%ADD28RoundRect,0.135000X-0.185000X0.135000X-0.185000X-0.135000X0.185000X-0.135000X0.185000X0.135000X0*%
%ADD29R,0.740000X2.400000*%
%ADD30RoundRect,0.135000X0.135000X0.185000X-0.135000X0.185000X-0.135000X-0.185000X0.135000X-0.185000X0*%
%ADD31C,1.000000*%
%ADD32RotRect,2.000000X2.000000X225.000000*%
%ADD33C,2.000000*%
%ADD34RoundRect,0.140000X-0.140000X-0.170000X0.140000X-0.170000X0.140000X0.170000X-0.140000X0.170000X0*%
%ADD35RoundRect,0.140000X-0.170000X0.140000X-0.170000X-0.140000X0.170000X-0.140000X0.170000X0.140000X0*%
%ADD36RoundRect,0.150000X0.825000X0.150000X-0.825000X0.150000X-0.825000X-0.150000X0.825000X-0.150000X0*%
%ADD37RoundRect,0.225000X0.225000X0.375000X-0.225000X0.375000X-0.225000X-0.375000X0.225000X-0.375000X0*%
%ADD38RoundRect,0.150000X0.150000X-0.875000X0.150000X0.875000X-0.150000X0.875000X-0.150000X-0.875000X0*%
G04 APERTURE END LIST*
D10*
%TO.C,HOUR*%
X131700000Y-92225000D03*
D11*
X129200000Y-92225000D03*
%TD*%
D12*
%TO.C,H103*%
X126600000Y-122900000D03*
D13*
X126600000Y-122900000D03*
%TD*%
D12*
%TO.C,H106*%
X189600000Y-100900000D03*
D13*
X189600000Y-100900000D03*
%TD*%
D12*
%TO.C,H102*%
X121600000Y-106900000D03*
D13*
X121600000Y-106900000D03*
%TD*%
D14*
%TO.C,J103*%
X192991911Y-87340000D03*
X192991911Y-81560000D03*
D15*
X192511911Y-88770000D03*
D16*
X196681911Y-88770000D03*
D15*
X192511911Y-80130000D03*
D16*
X196681911Y-80130000D03*
%TD*%
D17*
%TO.C,PUMP.1*%
X132450000Y-122300000D03*
D11*
X134950000Y-122300000D03*
%TD*%
D18*
%TO.C,S.WAKE*%
X195050000Y-97250000D03*
D19*
X195050000Y-94750000D03*
%TD*%
D18*
%TO.C,BATT - +*%
X172400000Y-100927813D03*
D19*
X172400000Y-98427813D03*
%TD*%
D10*
%TO.C,RST*%
X131725000Y-84800000D03*
D11*
X129225000Y-84800000D03*
%TD*%
D14*
%TO.C,U103*%
X148925000Y-84850000D03*
X148925000Y-86250000D03*
X149625000Y-84150000D03*
X149625000Y-85550000D03*
X149625000Y-86950000D03*
X150325000Y-84850000D03*
X150325000Y-86250000D03*
X151025000Y-84150000D03*
X151025000Y-85550000D03*
X151025000Y-86950000D03*
X151725000Y-84850000D03*
X151725000Y-86250000D03*
%TD*%
D12*
%TO.C,H104*%
X177600000Y-79400000D03*
D13*
X177600000Y-79400000D03*
%TD*%
D10*
%TO.C,START*%
X131600000Y-99775000D03*
D11*
X129100000Y-99775000D03*
%TD*%
D12*
%TO.C,H101*%
X121600000Y-79400000D03*
D13*
X121600000Y-79400000D03*
%TD*%
D10*
%TO.C,SEL*%
X121550000Y-84750000D03*
D11*
X119050000Y-84750000D03*
%TD*%
D17*
%TO.C,PUMP.2*%
X176725000Y-122325000D03*
D11*
X179225000Y-122325000D03*
%TD*%
D10*
%TO.C,PLED*%
X121500000Y-99675000D03*
D11*
X119000000Y-99675000D03*
%TD*%
D20*
%TO.C,OLED*%
X194950000Y-112700000D03*
D21*
X194950000Y-110200000D03*
X194950000Y-107700000D03*
X194950000Y-105200000D03*
%TD*%
D22*
%TO.C,Water Sig*%
X117975000Y-115125000D03*
D21*
X117975000Y-117625000D03*
X117975000Y-120125000D03*
X117975000Y-122625000D03*
%TD*%
D23*
%TO.C,PMIC LED B R G*%
X186560000Y-122330000D03*
D24*
X189060000Y-122330000D03*
X191560000Y-122330000D03*
X194060000Y-122330000D03*
%TD*%
D10*
%TO.C,MIN*%
X121550000Y-92200000D03*
D11*
X119050000Y-92200000D03*
%TD*%
D12*
%TO.C,H105*%
X189600000Y-116900000D03*
D13*
X189600000Y-116900000D03*
%TD*%
D25*
%TO.C,Q104*%
X164692500Y-90960000D03*
X163392500Y-90960000D03*
X164042500Y-88960000D03*
%TD*%
D26*
%TO.C,R118*%
X190050000Y-81460000D03*
X190050000Y-80440000D03*
%TD*%
D27*
%TO.C,C116*%
X134630000Y-113900000D03*
X133670000Y-113900000D03*
%TD*%
D28*
%TO.C,R151*%
X154990000Y-88120000D03*
X154990000Y-89140000D03*
%TD*%
D29*
%TO.C,JTAG*%
X134590000Y-110900000D03*
X134590000Y-107000000D03*
X133320000Y-110900000D03*
X133320000Y-107000000D03*
X132050000Y-110900000D03*
X132050000Y-107000000D03*
X130780000Y-110900000D03*
X130780000Y-107000000D03*
X129510000Y-110900000D03*
X129510000Y-107000000D03*
%TD*%
D30*
%TO.C,R146*%
X157635000Y-84180000D03*
X156615000Y-84180000D03*
%TD*%
D28*
%TO.C,R153*%
X154050000Y-88120000D03*
X154050000Y-89140000D03*
%TD*%
%TO.C,R125*%
X142855000Y-100090000D03*
X142855000Y-101110000D03*
%TD*%
D31*
%TO.C,TP108*%
X167200000Y-90960000D03*
%TD*%
D32*
%TO.C,BT101*%
X147154805Y-120395196D03*
D33*
X161862626Y-105687375D03*
%TD*%
D34*
%TO.C,C137*%
X144125000Y-101050000D03*
X145085000Y-101050000D03*
%TD*%
%TO.C,C136*%
X144125000Y-100150000D03*
X145085000Y-100150000D03*
%TD*%
D28*
%TO.C,R145*%
X157650000Y-79330000D03*
X157650000Y-80350000D03*
%TD*%
%TO.C,R152*%
X155930000Y-88120000D03*
X155930000Y-89140000D03*
%TD*%
D26*
%TO.C,R122*%
X139900000Y-83710000D03*
X139900000Y-82690000D03*
%TD*%
D31*
%TO.C,TP118*%
X159300000Y-81950000D03*
%TD*%
D28*
%TO.C,R116*%
X190191911Y-87540000D03*
X190191911Y-88560000D03*
%TD*%
D26*
%TO.C,R124*%
X141855000Y-101110000D03*
X141855000Y-100090000D03*
%TD*%
D30*
%TO.C,R144*%
X157635000Y-83250000D03*
X156615000Y-83250000D03*
%TD*%
D35*
%TO.C,C144*%
X147450000Y-90470000D03*
X147450000Y-91430000D03*
%TD*%
D36*
%TO.C,U108*%
X155000000Y-90485000D03*
X155000000Y-91755000D03*
X155000000Y-93025000D03*
X155000000Y-94295000D03*
X150050000Y-94295000D03*
X150050000Y-93025000D03*
X150050000Y-91755000D03*
X150050000Y-90485000D03*
%TD*%
D35*
%TO.C,C145*%
X148350000Y-90470000D03*
X148350000Y-91430000D03*
%TD*%
D31*
%TO.C,TP117*%
X161550000Y-83850000D03*
%TD*%
D37*
%TO.C,D106*%
X142850000Y-86250000D03*
X139550000Y-86250000D03*
%TD*%
D30*
%TO.C,R112*%
X182501911Y-80575000D03*
X181481911Y-80575000D03*
%TD*%
D38*
%TO.C,U107*%
X145395000Y-98300000D03*
X144125000Y-98300000D03*
X142855000Y-98300000D03*
X141585000Y-98300000D03*
X140315000Y-98300000D03*
X139045000Y-98300000D03*
X137775000Y-98300000D03*
X136505000Y-98300000D03*
X136505000Y-89000000D03*
X137775000Y-89000000D03*
X139045000Y-89000000D03*
X140315000Y-89000000D03*
X141585000Y-89000000D03*
X142855000Y-89000000D03*
X144125000Y-89000000D03*
X145395000Y-89000000D03*
%TD*%
M02*
