%TF.GenerationSoftware,KiCad,Pcbnew,9.0.0*%
%TF.CreationDate,2025-06-25T10:36:29+02:00*%
%TF.ProjectId,Plantomatic2000,506c616e-746f-46d6-9174-696332303030,rev?*%
%TF.SameCoordinates,Original*%
%TF.FileFunction,Plated,1,4,PTH,Mixed*%
%TF.FilePolarity,Positive*%
%FSLAX46Y46*%
G04 Gerber Fmt 4.6, Leading zero omitted, Abs format (unit mm)*
G04 Created by KiCad (PCBNEW 9.0.0) date 2025-06-25 10:36:29*
%MOMM*%
%LPD*%
G01*
G04 APERTURE LIST*
%TA.AperFunction,ViaDrill*%
%ADD10C,0.200000*%
%TD*%
%TA.AperFunction,ComponentDrill*%
%ADD11C,0.200000*%
%TD*%
%TA.AperFunction,ViaDrill*%
%ADD12C,0.250000*%
%TD*%
%TA.AperFunction,ViaDrill*%
%ADD13C,0.300000*%
%TD*%
G04 aperture for slot hole*
%TA.AperFunction,ComponentDrill*%
%ADD14C,0.600000*%
%TD*%
%TA.AperFunction,ComponentDrill*%
%ADD15C,0.950000*%
%TD*%
%TA.AperFunction,ComponentDrill*%
%ADD16C,1.000000*%
%TD*%
%TA.AperFunction,ComponentDrill*%
%ADD17C,1.500000*%
%TD*%
%TA.AperFunction,ComponentDrill*%
%ADD18C,2.200000*%
%TD*%
G04 APERTURE END LIST*
D10*
X122760000Y-113825000D03*
X137100000Y-113350000D03*
X137100000Y-114050000D03*
X137750000Y-113350000D03*
X137750000Y-114050000D03*
X138400000Y-113350000D03*
X138400000Y-114050000D03*
X139000000Y-116400000D03*
X139000000Y-117000000D03*
X139350000Y-107450000D03*
X139350000Y-108100000D03*
X139350000Y-108750000D03*
X139350000Y-109350000D03*
X139350000Y-110000000D03*
X139650000Y-116400000D03*
X139650000Y-117000000D03*
X139850000Y-106800000D03*
X139950000Y-109350000D03*
X139950000Y-110000000D03*
X140250000Y-116400000D03*
X140250000Y-117000000D03*
X140550000Y-107400000D03*
X140550000Y-108100000D03*
X140550000Y-108750000D03*
X140900000Y-116400000D03*
X140900000Y-117000000D03*
X141550000Y-106750000D03*
X141550000Y-116400000D03*
X141550000Y-117000000D03*
X142250000Y-106050000D03*
X142475000Y-108350000D03*
X142500000Y-106800000D03*
X143125000Y-106050000D03*
X143450000Y-114650000D03*
X143450000Y-115250000D03*
X143450000Y-115900000D03*
X143450000Y-116500000D03*
X143750000Y-111625000D03*
X144100000Y-114650000D03*
X144100000Y-115250000D03*
X144100000Y-115900000D03*
X144100000Y-116500000D03*
X144925000Y-105925000D03*
X145250000Y-108350000D03*
X145250000Y-113150000D03*
X146050000Y-108350000D03*
X147450000Y-109475000D03*
X147857665Y-110081447D03*
X147900000Y-110700000D03*
X149475000Y-106075000D03*
X149475000Y-106650000D03*
X150375000Y-105950000D03*
X150775000Y-104500000D03*
X151480000Y-98820000D03*
X151875000Y-106300000D03*
X151875000Y-107200000D03*
X152325000Y-106750000D03*
X152750000Y-106275000D03*
X152750000Y-107175000D03*
X153200000Y-106725000D03*
X153350000Y-102600000D03*
X153700000Y-106275000D03*
X153700000Y-107175000D03*
X154150000Y-106725000D03*
X154575000Y-106250000D03*
X154575000Y-107150000D03*
X155025000Y-106700000D03*
X155525000Y-106250000D03*
X155525000Y-107150000D03*
X155975000Y-106700000D03*
X156400000Y-106225000D03*
X156400000Y-107125000D03*
X156850000Y-106675000D03*
X157025000Y-108225000D03*
X157325000Y-106250000D03*
X157325000Y-107150000D03*
X157575000Y-108750000D03*
X157775000Y-106700000D03*
X157800000Y-107800000D03*
X158200000Y-106225000D03*
X158200000Y-107125000D03*
X158400000Y-108450000D03*
X158650000Y-106675000D03*
X158850000Y-84175000D03*
X158950000Y-80350000D03*
X159200000Y-106250000D03*
X159200000Y-107150000D03*
X159650000Y-106700000D03*
X164550000Y-93700000D03*
X174500000Y-95750000D03*
X175125000Y-94000000D03*
X177750000Y-96700000D03*
X178127500Y-101182500D03*
X178625000Y-92275000D03*
X178665000Y-96670000D03*
X178927500Y-101182500D03*
X179777500Y-101182500D03*
X180616911Y-81575000D03*
X180950000Y-100575000D03*
X181525000Y-78925000D03*
X181540000Y-91045000D03*
X181825000Y-100600000D03*
X182025000Y-78450000D03*
X182475000Y-78925000D03*
X182527500Y-91232500D03*
X182725000Y-100575000D03*
X182900000Y-78450000D03*
X183286910Y-81850000D03*
X183540000Y-91045000D03*
X183900000Y-102800000D03*
X184100000Y-102025000D03*
X184727500Y-92082500D03*
X184775000Y-101275000D03*
X184825000Y-100575000D03*
X184850000Y-102125000D03*
X185475000Y-101650000D03*
X185500000Y-100800000D03*
X185650000Y-97075000D03*
X185675000Y-97975000D03*
X185900000Y-99950000D03*
X186111910Y-79225000D03*
X186300000Y-100575000D03*
X189150000Y-89575000D03*
X190050000Y-82285000D03*
X190191911Y-86640000D03*
X190200000Y-89375000D03*
X190875000Y-80750000D03*
X190925000Y-88025000D03*
X193075000Y-84200000D03*
X193075000Y-85221000D03*
D11*
%TO.C,U103*%
X148925000Y-84850000D03*
X148925000Y-86250000D03*
X149625000Y-84150000D03*
X149625000Y-85550000D03*
X149625000Y-86950000D03*
X150325000Y-84850000D03*
X150325000Y-86250000D03*
X151025000Y-84150000D03*
X151025000Y-85550000D03*
X151025000Y-86950000D03*
X151725000Y-84850000D03*
X151725000Y-86250000D03*
%TO.C,U106*%
X179766911Y-83400000D03*
X179766911Y-84450000D03*
X179766911Y-85500000D03*
X180866911Y-83400000D03*
X180866911Y-84450000D03*
X180866911Y-85500000D03*
%TO.C,U102*%
X181290000Y-93445000D03*
X181290000Y-94445000D03*
X181290000Y-95445000D03*
%TO.C,U106*%
X181966911Y-83400000D03*
X181966911Y-84450000D03*
X181966911Y-85500000D03*
%TO.C,U102*%
X182290000Y-93445000D03*
X182290000Y-94445000D03*
X182290000Y-95445000D03*
X183290000Y-93445000D03*
X183290000Y-94445000D03*
X183290000Y-95445000D03*
%TD*%
D12*
X115400000Y-101250000D03*
X115450000Y-95525000D03*
X115475000Y-98900000D03*
X115500000Y-94025000D03*
X115525000Y-120075000D03*
X115575000Y-84250000D03*
X115600000Y-105025000D03*
X115650000Y-117350000D03*
X115700000Y-122700000D03*
X115725000Y-86950000D03*
X115750000Y-103250000D03*
X115750000Y-107050000D03*
X115750000Y-111700000D03*
X115775000Y-109725000D03*
X115800000Y-114925000D03*
X115825000Y-81675000D03*
X115850000Y-90075000D03*
X115850000Y-91750000D03*
X115900000Y-88800000D03*
X116100000Y-113525000D03*
X116125000Y-100425000D03*
X116175000Y-97400000D03*
X116225000Y-124475000D03*
X116264151Y-79734311D03*
X116325000Y-85950000D03*
X116350000Y-118900000D03*
X116475000Y-121300000D03*
X116500000Y-116475000D03*
X116709662Y-93161527D03*
X116725000Y-96425000D03*
X116750000Y-82850000D03*
X116775000Y-108225000D03*
X116850000Y-109600000D03*
X116900000Y-111250000D03*
X116950000Y-91150000D03*
X116957168Y-105029453D03*
X117025000Y-106975000D03*
X117050000Y-77875000D03*
X117056171Y-103383537D03*
X117225000Y-125650000D03*
X117425000Y-83975000D03*
X117450000Y-89425000D03*
X117500000Y-85875000D03*
X117500000Y-112800000D03*
X117825000Y-80675000D03*
X117850000Y-79275000D03*
X118000000Y-124750000D03*
X118025000Y-101350000D03*
X118275000Y-106275000D03*
X118300000Y-90300000D03*
X118425000Y-97800000D03*
X118575000Y-104600000D03*
X118675000Y-77575000D03*
X118675000Y-81625000D03*
X118725000Y-108725000D03*
X118800000Y-125825000D03*
X119225000Y-124700000D03*
X119500000Y-114300000D03*
X119500000Y-118700000D03*
X119625000Y-97675000D03*
X119700000Y-82925000D03*
X119700000Y-112400000D03*
X119725000Y-90375000D03*
X119850000Y-116500000D03*
X120050000Y-86900000D03*
X120100000Y-101200000D03*
X120275000Y-121525000D03*
X120300000Y-111275000D03*
X120300000Y-122800000D03*
X120525000Y-125725000D03*
X120650000Y-124575000D03*
X120750000Y-95200000D03*
X120800000Y-102350000D03*
X121400000Y-82500000D03*
X121473935Y-97212000D03*
X121500000Y-87125000D03*
X121525000Y-94200000D03*
X121550000Y-110150000D03*
X121600000Y-111400000D03*
X121960000Y-120025000D03*
X122025000Y-124800000D03*
X122100000Y-121400000D03*
X122425000Y-102700000D03*
X122624839Y-88215146D03*
X122625000Y-126000000D03*
X122897319Y-111167609D03*
X122950000Y-97575000D03*
X123125000Y-96425000D03*
X123290000Y-117870000D03*
X123350000Y-124825000D03*
X123400000Y-100400000D03*
X123503486Y-90714960D03*
X123575000Y-123225000D03*
X123700000Y-112575000D03*
X123700000Y-116700000D03*
X123750000Y-84975000D03*
X123750000Y-86550000D03*
X123750993Y-82881386D03*
X123800000Y-88275000D03*
X123825000Y-109425000D03*
X123850000Y-98950000D03*
X123925000Y-91900000D03*
X123925000Y-95775000D03*
X123950000Y-97325000D03*
X123950000Y-104525000D03*
X124175000Y-102100000D03*
X124525000Y-77200000D03*
X124650000Y-81500000D03*
X124700000Y-125400000D03*
X125025000Y-78275000D03*
X125508287Y-80418698D03*
X126025000Y-77400000D03*
X126026000Y-117824000D03*
X126075000Y-125975000D03*
X126350000Y-79000000D03*
X126975000Y-84900000D03*
X126975000Y-104425000D03*
X127025000Y-106250000D03*
X127168889Y-92371471D03*
X127200000Y-96900000D03*
X127225000Y-117675000D03*
X127375000Y-100300000D03*
X127425000Y-98800000D03*
X127886657Y-93472874D03*
X127900000Y-86275000D03*
X127950000Y-79025000D03*
X127950000Y-125775000D03*
X128020476Y-77708504D03*
X128035161Y-104499280D03*
X128325000Y-97450000D03*
X128550000Y-117775000D03*
X128650000Y-109100000D03*
X128700000Y-120800000D03*
X128725000Y-124850000D03*
X128800000Y-115750000D03*
X129050000Y-112550000D03*
X129075000Y-114525000D03*
X129500000Y-77000000D03*
X129650000Y-125850000D03*
X129675000Y-104975000D03*
X130027586Y-82768227D03*
X130100000Y-118950000D03*
X130100000Y-124250000D03*
X130198531Y-97719388D03*
X130200000Y-87000000D03*
X130200000Y-94500000D03*
X130425000Y-122600000D03*
X130646352Y-108966768D03*
X130725000Y-77050000D03*
X130775000Y-112625000D03*
X130900000Y-120800000D03*
X130950000Y-102550000D03*
X130975000Y-114475000D03*
X131100000Y-124975000D03*
X131425000Y-80950000D03*
X131575000Y-94675000D03*
X131775000Y-87500000D03*
X131850000Y-117750000D03*
X131875000Y-77050000D03*
X131925000Y-97350000D03*
X132075000Y-82450000D03*
X132100000Y-80000000D03*
X132175000Y-126000000D03*
X132250000Y-116900000D03*
X132375000Y-124325000D03*
X132775000Y-86750000D03*
X132948161Y-80936681D03*
X133400000Y-77075000D03*
X133500000Y-125225000D03*
X133665929Y-95440549D03*
X133775000Y-79925000D03*
X133950000Y-85225000D03*
X133975000Y-83525000D03*
X134025000Y-92075000D03*
X134400000Y-126025000D03*
X134475000Y-77075000D03*
X134600000Y-80850000D03*
X134600000Y-104850000D03*
X135100000Y-84525000D03*
X135125000Y-93925000D03*
X135575000Y-105125000D03*
X135625000Y-102725000D03*
X135900000Y-83700000D03*
X136075000Y-87050000D03*
X136125000Y-100325000D03*
X136200000Y-85250000D03*
X136275000Y-110075000D03*
X136410000Y-102280000D03*
X136700000Y-116400000D03*
X136825000Y-82710000D03*
X137075000Y-108300000D03*
X137200000Y-118575000D03*
X137200000Y-120300000D03*
X137400000Y-76900000D03*
X137450000Y-109525000D03*
X137700000Y-123050000D03*
X137725000Y-99975000D03*
X137750000Y-87025000D03*
X138025000Y-85310000D03*
X138775000Y-120675000D03*
X138850000Y-100400000D03*
X139000000Y-123300000D03*
X139175000Y-84410000D03*
X139625000Y-119100000D03*
X139700000Y-104250000D03*
X140050000Y-105600000D03*
X140175000Y-77100000D03*
X140284497Y-121102036D03*
X140333914Y-99984070D03*
X140425000Y-80960000D03*
X140510000Y-82710000D03*
X140525000Y-104675000D03*
X140625000Y-122950000D03*
X141300000Y-77050000D03*
X141525000Y-118825000D03*
X141550000Y-86250000D03*
X141600000Y-94300000D03*
X141700000Y-123325000D03*
X142125000Y-120500000D03*
X143075000Y-76925000D03*
X143152049Y-123021999D03*
X143932090Y-120104072D03*
X144397517Y-102097517D03*
X144500000Y-77100000D03*
X144575000Y-123325000D03*
X144800000Y-83000000D03*
X144975000Y-79975000D03*
X145200000Y-121200000D03*
X145400000Y-119300000D03*
X145700000Y-76975000D03*
X145900000Y-122950000D03*
X146100000Y-86400000D03*
X146183207Y-94116793D03*
X146350000Y-100600000D03*
X146800000Y-85500000D03*
X146852731Y-96787572D03*
X147450000Y-89650000D03*
X147525000Y-123300000D03*
X147625000Y-77025000D03*
X147625000Y-79425000D03*
X147850000Y-102200000D03*
X147925000Y-99075000D03*
X147975000Y-100925000D03*
X148125000Y-81100000D03*
X148525000Y-108350000D03*
X148850000Y-101050000D03*
X149050000Y-76950000D03*
X149050000Y-123025000D03*
X149207916Y-79506483D03*
X149800000Y-81075000D03*
X149905000Y-100345000D03*
X150625000Y-77025000D03*
X150800000Y-123225000D03*
X151101340Y-79147599D03*
X151550000Y-91755000D03*
X151675000Y-92800000D03*
X151725000Y-94125000D03*
X152025000Y-81075000D03*
X152100000Y-76950000D03*
X152400000Y-79400000D03*
X152475000Y-89300000D03*
X152500000Y-123250000D03*
X152850000Y-98000000D03*
X153050000Y-87900000D03*
X153200000Y-103475000D03*
X153350000Y-85475000D03*
X153600000Y-93800000D03*
X153650000Y-86375000D03*
X153650000Y-110975000D03*
X153750000Y-87300000D03*
X153850000Y-77050000D03*
X153925000Y-123125000D03*
X154100000Y-81075000D03*
X154175000Y-79525000D03*
X154250000Y-82650000D03*
X154550000Y-86425000D03*
X154700000Y-87300000D03*
X155190110Y-111467042D03*
X155225000Y-76875000D03*
X155500000Y-83175000D03*
X155600000Y-87300000D03*
X155600000Y-114200000D03*
X155625000Y-119850000D03*
X155654908Y-102184265D03*
X155675000Y-123150000D03*
X156000000Y-97875000D03*
X156025000Y-117925000D03*
X156050000Y-81150000D03*
X156050000Y-115450000D03*
X156350000Y-100950000D03*
X156351019Y-98815085D03*
X156700000Y-79350000D03*
X156700000Y-111625000D03*
X156700000Y-119100000D03*
X156725000Y-77025000D03*
X156749399Y-114140110D03*
X156900000Y-116900000D03*
X157050000Y-92825000D03*
X157050000Y-93925000D03*
X157150000Y-115750000D03*
X157525000Y-123025000D03*
X157550000Y-104075000D03*
X157556889Y-118261089D03*
X157600000Y-82300000D03*
X157650000Y-89950000D03*
X157775000Y-111550000D03*
X157900000Y-100800000D03*
X157975000Y-121925000D03*
X158058089Y-113778132D03*
X158100000Y-87050000D03*
X158120203Y-76928241D03*
X158125000Y-93125000D03*
X158325000Y-91125000D03*
X158450000Y-84850000D03*
X158650000Y-94250000D03*
X158725000Y-92225000D03*
X158875000Y-86375000D03*
X159107620Y-104133377D03*
X159200000Y-79100000D03*
X159250000Y-123050000D03*
X159350000Y-76825000D03*
X159350000Y-78250000D03*
X159425000Y-97550000D03*
X159425000Y-101250000D03*
X159925000Y-95525000D03*
X160075000Y-98300000D03*
X160200000Y-102550000D03*
X160550000Y-76800000D03*
X160575000Y-123275000D03*
X160654759Y-104103013D03*
X160700000Y-101200000D03*
X161474399Y-102323487D03*
X161808533Y-100485753D03*
X162000000Y-108000000D03*
X162175000Y-86725000D03*
X162200000Y-76825000D03*
X162225000Y-123075000D03*
X162300000Y-103700000D03*
X162475000Y-108825000D03*
X162600000Y-101600000D03*
X163125000Y-86425000D03*
X163235000Y-92400000D03*
X163400000Y-78100000D03*
X163500000Y-94700000D03*
X163725000Y-123125000D03*
X163950000Y-80600000D03*
X163975000Y-83975000D03*
X164000000Y-79800000D03*
X164075000Y-76900000D03*
X164200000Y-87100000D03*
X164450000Y-96450000D03*
X164500000Y-100800000D03*
X164500000Y-108225000D03*
X164575000Y-106925000D03*
X164900000Y-78100000D03*
X164975000Y-85050000D03*
X165050000Y-123125000D03*
X165075000Y-104600000D03*
X165100000Y-93300000D03*
X165575000Y-88325000D03*
X165600000Y-94500000D03*
X165600000Y-105825000D03*
X165650000Y-89950000D03*
X165700000Y-99750000D03*
X165725000Y-77100000D03*
X165800000Y-78800000D03*
X165825000Y-101025000D03*
X165925000Y-108375000D03*
X166300000Y-107075000D03*
X166575000Y-89300000D03*
X166600000Y-83700000D03*
X166775000Y-86775000D03*
X167025000Y-123025000D03*
X167400000Y-102700000D03*
X167425000Y-105750000D03*
X167475000Y-76825000D03*
X167550000Y-104375000D03*
X167700000Y-98450000D03*
X168100000Y-121550000D03*
X168250000Y-88325000D03*
X168400000Y-85800000D03*
X168500000Y-105200000D03*
X168650000Y-118000000D03*
X168700000Y-109900000D03*
X168725000Y-122775000D03*
X168775000Y-114175000D03*
X168875000Y-115850000D03*
X168900000Y-96800000D03*
X168900000Y-98600000D03*
X168925000Y-119600000D03*
X168950000Y-91750000D03*
X169225000Y-86800000D03*
X169241614Y-89280798D03*
X169400000Y-76900000D03*
X169400000Y-82525000D03*
X169500000Y-99800000D03*
X169500000Y-105250000D03*
X169500000Y-112800000D03*
X169725000Y-121550000D03*
X169750000Y-78650000D03*
X169875000Y-92775000D03*
X169900000Y-96200000D03*
X169900000Y-97900000D03*
X169900000Y-118100000D03*
X170025000Y-108900000D03*
X170150000Y-87725000D03*
X170225000Y-90350000D03*
X170575000Y-122875000D03*
X170600000Y-99500000D03*
X170650000Y-82525000D03*
X170668495Y-83327764D03*
X170700000Y-119950000D03*
X170750000Y-76850000D03*
X170900000Y-96900000D03*
X171304458Y-118158914D03*
X171450000Y-121525000D03*
X171550000Y-89025000D03*
X172225000Y-77075000D03*
X172400000Y-82000000D03*
X172500000Y-92600000D03*
X172500000Y-102700000D03*
X172583640Y-122743554D03*
X172600000Y-83850000D03*
X172625000Y-119900000D03*
X172650000Y-85800000D03*
X172766911Y-84775000D03*
X172800000Y-90125000D03*
X172950000Y-115750000D03*
X173325000Y-118300000D03*
X173400000Y-121500000D03*
X173500000Y-103800000D03*
X173500000Y-109850000D03*
X173560820Y-102604296D03*
X173600000Y-93800000D03*
X173675000Y-76900000D03*
X173733853Y-90840088D03*
X174000000Y-112050000D03*
X174100000Y-80100000D03*
X174150000Y-122775000D03*
X174325000Y-114925000D03*
X174441911Y-82250000D03*
X174500000Y-110900000D03*
X174625000Y-77125000D03*
X174800000Y-78050000D03*
X174800000Y-121000000D03*
X174875000Y-117325000D03*
X175150000Y-106900000D03*
X175450000Y-109250000D03*
X175700000Y-93300000D03*
X175747196Y-115819980D03*
X175750000Y-110725000D03*
X175800000Y-76875000D03*
X176550000Y-88849000D03*
X176600000Y-91600000D03*
X176600000Y-105400000D03*
X176700000Y-108160000D03*
X177200000Y-103400000D03*
X177475000Y-76550000D03*
X177800000Y-93600000D03*
X178000000Y-110425000D03*
X178191911Y-89400000D03*
X178277500Y-99832500D03*
X178300000Y-107000000D03*
X178677500Y-104732500D03*
X179500000Y-105300000D03*
X179700000Y-113000000D03*
X179738552Y-76673981D03*
X180259753Y-111175034D03*
X180400000Y-77325000D03*
X180437440Y-115956108D03*
X180800000Y-114150000D03*
X181400000Y-110000000D03*
X181450000Y-124150000D03*
X181700000Y-125525000D03*
X181875000Y-122650000D03*
X181885352Y-117812405D03*
X181975000Y-76725000D03*
X182132858Y-112441519D03*
X182175000Y-88875000D03*
X182200000Y-115800000D03*
X182300000Y-107088772D03*
X182625000Y-114025000D03*
X182825000Y-119250000D03*
X182900000Y-126100000D03*
X182920446Y-110754274D03*
X182975000Y-124325000D03*
X183000000Y-105975000D03*
X183200000Y-86800000D03*
X183600000Y-117050000D03*
X183750000Y-76775000D03*
X183750000Y-99950000D03*
X183750000Y-100700000D03*
X183875000Y-105225000D03*
X183875000Y-105975000D03*
X183875000Y-122425000D03*
X183891911Y-85775000D03*
X183914903Y-115139337D03*
X184200000Y-120525000D03*
X184270219Y-113283776D03*
X184300000Y-125650000D03*
X184425000Y-77250000D03*
X184750000Y-105975000D03*
X184950000Y-118675000D03*
X184950000Y-124150000D03*
X184966805Y-112020758D03*
X185825000Y-126000000D03*
X185900000Y-85400000D03*
X185937500Y-87350000D03*
X185950000Y-90400000D03*
X186000000Y-117025000D03*
X186075000Y-114725000D03*
X186150000Y-83600000D03*
X186300000Y-105700000D03*
X186300000Y-107000000D03*
X186300000Y-109900000D03*
X186325000Y-120075000D03*
X186450000Y-76675000D03*
X186900000Y-99000000D03*
X187300000Y-106900000D03*
X187400000Y-78950000D03*
X187400000Y-103100000D03*
X187700000Y-110800000D03*
X188025000Y-120775000D03*
X188125000Y-124100000D03*
X188275000Y-119675000D03*
X188300000Y-97900000D03*
X188450000Y-78950000D03*
X188525000Y-76775000D03*
X188550000Y-93950000D03*
X188700000Y-92400000D03*
X188900000Y-111000000D03*
X188900000Y-112050000D03*
X189200000Y-124825000D03*
X189291911Y-82800000D03*
X189400000Y-105600000D03*
X189450000Y-78950000D03*
X189500000Y-104000000D03*
X189700000Y-90500000D03*
X189750000Y-109750000D03*
X190018313Y-76781234D03*
X190400000Y-93700000D03*
X190400000Y-120675000D03*
X190825000Y-124125000D03*
X191250000Y-91700000D03*
X191300000Y-90500000D03*
X191300000Y-103600000D03*
X191650000Y-119700000D03*
X192000000Y-105200000D03*
X192050000Y-96550000D03*
X192325000Y-103025000D03*
X192400000Y-76700000D03*
X192550000Y-118825000D03*
X192600000Y-97400000D03*
X192800000Y-120675000D03*
X192900000Y-90500000D03*
X192925000Y-101800000D03*
X192975000Y-104075000D03*
X192975000Y-117050000D03*
X193300000Y-96000000D03*
X193350000Y-102925000D03*
X193400000Y-109150000D03*
X193575000Y-93575000D03*
X193700000Y-92400000D03*
X194375000Y-114900000D03*
X194450000Y-103350000D03*
X194600000Y-87775000D03*
X194725000Y-88875000D03*
X194890253Y-92943600D03*
X194902437Y-76715232D03*
X195075000Y-90500000D03*
X195150000Y-116750000D03*
X195225000Y-118400000D03*
X195275000Y-120375000D03*
X195600000Y-81400000D03*
X195625000Y-86850000D03*
X195675000Y-83850000D03*
X195700000Y-99525000D03*
X195925000Y-77900000D03*
X196250000Y-125925000D03*
X196275000Y-90725000D03*
X196475000Y-77150000D03*
X196525000Y-85075000D03*
X196550000Y-82225000D03*
X196775000Y-101000000D03*
X196825000Y-99375000D03*
X196875000Y-95500000D03*
X197146494Y-86565982D03*
X197250000Y-78200000D03*
X197360999Y-83463904D03*
X197526003Y-82061368D03*
X197675000Y-124575000D03*
X197750000Y-90600000D03*
X197800000Y-85550000D03*
D13*
X148350000Y-92300000D03*
X152270000Y-111390000D03*
X188180000Y-114000000D03*
D14*
%TO.C,J103*%
X191961911Y-80130000D02*
X193061911Y-80130000D01*
X191961911Y-88770000D02*
X193061911Y-88770000D01*
X196281911Y-80130000D02*
X197081911Y-80130000D01*
X196281911Y-88770000D02*
X197081911Y-88770000D01*
D15*
%TO.C,Water Sig*%
X117975000Y-115125000D03*
X117975000Y-117625000D03*
X117975000Y-120125000D03*
X117975000Y-122625000D03*
%TO.C,PMIC LED B R G*%
X186560000Y-122330000D03*
X189060000Y-122330000D03*
X191560000Y-122330000D03*
X194060000Y-122330000D03*
%TO.C,OLED*%
X194950000Y-105200000D03*
X194950000Y-107700000D03*
X194950000Y-110200000D03*
X194950000Y-112700000D03*
D16*
%TO.C,PLED*%
X119000000Y-99675000D03*
%TO.C,SEL*%
X119050000Y-84750000D03*
%TO.C,MIN*%
X119050000Y-92200000D03*
%TO.C,PLED*%
X121500000Y-99675000D03*
%TO.C,SEL*%
X121550000Y-84750000D03*
%TO.C,MIN*%
X121550000Y-92200000D03*
%TO.C,START*%
X129100000Y-99775000D03*
%TO.C,HOUR*%
X129200000Y-92225000D03*
%TO.C,RST*%
X129225000Y-84800000D03*
%TO.C,START*%
X131600000Y-99775000D03*
%TO.C,HOUR*%
X131700000Y-92225000D03*
%TO.C,RST*%
X131725000Y-84800000D03*
%TO.C,PUMP.1*%
X132450000Y-122300000D03*
X134950000Y-122300000D03*
%TO.C,BATT - +*%
X172400000Y-98427813D03*
X172400000Y-100927813D03*
%TO.C,PUMP.2*%
X176725000Y-122325000D03*
X179225000Y-122325000D03*
%TO.C,S.WAKE*%
X195050000Y-94750000D03*
X195050000Y-97250000D03*
D17*
%TO.C,BT101*%
X147154805Y-120395196D03*
X161862626Y-105687375D03*
D18*
%TO.C,H101*%
X121600000Y-79400000D03*
%TO.C,H102*%
X121600000Y-106900000D03*
%TO.C,H103*%
X126600000Y-122900000D03*
%TO.C,H104*%
X177600000Y-79400000D03*
%TO.C,H106*%
X189600000Y-100900000D03*
%TO.C,H105*%
X189600000Y-116900000D03*
M02*
