M48
;Layer_Color=9474304
;FILE_FORMAT=2:4
INCH,TZ
;TYPE=PLATED
T01F00S00C0.0098
T02F00S00C0.0120
%
T01
X-3465Y-2362
Y-1516
Y-669
Y177
Y1024
Y1870
Y2717
X-2441Y2717
Y2087
X-1029
X-1063Y2717
X-197Y2362
X630Y2047
Y2717
X1732
X2756
Y1142
Y246
Y-246
Y-1142
X1850Y-787
Y-512
X1614Y-197
X827Y-1260
X-98Y-1260
X-344Y-1945
X197Y-1929
X-1673Y-1516
Y-837
X-1742Y98
X-1457Y98
X-2116Y-20
X-2559
Y-669
Y-1516
Y-2362
X-1673
X-1319Y925
X-689Y1260
X-512Y1496
X412Y1368
T02
X-472Y-472
X0
X472
Y0
Y472
X0
X-472
Y0
X0
M30
