G04*
G04 #@! TF.GenerationSoftware,Altium Limited,Altium Designer,23.8.1 (32)*
G04*
G04 Layer_Physical_Order=4*
G04 Layer_Color=13137664*
%FSLAX24Y24*%
%MOIN*%
G70*
G04*
G04 #@! TF.SameCoordinates,16FD29FA-45A6-4C5D-B260-EA82704FEE3D*
G04*
G04*
G04 #@! TF.FilePolarity,Positive*
G04*
G01*
G75*
%ADD12C,0.0079*%
%ADD32C,0.0118*%
%ADD33C,0.0240*%
%ADD34C,0.0197*%
G36*
X2889Y-2495D02*
X-3578D01*
Y2889D01*
X-709D01*
X-698Y2882D01*
X-671Y2843D01*
X-667Y2830D01*
X-670Y2816D01*
X-671Y2795D01*
Y1614D01*
X-674Y1611D01*
X-686Y1592D01*
X-695Y1572D01*
X-703Y1551D01*
X-708Y1529D01*
X-710Y1507D01*
Y1485D01*
X-722Y1456D01*
X-744Y1451D01*
X-765Y1443D01*
X-785Y1434D01*
X-804Y1422D01*
X-821Y1408D01*
X-837Y1392D01*
X-851Y1375D01*
X-863Y1356D01*
X-873Y1336D01*
X-880Y1315D01*
X-885Y1293D01*
X-887Y1271D01*
Y1249D01*
X-885Y1227D01*
X-880Y1205D01*
X-873Y1184D01*
X-863Y1164D01*
X-851Y1145D01*
X-837Y1127D01*
X-821Y1112D01*
X-804Y1098D01*
X-785Y1086D01*
X-765Y1076D01*
X-744Y1069D01*
X-722Y1064D01*
X-718Y1063D01*
X-634Y980D01*
X-619Y966D01*
X-601Y954D01*
X-583Y945D01*
X-563Y939D01*
X-542Y934D01*
X-522Y933D01*
X924D01*
X928Y933D01*
X956D01*
X1455Y435D01*
Y100D01*
X787D01*
X772Y99D01*
X756Y95D01*
X742Y89D01*
X728Y81D01*
X716Y71D01*
X706Y59D01*
X698Y46D01*
X692Y31D01*
X688Y16D01*
X687Y0D01*
Y-510D01*
X588Y-608D01*
X-588D01*
X-687Y-510D01*
Y236D01*
X-688Y252D01*
X-692Y267D01*
X-698Y282D01*
X-706Y295D01*
X-716Y307D01*
X-728Y317D01*
X-742Y326D01*
X-756Y332D01*
X-772Y335D01*
X-787Y337D01*
X-1890D01*
X-1905Y335D01*
X-1921Y332D01*
X-1935Y326D01*
X-1949Y317D01*
X-1961Y307D01*
X-1971Y295D01*
X-1979Y282D01*
X-1985Y267D01*
X-1989Y252D01*
X-1990Y236D01*
Y-354D01*
X-1989Y-370D01*
X-1985Y-385D01*
X-1979Y-400D01*
X-1971Y-413D01*
X-1961Y-425D01*
X-1252Y-1134D01*
X-1240Y-1144D01*
X-1227Y-1152D01*
X-1212Y-1158D01*
X-1197Y-1162D01*
X-1181Y-1163D01*
X-337D01*
X-317Y-1181D01*
X-293Y-1222D01*
X-294Y-1227D01*
X-297Y-1249D01*
Y-1271D01*
X-294Y-1293D01*
X-289Y-1315D01*
X-282Y-1336D01*
X-272Y-1356D01*
X-261Y-1375D01*
X-247Y-1392D01*
X-238Y-1401D01*
Y-1634D01*
X-237Y-1652D01*
X-233Y-1670D01*
X-227Y-1687D01*
X-219Y-1704D01*
X-209Y-1719D01*
X-197Y-1733D01*
X-2Y-1928D01*
Y-1940D01*
X1Y-1962D01*
X6Y-1984D01*
X13Y-2005D01*
X23Y-2025D01*
X35Y-2044D01*
X49Y-2062D01*
X64Y-2077D01*
X82Y-2091D01*
X101Y-2103D01*
X121Y-2113D01*
X142Y-2120D01*
X164Y-2125D01*
X186Y-2128D01*
X208D01*
X230Y-2125D01*
X252Y-2120D01*
X273Y-2113D01*
X293Y-2103D01*
X312Y-2091D01*
X329Y-2077D01*
X345Y-2062D01*
X359Y-2044D01*
X371Y-2025D01*
X380Y-2005D01*
X388Y-1984D01*
X393Y-1962D01*
X395Y-1940D01*
Y-1918D01*
X393Y-1896D01*
X388Y-1874D01*
X380Y-1853D01*
X371Y-1833D01*
X359Y-1814D01*
X345Y-1797D01*
X329Y-1781D01*
X312Y-1767D01*
X293Y-1755D01*
X273Y-1746D01*
X252Y-1738D01*
X230Y-1733D01*
X208Y-1731D01*
X196D01*
X41Y-1576D01*
Y-1401D01*
X50Y-1392D01*
X64Y-1375D01*
X76Y-1356D01*
X85Y-1336D01*
X93Y-1315D01*
X98Y-1293D01*
X100Y-1271D01*
Y-1249D01*
X98Y-1227D01*
X97Y-1222D01*
X120Y-1181D01*
X140Y-1163D01*
X1299D01*
X1315Y-1162D01*
X1330Y-1158D01*
X1345Y-1152D01*
X1358Y-1144D01*
X1370Y-1134D01*
X1498Y-1006D01*
X2008D01*
X2024Y-1005D01*
X2039Y-1001D01*
X2053Y-995D01*
X2067Y-987D01*
X2079Y-976D01*
X2089Y-964D01*
X2097Y-951D01*
X2103Y-937D01*
X2107Y-921D01*
X2108Y-906D01*
Y0D01*
X2107Y16D01*
X2103Y31D01*
X2097Y46D01*
X2089Y59D01*
X2079Y71D01*
X2067Y81D01*
X2053Y89D01*
X2039Y95D01*
X2024Y99D01*
X2008Y100D01*
X1774D01*
Y501D01*
X1772Y521D01*
X1768Y542D01*
X1761Y562D01*
X1752Y580D01*
X1741Y598D01*
X1727Y613D01*
X1135Y1206D01*
X1119Y1219D01*
X1102Y1231D01*
X1083Y1240D01*
X1063Y1247D01*
X1043Y1251D01*
X1022Y1252D01*
X924D01*
X920Y1252D01*
X-411D01*
X-437Y1308D01*
X-436Y1312D01*
X-416Y1322D01*
X-397Y1334D01*
X-379Y1348D01*
X-364Y1364D01*
X-350Y1381D01*
X-338Y1400D01*
X-328Y1420D01*
X-321Y1441D01*
X-316Y1463D01*
X-313Y1485D01*
Y1507D01*
X-316Y1529D01*
X-321Y1551D01*
X-328Y1572D01*
X-338Y1592D01*
X-350Y1611D01*
X-352Y1614D01*
Y2795D01*
X-354Y2816D01*
X-356Y2830D01*
X-353Y2843D01*
X-326Y2882D01*
X-315Y2889D01*
X2889D01*
Y-2495D01*
D02*
G37*
G36*
X-787Y-551D02*
X-630Y-709D01*
X630D01*
X787Y-551D01*
Y0D01*
X2008D01*
Y-906D01*
X1457D01*
X1299Y-1063D01*
X-1181D01*
X-1890Y-354D01*
Y236D01*
X-787D01*
Y-551D01*
D02*
G37*
D12*
X-98Y-1634D02*
X197Y-1929D01*
X-98Y-1634D02*
Y-1260D01*
D32*
X1614Y-197D02*
Y501D01*
X924Y1093D02*
X924Y1093D01*
X-522Y1093D02*
X924D01*
X1022Y1093D02*
X1614Y501D01*
X924Y1093D02*
X1022D01*
X-512Y1496D02*
Y2795D01*
X-689Y1260D02*
X-522Y1093D01*
D33*
X472Y472D02*
D03*
Y0D02*
D03*
Y-472D02*
D03*
X0D02*
D03*
X-472D02*
D03*
Y0D02*
D03*
Y472D02*
D03*
X0D02*
D03*
Y0D02*
D03*
D34*
X412Y1368D02*
D03*
X-197Y2362D02*
D03*
X-512Y1496D02*
D03*
X-344Y-1945D02*
D03*
X197Y-1929D02*
D03*
X-689Y1260D02*
D03*
X827Y-1260D02*
D03*
X2756Y1142D02*
D03*
Y246D02*
D03*
Y-246D02*
D03*
Y-1142D02*
D03*
X1614Y-197D02*
D03*
X1850Y-787D02*
D03*
Y-512D02*
D03*
X-98Y-1260D02*
D03*
X-1673Y-837D02*
D03*
X-2116Y-20D02*
D03*
X-2559D02*
D03*
Y-669D02*
D03*
X630Y2717D02*
D03*
Y2047D02*
D03*
X1732Y2717D02*
D03*
X-1029Y2087D02*
D03*
X-2441D02*
D03*
X-1673Y-2362D02*
D03*
X-2559D02*
D03*
X-3465D02*
D03*
Y-1516D02*
D03*
Y2717D02*
D03*
X-1063Y2717D02*
D03*
X-2441D02*
D03*
X-3465Y1870D02*
D03*
Y1024D02*
D03*
X2756Y2717D02*
D03*
X-2559Y-1516D02*
D03*
X-1673D02*
D03*
X-1319Y925D02*
D03*
X-3465Y-669D02*
D03*
X-1457Y98D02*
D03*
X-1742Y98D02*
D03*
X-3465Y177D02*
D03*
M02*
