G04*
G04 #@! TF.GenerationSoftware,Altium Limited,Altium Designer,23.8.1 (32)*
G04*
G04 Layer_Color=8388736*
%FSLAX24Y24*%
%MOIN*%
G70*
G04*
G04 #@! TF.SameCoordinates,16FD29FA-45A6-4C5D-B260-EA82704FEE3D*
G04*
G04*
G04 #@! TF.FilePolarity,Negative*
G04*
G01*
G75*
%ADD24R,0.0777X0.0505*%
%ADD25R,0.0375X0.0355*%
%ADD26R,0.0355X0.0375*%
%ADD27R,0.0178X0.0166*%
%ADD28R,0.0157X0.0146*%
%ADD29R,0.1438X0.1438*%
%ADD30O,0.0395X0.0178*%
%ADD31O,0.0178X0.0395*%
D24*
X-2480Y449D02*
D03*
Y1146D02*
D03*
D25*
X-1742Y876D02*
D03*
Y344D02*
D03*
X-197Y1506D02*
D03*
Y2037D02*
D03*
D26*
X1850Y-246D02*
D03*
X2382D02*
D03*
Y1146D02*
D03*
X1850D02*
D03*
X2382Y-1142D02*
D03*
X1850D02*
D03*
X-1742Y1437D02*
D03*
X-1211D02*
D03*
X2382Y246D02*
D03*
X1850D02*
D03*
D27*
X1024Y-1463D02*
D03*
Y-1687D02*
D03*
X79D02*
D03*
Y-1463D02*
D03*
X315Y-1687D02*
D03*
Y-1463D02*
D03*
D28*
X-236Y-1687D02*
D03*
Y-1463D02*
D03*
D29*
X-0Y0D02*
D03*
D30*
X-965Y689D02*
D03*
Y492D02*
D03*
Y295D02*
D03*
Y98D02*
D03*
Y-98D02*
D03*
Y-295D02*
D03*
Y-492D02*
D03*
Y-689D02*
D03*
X965D02*
D03*
Y-492D02*
D03*
Y-295D02*
D03*
Y-98D02*
D03*
Y98D02*
D03*
Y295D02*
D03*
Y492D02*
D03*
Y689D02*
D03*
D31*
X-689Y-965D02*
D03*
X-492D02*
D03*
X-295D02*
D03*
X-98D02*
D03*
X98D02*
D03*
X295D02*
D03*
X689D02*
D03*
Y965D02*
D03*
X492D02*
D03*
X295D02*
D03*
X98D02*
D03*
X-98D02*
D03*
X-295D02*
D03*
X-492D02*
D03*
X-689D02*
D03*
X492Y-965D02*
D03*
M02*
